<svg width="195" height="36" viewBox="0 0 195 36" fill="none" xmlns="http://www.w3.org/2000/svg">
<path d="M4.68502 21.4864L0 24.716C0.704284 26.1813 1.68416 27.5419 2.93962 28.7978C4.19508 30.0538 5.66489 31.0556 7.34905 31.8032C9.06382 32.5209 10.9011 32.8797 12.8608 32.8797C14.3306 32.8797 15.7239 32.6554 17.0406 32.2069C18.3879 31.7882 19.5975 31.1752 20.6692 30.3678C21.7409 29.5305 22.583 28.5138 23.1954 27.3176C23.8078 26.1215 24.1141 24.7608 24.1141 23.2357C24.1141 21.8901 23.8844 20.7089 23.4251 19.6921C22.9964 18.6455 22.384 17.7484 21.5878 17.0008C20.8223 16.2233 19.9496 15.5654 18.9697 15.0272C18.0205 14.4889 17.0253 14.0403 15.9842 13.6815C14.3613 13.1432 13.0139 12.6199 11.9422 12.1115C10.8705 11.5733 10.0743 11.02 9.55376 10.4519C9.0332 9.85379 8.77292 9.166 8.77292 8.38851C8.77292 7.61101 9.09445 6.93817 9.73749 6.37C10.3805 5.77192 11.3451 5.47289 12.6312 5.47289C13.611 5.47289 14.4837 5.66726 15.2493 6.05601C16.0148 6.41485 16.6885 6.90827 17.2703 7.53625C17.8827 8.13432 18.4032 8.80716 18.8319 9.55475L23.9763 6.7737C23.4251 5.66726 22.6442 4.60568 21.6338 3.58895C20.6539 2.54231 19.4137 1.69005 17.9133 1.03217C16.4435 0.344382 14.6828 0.000488281 12.6312 0.000488281C10.6408 0.000488281 8.83417 0.359335 7.21125 1.07703C5.61896 1.76481 4.34819 2.76659 3.39893 4.08236C2.4803 5.36822 2.02099 6.90827 2.02099 8.70249C2.02099 10.1977 2.31189 11.4836 2.89369 12.5601C3.47549 13.6067 4.21039 14.5038 5.0984 15.2514C5.98641 15.9691 6.92035 16.5672 7.90023 17.0457C8.91072 17.4942 9.79873 17.8531 10.5643 18.1222C12.0034 18.6605 13.213 19.1688 14.1928 19.6473C15.2033 20.0958 15.9536 20.6192 16.4435 21.2172C16.964 21.8153 17.2243 22.6078 17.2243 23.5946C17.2243 24.7309 16.8109 25.628 15.9842 26.2859C15.1574 26.9438 14.0857 27.2728 12.769 27.2728C11.636 27.2728 10.5796 27.0335 9.59969 26.5551C8.61982 26.0766 7.7165 25.4038 6.88973 24.5366C6.09358 23.6694 5.35868 22.6526 4.68502 21.4864Z" fill="#303030"/>
<path d="M96.8794 0.80249L90.2562 13.402L83.6768 0.80249H76.5271L87.098 19.1656V32.0779H93.4582V19.1209L104.029 0.80249H96.8794Z" fill="#303030"/>
<path d="M72.1429 26.6717V32.0779H53.4097V0.80249H72.1429V6.20866H59.7472V12.8212H69.3109V18.138H59.7472V26.6717H72.1429Z" fill="#303030"/>
<path d="M47.2316 26.6717V32.0779H29.2955V0.80249H47.2316V6.20866H35.3875V12.8212H44.5094V18.138H35.3875V26.6717H47.2316Z" fill="#303030"/>
<path fill-rule="evenodd" clip-rule="evenodd" d="M127.6 9.53046C129.228 11.3534 130.212 13.7896 130.212 16.4399C130.212 21.9945 125.892 26.6084 120.371 26.6084C114.849 26.6084 110.53 21.9945 110.53 16.4399C110.53 10.923 114.791 6.33408 120.259 6.27208V0.000488281C111.271 0.0609923 104.029 7.38416 104.029 16.4399C104.029 25.5333 111.332 32.8797 120.371 32.8797C129.41 32.8797 136.713 25.5333 136.713 16.4399C136.713 12.5962 135.408 9.06467 133.219 6.26812L127.6 9.53046Z" fill="#303030"/>
<path d="M141.097 0.80249V21.1336C141.097 22.9216 141.395 24.4933 141.99 25.8487C142.584 27.2041 143.417 28.3433 144.488 29.2661C145.559 30.1889 146.823 30.8811 148.281 31.3425C149.738 31.8327 151.329 32.0779 153.055 32.0779C154.75 32.0779 156.327 31.8327 157.784 31.3425C159.242 30.8811 160.506 30.1889 161.576 29.2661C162.677 28.3433 163.525 27.2041 164.12 25.8487C164.715 24.4933 165.012 22.9216 165.012 21.1336V0.80249H158.632V20.7443C158.632 22.4746 158.156 23.8733 157.204 24.9403C156.282 25.9785 154.899 26.4976 153.055 26.4976C151.21 26.4976 149.812 25.9785 148.861 24.9403C147.939 23.8733 147.477 22.4746 147.477 20.7443V0.80249H141.097Z" fill="#303030"/>
<rect x="161.381" y="19.4153" width="32.237" height="15.17" rx="7.585" fill="#7058FF"/>
<path d="M168.591 23.4453C169.211 23.4453 169.721 23.5053 170.121 23.6253C170.521 23.7386 170.818 23.9286 171.011 24.1953C171.204 24.4553 171.301 24.8086 171.301 25.2553C171.301 25.5219 171.254 25.7653 171.161 25.9853C171.068 26.2053 170.941 26.3853 170.781 26.5253C170.628 26.6653 170.454 26.7553 170.261 26.7953V26.8453C170.461 26.8919 170.651 26.9753 170.831 27.0953C171.018 27.2153 171.168 27.3886 171.281 27.6153C171.394 27.8419 171.451 28.1419 171.451 28.5153C171.451 28.9486 171.348 29.3219 171.141 29.6353C170.941 29.942 170.654 30.1786 170.281 30.3453C169.908 30.5053 169.461 30.5853 168.941 30.5853H166.381V23.4453H168.591ZM168.681 26.2753C169.041 26.2753 169.291 26.2053 169.431 26.0653C169.571 25.9253 169.641 25.7219 169.641 25.4553C169.641 25.1819 169.558 24.9853 169.391 24.8653C169.231 24.7453 168.978 24.6853 168.631 24.6853H168.001V26.2753H168.681ZM168.001 27.4753V29.3353H168.781C169.154 29.3353 169.414 29.2486 169.561 29.0753C169.708 28.8953 169.781 28.6586 169.781 28.3653C169.781 28.1853 169.748 28.0286 169.681 27.8953C169.621 27.762 169.514 27.6586 169.361 27.5853C169.214 27.512 169.008 27.4753 168.741 27.4753H168.001Z" fill="white"/>
<path d="M176.629 30.5853H172.709V23.4453H176.629V24.6853H174.329V26.2553H176.469V27.4953H174.329V29.3353H176.629V30.5853Z" fill="white"/>
<path d="M180.694 30.5853H179.074V24.7053H177.344V23.4453H182.424V24.7053H180.694V30.5853Z" fill="white"/>
<path d="M186.868 30.5853L186.458 28.8853H184.148L183.728 30.5853H181.968L184.248 23.4153H186.328L188.618 30.5853H186.868ZM185.638 25.9553C185.598 25.8153 185.558 25.6686 185.518 25.5153C185.478 25.3619 185.438 25.2019 185.398 25.0353C185.364 24.8686 185.331 24.6986 185.298 24.5253C185.251 24.7919 185.198 25.0486 185.138 25.2953C185.078 25.5353 185.021 25.7553 184.968 25.9553L184.508 27.6153H186.108L185.638 25.9553Z" fill="white"/>
<rect x="161.381" y="19.4153" width="32.237" height="15.17" rx="7.585" stroke="white" stroke-width="2"/>
</svg>
