<svg width="150" height="42" viewBox="0 0 150 42" fill="none" xmlns="http://www.w3.org/2000/svg">
<rect width="150" height="42" rx="5" fill="white"/>
<path d="M9 21.3521C8.99935 24.1994 9.8493 26.983 11.4423 29.3507C13.0354 31.7184 15.2999 33.564 17.9496 34.6539C20.5993 35.7438 23.515 36.0291 26.328 35.4738C29.1411 34.9185 31.725 33.5474 33.7531 31.5341C35.7812 29.5207 37.1622 26.9555 37.7216 24.1629C38.281 21.3702 37.9936 18.4756 36.8957 15.8452C35.7978 13.2147 33.9388 10.9666 31.5538 9.38507C29.1687 7.80359 26.3649 6.95981 23.4967 6.96045C19.6522 6.96131 15.9654 8.47785 13.247 11.1766C10.5285 13.8754 9.00087 17.5355 9 21.3521V21.3521Z" fill="#2D8CFF"/>
<path d="M24.4801 16.3379H14.5457C14.4104 16.3404 14.2813 16.3951 14.1858 16.4905C14.0904 16.5859 14.0361 16.7143 14.0344 16.8487V23.6102C14.0361 23.9741 14.1101 24.3341 14.2521 24.6696C14.394 25.0051 14.6012 25.3096 14.8618 25.5655C15.1224 25.8215 15.4312 26.0239 15.7706 26.1613C16.1101 26.2987 16.4735 26.3683 16.84 26.3662H26.7744C26.9086 26.3653 27.0372 26.3125 27.1327 26.2189C27.2282 26.1253 27.2831 25.9983 27.2857 25.8651V19.0971C27.2822 18.3641 26.9865 17.6623 26.4632 17.1453C25.9398 16.6282 25.2315 16.3379 24.4932 16.3379H24.4801ZM32.0185 16.5103L27.9084 19.4876V23.2262L31.9989 26.2132C32.2938 26.4377 32.6314 26.5061 32.6314 25.8879V16.8195C32.6314 16.4941 32.5265 16.3411 32.3659 16.3411C32.2282 16.3559 32.0991 16.4154 31.9989 16.5103H32.0185Z" fill="white"/>
<path d="M50.2653 9V16H51.1153V9H50.2653ZM52.3653 16C53.0453 16 53.6487 15.8533 54.1753 15.56C54.702 15.2667 55.1153 14.86 55.4153 14.34C55.7153 13.8133 55.8653 13.2 55.8653 12.5C55.8653 11.8 55.7153 11.19 55.4153 10.67C55.1153 10.1433 54.702 9.73333 54.1753 9.44C53.6487 9.14667 53.0453 9 52.3653 9H50.7353V9.85H52.3653C52.7587 9.85 53.1187 9.91333 53.4453 10.04C53.772 10.16 54.052 10.3367 54.2853 10.57C54.5187 10.7967 54.6987 11.0733 54.8253 11.4C54.952 11.7267 55.0153 12.0933 55.0153 12.5C55.0153 12.9067 54.952 13.2733 54.8253 13.6C54.6987 13.9267 54.5187 14.2067 54.2853 14.44C54.052 14.6667 53.772 14.8433 53.4453 14.97C53.1187 15.09 52.7587 15.15 52.3653 15.15H50.7353V16H52.3653ZM56.6122 13.7C56.6122 14.16 56.7155 14.5733 56.9222 14.94C57.1355 15.3 57.4222 15.5833 57.7822 15.79C58.1422 15.9967 58.5455 16.1 58.9922 16.1C59.4455 16.1 59.8489 15.9967 60.2022 15.79C60.5622 15.5833 60.8455 15.3 61.0522 14.94C61.2655 14.5733 61.3722 14.16 61.3722 13.7C61.3722 13.2333 61.2655 12.82 61.0522 12.46C60.8455 12.1 60.5622 11.8167 60.2022 11.61C59.8489 11.4033 59.4455 11.3 58.9922 11.3C58.5455 11.3 58.1422 11.4033 57.7822 11.61C57.4222 11.8167 57.1355 12.1 56.9222 12.46C56.7155 12.82 56.6122 13.2333 56.6122 13.7ZM57.4222 13.7C57.4222 13.38 57.4889 13.0967 57.6222 12.85C57.7622 12.5967 57.9489 12.4 58.1822 12.26C58.4222 12.12 58.6922 12.05 58.9922 12.05C59.2922 12.05 59.5589 12.12 59.7922 12.26C60.0322 12.4 60.2189 12.5967 60.3522 12.85C60.4922 13.0967 60.5622 13.38 60.5622 13.7C60.5622 14.02 60.4922 14.3033 60.3522 14.55C60.2189 14.7967 60.0322 14.9933 59.7922 15.14C59.5589 15.28 59.2922 15.35 58.9922 15.35C58.6922 15.35 58.4222 15.28 58.1822 15.14C57.9489 14.9933 57.7622 14.7967 57.6222 14.55C57.4889 14.3033 57.4222 14.02 57.4222 13.7ZM61.6247 11.4L63.6247 16.35L64.9347 13L66.3247 16.35L68.3247 11.4H67.4247L66.2647 14.41L64.9247 11.05L63.6747 14.39L62.5247 11.4H61.6247ZM72.0716 13.2V16H72.8716V13.1C72.8716 12.5467 72.7282 12.11 72.4416 11.79C72.1616 11.4633 71.7782 11.3 71.2916 11.3C70.9916 11.3 70.7249 11.3667 70.4916 11.5C70.2649 11.6333 70.0749 11.84 69.9216 12.12V11.4H69.1216V16H69.9216V13.2C69.9216 12.9733 69.9682 12.7733 70.0616 12.6C70.1616 12.4267 70.2982 12.2933 70.4716 12.2C70.6516 12.1 70.8582 12.05 71.0916 12.05C71.4116 12.05 71.6549 12.1467 71.8216 12.34C71.9882 12.5333 72.0716 12.82 72.0716 13.2ZM74.3755 8.2V16H75.1755V8.2H74.3755ZM76.2802 13.7C76.2802 14.16 76.3835 14.5733 76.5902 14.94C76.8035 15.3 77.0902 15.5833 77.4502 15.79C77.8102 15.9967 78.2135 16.1 78.6602 16.1C79.1135 16.1 79.5168 15.9967 79.8702 15.79C80.2302 15.5833 80.5135 15.3 80.7202 14.94C80.9335 14.5733 81.0402 14.16 81.0402 13.7C81.0402 13.2333 80.9335 12.82 80.7202 12.46C80.5135 12.1 80.2302 11.8167 79.8702 11.61C79.5168 11.4033 79.1135 11.3 78.6602 11.3C78.2135 11.3 77.8102 11.4033 77.4502 11.61C77.0902 11.8167 76.8035 12.1 76.5902 12.46C76.3835 12.82 76.2802 13.2333 76.2802 13.7ZM77.0902 13.7C77.0902 13.38 77.1568 13.0967 77.2902 12.85C77.4302 12.5967 77.6168 12.4 77.8502 12.26C78.0902 12.12 78.3602 12.05 78.6602 12.05C78.9602 12.05 79.2268 12.12 79.4602 12.26C79.7002 12.4 79.8868 12.5967 80.0202 12.85C80.1602 13.0967 80.2302 13.38 80.2302 13.7C80.2302 14.02 80.1602 14.3033 80.0202 14.55C79.8868 14.7967 79.7002 14.9933 79.4602 15.14C79.2268 15.28 78.9602 15.35 78.6602 15.35C78.3602 15.35 78.0902 15.28 77.8502 15.14C77.6168 14.9933 77.4302 14.7967 77.2902 14.55C77.1568 14.3033 77.0902 14.02 77.0902 13.7ZM82.4992 14.58C82.4992 14.4133 82.5392 14.27 82.6192 14.15C82.6992 14.03 82.8192 13.9367 82.9792 13.87C83.1458 13.8033 83.3592 13.77 83.6192 13.77C83.8992 13.77 84.1625 13.8067 84.4092 13.88C84.6558 13.9467 84.8958 14.06 85.1292 14.22V13.75C85.0825 13.69 84.9925 13.6133 84.8592 13.52C84.7258 13.42 84.5458 13.3333 84.3192 13.26C84.0992 13.18 83.8225 13.14 83.4892 13.14C82.9225 13.14 82.4792 13.2767 82.1592 13.55C81.8458 13.8167 81.6892 14.1733 81.6892 14.62C81.6892 14.9333 81.7625 15.2 81.9092 15.42C82.0558 15.64 82.2492 15.81 82.4892 15.93C82.7358 16.0433 82.9992 16.1 83.2792 16.1C83.5325 16.1 83.7858 16.0533 84.0392 15.96C84.2992 15.8667 84.5158 15.7233 84.6892 15.53C84.8692 15.3367 84.9592 15.0933 84.9592 14.8L84.7992 14.2C84.7992 14.44 84.7392 14.6533 84.6192 14.84C84.5058 15.02 84.3492 15.16 84.1492 15.26C83.9558 15.36 83.7358 15.41 83.4892 15.41C83.2958 15.41 83.1225 15.38 82.9692 15.32C82.8225 15.2533 82.7058 15.1567 82.6192 15.03C82.5392 14.9033 82.4992 14.7533 82.4992 14.58ZM82.3792 12.46C82.4525 12.4067 82.5525 12.3433 82.6792 12.27C82.8058 12.1967 82.9592 12.1333 83.1392 12.08C83.3258 12.0267 83.5325 12 83.7592 12C83.8992 12 84.0325 12.0133 84.1592 12.04C84.2858 12.0667 84.3958 12.11 84.4892 12.17C84.5892 12.23 84.6658 12.3133 84.7192 12.42C84.7725 12.52 84.7992 12.65 84.7992 12.81V16H85.5992V12.7C85.5992 12.4 85.5225 12.1467 85.3692 11.94C85.2225 11.7333 85.0125 11.5767 84.7392 11.47C84.4725 11.3567 84.1592 11.3 83.7992 11.3C83.3725 11.3 83.0058 11.3633 82.6992 11.49C82.3992 11.6167 82.1625 11.7433 81.9892 11.87L82.3792 12.46ZM90.4036 8.2V16H91.2036V8.2H90.4036ZM86.5536 13.7C86.5536 14.1933 86.6569 14.62 86.8636 14.98C87.0703 15.34 87.3469 15.6167 87.6936 15.81C88.0403 16.0033 88.4203 16.1 88.8336 16.1C89.2203 16.1 89.5569 16.0033 89.8436 15.81C90.1303 15.6167 90.3536 15.34 90.5136 14.98C90.6803 14.62 90.7636 14.1933 90.7636 13.7C90.7636 13.2 90.6803 12.7733 90.5136 12.42C90.3536 12.06 90.1303 11.7833 89.8436 11.59C89.5569 11.3967 89.2203 11.3 88.8336 11.3C88.4203 11.3 88.0403 11.3967 87.6936 11.59C87.3469 11.7833 87.0703 12.06 86.8636 12.42C86.6569 12.7733 86.5536 13.2 86.5536 13.7ZM87.3636 13.7C87.3636 13.3467 87.4336 13.0467 87.5736 12.8C87.7203 12.5533 87.9136 12.3667 88.1536 12.24C88.3936 12.1133 88.6536 12.05 88.9336 12.05C89.1669 12.05 89.3969 12.1133 89.6236 12.24C89.8503 12.3667 90.0369 12.5533 90.1836 12.8C90.3303 13.0467 90.4036 13.3467 90.4036 13.7C90.4036 14.0533 90.3303 14.3533 90.1836 14.6C90.0369 14.8467 89.8503 15.0333 89.6236 15.16C89.3969 15.2867 89.1669 15.35 88.9336 15.35C88.6536 15.35 88.3936 15.2867 88.1536 15.16C87.9136 15.0333 87.7203 14.8467 87.5736 14.6C87.4336 14.3533 87.3636 14.0533 87.3636 13.7ZM95.3048 11.4V12.15H97.6048V11.4H95.3048ZM97.5248 9.16L97.9648 8.5C97.9181 8.43333 97.8515 8.37 97.7648 8.31C97.6848 8.25 97.5881 8.2 97.4748 8.16C97.3615 8.12 97.2315 8.1 97.0848 8.1C96.8048 8.1 96.5648 8.16 96.3648 8.28C96.1715 8.39333 96.0215 8.56667 95.9148 8.8C95.8081 9.03333 95.7548 9.33333 95.7548 9.7V16H96.5548V9.8C96.5548 9.58 96.5748 9.40333 96.6148 9.27C96.6548 9.13667 96.7081 9.04333 96.7748 8.99C96.8481 8.93 96.9348 8.9 97.0348 8.9C97.1148 8.9 97.1981 8.91667 97.2848 8.95C97.3781 8.97667 97.4581 9.04667 97.5248 9.16ZM99.3161 11.4H98.5161V16H99.3161V11.4ZM100.706 12.28L101.146 11.62C101.026 11.4933 100.893 11.41 100.746 11.37C100.606 11.3233 100.453 11.3 100.286 11.3C100.073 11.3 99.8628 11.3833 99.6561 11.55C99.4494 11.7167 99.2794 11.9433 99.1461 12.23C99.0194 12.51 98.9561 12.8333 98.9561 13.2H99.3161C99.3161 12.98 99.3361 12.7833 99.3761 12.61C99.4228 12.4367 99.5028 12.3 99.6161 12.2C99.7294 12.1 99.8861 12.05 100.086 12.05C100.219 12.05 100.329 12.07 100.416 12.11C100.503 12.1433 100.599 12.2 100.706 12.28ZM101.397 13.7C101.397 14.16 101.501 14.5733 101.707 14.94C101.921 15.3 102.207 15.5833 102.567 15.79C102.927 15.9967 103.331 16.1 103.777 16.1C104.231 16.1 104.634 15.9967 104.987 15.79C105.347 15.5833 105.631 15.3 105.837 14.94C106.051 14.5733 106.157 14.16 106.157 13.7C106.157 13.2333 106.051 12.82 105.837 12.46C105.631 12.1 105.347 11.8167 104.987 11.61C104.634 11.4033 104.231 11.3 103.777 11.3C103.331 11.3 102.927 11.4033 102.567 11.61C102.207 11.8167 101.921 12.1 101.707 12.46C101.501 12.82 101.397 13.2333 101.397 13.7ZM102.207 13.7C102.207 13.38 102.274 13.0967 102.407 12.85C102.547 12.5967 102.734 12.4 102.967 12.26C103.207 12.12 103.477 12.05 103.777 12.05C104.077 12.05 104.344 12.12 104.577 12.26C104.817 12.4 105.004 12.5967 105.137 12.85C105.277 13.0967 105.347 13.38 105.347 13.7C105.347 14.02 105.277 14.3033 105.137 14.55C105.004 14.7967 104.817 14.9933 104.577 15.14C104.344 15.28 104.077 15.35 103.777 15.35C103.477 15.35 103.207 15.28 102.967 15.14C102.734 14.9933 102.547 14.7967 102.407 14.55C102.274 14.3033 102.207 14.02 102.207 13.7ZM113.556 13.1C113.556 12.72 113.496 12.3967 113.376 12.13C113.263 11.8567 113.096 11.65 112.876 11.51C112.656 11.37 112.39 11.3 112.076 11.3C111.77 11.3 111.496 11.3733 111.256 11.52C111.016 11.66 110.816 11.8733 110.656 12.16C110.55 11.8867 110.38 11.6767 110.146 11.53C109.92 11.3767 109.646 11.3 109.326 11.3C109.04 11.3 108.79 11.3633 108.576 11.49C108.37 11.6167 108.196 11.81 108.056 12.07V11.4H107.256V16H108.056V13.2C108.056 12.96 108.1 12.7533 108.186 12.58C108.273 12.4067 108.396 12.2767 108.556 12.19C108.716 12.0967 108.906 12.05 109.126 12.05C109.426 12.05 109.646 12.1433 109.786 12.33C109.933 12.5167 110.006 12.8067 110.006 13.2V16H110.806V13.2C110.806 12.96 110.85 12.7533 110.936 12.58C111.023 12.4067 111.146 12.2767 111.306 12.19C111.466 12.0967 111.656 12.05 111.876 12.05C112.176 12.05 112.396 12.1433 112.536 12.33C112.683 12.5167 112.756 12.8067 112.756 13.2V16H113.556V13.1Z" fill="#303030"/>
<path d="M49.42 23.56H53.596L49.18 31H55.06V30.04H50.884L55.3 22.6H49.42V23.56ZM55.5958 28.24C55.5958 28.792 55.7198 29.288 55.9678 29.728C56.2238 30.16 56.5678 30.5 56.9998 30.748C57.4318 30.996 57.9158 31.12 58.4518 31.12C58.9958 31.12 59.4798 30.996 59.9038 30.748C60.3358 30.5 60.6758 30.16 60.9238 29.728C61.1798 29.288 61.3078 28.792 61.3078 28.24C61.3078 27.68 61.1798 27.184 60.9238 26.752C60.6758 26.32 60.3358 25.98 59.9038 25.732C59.4798 25.484 58.9958 25.36 58.4518 25.36C57.9158 25.36 57.4318 25.484 56.9998 25.732C56.5678 25.98 56.2238 26.32 55.9678 26.752C55.7198 27.184 55.5958 27.68 55.5958 28.24ZM56.5678 28.24C56.5678 27.856 56.6478 27.516 56.8078 27.22C56.9758 26.916 57.1998 26.68 57.4798 26.512C57.7678 26.344 58.0918 26.26 58.4518 26.26C58.8118 26.26 59.1318 26.344 59.4118 26.512C59.6998 26.68 59.9238 26.916 60.0838 27.22C60.2518 27.516 60.3358 27.856 60.3358 28.24C60.3358 28.624 60.2518 28.964 60.0838 29.26C59.9238 29.556 59.6998 29.792 59.4118 29.968C59.1318 30.136 58.8118 30.22 58.4518 30.22C58.0918 30.22 57.7678 30.136 57.4798 29.968C57.1998 29.792 56.9758 29.556 56.8078 29.26C56.6478 28.964 56.5678 28.624 56.5678 28.24ZM62.1466 28.24C62.1466 28.792 62.2706 29.288 62.5186 29.728C62.7746 30.16 63.1186 30.5 63.5506 30.748C63.9826 30.996 64.4666 31.12 65.0026 31.12C65.5466 31.12 66.0306 30.996 66.4546 30.748C66.8866 30.5 67.2266 30.16 67.4746 29.728C67.7306 29.288 67.8586 28.792 67.8586 28.24C67.8586 27.68 67.7306 27.184 67.4746 26.752C67.2266 26.32 66.8866 25.98 66.4546 25.732C66.0306 25.484 65.5466 25.36 65.0026 25.36C64.4666 25.36 63.9826 25.484 63.5506 25.732C63.1186 25.98 62.7746 26.32 62.5186 26.752C62.2706 27.184 62.1466 27.68 62.1466 28.24ZM63.1186 28.24C63.1186 27.856 63.1986 27.516 63.3586 27.22C63.5266 26.916 63.7506 26.68 64.0306 26.512C64.3186 26.344 64.6426 26.26 65.0026 26.26C65.3626 26.26 65.6826 26.344 65.9626 26.512C66.2506 26.68 66.4746 26.916 66.6346 27.22C66.8026 27.516 66.8866 27.856 66.8866 28.24C66.8866 28.624 66.8026 28.964 66.6346 29.26C66.4746 29.556 66.2506 29.792 65.9626 29.968C65.6826 30.136 65.3626 30.22 65.0026 30.22C64.6426 30.22 64.3186 30.136 64.0306 29.968C63.7506 29.792 63.5266 29.556 63.3586 29.26C63.1986 28.964 63.1186 28.624 63.1186 28.24ZM76.7373 27.52C76.7373 27.064 76.6653 26.676 76.5213 26.356C76.3853 26.028 76.1853 25.78 75.9213 25.612C75.6573 25.444 75.3373 25.36 74.9613 25.36C74.5933 25.36 74.2653 25.448 73.9773 25.624C73.6893 25.792 73.4493 26.048 73.2573 26.392C73.1293 26.064 72.9253 25.812 72.6453 25.636C72.3733 25.452 72.0453 25.36 71.6613 25.36C71.3173 25.36 71.0173 25.436 70.7613 25.588C70.5133 25.74 70.3053 25.972 70.1373 26.284V25.48H69.1773V31H70.1373V27.64C70.1373 27.352 70.1893 27.104 70.2933 26.896C70.3973 26.688 70.5453 26.532 70.7373 26.428C70.9293 26.316 71.1573 26.26 71.4213 26.26C71.7813 26.26 72.0453 26.372 72.2133 26.596C72.3893 26.82 72.4773 27.168 72.4773 27.64V31H73.4373V27.64C73.4373 27.352 73.4893 27.104 73.5933 26.896C73.6973 26.688 73.8453 26.532 74.0373 26.428C74.2293 26.316 74.4573 26.26 74.7213 26.26C75.0813 26.26 75.3453 26.372 75.5133 26.596C75.6893 26.82 75.7773 27.168 75.7773 27.64V31H76.7373V27.52ZM83.3623 25.324L86.0983 30.22L88.8343 25.324L89.4583 31H90.4783L89.4583 22.18L86.0983 28.264L82.7383 22.18L81.7183 31H82.7383L83.3623 25.324ZM92.2851 29.296C92.2851 29.096 92.3331 28.924 92.4291 28.78C92.5251 28.636 92.6691 28.524 92.8611 28.444C93.0611 28.364 93.3171 28.324 93.6291 28.324C93.9651 28.324 94.2811 28.368 94.5771 28.456C94.8731 28.536 95.1611 28.672 95.4411 28.864V28.3C95.3851 28.228 95.2771 28.136 95.1171 28.024C94.9571 27.904 94.7411 27.8 94.4691 27.712C94.2051 27.616 93.8731 27.568 93.4731 27.568C92.7931 27.568 92.2611 27.732 91.8771 28.06C91.5011 28.38 91.3131 28.808 91.3131 29.344C91.3131 29.72 91.4011 30.04 91.5771 30.304C91.7531 30.568 91.9851 30.772 92.2731 30.916C92.5691 31.052 92.8851 31.12 93.2211 31.12C93.5251 31.12 93.8291 31.064 94.1331 30.952C94.4451 30.84 94.7051 30.668 94.9131 30.436C95.1291 30.204 95.2371 29.912 95.2371 29.56L95.0451 28.84C95.0451 29.128 94.9731 29.384 94.8291 29.608C94.6931 29.824 94.5051 29.992 94.2651 30.112C94.0331 30.232 93.7691 30.292 93.4731 30.292C93.2411 30.292 93.0331 30.256 92.8491 30.184C92.6731 30.104 92.5331 29.988 92.4291 29.836C92.3331 29.684 92.2851 29.504 92.2851 29.296ZM92.1411 26.752C92.2291 26.688 92.3491 26.612 92.5011 26.524C92.6531 26.436 92.8371 26.36 93.0531 26.296C93.2771 26.232 93.5251 26.2 93.7971 26.2C93.9651 26.2 94.1251 26.216 94.2771 26.248C94.4291 26.28 94.5611 26.332 94.6731 26.404C94.7931 26.476 94.8851 26.576 94.9491 26.704C95.0131 26.824 95.0451 26.98 95.0451 27.172V31H96.0051V27.04C96.0051 26.68 95.9131 26.376 95.7291 26.128C95.5531 25.88 95.3011 25.692 94.9731 25.564C94.6531 25.428 94.2771 25.36 93.8451 25.36C93.3331 25.36 92.8931 25.436 92.5251 25.588C92.1651 25.74 91.8811 25.892 91.6731 26.044L92.1411 26.752ZM98.5905 25.48H97.6305V31H98.5905V25.48ZM100.258 26.536L100.786 25.744C100.642 25.592 100.482 25.492 100.306 25.444C100.138 25.388 99.9545 25.36 99.7545 25.36C99.4985 25.36 99.2465 25.46 98.9985 25.66C98.7505 25.86 98.5465 26.132 98.3865 26.476C98.2345 26.812 98.1585 27.2 98.1585 27.64H98.5905C98.5905 27.376 98.6145 27.14 98.6625 26.932C98.7185 26.724 98.8145 26.56 98.9505 26.44C99.0865 26.32 99.2745 26.26 99.5145 26.26C99.6745 26.26 99.8065 26.284 99.9105 26.332C100.014 26.372 100.13 26.44 100.258 26.536ZM101.684 21.64V31H102.644V21.64H101.684ZM104.684 25.48L102.284 27.76L104.924 31H106.124L103.484 27.76L105.884 25.48H104.684ZM108.989 31.12C109.581 31.12 110.093 31.004 110.525 30.772C110.965 30.532 111.329 30.18 111.617 29.716L110.837 29.224C110.637 29.56 110.393 29.812 110.105 29.98C109.817 30.14 109.485 30.22 109.109 30.22C108.733 30.22 108.413 30.14 108.149 29.98C107.885 29.82 107.685 29.588 107.549 29.284C107.413 28.98 107.345 28.612 107.345 28.18C107.353 27.756 107.425 27.4 107.561 27.112C107.705 26.816 107.905 26.592 108.161 26.44C108.425 26.28 108.741 26.2 109.109 26.2C109.421 26.2 109.693 26.268 109.925 26.404C110.157 26.54 110.337 26.728 110.465 26.968C110.601 27.208 110.669 27.492 110.669 27.82C110.669 27.876 110.657 27.948 110.633 28.036C110.609 28.116 110.585 28.176 110.561 28.216L110.945 27.664H106.985V28.48H111.701C111.701 28.464 111.701 28.428 111.701 28.372C111.709 28.308 111.713 28.248 111.713 28.192C111.713 27.608 111.609 27.104 111.401 26.68C111.193 26.256 110.893 25.932 110.501 25.708C110.117 25.476 109.653 25.36 109.109 25.36C108.565 25.36 108.085 25.48 107.669 25.72C107.261 25.96 106.941 26.296 106.709 26.728C106.485 27.16 106.373 27.664 106.373 28.24C106.373 28.808 106.481 29.308 106.697 29.74C106.921 30.172 107.229 30.512 107.621 30.76C108.021 31 108.477 31.12 108.989 31.12ZM112.189 25.48V26.38H114.949V25.48H112.189ZM113.089 23.56V31H114.049V23.56H113.089ZM116.812 33.64V25.48H115.852V33.64H116.812ZM121.432 28.24C121.432 27.64 121.308 27.128 121.06 26.704C120.812 26.272 120.48 25.94 120.064 25.708C119.656 25.476 119.2 25.36 118.696 25.36C118.24 25.36 117.836 25.476 117.484 25.708C117.14 25.94 116.868 26.272 116.668 26.704C116.476 27.128 116.38 27.64 116.38 28.24C116.38 28.832 116.476 29.344 116.668 29.776C116.868 30.208 117.14 30.54 117.484 30.772C117.836 31.004 118.24 31.12 118.696 31.12C119.2 31.12 119.656 31.004 120.064 30.772C120.48 30.54 120.812 30.208 121.06 29.776C121.308 29.344 121.432 28.832 121.432 28.24ZM120.46 28.24C120.46 28.664 120.372 29.024 120.196 29.32C120.028 29.616 119.8 29.84 119.512 29.992C119.232 30.144 118.92 30.22 118.576 30.22C118.296 30.22 118.02 30.144 117.748 29.992C117.476 29.84 117.252 29.616 117.076 29.32C116.9 29.024 116.812 28.664 116.812 28.24C116.812 27.816 116.9 27.456 117.076 27.16C117.252 26.864 117.476 26.64 117.748 26.488C118.02 26.336 118.296 26.26 118.576 26.26C118.92 26.26 119.232 26.336 119.512 26.488C119.8 26.64 120.028 26.864 120.196 27.16C120.372 27.456 120.46 27.816 120.46 28.24ZM122.755 21.64V31H123.715V21.64H122.755ZM125.953 29.296C125.953 29.096 126.001 28.924 126.097 28.78C126.193 28.636 126.337 28.524 126.529 28.444C126.729 28.364 126.985 28.324 127.297 28.324C127.633 28.324 127.949 28.368 128.245 28.456C128.541 28.536 128.829 28.672 129.109 28.864V28.3C129.053 28.228 128.945 28.136 128.785 28.024C128.625 27.904 128.409 27.8 128.137 27.712C127.873 27.616 127.541 27.568 127.141 27.568C126.461 27.568 125.929 27.732 125.545 28.06C125.169 28.38 124.981 28.808 124.981 29.344C124.981 29.72 125.069 30.04 125.245 30.304C125.421 30.568 125.653 30.772 125.941 30.916C126.237 31.052 126.553 31.12 126.889 31.12C127.193 31.12 127.497 31.064 127.801 30.952C128.113 30.84 128.373 30.668 128.581 30.436C128.797 30.204 128.905 29.912 128.905 29.56L128.713 28.84C128.713 29.128 128.641 29.384 128.497 29.608C128.361 29.824 128.173 29.992 127.933 30.112C127.701 30.232 127.437 30.292 127.141 30.292C126.909 30.292 126.701 30.256 126.517 30.184C126.341 30.104 126.201 29.988 126.097 29.836C126.001 29.684 125.953 29.504 125.953 29.296ZM125.809 26.752C125.897 26.688 126.017 26.612 126.169 26.524C126.321 26.436 126.505 26.36 126.721 26.296C126.945 26.232 127.193 26.2 127.465 26.2C127.633 26.2 127.793 26.216 127.945 26.248C128.097 26.28 128.229 26.332 128.341 26.404C128.461 26.476 128.553 26.576 128.617 26.704C128.681 26.824 128.713 26.98 128.713 27.172V31H129.673V27.04C129.673 26.68 129.581 26.376 129.397 26.128C129.221 25.88 128.969 25.692 128.641 25.564C128.321 25.428 127.945 25.36 127.513 25.36C127.001 25.36 126.561 25.436 126.193 25.588C125.833 25.74 125.549 25.892 125.341 26.044L125.809 26.752ZM131.73 28.24C131.73 27.856 131.81 27.516 131.97 27.22C132.138 26.916 132.362 26.68 132.642 26.512C132.93 26.344 133.254 26.26 133.614 26.26C133.91 26.26 134.186 26.308 134.442 26.404C134.706 26.492 134.934 26.612 135.126 26.764C135.318 26.916 135.454 27.084 135.534 27.268V26.068C135.342 25.844 135.066 25.672 134.706 25.552C134.354 25.424 133.99 25.36 133.614 25.36C133.078 25.36 132.594 25.484 132.162 25.732C131.73 25.98 131.386 26.32 131.13 26.752C130.882 27.184 130.758 27.68 130.758 28.24C130.758 28.792 130.882 29.288 131.13 29.728C131.386 30.16 131.73 30.5 132.162 30.748C132.594 30.996 133.078 31.12 133.614 31.12C133.99 31.12 134.354 31.06 134.706 30.94C135.066 30.812 135.342 30.636 135.534 30.412V29.212C135.454 29.388 135.318 29.556 135.126 29.716C134.934 29.868 134.706 29.992 134.442 30.088C134.186 30.176 133.91 30.22 133.614 30.22C133.254 30.22 132.93 30.136 132.642 29.968C132.362 29.792 132.138 29.556 131.97 29.26C131.81 28.964 131.73 28.624 131.73 28.24ZM139.165 31.12C139.757 31.12 140.269 31.004 140.701 30.772C141.141 30.532 141.505 30.18 141.793 29.716L141.013 29.224C140.813 29.56 140.569 29.812 140.281 29.98C139.993 30.14 139.661 30.22 139.285 30.22C138.909 30.22 138.589 30.14 138.325 29.98C138.061 29.82 137.861 29.588 137.725 29.284C137.589 28.98 137.521 28.612 137.521 28.18C137.529 27.756 137.601 27.4 137.737 27.112C137.881 26.816 138.081 26.592 138.337 26.44C138.601 26.28 138.917 26.2 139.285 26.2C139.597 26.2 139.869 26.268 140.101 26.404C140.333 26.54 140.513 26.728 140.641 26.968C140.777 27.208 140.845 27.492 140.845 27.82C140.845 27.876 140.833 27.948 140.809 28.036C140.785 28.116 140.761 28.176 140.737 28.216L141.121 27.664H137.161V28.48H141.877C141.877 28.464 141.877 28.428 141.877 28.372C141.885 28.308 141.889 28.248 141.889 28.192C141.889 27.608 141.785 27.104 141.577 26.68C141.369 26.256 141.069 25.932 140.677 25.708C140.293 25.476 139.829 25.36 139.285 25.36C138.741 25.36 138.261 25.48 137.845 25.72C137.437 25.96 137.117 26.296 136.885 26.728C136.661 27.16 136.549 27.664 136.549 28.24C136.549 28.808 136.657 29.308 136.873 29.74C137.097 30.172 137.405 30.512 137.797 30.76C138.197 31 138.653 31.12 139.165 31.12Z" fill="#303030"/>
</svg>
