<svg width="472" height="298" viewBox="0 0 472 298" fill="none" xmlns="http://www.w3.org/2000/svg">
<g clip-path="url(#clip0_2488_49355)">
<path d="M223.895 143.559C229.75 138.256 236.326 133.284 243.518 128.929C250.846 124.559 258.775 120.671 267.349 117.671C259.007 112.837 249.912 108.633 240.486 105.151C231.075 101.804 221.062 99.2083 210.732 97.4698C212.142 101.562 213.552 105.653 214.812 109.625C193.558 114.433 173.865 123.454 156.71 135.62C161.292 141.143 165.753 146.817 170.079 152.505C184.947 141.961 202.188 134.307 220.794 130.338C221.828 134.745 222.861 139.152 223.895 143.559Z" fill="#9EA2BE"/>
<path d="M302.457 186.877C296.601 193.005 289.792 198.861 282.302 204.036C274.812 209.347 266.505 213.977 257.518 218.062C266.914 222.692 276.991 226.505 287.341 229.501C297.827 232.497 308.721 234.54 320.024 235.493C318.117 231.272 316.347 226.914 314.713 222.692C337.319 215.883 357.882 204.853 375.449 190.282C370.138 184.698 364.827 178.843 359.788 172.987C344.536 185.379 326.56 195.048 306.678 200.768C305.317 196.137 303.819 191.507 302.457 186.877Z" fill="#9EA2BE"/>
<path d="M465.464 179.252H278.49L288.431 62.5459H472.001L465.464 179.252Z" fill="white"/>
<path d="M465.464 179.252H278.49L288.431 62.5459H472.001L465.464 179.252Z" fill="#F4F2F2"/>
<path d="M325.065 73.3027H460.7L456.07 152.968" stroke="#303031" stroke-width="3.04452" stroke-miterlimit="1.6417" stroke-linecap="round" stroke-linejoin="round"/>
<path d="M442.859 168.22H290.338L297.283 85.1509" stroke="#303031" stroke-width="3.04452" stroke-miterlimit="1.6417" stroke-linecap="round" stroke-linejoin="round"/>
<path d="M353.253 85.1509H403.912" stroke="#303031" stroke-width="3.04452" stroke-miterlimit="1.6417" stroke-linecap="round" stroke-linejoin="round"/>
<path d="M387.706 107.212H442.859" stroke="#303031" stroke-width="3.04452" stroke-miterlimit="1.6417" stroke-linecap="round" stroke-linejoin="round"/>
<path d="M332.555 107.212H355.433" stroke="#303031" stroke-width="3.04452" stroke-miterlimit="1.6417" stroke-linecap="round" stroke-linejoin="round"/>
<path d="M425.02 117.291H442.314" stroke="#303031" stroke-width="3.04452" stroke-miterlimit="1.6417" stroke-linecap="round" stroke-linejoin="round"/>
<path d="M331.736 117.291H390.974" stroke="#303031" stroke-width="3.04452" stroke-miterlimit="1.6417" stroke-linecap="round" stroke-linejoin="round"/>
<path d="M386.345 127.504H441.77" stroke="#303031" stroke-width="3.04452" stroke-miterlimit="1.6417" stroke-linecap="round" stroke-linejoin="round"/>
<path d="M330.919 127.504H359.244" stroke="#303031" stroke-width="3.04452" stroke-miterlimit="1.6417" stroke-linecap="round" stroke-linejoin="round"/>
<path d="M330.101 137.716H408.404" stroke="#303031" stroke-width="3.04452" stroke-miterlimit="1.6417" stroke-linecap="round" stroke-linejoin="round"/>
<path d="M374.496 150.926L377.901 148.202C378.309 147.794 379.126 147.93 379.263 148.475L380.761 152.288C380.897 152.696 381.305 152.832 381.85 152.832L385.935 151.607C386.48 151.471 387.025 151.879 387.025 152.424L386.889 156.646C386.889 157.054 387.161 157.463 387.57 157.463L391.655 158.007C392.2 158.143 392.608 158.688 392.336 159.233L390.429 163.182C390.293 163.591 390.293 164.135 390.702 164.272L394.106 166.45C394.651 166.723 394.651 167.54 394.106 167.948L390.838 170.944C390.429 171.217 390.429 171.761 390.702 172.17L392.881 175.711C393.153 176.255 392.881 176.936 392.336 177.072L388.25 178.434C387.842 178.57 387.57 178.979 387.57 179.524L388.114 183.745C388.25 184.29 387.706 184.835 387.025 184.835L382.803 184.426C382.395 184.426 381.986 184.698 381.85 185.107L380.624 189.329C380.488 189.873 379.807 190.282 379.263 189.873L375.722 187.831C375.313 187.558 374.905 187.694 374.496 188.103L371.637 191.507C371.228 192.052 370.547 192.052 370.139 191.507L367.824 188.103C367.551 187.694 367.143 187.694 366.734 187.831L362.921 189.873C362.376 190.146 361.695 189.873 361.695 189.329L361.015 185.107C360.878 184.698 360.606 184.426 360.061 184.426L355.84 184.835C355.295 184.835 354.75 184.29 355.023 183.745L356.112 179.524C356.248 179.115 355.976 178.707 355.567 178.434L351.754 177.072C351.21 176.936 351.073 176.119 351.346 175.711L353.933 172.17C354.206 171.761 354.206 171.353 353.933 170.944L351.073 167.948C350.665 167.54 350.801 166.859 351.346 166.45L355.159 164.272C355.567 163.999 355.704 163.591 355.567 163.182L354.206 159.233C354.069 158.688 354.478 158.007 355.023 158.007L359.244 157.463C359.653 157.463 360.061 157.054 360.061 156.646L360.47 152.424C360.47 151.879 361.151 151.335 361.695 151.607L365.645 152.832C366.053 152.969 366.462 152.696 366.734 152.288L368.777 148.475C369.049 147.93 369.73 147.794 370.139 148.202L373.135 150.926C373.679 151.198 374.224 151.198 374.496 150.926Z" fill="#F6A713"/>
<path d="M87.7183 260.082C102.083 260.082 113.729 248.62 113.729 234.481C113.729 220.341 102.083 208.879 87.7183 208.879C73.3532 208.879 61.708 220.341 61.708 234.481C61.708 248.62 73.3532 260.082 87.7183 260.082Z" fill="url(#paint0_linear_2488_49355)"/>
<path fill-rule="evenodd" clip-rule="evenodd" d="M94.3902 229.032C95.752 230.53 96.7053 232.709 96.7053 234.888C96.7053 239.654 92.8923 243.467 88.126 243.467C83.3597 243.467 79.5467 239.518 79.5467 234.888C79.5467 230.258 83.2235 226.309 87.9898 226.309V220.998C80.2276 220.998 73.8271 227.262 73.8271 235.024C73.8271 242.786 80.2276 249.051 87.9898 249.051C95.8882 249.051 102.152 242.786 102.152 235.024C102.152 231.756 101.063 228.76 99.1565 226.445L94.3902 229.032Z" fill="white"/>
<path d="M249.228 223.178C249.5 235.842 239.559 246.192 227.167 246.464C214.774 246.737 204.561 236.659 204.289 223.995C204.016 211.33 213.957 200.98 226.35 200.708C238.742 200.436 248.955 210.513 249.228 223.178Z" fill="url(#paint1_linear_2488_49355)"/>
<path fill-rule="evenodd" clip-rule="evenodd" d="M231.661 229.304C230.3 230.53 228.529 231.347 226.487 231.347C222.401 231.483 218.86 228.215 218.724 223.993C218.588 219.772 221.993 216.367 226.214 216.367C230.3 216.231 233.84 219.499 233.976 223.721L238.606 223.585C238.47 216.776 232.887 211.329 226.078 211.329C219.269 211.465 213.958 217.184 213.958 223.993C214.094 230.939 219.678 236.386 226.487 236.25C229.346 236.25 231.934 235.16 233.976 233.39L231.661 229.304Z" fill="white"/>
<path d="M125.304 179.873C109.371 170.613 103.787 150.595 112.775 135.07C121.763 119.546 141.918 114.235 157.851 123.359C173.784 132.483 179.367 152.638 170.379 168.162C161.391 183.686 141.237 188.997 125.304 179.873Z" fill="url(#paint2_linear_2488_49355)"/>
<path fill-rule="evenodd" clip-rule="evenodd" d="M130.614 153.318C130.07 150.731 130.342 147.871 131.84 145.42C134.836 140.245 141.509 138.202 146.82 141.334C152.131 144.33 153.765 151.139 150.769 156.314C147.773 161.489 141.236 163.395 135.925 160.536L132.521 166.391C141.236 171.294 152.131 168.434 157.033 159.991C161.936 151.412 158.94 140.517 150.224 135.479C141.509 130.44 130.478 133.3 125.576 141.879C123.533 145.556 122.852 149.505 123.397 153.318H130.614Z" fill="white"/>
<path d="M148.046 94.4881L154.855 81.0063C154.855 81.0063 157.578 81.6872 160.166 84.6832C162.753 87.8153 162.617 90.4027 162.617 90.4027L148.046 94.4881Z" fill="#E2DEDE"/>
<path d="M142.463 247.961L143.961 258.447C143.961 258.447 142.19 259.128 139.467 258.447C136.743 257.766 135.79 256.132 135.79 256.132L142.463 247.961Z" fill="#E2DEDE"/>
<path d="M199.115 168.843L187.131 159.446C187.131 159.446 188.356 156.859 191.897 154.952C195.438 153.046 198.025 153.591 198.025 153.591L199.115 168.843Z" fill="#E2DEDE"/>
<path d="M62.3896 185.457L46.5928 157.268C46.5928 157.268 50.9505 153.319 59.5298 152.365C67.9729 151.548 72.603 154.817 72.603 154.817L62.3896 185.457Z" fill="#E2DEDE"/>
<path d="M167.521 250.004L203.063 269.613C203.063 269.613 201.021 276.831 192.578 283.368C184.134 289.904 176.917 289.496 176.917 289.496L167.521 250.004Z" fill="#E2DEDE"/>
<path d="M146.82 209.833C146.82 202.479 148.182 196.76 151.042 192.538C153.902 188.453 157.715 186.274 162.617 186.274C167.52 186.274 171.469 188.317 174.329 192.538C177.188 196.76 178.55 202.479 178.55 209.833C178.55 217.187 177.188 222.906 174.329 227.128C171.469 231.349 167.656 233.392 162.617 233.392C157.715 233.392 153.765 231.349 151.042 227.128C148.182 222.906 146.82 217.187 146.82 209.833ZM156.898 209.833C156.898 214.191 157.442 217.595 158.396 220.046C159.485 222.498 160.847 223.723 162.617 223.723C164.387 223.723 165.885 222.498 166.839 220.046C167.928 217.595 168.337 214.191 168.337 209.697C168.337 205.339 167.792 201.798 166.839 199.347C165.885 196.896 164.387 195.67 162.617 195.67C160.847 195.67 159.485 196.896 158.396 199.347C157.442 201.935 156.898 205.339 156.898 209.833Z" fill="#303031"/>
<path d="M182.909 209.833C182.909 202.479 184.271 196.76 187.131 192.538C189.991 188.453 193.804 186.274 198.706 186.274C203.608 186.274 207.558 188.317 210.417 192.538C213.277 196.76 214.639 202.479 214.639 209.833C214.639 217.187 213.277 222.906 210.417 227.128C207.558 231.349 203.745 233.392 198.706 233.392C193.804 233.392 189.854 231.349 187.131 227.128C184.271 222.906 182.909 217.187 182.909 209.833ZM192.986 209.833C192.986 214.191 193.531 217.595 194.484 220.046C195.574 222.498 196.936 223.723 198.706 223.723C200.476 223.723 201.974 222.498 202.928 220.046C204.017 217.595 204.426 214.191 204.426 209.697C204.426 205.339 203.881 201.798 202.928 199.347C201.974 196.896 200.476 195.67 198.706 195.67C196.936 195.67 195.574 196.896 194.484 199.347C193.531 201.935 192.986 205.339 192.986 209.833Z" fill="#303031"/>
<path d="M139.209 232.251H110.586V225.849L120.526 214.812C122.562 212.536 124.159 210.646 125.316 209.142C126.514 207.597 127.352 206.215 127.831 204.995C128.35 203.735 128.61 202.394 128.61 200.971C128.61 199.223 128.191 197.922 127.352 197.069C126.554 196.215 125.516 195.788 124.239 195.788C122.841 195.788 121.444 196.174 120.047 196.947C118.69 197.719 117.192 198.817 115.556 200.239L110.286 194.325C111.484 193.227 112.741 192.211 114.059 191.276C115.376 190.341 116.933 189.589 118.729 189.02C120.526 188.41 122.682 188.105 125.197 188.105C127.871 188.105 130.187 188.634 132.143 189.691C134.099 190.707 135.596 192.109 136.634 193.898C137.712 195.646 138.251 197.638 138.251 199.873C138.251 201.703 137.991 203.369 137.472 204.873C136.953 206.377 136.195 207.861 135.197 209.324C134.239 210.788 133.081 212.312 131.724 213.898C130.366 215.442 128.849 217.19 127.173 219.141L122.861 224.08L122.801 224.507H139.209V232.251Z" fill="#303031"/>
</g>
<path d="M157.365 43.854L133.092 12.3606L126.782 56.6007L83.6761 53.8235L91.0094 71.4722" stroke="#303031" stroke-width="3.04452" stroke-miterlimit="1.6417" stroke-linecap="round" stroke-linejoin="round"/>
<path d="M58.0438 121.111L8.34766 128.276" stroke="#303031" stroke-width="3.04452" stroke-miterlimit="1.6417" stroke-linecap="round" stroke-linejoin="round"/>
<path d="M392.878 222.098L450.592 248.809" stroke="#303031" stroke-width="3.04452" stroke-miterlimit="1.6417" stroke-linecap="round" stroke-linejoin="round"/>
<defs>
<linearGradient id="paint0_linear_2488_49355" x1="64.5277" y1="226.342" x2="115.944" y2="244.567" gradientUnits="userSpaceOnUse">
<stop stop-color="#FFD02B"/>
<stop offset="1" stop-color="#FDA700"/>
</linearGradient>
<linearGradient id="paint1_linear_2488_49355" x1="233.457" y1="203.033" x2="218.219" y2="248.484" gradientUnits="userSpaceOnUse">
<stop stop-color="#FFD02B"/>
<stop offset="1" stop-color="#FDA700"/>
</linearGradient>
<linearGradient id="paint2_linear_2488_49355" x1="162.167" y1="175.203" x2="116.909" y2="122.296" gradientUnits="userSpaceOnUse">
<stop stop-color="#FFD02B"/>
<stop offset="1" stop-color="#FDA700"/>
</linearGradient>
<clipPath id="clip0_2488_49355">
<rect width="471.317" height="235.454" fill="white" transform="translate(0.683594 62.5459)"/>
</clipPath>
</defs>
</svg>
