<svg width="106" height="40" viewBox="0 0 106 40" fill="none" xmlns="http://www.w3.org/2000/svg">
<path d="M1.17676 26.9001L11.1795 5.30005H14.1215L24.1243 26.9001H20.0055L12.6505 10.7L8.23755 20.6001H15.0041L16.4751 23.6001H6.76655L5.29555 26.9001H1.17676Z" fill="#CC0000"/>
<path d="M20.2998 5.30005L30.3026 26.9001H33.2446L43.2474 5.30005H39.1286L31.7736 21.8001L24.4186 5.30005H20.2998Z" fill="#CC0000"/>
<path d="M39.1289 26.9001L49.1317 5.30005H52.0737L62.0765 26.9001H57.9577L50.6027 10.7L46.1897 20.6001H52.9563L54.4273 23.6001H44.7187L43.2477 26.9001H39.1289Z" fill="#CC0000"/>
<path d="M58.8398 5.30005L67.6658 26.6L63.8412 34.7H67.96L81.7874 5.30005H77.3744L69.7252 22.1L63.2528 5.30005H58.8398Z" fill="#CC0000"/>
<path d="M77.6689 26.9001L87.6717 5.30005H90.6137L100.617 26.9001H96.4977L89.1427 10.7L84.7297 20.6001H91.4963L92.9673 23.6001H83.2587L81.7877 26.9001H77.6689Z" fill="#CC0000"/>
<path d="M102.836 1L102.491 4.41333L105.764 3.45333L106 5.08889L102.873 5.35556L104.909 8.16444L103.4 9L101.964 5.88889L100.655 9L99.1091 8.16444L101.091 5.35556L98 5.08889L98.2545 3.45333L101.473 4.41333L101.127 1H102.836Z" fill="#A0A3BD"/>
</svg>
