<svg width="100" height="39" viewBox="0 0 100 39" fill="none" xmlns="http://www.w3.org/2000/svg">
<g clip-path="url(#clip0_1900_38940)">
<path d="M1.13379 25.9217L10.7728 5.10718H13.6079L23.2469 25.9217H19.2779L12.1904 10.3108L7.93783 19.8508H14.4584L15.8759 22.7417H6.52032L5.10281 25.9217H1.13379Z" fill="#CC0000"/>
<path d="M19.5618 5.10718L29.2008 25.9217H32.0358L41.6749 5.10718H37.7059L30.6183 21.0072L23.5308 5.10718H19.5618Z" fill="#CC0000"/>
<path d="M37.7058 25.9217L47.3449 5.10718H50.1799L59.8189 25.9217H55.8499L48.7624 10.3108L44.5098 19.8508H51.0304L52.4479 22.7417H43.0923L41.6748 25.9217H37.7058Z" fill="#CC0000"/>
<path d="M56.7004 5.10718L65.2055 25.6326L61.52 33.4381H65.489L78.8136 5.10718H74.561L67.19 21.2963L60.953 5.10718H56.7004Z" fill="#CC0000"/>
<path d="M74.8445 25.9217L84.4835 5.10718H87.3186L96.9576 25.9217H92.9886L85.901 10.3108L81.6485 19.8508H88.1691L89.5866 22.7417H80.231L78.8135 25.9217H74.8445Z" fill="#CC0000"/>
</g>
<defs>
<clipPath id="clip0_1900_38940">
<rect width="99.2256" height="28.9091" fill="white" transform="translate(0 4.81812)"/>
</clipPath>
</defs>
</svg>
