<svg width="131" height="39" viewBox="0 0 131 39" fill="none" xmlns="http://www.w3.org/2000/svg">
<path d="M36.7993 11.3193V20.5765C36.7993 21.5911 36.6918 22.3539 36.4288 22.7982C35.8507 23.9572 34.8725 24.5016 33.4979 24.5016C32.9246 24.5206 32.3564 24.3891 31.8499 24.1201C31.3434 23.8511 30.9164 23.454 30.6115 22.9686C30.2766 22.2939 30.1258 21.5428 30.1742 20.7913V11.3193H26.5542V21.8799C26.5109 22.8072 26.6585 23.7335 26.9877 24.6015C27.4819 25.6165 28.2624 26.4647 29.2331 27.0417C30.1845 27.6543 31.2915 27.982 32.4233 27.986C33.9077 28.014 35.3445 27.4627 36.4288 26.4493L36.7993 26.1234V27.7564H40.4231V11.3193H36.7993ZM68.6018 17.4883C68.7181 16.6935 69.0855 15.9566 69.6504 15.3851C69.9798 15.0774 70.3675 14.8386 70.7907 14.6828C71.2138 14.527 71.6639 14.4573 72.1144 14.4779C72.57 14.4569 73.025 14.5296 73.4513 14.6913C73.8777 14.8531 74.2663 15.1006 74.5932 15.4184C74.8905 15.6794 75.1329 15.9967 75.3066 16.352C75.4802 16.7073 75.5816 17.0936 75.6048 17.4883L75.6418 17.7068L68.5795 17.7401L68.6018 17.4883ZM67.0455 13.0967C66.3769 13.6932 65.8445 14.4266 65.4845 15.247C65.1246 16.0673 64.9455 16.9555 64.9595 17.8512V20.7172C64.911 22.1871 65.3285 23.6348 66.1526 24.8533C67.6013 26.9232 69.7763 27.9749 72.5257 27.9749C75.1194 27.9749 77.2351 27.0676 78.8654 25.2532L78.9358 25.1792L76.1494 22.9315L76.0753 23.0019C75.6341 23.4937 75.0919 23.8846 74.4857 24.1479C73.8795 24.4112 73.2236 24.5406 72.5627 24.5275C71.5308 24.5722 70.5208 24.2211 69.7393 23.5462C69.3779 23.2554 69.0893 22.8845 68.8964 22.4629C68.7034 22.0412 68.6115 21.5805 68.6277 21.1171V20.7913H79.2767V18.1993C79.3037 17.2579 79.1371 16.3211 78.7873 15.4467C78.4375 14.5723 77.9119 13.7789 77.243 13.1157C76.574 12.4524 75.7761 11.9333 74.8984 11.5906C74.0207 11.2479 73.082 11.0887 72.1403 11.1231C70.2601 11.0927 68.442 11.7953 67.0715 13.0819L67.0455 13.0967ZM83.7638 22.6612C83.7439 22.318 83.8262 21.9765 84.0003 21.68C84.1744 21.3834 84.4325 21.145 84.742 20.9949C85.2152 20.8189 85.7202 20.7444 86.2241 20.7765H90.5704V22.0465C90.5704 23.2426 90.3889 23.6055 90.2443 23.7869C89.8479 24.4053 88.8326 24.6941 87.1319 24.6941C84.8828 24.6941 83.7601 24.0054 83.7601 22.6612H83.7638ZM81.3331 13.4448L81.2627 13.5188L84.1232 15.6961L84.1973 15.585C84.3378 15.34 84.5304 15.1287 84.7615 14.9662C84.9927 14.8037 85.2567 14.6939 85.5349 14.6445C86.1197 14.5329 86.7146 14.4833 87.3098 14.4964C88.6881 14.4964 89.5922 14.7148 90.0998 15.1148C90.3889 15.3703 90.5704 15.9146 90.5704 16.7107V17.8216H86.1278C85.1638 17.7745 84.2009 17.9349 83.3043 18.2918C82.4116 18.7003 81.6442 19.3394 81.0812 20.1433C80.4031 21.1303 80.1233 22.337 80.2978 23.5215C80.4724 24.706 81.0883 25.7809 82.0223 26.5307C83.1821 27.475 84.7012 27.9452 86.5502 27.9452C88.1064 27.9452 89.3365 27.5453 90.1369 26.7825L90.5074 26.4122V27.7194H94.1645V16.3626C94.1937 15.6257 94.0469 14.8925 93.7364 14.2235C93.4258 13.5545 92.9604 12.969 92.3786 12.5153C91.267 11.6118 89.5552 11.1379 87.3098 11.1379C84.3752 11.1379 82.3854 11.9377 81.2961 13.4596L81.3331 13.4448ZM100.901 12.6005L100.53 12.9264V11.3563H96.8731V27.7823H100.53V17.6327C100.533 17.2239 100.625 16.8206 100.8 16.451C100.974 16.0813 101.228 15.7542 101.542 15.4924C101.847 15.1884 102.209 14.9483 102.608 14.7862C103.007 14.624 103.434 14.5431 103.865 14.5482C104.29 14.5373 104.713 14.6157 105.106 14.7784C105.5 14.941 105.854 15.1843 106.147 15.4924C106.455 15.7657 106.702 16.101 106.87 16.4763C107.039 16.8516 107.126 17.2583 107.126 17.6697V27.7823H110.746V16.7625C110.756 16.0162 110.61 15.276 110.319 14.5888C110.027 13.9016 109.596 13.2825 109.052 12.7708C108.52 12.2363 107.883 11.8158 107.183 11.535C106.482 11.2543 105.731 11.1191 104.977 11.1379C103.481 11.0891 102.024 11.6122 100.901 12.6005V12.6005ZM115.207 12.3487C114.577 12.7805 114.063 13.3602 113.71 14.0367C113.356 14.7133 113.175 15.4662 113.18 16.2293C113.157 17.0758 113.376 17.9114 113.812 18.6376C114.248 19.3639 114.882 19.9505 115.64 20.3284C116.357 20.7174 117.147 20.9532 117.96 21.0208C118.505 21.0912 119.335 21.1282 120.387 21.1653C121.439 21.2023 122.162 21.3097 122.61 21.5615C122.812 21.6775 122.977 21.8483 123.086 22.054C123.194 22.2598 123.243 22.4921 123.225 22.7242C123.225 23.9572 122.065 24.5386 119.75 24.5386C117.901 24.5845 116.107 23.9068 114.751 22.6501L114.681 22.5798L112.087 25.0459L112.161 25.1199C114.08 27.0047 116.648 27.986 119.764 27.986C121.902 27.986 123.603 27.5157 124.907 26.5715C125.517 26.1409 126.012 25.5674 126.349 24.9011C126.685 24.2349 126.853 23.4963 126.838 22.7501C126.871 20.7913 125.967 19.3397 124.155 18.3955C123.358 17.9586 121.728 17.7401 119.231 17.6549C117.638 17.6179 116.878 17.1106 116.878 16.1738C116.878 15.0851 117.712 14.5778 119.449 14.5778C121.14 14.5279 122.798 15.0498 124.155 16.059L124.229 16.133L126.467 13.3152L126.397 13.2411C124.407 11.836 122.022 11.0995 119.587 11.1379C117.734 11.1379 116.252 11.5378 115.203 12.3376L115.207 12.3487ZM46.1477 17.4883C46.2641 16.6935 46.6315 15.9566 47.1963 15.3851C47.8765 14.796 48.748 14.4745 49.6481 14.4807C50.5481 14.4868 51.4152 14.8201 52.0873 15.4184C52.3845 15.6797 52.6271 15.9971 52.8013 16.3523C52.9755 16.7074 53.0779 17.0935 53.1025 17.4883L53.1359 17.7068H46.0958L46.1477 17.4883ZM44.5545 13.0448C43.883 13.6391 43.3477 14.3712 42.9851 15.1911C42.6226 16.011 42.4413 16.8994 42.4536 17.7956V20.6617C42.3993 22.1398 42.8186 23.5966 43.6504 24.82C45.0954 26.8899 47.2334 27.9415 50.0235 27.9415C52.6172 27.9415 54.7292 27.0343 56.3595 25.2199L56.4336 25.1496L53.6435 22.8982L53.5731 23.0056C53.1314 23.4968 52.5891 23.8873 51.983 24.1506C51.3769 24.4138 50.7212 24.5436 50.0605 24.5312C49.0274 24.5764 48.016 24.2254 47.2334 23.5499C46.8727 23.2586 46.5846 22.8875 46.3917 22.466C46.1988 22.0445 46.1064 21.5841 46.1218 21.1208V20.795H56.7708V18.203C56.7903 17.2624 56.6182 16.3276 56.2652 15.4555C55.9121 14.5833 55.3854 13.792 54.7169 13.1295C54.0485 12.4671 53.2523 11.9473 52.3767 11.6017C51.501 11.2562 50.5643 11.0921 49.6233 11.1193C47.7423 11.0884 45.9236 11.7926 44.5545 13.0819V13.0448ZM3.91857 17.5957H10.7659C11.4488 17.5655 12.1295 17.6922 12.7557 17.966C13.33 18.2055 13.8162 18.6166 14.1479 19.1428C14.4795 19.6691 14.6403 20.2849 14.6083 20.9061C14.6268 21.3699 14.5419 21.8321 14.3599 22.2592C14.178 22.6863 13.9034 23.0677 13.556 23.3759C12.8705 23.9906 11.9257 24.2794 10.7326 24.2794H3.91857V17.5957ZM3.91857 8.01633H10.6548C11.117 7.99358 11.5792 8.06234 12.0148 8.21867C12.4504 8.37499 12.8507 8.6158 13.1929 8.92724C13.5239 9.20599 13.7866 9.55689 13.9607 9.95296C14.1347 10.349 14.2156 10.7797 14.197 11.2119C14.2089 11.6353 14.1274 12.0562 13.9583 12.4446C13.7893 12.833 13.5368 13.1795 13.2188 13.4596C12.8774 13.7708 12.4776 14.0112 12.0426 14.1669C11.6075 14.3226 11.1459 14.3906 10.6844 14.3668H3.91857V8.01633ZM0.116943 4.82445V27.7823H10.7993C12.2059 27.8408 13.6055 27.5535 14.8751 26.9455C15.9124 26.4104 16.7779 25.5943 17.3725 24.5904C17.9653 23.6206 18.2771 22.5054 18.2728 21.3689C18.307 20.3263 18.0632 19.2934 17.5665 18.376C17.0697 17.4585 16.3378 16.6896 15.4457 16.1479L15.1938 15.9997L15.4124 15.8183C17.0427 14.5112 17.8356 12.9152 17.8356 11.1008C17.8487 9.96037 17.535 8.83996 16.9315 7.87192C16.3572 6.89059 15.5103 6.09693 14.4935 5.58725C13.2788 5.03433 11.9515 4.7731 10.6177 4.82445H0.116943ZM20.3626 27.7564H23.9827V4.82445H20.3626V27.7564ZM58.931 4.82445V25.1903C58.931 26.4591 58.8223 27.3306 58.6049 27.8045C57.9194 29.2857 56.7523 30.0262 54.9848 30.0262H54.8774V30.1336C54.8774 32.4553 54.8774 33.544 54.9848 33.7254H55.0182C56.2419 33.7519 57.4539 33.4822 58.5507 32.9393C59.6475 32.3964 60.5967 31.5964 61.3172 30.6076C62.2954 29.3005 62.7659 27.6675 62.7659 25.6717V4.82445H58.931Z" fill="#1478C7"/>
</svg>
