<svg width="210" height="45" viewBox="0 0 210 45" fill="none" xmlns="http://www.w3.org/2000/svg">
<path d="M25.2004 26.1329V25.1464V23.8168V17.5117V16.1821L26.2221 14.0375L31.3304 9.96279C32.0115 9.4052 33.0331 9.87702 33.0331 10.7777V30.3363C33.0331 31.237 31.9689 31.7088 31.2878 31.1512L25.2004 26.1329Z" fill="#00AC47"/>
<path d="M8.2584 6.96021L0 15.2812H8.2584V6.96021Z" fill="#EA4335"/>
<path d="M8.2584 15.324H0V26.1756H8.2584V15.324Z" fill="#2684FC"/>
<path d="M0 26.1318V31.7077C0 33.2518 1.2345 34.4957 2.76699 34.4957H8.30097V26.1747H0V26.1318Z" fill="#0066DA"/>
<path d="M26.2657 9.70527C26.2657 8.20406 25.0312 6.96021 23.5839 6.96021H18.1776H8.25903V15.2812H18.3905V20.7284L26.2657 20.4711V9.70527Z" fill="#FFBA00"/>
<path d="M18.3905 26.1331H8.25903V34.4541H18.1351H23.5413C25.0313 34.4541 26.2232 33.2102 26.2232 31.709V20.7288H18.3905V26.1331Z" fill="#00AC47"/>
<path d="M26.2647 14.0803V26.9907L18.3894 20.7285L26.2647 14.0803Z" fill="#00832D"/>
<path d="M142.308 30.8087H139.882V11.7219H142.308L148.906 23.3455H148.992L155.59 11.7219H158.016V30.8087H155.59V19.4853L155.675 16.2684H155.59L149.673 26.734H148.225L142.308 16.2684H142.223L142.308 19.4853V30.8087Z" fill="#5F6368"/>
<path d="M167.254 31.2376C165.338 31.2376 163.763 30.5942 162.529 29.2646C161.294 27.935 160.656 26.3051 160.656 24.2892C160.656 22.3162 161.251 20.6434 162.443 19.3138C163.635 17.9841 165.168 17.2979 167.041 17.2979C168.956 17.2979 170.489 17.9412 171.638 19.1851C172.788 20.4289 173.341 22.1875 173.341 24.4607L173.299 24.7181H163.125C163.167 26.0048 163.593 27.0342 164.402 27.8063C165.21 28.5783 166.189 28.9644 167.296 28.9644C168.829 28.9644 170.063 28.1923 170.957 26.6053L173.128 27.6776C172.532 28.7928 171.723 29.6506 170.702 30.2511C169.723 30.9374 168.573 31.2376 167.254 31.2376ZM163.38 22.7022H170.787C170.702 21.8015 170.361 21.0294 169.68 20.4718C169.042 19.8713 168.148 19.5711 167.041 19.5711C166.104 19.5711 165.338 19.8713 164.657 20.4289C164.018 20.9865 163.593 21.7586 163.38 22.7022Z" fill="#5F6368"/>
<path d="M181.557 31.2376C179.641 31.2376 178.066 30.5942 176.832 29.2646C175.597 27.935 174.959 26.3051 174.959 24.2892C174.959 22.3162 175.555 20.6434 176.747 19.3138C177.939 17.9841 179.471 17.2979 181.344 17.2979C183.26 17.2979 184.792 17.9412 185.942 19.1851C187.091 20.4289 187.644 22.1875 187.644 24.4607L187.602 24.7181H177.428C177.47 26.0048 177.896 27.0342 178.705 27.8063C179.514 28.5783 180.493 28.9644 181.6 28.9644C183.132 28.9644 184.367 28.1923 185.26 26.6053L187.431 27.6776C186.836 28.7928 186.027 29.6506 185.005 30.2511C184.069 30.9374 182.877 31.2376 181.557 31.2376ZM177.683 22.7022H185.133C185.048 21.8015 184.707 21.0294 184.026 20.4718C183.387 19.8713 182.493 19.5711 181.387 19.5711C180.45 19.5711 179.684 19.8713 179.003 20.4289C178.322 20.9865 177.896 21.7586 177.683 22.7022Z" fill="#5F6368"/>
<path d="M194.711 31.0229C193.646 31.0229 192.752 30.6798 192.071 30.0364C191.39 29.393 191.05 28.4494 191.007 27.2913V19.9997H188.751V17.7265H191.007V13.7375H193.434V17.7265H196.626V19.9568H193.434V26.4764C193.434 27.3342 193.604 27.9347 193.944 28.2778C194.285 28.5781 194.668 28.7496 195.094 28.7496C195.307 28.7496 195.477 28.7496 195.647 28.7067C195.86 28.6638 196.03 28.5781 196.158 28.5352L196.924 30.7226C196.286 30.8942 195.519 31.0229 194.711 31.0229Z" fill="#5F6368"/>
<path d="M59.5964 22.7451V19.8284H69.3021C69.3873 20.3431 69.4724 20.9436 69.4724 21.6299C69.4724 23.8174 68.8765 26.5195 66.9608 28.4497C65.0878 30.4227 62.7039 31.4521 59.5538 31.4521C53.7219 31.4521 48.8264 26.6482 48.8264 20.7721C48.8264 14.8959 53.7219 10.092 59.5538 10.092C62.7891 10.092 65.0878 11.3788 66.7906 13.0516L64.7472 15.1104C63.5127 13.9523 61.81 13.0087 59.5113 13.0087C55.2543 13.0087 51.934 16.4829 51.934 20.7721C51.934 25.0612 55.2543 28.5355 59.5113 28.5355C62.2782 28.5355 63.8533 27.4203 64.875 26.3909C65.6838 25.5759 66.2372 24.375 66.45 22.7451H59.5964Z" fill="#5F6368"/>
<path d="M84.2021 24.5453C84.2021 28.4913 81.1371 31.4079 77.3485 31.4079C73.5598 31.4079 70.4949 28.4913 70.4949 24.5453C70.4949 20.5564 73.5598 17.6826 77.3485 17.6826C81.0946 17.6826 84.2021 20.5564 84.2021 24.5453ZM81.1797 24.5453C81.1797 22.0576 79.3918 20.3848 77.3485 20.3848C75.2626 20.3848 73.5173 22.0576 73.5173 24.5453C73.5173 26.9901 75.3052 28.7058 77.3485 28.7058C79.3918 28.7058 81.1797 26.9901 81.1797 24.5453Z" fill="#5F6368"/>
<path d="M99.1013 24.5453C99.1013 28.4913 96.0363 31.4079 92.2477 31.4079C88.459 31.4079 85.394 28.4913 85.394 24.5453C85.394 20.5564 88.459 17.6826 92.2477 17.6826C96.0363 17.6826 99.1013 20.5564 99.1013 24.5453ZM96.1215 24.5453C96.1215 22.0576 94.3336 20.3848 92.2902 20.3848C90.2044 20.3848 88.459 22.0576 88.459 24.5453C88.459 26.9901 90.2469 28.7058 92.2902 28.7058C94.3336 28.7058 96.1215 26.9901 96.1215 24.5453Z" fill="#5F6368"/>
<path d="M113.446 18.0693V30.4221C113.446 35.4833 110.466 37.5849 106.976 37.5849C103.655 37.5849 101.697 35.3546 100.931 33.5102L103.527 32.4379C103.996 33.5531 105.145 34.8828 106.976 34.8828C109.232 34.8828 110.637 33.4674 110.637 30.851V29.8645H110.551C109.87 30.6794 108.593 31.4086 106.976 31.4086C103.57 31.4086 100.42 28.4061 100.42 24.5459C100.42 20.6857 103.527 17.6404 106.976 17.6404C108.593 17.6404 109.913 18.3695 110.551 19.1845H110.637V18.0693H113.446ZM110.807 24.5459C110.807 22.144 109.189 20.3425 107.146 20.3425C105.06 20.3425 103.357 22.1011 103.357 24.5459C103.357 26.9478 105.103 28.7064 107.146 28.7064C109.189 28.7064 110.807 26.9478 110.807 24.5459Z" fill="#5F6368"/>
<path d="M118.512 10.8645V30.9806H115.532V10.8645H118.512Z" fill="#5F6368"/>
<path d="M130.091 26.8185L132.432 28.3626C131.666 29.4778 129.878 31.4079 126.77 31.4079C122.896 31.4079 120.002 28.4055 120.002 24.5453C120.002 20.4706 122.939 17.6826 126.43 17.6826C129.963 17.6826 131.708 20.5135 132.262 22.0576L132.56 22.8296L123.45 26.647C124.131 28.0195 125.238 28.7487 126.77 28.7487C128.218 28.7058 129.282 27.9337 130.091 26.8185ZM122.896 24.3308L128.984 21.8002C128.643 20.9424 127.622 20.3419 126.472 20.3419C124.94 20.299 122.854 21.6715 122.896 24.3308Z" fill="#5F6368"/>
</svg>
