<svg width="66" height="33" viewBox="0 0 66 33" fill="none" xmlns="http://www.w3.org/2000/svg">
<path d="M64.4591 17.9568L0.233887 24.6913L1.00864 32.0455L65.2339 25.3109L64.4591 17.9568Z" fill="#FFE900"/>
<path d="M31.3627 4.16626C29.8966 4.16606 28.4632 4.59968 27.2441 5.41225C26.025 6.22484 25.0749 7.3799 24.5138 8.7313C23.9528 10.0827 23.8061 11.5698 24.0924 13.0043C24.3785 14.439 25.0848 15.7566 26.1218 16.7907C27.1587 17.8247 28.4798 18.5289 29.9179 18.8138C31.3559 19.0987 32.8464 18.9517 34.2008 18.3914C35.5551 17.8311 36.7124 16.8827 37.5265 15.6661C38.3404 14.4495 38.7745 13.0194 38.7735 11.5566C38.7743 10.5856 38.583 9.62406 38.2108 8.7269C37.8385 7.82974 37.2927 7.01462 36.6043 6.32819C35.9159 5.64175 35.0988 5.09748 34.1993 4.72651C33.2999 4.35554 32.3359 4.16516 31.3627 4.16626ZM31.3627 15.6682C30.5476 15.6682 29.7509 15.4271 29.073 14.9753C28.3954 14.5235 27.8671 13.8814 27.5552 13.1301C27.2433 12.3787 27.1617 11.5521 27.3206 10.7545C27.4796 9.9569 27.8722 9.22429 28.4485 8.64927C29.025 8.07426 29.7593 7.68266 30.5587 7.52402C31.3582 7.36536 32.1868 7.44679 32.9399 7.75799C33.6929 8.06918 34.3365 8.59618 34.7894 9.27233C35.2423 9.94848 35.4839 10.7434 35.4839 11.5566C35.4829 12.6463 35.0482 13.6911 34.2754 14.4613C33.5027 15.2314 32.4549 15.6641 31.3627 15.6641V15.6682Z" fill="black"/>
<path d="M55.2127 4.16627C53.7467 4.16627 52.3137 4.59996 51.0949 5.41249C49.876 6.22501 48.926 7.37988 48.365 8.73106C47.8039 10.0822 47.6573 11.569 47.9431 13.0034C48.2292 14.4378 48.9352 15.7554 49.9717 16.7896C51.0083 17.8237 52.329 18.528 53.7668 18.8133C55.2044 19.0986 56.6947 18.9522 58.0491 18.3925C59.4035 17.8329 60.561 16.885 61.3755 15.669C62.1899 14.453 62.6246 13.0233 62.6246 11.5608C62.6266 10.5892 62.4362 9.62679 62.0644 8.72876C61.6925 7.83073 61.1467 7.01479 60.458 6.32776C59.7694 5.64072 58.9516 5.09612 58.0515 4.7252C57.1514 4.35427 56.1866 4.16433 55.2127 4.16627ZM55.2127 15.6682C54.3976 15.6682 53.6009 15.427 52.923 14.9753C52.2453 14.5236 51.7171 13.8814 51.4052 13.1301C51.0933 12.3788 51.0117 11.5521 51.1706 10.7545C51.3296 9.95691 51.7222 9.2243 52.2985 8.64928C52.8749 8.07425 53.6093 7.68267 54.4087 7.52403C55.2082 7.36537 56.0368 7.4468 56.7899 7.758C57.5429 8.06919 58.1865 8.59619 58.6394 9.27234C59.0923 9.94848 59.3339 10.7434 59.3339 11.5566C59.3328 12.6464 58.8981 13.691 58.1253 14.4613C57.3527 15.2314 56.3049 15.664 55.2127 15.664V15.6682Z" fill="black"/>
<path d="M50.6997 3.73509V0.448975H35.877V3.73509H41.6414V18.5569H44.9353V3.73509H50.6997Z" fill="black"/>
<path d="M11.3351 7.84357V11.1297H15.8874C14.836 13.8835 12.8325 15.6629 10.5108 15.6629C9.49521 15.6615 8.49567 15.41 7.60068 14.9311C6.7057 14.4521 5.9429 13.7605 5.37984 12.9172C4.81678 12.074 4.47081 11.1052 4.3726 10.0968C4.2744 9.08829 4.42696 8.07121 4.81679 7.13559C5.20662 6.19999 5.82168 5.37471 6.60751 4.73285C7.39334 4.091 8.3257 3.65236 9.322 3.4558C10.3183 3.25924 11.3478 3.31081 12.3194 3.60595C13.291 3.90108 14.1746 4.43068 14.8921 5.14783L17.2305 2.8137C15.9067 1.4926 14.2201 0.592634 12.3837 0.22758C10.5474 -0.137478 8.64375 0.0487435 6.91345 0.762714C5.18315 1.47668 3.70382 2.68634 2.66242 4.23884C1.62103 5.79134 1.06429 7.61698 1.06258 9.48505C1.05748 10.7245 1.29923 11.9525 1.77378 13.098C2.24834 14.2433 2.94626 15.2833 3.82699 16.1575C4.70278 17.0385 5.74405 17.7388 6.89126 18.2181C8.03849 18.6975 9.26915 18.9467 10.5129 18.9512C13.7391 18.9512 16.6419 16.8785 18.3528 13.5883V18.5559H21.6467V7.84357H11.3351Z" fill="black"/>
</svg>
