<svg width="82" height="40" viewBox="0 0 82 40" fill="none" xmlns="http://www.w3.org/2000/svg">
<path d="M76.8076 22.8064L0.714355 30.7854L1.63228 39.4985L77.7256 31.5195L76.8076 22.8064Z" fill="#FFE900"/>
<path d="M37.5963 6.46778C35.8593 6.46754 34.161 6.98128 32.7166 7.94401C31.2722 8.90676 30.1466 10.2753 29.4818 11.8764C28.8171 13.4775 28.6433 15.2393 28.9825 16.939C29.3215 18.6388 30.1583 20.1999 31.387 21.4251C32.6155 22.6502 34.1806 23.4844 35.8845 23.822C37.5883 24.1596 39.3541 23.9853 40.9589 23.3215C42.5634 22.6577 43.9346 21.5341 44.8991 20.0926C45.8634 18.6513 46.3777 16.9569 46.3766 15.2238C46.3775 14.0734 46.1509 12.9341 45.7099 11.8712C45.2688 10.8082 44.6221 9.84247 43.8065 9.0292C42.9909 8.21591 42.0228 7.57107 40.9571 7.13155C39.8915 6.69204 38.7494 6.46647 37.5963 6.46778ZM37.5963 20.0951C36.6306 20.0951 35.6866 19.8095 34.8835 19.2741C34.0806 18.7389 33.4548 17.9781 33.0852 17.088C32.7157 16.1978 32.619 15.2184 32.8073 14.2734C32.9957 13.3285 33.4608 12.4605 34.1436 11.7792C34.8266 11.0979 35.6966 10.634 36.6437 10.446C37.591 10.258 38.5727 10.3545 39.4649 10.7232C40.3571 11.0919 41.1197 11.7163 41.6562 12.5174C42.1928 13.3185 42.4791 14.2603 42.4791 15.2238C42.4778 16.5148 41.9628 17.7527 41.0472 18.6652C40.1317 19.5776 38.8904 20.0902 37.5963 20.0902V20.0951Z" fill="black"/>
<path d="M65.8524 6.46779C64.1155 6.46779 62.4177 6.98161 60.9736 7.94429C59.5295 8.90696 58.4039 10.2752 57.7393 11.8761C57.0746 13.477 56.9008 15.2385 57.2395 16.9379C57.5783 18.6374 58.4148 20.1985 59.6428 21.4237C60.871 22.6489 62.4357 23.4834 64.1392 23.8214C65.8426 24.1595 67.6083 23.986 69.2128 23.3229C70.8176 22.6598 72.189 21.5368 73.154 20.0961C74.1188 18.6554 74.6339 16.9615 74.6339 15.2288C74.6362 14.0776 74.4107 12.9373 73.9702 11.8734C73.5296 10.8094 72.8829 9.84267 72.067 9.02869C71.2511 8.21469 70.2821 7.56946 69.2157 7.12999C68.1492 6.69053 67.0062 6.46548 65.8524 6.46779ZM65.8524 20.0952C64.8866 20.0952 63.9427 19.8094 63.1396 19.2742C62.3367 18.739 61.7108 17.9782 61.3413 17.088C60.9717 16.1978 60.875 15.2184 61.0634 14.2734C61.2517 13.3285 61.7169 12.4605 62.3997 11.7792C63.0826 11.0979 63.9526 10.634 64.8997 10.446C65.847 10.258 66.8288 10.3545 67.721 10.7232C68.6131 11.0919 69.3757 11.7163 69.9123 12.5174C70.4488 13.3185 70.7351 14.2603 70.7351 15.2238C70.7338 16.5149 70.2188 17.7526 69.3032 18.6652C68.3878 19.5777 67.1464 20.0901 65.8524 20.0901V20.0952Z" fill="black"/>
<path d="M60.5062 5.95682V2.06348H42.9443V5.95682H49.774V23.5176H53.6765V5.95682H60.5062Z" fill="black"/>
<path d="M13.8671 10.8244V14.7177H19.2607C18.0149 17.9804 15.6412 20.0887 12.8905 20.0887C11.6873 20.0869 10.503 19.789 9.44265 19.2216C8.38228 18.6541 7.47853 17.8347 6.81142 16.8356C6.14431 15.8365 5.73442 14.6888 5.61806 13.4939C5.50171 12.2991 5.68246 11.0941 6.14433 9.98557C6.60619 8.87708 7.33491 7.89929 8.26595 7.13883C9.19699 6.37837 10.3016 5.85868 11.482 5.62579C12.6625 5.39291 13.8822 5.45401 15.0333 5.80369C16.1844 6.15336 17.2313 6.78082 18.0814 7.63049L20.852 4.86505C19.2835 3.29981 17.2853 2.23355 15.1095 1.80104C12.9338 1.36852 10.6785 1.58915 8.62843 2.43506C6.57838 3.28095 4.82569 4.71415 3.59186 6.55353C2.35802 8.39291 1.69841 10.5559 1.69638 12.7692C1.69035 14.2376 1.97677 15.6926 2.53901 17.0498C3.10126 18.4067 3.92814 19.6389 4.97162 20.6746C6.00924 21.7185 7.24294 22.5481 8.60214 23.116C9.96136 23.684 11.4194 23.9792 12.893 23.9846C16.7153 23.9846 20.1546 21.5289 22.1816 17.6306V23.5162H26.0842V10.8244H13.8671Z" fill="black"/>
<path d="M78.8364 0.501465L78.4909 3.9148L81.7636 2.9548L82 4.59035L78.8727 4.85702L80.9091 7.66591L79.4 8.50146L77.9636 5.39035L76.6545 8.50146L75.1091 7.66591L77.0909 4.85702L74 4.59035L74.2545 2.9548L77.4727 3.9148L77.1273 0.501465H78.8364Z" fill="#A0A3BD"/>
</svg>
