<svg width="161" height="39" viewBox="0 0 161 39" fill="none" xmlns="http://www.w3.org/2000/svg">
<g clip-path="url(#clip0_1900_38951)">
<path d="M56.2339 13.5712H52.7708V30.4281H56.2339V23.5942H63.8306V30.4281H67.1821V13.5712H63.8306V20.4051H56.2339V13.5712ZM82.8223 23.2525C82.8223 25.9861 81.4817 27.4667 79.024 27.4667C76.5662 27.4667 75.2256 25.9861 75.2256 23.1386V13.5712H71.8741V23.2525C71.8741 28.0362 74.4436 30.7698 79.024 30.7698C83.6043 30.7698 86.1738 28.0362 86.1738 23.1386V13.5712H82.8223V23.2525ZM115.22 13.5712L111.422 25.1888L107.735 13.5712H104.16L109.969 30.4281H112.762L116.56 19.38L120.247 30.4281H123.152L128.849 13.5712H125.386L121.699 25.1888L117.901 13.5712H115.22ZM141.026 20.0634H134.882V16.6464H143.819V13.5712H131.53V30.4281H144.154V27.3528H134.882V23.1386H141.026V20.0634ZM148.176 13.5712H151.527V30.4281H148.176V13.5712ZM100.362 26.8972L101.814 30.4281H105.389L98.1273 13.5712L98.0156 13.4573H95.111L87.8495 30.4281H91.3127L92.765 27.125L92.8767 26.8972H100.362ZM96.5633 17.7854L98.9094 23.4803L99.0211 23.822H93.8821L93.9939 23.4803L96.5633 17.7854Z" fill="#262729"/>
<path d="M19.703 28.7196C19.703 28.7196 19.8147 28.6057 19.703 28.6057C14.5641 17.2159 7.526 8.44577 7.526 8.44577C7.526 8.44577 3.72766 12.0905 3.9511 15.8491C4.06281 18.6966 6.18541 20.2912 6.18541 20.2912C9.53688 23.5942 17.5804 27.8084 19.4796 28.7196H19.703ZM18.3624 31.5671C18.3624 31.4532 18.139 31.4532 18.139 31.4532L4.73311 31.9088C6.18541 34.5284 8.64315 36.5786 11.2126 36.0091C13.0001 35.5535 17.0218 32.706 18.2507 31.7949C18.4741 31.5671 18.3624 31.5671 18.3624 31.5671V31.5671ZM18.5858 30.3142C18.6976 30.2003 18.5858 30.0864 18.5858 30.0864C12.6649 25.9861 1.26992 19.8356 1.26992 19.8356C0.264479 23.1386 1.60507 25.7583 1.60507 25.7583C3.05737 28.9474 5.85026 29.8586 5.85026 29.8586C7.07914 30.4281 8.41972 30.4281 8.41972 30.4281H18.4741C18.5858 30.4281 18.5858 30.3142 18.5858 30.3142ZM19.4796 2.52308C18.921 2.52308 17.357 2.97867 17.357 2.97867C13.7821 3.88985 13.0001 7.19289 13.0001 7.19289C12.3298 9.24306 13.0001 11.521 13.0001 11.521C14.2289 16.8742 20.0382 25.7583 21.267 27.5806L21.3787 27.6945C21.4905 27.6945 21.4905 27.5806 21.4905 27.5806C23.5013 7.64849 19.4796 2.52308 19.4796 2.52308V2.52308ZM23.9482 27.5806C24.0599 27.5806 24.1716 27.4667 24.1716 27.4667C25.5122 25.5305 31.2097 16.7603 32.4386 11.4071C32.4386 11.4071 33.1089 8.78747 32.4386 7.079C32.4386 7.079 31.5449 3.77596 27.97 2.86477C27.97 2.86477 26.9645 2.63698 25.8474 2.40918C25.8474 2.40918 21.8256 7.64849 23.8365 27.3528C23.8365 27.5806 23.9482 27.5806 23.9482 27.5806V27.5806ZM27.0762 31.4532C27.0762 31.4532 26.9645 31.4532 26.9645 31.5671V31.7949C28.3051 32.706 32.1034 35.5535 34.0026 36.0091C34.0026 36.0091 37.4658 37.262 40.4821 31.9088L27.0762 31.4532ZM44.1687 19.7217C44.1687 19.7217 32.7737 25.9861 26.8528 30.0864C26.8528 30.0864 26.7411 30.2003 26.7411 30.3142C26.7411 30.3142 26.7411 30.4281 26.8528 30.4281H37.1306C37.1306 30.4281 38.1361 30.4281 39.4767 29.8586C39.4767 29.8586 42.2696 28.9474 43.8336 25.6444C43.8336 25.5305 45.1742 22.9108 44.1687 19.7217V19.7217ZM25.7357 28.7196C25.7357 28.7196 25.8474 28.8335 25.9591 28.7196C27.8582 27.6945 35.9018 23.5942 39.2532 20.2912C39.2532 20.2912 41.3758 18.5827 41.4876 15.8491C41.711 11.9766 37.9127 8.44577 37.9127 8.44577C37.9127 8.44577 30.8746 16.9881 25.7357 28.4918C25.7357 28.4918 25.6239 28.6057 25.7357 28.7196Z" fill="#CF0A2C"/>
</g>
<defs>
<clipPath id="clip0_1900_38951">
<rect width="159.688" height="38.5455" fill="white" transform="translate(0.895996)"/>
</clipPath>
</defs>
</svg>
