<svg width="128" height="39" viewBox="0 0 128 39" fill="none" xmlns="http://www.w3.org/2000/svg">
<g clip-path="url(#clip0_1900_38955)">
<path fill-rule="evenodd" clip-rule="evenodd" d="M7.33356 19.4354C8.76608 23.1052 12.1382 25.4964 15.8771 25.4937C20.9771 25.4846 25.1084 21.0917 25.1135 15.6724C25.1135 11.6995 22.8609 8.11785 19.4065 6.59809C15.9519 5.07832 11.976 5.9198 9.33312 8.73005C6.6902 11.5403 5.90099 15.7657 7.33356 19.4354ZM8.52769 12.4418C9.75876 9.28285 12.6595 7.22307 15.8771 7.22307C20.2677 7.2267 23.8267 11.007 23.8318 15.6724C23.8331 19.0915 21.8957 22.1747 18.9234 23.484C15.951 24.7934 12.5291 24.071 10.2534 21.6538C7.97778 19.2366 7.29667 15.6007 8.52769 12.4418Z" fill="#2A2AF1"/>
<path fill-rule="evenodd" clip-rule="evenodd" d="M9.6499 15.4666C9.6499 19.1501 12.3952 22.1362 15.7817 22.1362C19.1683 22.1362 21.9136 19.1501 21.9136 15.4666H9.6499Z" fill="#2A2AF1"/>
<path d="M15.8711 31.9502C7.43229 31.9411 0.593362 24.5817 0.584961 15.5006C0.630511 14.1402 1.66854 13.0627 2.93351 13.0627C4.1985 13.0627 5.23652 14.1402 5.28207 15.5006C5.28207 21.7939 10.023 26.8956 15.8711 26.8956C21.7193 26.8956 26.4602 21.7939 26.4602 15.5006C26.5057 14.1402 27.5438 13.0627 28.8088 13.0627C30.0737 13.0627 31.1118 14.1402 31.1573 15.5006C31.1489 24.5817 24.31 31.9411 15.8711 31.9502Z" fill="#2A2AF1"/>
<path fill-rule="evenodd" clip-rule="evenodd" d="M54.9563 9.62866H56.8872L56.8841 12.431C56.0368 12.4376 55.4489 12.4909 55.0486 12.9402C54.7455 13.283 54.6168 13.7922 54.6168 14.6409V15.3066H56.8872V17.9691H54.632V28.8822H49.9966V17.9524H48.2127V15.2899H50.0241V15.1035C50.0241 10.4208 51.5447 9.62866 54.9563 9.62866ZM36.4355 10.0081H40.7743V28.8789H36.4355V10.0081ZM47.1938 10.0081H42.855V12.837H47.1938V10.0081ZM47.1938 15.2899H42.855V28.8788H47.1938V15.2899ZM62.1927 25.6674C62.7552 26.2747 63.5215 26.6053 64.3136 26.5824C65.1204 26.6062 65.8881 26.203 66.3726 25.5008H70.7482C69.4478 28.8889 65.6231 29.2716 63.9831 29.2716C59.6258 29.2716 56.8107 26.5625 56.8107 22.2358C56.8107 17.9092 59.7515 14.9138 63.9583 14.9138C66.1552 14.9138 68.0156 15.6793 69.3287 17.1204C70.6412 18.5615 71.3477 20.5784 71.3847 22.9713H61.3362V23.3674C61.321 24.2291 61.6301 25.0602 62.1927 25.6674ZM61.3362 20.4652C61.3362 18.6846 62.4192 17.5797 64.1605 17.5797C65.6216 17.6104 66.8059 18.8769 66.8591 20.4652V20.8612H61.3362V20.4652ZM98.4514 18.6413H91.9772L91.9803 15.2899H103.626L103.623 18.6413L97.3532 25.4874H103.573V28.8821H91.9772V25.4874L98.4514 18.6413ZM86.0226 10.0081H90.3616V12.8403H86.0226V10.0081ZM90.3616 15.2899H86.0226V28.8788H90.3616V15.2899ZM111.817 26.5824C111.028 26.6017 110.266 26.2691 109.708 25.6619C109.151 25.0546 108.845 24.2255 108.864 23.3674V22.9713H118.836C118.799 20.5784 118.096 18.5615 116.792 17.1204C115.488 15.6793 113.644 14.9138 111.465 14.9138C107.288 14.9138 104.372 17.9092 104.372 22.2358C104.372 26.5625 107.166 29.2716 111.489 29.2716C113.117 29.2716 116.911 28.8889 118.203 25.5008H113.87C113.389 26.2046 112.623 26.6085 111.817 26.5824ZM111.664 17.5797C109.938 17.5797 108.864 18.6846 108.864 20.4652V20.8612H114.341V20.4652C114.297 18.8814 113.12 17.6126 111.664 17.5797ZM79.4775 20.4086L79.4673 20.4063C77.7955 20.0213 76.4758 19.7175 76.4758 18.6447C76.4758 18.1189 76.7175 17.2369 78.3458 17.2369C78.8136 17.2184 79.2738 17.3746 79.6493 17.6795C79.927 17.9226 80.1282 18.2543 80.2245 18.6281H84.3091C83.9143 16.1286 81.8827 14.9138 78.1163 14.9138C77.1245 14.9138 72.1768 15.1202 72.1768 19.2405C72.1768 22.2924 74.885 22.8682 77.2715 23.3741C78.918 23.7069 80.3314 24.0397 80.3314 25.2512C80.3314 26.3062 79.5636 26.9352 78.2815 26.9352C77.7331 26.9487 77.1954 26.7663 76.7515 26.416C76.4626 26.1826 76.2488 25.8567 76.1393 25.4841H71.8803C72.5564 28.7524 76.0263 29.2549 78.0914 29.2549C82.4761 29.2549 84.8934 27.6175 84.8934 24.6521C84.8934 21.6867 81.8918 20.9611 79.4775 20.4086ZM118.661 27.3678C118.66 26.7537 118.999 26.1993 119.521 25.9634C120.042 25.7274 120.643 25.8564 121.042 26.2902C121.442 26.724 121.562 27.377 121.346 27.9445C121.13 28.512 120.622 28.8822 120.057 28.8822C119.687 28.8857 119.33 28.7275 119.068 28.4428C118.805 28.1581 118.659 27.7709 118.661 27.3678ZM119.607 28.5449C119.171 28.347 118.887 27.8824 118.888 27.3679C118.888 27.031 119.011 26.708 119.23 26.4701C119.45 26.2322 119.747 26.099 120.057 26.0999C120.53 26.0999 120.956 26.41 121.137 26.8855C121.318 27.3609 121.217 27.908 120.882 28.2714C120.547 28.6347 120.044 28.7427 119.607 28.5449ZM120.693 28.2299H120.436L120.035 27.4544H119.745V28.2398H119.518V26.5291H120.176C120.461 26.5291 120.715 26.6223 120.715 26.9784C120.724 27.1027 120.684 27.2255 120.604 27.3149C120.525 27.4044 120.413 27.4516 120.299 27.4444L120.693 28.2299ZM119.745 27.2114V26.7887H120.134H120.141C120.328 26.7887 120.488 26.7886 120.488 27.0184C120.488 27.2222 120.266 27.2171 120.069 27.2127C120.041 27.212 120.013 27.2114 119.987 27.2114H119.745Z" fill="#2A2AF1"/>
</g>
<defs>
<clipPath id="clip0_1900_38955">
<rect width="121.121" height="26.8442" fill="white" transform="translate(0.584961 5.85083)"/>
</clipPath>
</defs>
</svg>
