<svg width="132" height="40" viewBox="0 0 132 40" fill="none" xmlns="http://www.w3.org/2000/svg">
<g clip-path="url(#clip0_1920_32846)">
<path fill-rule="evenodd" clip-rule="evenodd" d="M7.01185 20.4799C8.43956 24.1373 11.8004 26.5205 15.5267 26.5178C20.6095 26.5088 24.727 22.1306 24.7321 16.7295C24.7321 12.7699 22.4871 9.20032 19.0442 7.68567C15.6013 6.17101 11.6387 7.00966 9.00469 9.81046C6.37066 12.6112 5.5841 16.8225 7.01185 20.4799ZM8.20197 13.5097C9.42891 10.3614 12.3199 8.30855 15.5267 8.30855C19.9026 8.31217 23.4495 12.0797 23.4546 16.7295C23.4559 20.1371 21.5251 23.2099 18.5628 24.5149C15.6004 25.8198 12.1899 25.0999 9.92192 22.6908C7.65391 20.2818 6.97508 16.6581 8.20197 13.5097Z" fill="#2A2AF1"/>
<path fill-rule="evenodd" clip-rule="evenodd" d="M9.3208 16.5244C9.3208 20.1956 12.0569 23.1717 15.432 23.1717C18.8072 23.1717 21.5433 20.1956 21.5433 16.5244H9.3208Z" fill="#2A2AF1"/>
<path d="M15.5209 32.9526C7.11046 32.9436 0.294506 25.6089 0.286133 16.5583C0.33153 15.2025 1.36607 14.1287 2.6268 14.1287C3.88753 14.1287 4.92206 15.2025 4.96746 16.5583C4.96746 22.8305 9.69242 27.915 15.5209 27.915C21.3495 27.915 26.0745 22.8305 26.0745 16.5583C26.1198 15.2025 27.1544 14.1287 28.4151 14.1287C29.6758 14.1287 30.7104 15.2025 30.7558 16.5583C30.7474 25.6089 23.9315 32.9436 15.5209 32.9526Z" fill="#2A2AF1"/>
<path fill-rule="evenodd" clip-rule="evenodd" d="M54.4747 10.7061H56.399L56.396 13.4989C55.5515 13.5056 54.9656 13.5587 54.5666 14.0065C54.2646 14.3481 54.1363 14.8556 54.1363 15.7015V16.3649H56.399V19.0184H54.1514V29.8949H49.5316V19.0019H47.7537V16.3483H49.559V16.1625C49.559 11.4955 51.0745 10.7061 54.4747 10.7061ZM36.0161 11.0842H40.3403V29.8916H36.0161V11.0842ZM46.7382 11.0842H42.414V13.9036H46.7382V11.0842ZM46.7382 16.3482H42.414V29.8915H46.7382V16.3482ZM61.6867 26.6909C62.2473 27.2962 63.011 27.6257 63.8005 27.6028C64.6045 27.6266 65.3697 27.2247 65.8526 26.5248H70.2134C68.9174 29.9015 65.1056 30.283 63.4711 30.283C59.1285 30.283 56.3228 27.583 56.3228 23.2708C56.3228 18.9587 59.2537 15.9735 63.4464 15.9735C65.6359 15.9735 67.4901 16.7364 68.7987 18.1726C70.1069 19.6089 70.8109 21.619 70.8478 24.0039H60.8331V24.3986C60.818 25.2575 61.1261 26.0857 61.6867 26.6909ZM60.8331 21.5062C60.8331 19.7316 61.9125 18.6303 63.6479 18.6303C65.1041 18.661 66.2844 19.9232 66.3375 21.5062V21.9009H60.8331V21.5062ZM97.8236 19.6884H91.3712L91.3742 16.3482H102.98L102.977 19.6884L96.7291 26.5115H102.928V29.8948H91.3712V26.5115L97.8236 19.6884ZM85.4365 11.0842H89.761V13.9069H85.4365V11.0842ZM89.761 16.3482H85.4365V29.8915H89.761V16.3482ZM111.144 27.6028C110.358 27.6221 109.598 27.2906 109.042 26.6854C108.487 26.0801 108.183 25.2539 108.201 24.3986V24.0039H118.14C118.103 21.619 117.402 19.6089 116.102 18.1726C114.803 16.7364 112.965 15.9735 110.794 15.9735C106.631 15.9735 103.724 18.9587 103.724 23.2708C103.724 27.583 106.509 30.283 110.818 30.283C112.44 30.283 116.222 29.9015 117.509 26.5248H113.19C112.711 27.2263 111.947 27.6289 111.144 27.6028ZM110.991 18.6303C109.272 18.6303 108.201 19.7316 108.201 21.5062V21.9009H113.66V21.5062C113.616 19.9277 112.443 18.6632 110.991 18.6303ZM78.9134 21.4498L78.9033 21.4475C77.2371 21.0638 75.9218 20.761 75.9218 19.6918C75.9218 19.1677 76.1628 18.2887 77.7856 18.2887C78.2518 18.2703 78.7104 18.4259 79.0846 18.7299C79.3614 18.9721 79.5619 19.3027 79.6579 19.6752H83.7288C83.3354 17.1842 81.3105 15.9735 77.5568 15.9735C76.5683 15.9735 71.6373 16.1791 71.6373 20.2856C71.6373 23.3272 74.3364 23.9011 76.7148 24.4053C78.3558 24.737 79.7645 25.0687 79.7645 26.2761C79.7645 27.3275 78.9993 27.9545 77.7214 27.9545C77.1749 27.9679 76.6391 27.7861 76.1966 27.437C75.9087 27.2044 75.6956 26.8796 75.5865 26.5082H71.3418C72.0156 29.7655 75.4738 30.2664 77.532 30.2664C81.902 30.2664 84.3112 28.6344 84.3112 25.679C84.3112 22.7235 81.3196 22.0005 78.9134 21.4498ZM117.966 28.3856C117.965 27.7736 118.303 27.221 118.822 26.9859C119.341 26.7507 119.94 26.8793 120.338 27.3116C120.737 27.744 120.857 28.3948 120.642 28.9604C120.426 29.526 119.919 29.8949 119.357 29.8949C118.987 29.8984 118.632 29.7407 118.371 29.4569C118.109 29.1732 117.964 28.7873 117.966 28.3856ZM118.909 29.5587C118.473 29.3615 118.19 28.8985 118.191 28.3857C118.191 28.0499 118.314 27.728 118.533 27.4909C118.752 27.2538 119.047 27.1211 119.357 27.122C119.828 27.122 120.253 27.431 120.433 27.9049C120.613 28.3788 120.513 28.924 120.179 29.2861C119.845 29.6483 119.343 29.7559 118.909 29.5587ZM119.99 29.2447H119.734L119.335 28.4719H119.045V29.2547H118.82V27.5498H119.475C119.759 27.5498 120.012 27.6426 120.012 27.9975C120.022 28.1213 119.982 28.2437 119.902 28.3329C119.823 28.422 119.711 28.4691 119.598 28.4619L119.99 29.2447ZM119.045 28.2297V27.8085H119.433H119.44C119.626 27.8084 119.786 27.8084 119.786 28.0374C119.786 28.2405 119.565 28.2354 119.368 28.231C119.34 28.2304 119.313 28.2297 119.286 28.2297H119.045Z" fill="#2A2AF1"/>
</g>
<path d="M121.836 1L121.491 4.41333L124.764 3.45333L125 5.08889L121.873 5.35556L123.909 8.16444L122.4 9L120.964 5.88889L119.655 9L118.109 8.16444L120.091 5.35556L117 5.08889L117.255 3.45333L120.473 4.41333L120.127 1H121.836Z" fill="#A0A3BD"/>
<defs>
<clipPath id="clip0_1920_32846">
<rect width="120.714" height="26.754" fill="white" transform="translate(0.286133 6.94092)"/>
</clipPath>
</defs>
</svg>
