<svg width="125" height="39" viewBox="0 0 125 39" fill="none" xmlns="http://www.w3.org/2000/svg">
<g clip-path="url(#clip0_1900_38962)">
<path d="M100.889 2.40894H102.273C104.802 2.51671 107.311 3.17287 109.545 4.35713C111.512 5.39304 113.274 6.81187 114.69 8.51725C116.229 10.3545 117.363 12.522 117.993 14.8265C118.792 17.7409 118.785 20.8683 117.972 23.7788C116.818 27.9738 113.939 31.6597 110.148 33.8381C108.035 35.0661 105.648 35.8268 103.209 36.0519C102.832 36.0906 102.452 36.0982 102.076 36.1362H100.969C100.734 36.1026 100.498 36.0925 100.264 36.0772C97.635 35.8833 95.056 35.0642 92.8023 33.7087C89.1981 31.5634 86.4504 28.0474 85.2737 24.0432C84.3526 20.9431 84.3533 17.5792 85.2756 14.4797C85.8943 12.3959 86.9272 10.435 88.2969 8.73977C89.7906 6.88477 91.6818 5.34422 93.8122 4.26013C95.9968 3.13737 98.4326 2.51608 100.889 2.40894ZM91.9119 9.15629C91.6512 9.24441 91.4645 9.49166 91.4492 9.76427C91.3981 10.2676 91.439 10.7761 91.4255 11.2814C91.4562 12.7414 91.4358 14.2027 91.4415 15.6627C91.4415 19.4431 91.4415 23.2228 91.4415 27.0032C91.4518 27.577 91.414 28.1532 91.476 28.7257C91.4933 28.9235 91.586 29.1308 91.7816 29.2126C92.1178 29.354 92.4949 29.2893 92.8502 29.3052C93.5322 29.3362 94.2155 29.314 94.8981 29.3223C95.1959 29.3432 95.543 29.3001 95.7315 29.0408C95.9329 28.7187 95.8734 28.32 95.8843 27.9592C95.8562 27.0089 95.8702 26.0586 95.8677 25.1083C95.8677 21.6836 95.8671 18.2582 95.8683 14.8335C95.8313 13.1624 95.8645 11.4899 95.8479 9.81816C95.8453 9.50244 95.6478 9.13537 95.2912 9.13157C94.5823 9.12396 93.8735 9.13157 93.1653 9.12903C92.748 9.14488 92.3242 9.09416 91.9119 9.15629ZM106.365 14.3777C105.572 14.4867 104.778 14.7156 104.111 15.1682C103.761 15.4041 103.484 15.7242 103.171 16.0025C103.054 16.1179 102.842 16.1243 102.739 15.988C102.5 15.7141 102.503 15.3305 102.407 14.9996C102.294 14.7467 101.977 14.7016 101.733 14.6801C101.093 14.6706 100.453 14.6782 99.8138 14.6769C99.5531 14.6902 99.2731 14.6775 99.0385 14.8069C98.8359 14.9305 98.7548 15.1803 98.7599 15.406C98.7592 16.0406 98.7599 16.6758 98.7599 17.3104C98.7311 20.7966 98.7484 24.2841 98.7433 27.771C98.7375 28.1431 98.6819 28.5305 98.8046 28.8912C98.8749 29.1048 99.075 29.2697 99.3044 29.2823C99.771 29.328 100.241 29.295 100.71 29.3052C101.212 29.2957 101.719 29.3343 102.216 29.257C102.549 29.1917 102.742 28.8468 102.737 28.5292C102.741 27.1966 102.737 25.864 102.739 24.5314C102.746 22.9369 102.686 21.3323 102.931 19.75C103.07 19.0608 103.444 18.4097 104.002 17.9717C104.478 17.5951 105.086 17.4106 105.69 17.3922C106.358 17.3707 107.071 17.5108 107.587 17.959C108.053 18.3501 108.309 18.9334 108.411 19.5205C108.501 20.11 108.515 20.7079 108.538 21.3032C108.542 23.0777 108.536 24.8515 108.54 26.6254C108.574 27.2999 108.541 27.9757 108.56 28.6509C108.56 28.9673 108.805 29.2697 109.135 29.2804C110.031 29.3191 110.928 29.3229 111.824 29.2944C112.043 29.2976 112.291 29.2399 112.41 29.0383C112.582 28.7511 112.498 28.4024 112.518 28.0867C112.544 25.2547 112.531 22.4221 112.534 19.5902C112.518 18.709 112.376 17.8233 112.059 16.9979C111.69 16.0197 110.899 15.224 109.948 14.7904C108.83 14.2997 107.566 14.2281 106.365 14.3777Z" fill="#26546C"/>
<path d="M115.948 3.46538C116.85 3.2175 117.873 3.74813 118.184 4.62111C118.522 5.46049 118.139 6.5021 117.333 6.92369C116.7 7.28252 115.856 7.2261 115.28 6.78422C114.786 6.42096 114.489 5.80981 114.529 5.19929C114.544 4.39288 115.16 3.64987 115.948 3.46538ZM116.008 3.77666C115.429 3.92881 114.963 4.43219 114.864 5.01798C114.763 5.55241 114.983 6.12869 115.403 6.47548C115.685 6.71702 116.058 6.84572 116.43 6.84698C116.924 6.83874 117.411 6.58896 117.696 6.18575C118.012 5.75782 118.075 5.16125 117.861 4.67627C117.577 3.97826 116.739 3.56365 116.008 3.77666Z" fill="#26546C"/>
<path d="M115.81 4.36175C116.081 4.33005 116.355 4.34273 116.628 4.34336C116.814 4.34146 117.017 4.40359 117.128 4.56272C117.248 4.75988 117.244 5.03629 117.093 5.21698C117.004 5.31461 116.874 5.35899 116.761 5.41985C116.87 5.68358 117.077 5.89152 117.193 6.15145C117.154 6.27507 116.987 6.24211 116.91 6.18378C116.722 5.95365 116.603 5.67597 116.409 5.45091C116.321 5.39132 116.212 5.4376 116.119 5.44457C116.11 5.70006 116.123 5.95682 116.092 6.21168C115.998 6.21612 115.906 6.21738 115.816 6.21485C115.798 5.59736 115.813 4.97924 115.81 4.36175ZM116.112 4.61978C116.099 4.79348 116.095 4.96846 116.12 5.14153C116.325 5.17133 116.545 5.19923 116.744 5.12125C116.943 5.0458 116.951 4.71868 116.752 4.63753C116.548 4.56462 116.318 4.55321 116.112 4.61978Z" fill="#26546C"/>
<path d="M1.19186 8.90511C2.09179 8.9216 2.99173 8.86581 3.89166 8.89941C4.06295 8.91209 4.2515 8.8918 4.40234 8.98816C4.61327 9.12764 4.68102 9.39708 4.67654 9.63545C4.67462 13.5445 4.67654 17.4536 4.6759 21.3627C4.67846 22.2287 4.66312 23.0953 4.70275 23.9607C4.72384 24.317 4.66823 24.6891 4.78967 25.0333C4.91303 25.3136 5.24923 25.4093 5.53301 25.4182C6.06799 25.4283 6.60424 25.4245 7.13921 25.4068C8.693 25.4055 10.2462 25.4074 11.7999 25.4055C12.0869 25.4118 12.3803 25.4359 12.6513 25.5348C12.8859 25.6217 12.9613 25.8943 12.9536 26.12C12.9549 26.8807 12.944 27.6421 12.9702 28.4029C13.0086 28.7985 12.6347 29.1358 12.248 29.1275C11.2905 29.1301 10.3318 29.1421 9.37434 29.1142C7.52015 29.1142 5.6666 29.1161 3.8124 29.1136C2.81276 29.0724 1.81184 29.1282 0.812201 29.0806C0.508602 29.0825 0.274032 28.8207 0.233765 28.536V9.62404C0.250383 9.4161 0.293845 9.18279 0.474727 9.05093C0.672865 8.88356 0.948981 8.90765 1.19186 8.90511Z" fill="#26546C"/>
<path d="M48.6981 8.89839C49.5655 8.88001 50.4341 8.89712 51.302 8.88952C51.5929 8.88254 51.908 8.93453 52.1291 9.13803C52.3304 9.31491 52.3739 9.59196 52.4627 9.83096C53.8146 13.7686 55.1638 17.7068 56.5278 21.64C56.6249 21.8498 56.6818 22.1421 56.9317 22.2226C57.1548 22.1757 57.2417 21.9411 57.3063 21.7515C58.6268 17.7879 59.9147 13.8142 61.216 9.84491C61.3138 9.60907 61.3598 9.33647 61.5471 9.14818C61.6941 9.00363 61.8884 8.88825 62.1019 8.89142C63.788 8.89078 65.4741 8.88952 67.1601 8.89205C67.5181 8.89459 67.8293 9.21728 67.8076 9.57421C67.8089 15.5957 67.8076 21.6165 67.8083 27.638C67.8089 27.9797 67.8095 28.3226 67.7782 28.6631C67.7322 28.9515 67.4273 29.1227 67.1512 29.1138C66.257 29.105 65.3635 29.1417 64.4699 29.1303C64.2124 29.1278 63.9183 29.0555 63.7733 28.8247C63.6467 28.6466 63.6704 28.4184 63.6691 28.2123C63.6838 26.1411 63.6486 24.0712 63.6537 22.0007C63.6633 20.2458 63.625 18.4916 63.6384 16.7374C63.6333 16.5206 63.6608 16.2949 63.5809 16.0883C63.4895 15.9691 63.329 16.0857 63.2319 16.1409C62.9737 16.4763 62.8682 16.8953 62.7097 17.2801C61.6755 20.1254 60.7353 23.0036 59.7434 25.8635C59.418 26.7998 59.1017 27.7394 58.7425 28.6637C58.6587 28.8862 58.4778 29.1348 58.2094 29.1157C57.3548 29.1449 56.4997 29.1278 55.6457 29.1284C55.2629 29.1252 55.0117 28.781 54.8947 28.4564C53.5225 24.6329 52.1687 20.8031 50.7977 16.979C50.6853 16.7159 50.5977 16.3976 50.335 16.243C50.1944 16.1751 50.0672 16.293 50.0506 16.4287C49.9969 16.7394 50.034 17.057 50.0237 17.3708C50.0352 21.0282 49.9962 24.6855 50.009 28.3429C50.0256 28.6003 49.9394 28.8919 49.6984 29.0232C49.4996 29.1094 49.2791 29.1481 49.0631 29.1455C48.4028 29.11 47.7413 29.1512 47.0817 29.1145C46.7449 29.0967 46.3614 29.1874 46.0718 28.9668C45.8328 28.7683 45.8558 28.4317 45.8385 28.1527C45.836 22.1706 45.8385 16.1891 45.8373 10.2075C45.8347 9.92162 45.8277 9.63253 45.8929 9.35232C45.9446 9.07654 46.2406 8.91931 46.5033 8.90917C47.2344 8.89839 47.9669 8.92058 48.6981 8.89839Z" fill="#26546C"/>
<path d="M35.106 14.1267C36.192 14.0259 37.338 14.0817 38.3306 14.5736C38.8592 14.8247 39.297 15.2184 39.7278 15.6045C39.8569 15.7332 40.0793 15.7693 40.2206 15.6374C40.4411 15.4269 40.4366 15.1043 40.505 14.8297C40.5907 14.5381 40.9396 14.4925 41.2004 14.4944C41.9904 14.4836 42.7817 14.4747 43.5717 14.5007C43.9008 14.4899 44.2262 14.7499 44.2185 15.0903C44.2306 16.7798 44.2204 18.4706 44.2236 20.1602C44.2569 22.7163 44.2313 25.2732 44.2402 27.8293C44.2409 29.0776 44.0594 30.3576 43.4803 31.4797C43.0009 32.4358 42.2128 33.2282 41.2688 33.7373C40.0589 34.3928 38.6687 34.6356 37.3047 34.6845C35.7305 34.7523 34.0987 34.5456 32.6964 33.7931C31.553 33.1851 30.5789 32.167 30.2357 30.9041C30.1807 30.6816 30.1353 30.3982 30.3258 30.2251C30.506 30.0311 30.7885 29.9981 31.0404 30.0013C31.7204 30.0064 32.4011 29.9905 33.0806 30.0184C33.4187 30.014 33.838 29.974 34.0668 30.2777C34.2611 30.5858 34.4509 30.9028 34.72 31.1551C35.2588 31.7086 36.0322 31.9951 36.7998 32.0205C37.5917 32.0497 38.4271 31.9051 39.0784 31.4315C39.6172 31.0569 39.9854 30.4768 40.1822 29.8612C40.3312 29.4123 40.3503 28.9369 40.3989 28.4703C40.4245 28.1533 40.4724 27.835 40.4462 27.5168C40.436 27.2968 40.2212 27.099 39.9956 27.1586C39.6779 27.2118 39.5258 27.5314 39.267 27.6873C38.3888 28.2807 37.3437 28.6313 36.2853 28.7182C34.938 28.7911 33.5452 28.4817 32.4152 27.7323C31.4916 27.1288 30.7809 26.2368 30.3303 25.2402C29.7883 24.0471 29.5793 22.7278 29.5665 21.4262C29.5352 19.7728 29.9819 18.1055 30.8876 16.7126C31.4315 15.8942 32.1647 15.186 33.0473 14.7353C33.6865 14.405 34.3915 14.2072 35.106 14.1267ZM36.2533 17.1602C35.209 17.3644 34.3467 18.1562 33.9626 19.1281C33.5126 20.2382 33.5529 21.4776 33.7517 22.6384C33.93 23.576 34.3352 24.5301 35.1246 25.1197C35.9683 25.748 37.1437 25.838 38.1158 25.4684C38.918 25.1603 39.538 24.4908 39.885 23.7206C40.3177 22.7696 40.4392 21.7033 40.3804 20.6699C40.3056 19.5123 39.7323 18.3679 38.7556 17.7067C38.0404 17.2014 37.1181 16.9751 36.2533 17.1602Z" fill="#26546C"/>
<path d="M75.4986 14.1291C77.0958 13.9611 78.7819 14.2058 80.1644 15.0541C81.8742 16.078 82.9971 17.8854 83.4426 19.7899C83.6235 20.5709 83.7009 21.3837 83.6075 22.1818C83.5845 22.4196 83.4152 22.6231 83.1793 22.6782C82.5798 22.831 81.9547 22.7575 81.343 22.7752C78.9801 22.7689 76.6158 22.7898 74.2535 22.7594C73.962 22.7708 73.6488 22.7131 73.3791 22.8488C73.1356 22.9743 72.9841 23.2501 73.0033 23.5208C73.0474 24.5535 73.6783 25.5336 74.5954 26.0212C75.4084 26.4548 76.3723 26.5727 77.2799 26.4523C78.1977 26.3286 79.012 25.7879 79.5757 25.0721C79.7643 24.8115 80.0417 24.5662 80.3868 24.5814C81.1743 24.5852 81.9624 24.577 82.7498 24.5852C82.9236 24.5827 83.0272 24.7545 83.0547 24.906C83.1365 25.1672 83.0195 25.4284 82.9179 25.6655C82.3772 26.9062 81.4197 27.9662 80.227 28.6211C79.0932 29.2493 77.7784 29.5086 76.4873 29.496C75.1598 29.5086 73.8074 29.2779 72.6192 28.6724C71.6266 28.1735 70.7829 27.3975 70.1891 26.4662C69.6477 25.618 69.2879 24.6638 69.084 23.6831C68.9006 22.7746 68.8175 21.8382 68.9338 20.9158C69.1447 19.2117 69.8599 17.5532 71.0411 16.2878C72.1858 15.0446 73.8163 14.2902 75.4986 14.1291ZM75.753 17.105C74.7533 17.2597 73.8412 17.8873 73.3542 18.7679C73.1746 19.1026 73.0078 19.4976 73.1279 19.8799C73.2302 20.1817 73.5907 20.2374 73.8694 20.2495C74.3794 20.2609 74.8901 20.2603 75.4008 20.2393C76.4656 20.2387 77.5311 20.2387 78.5966 20.2393C78.835 20.2336 79.12 20.2197 79.2792 20.0149C79.4434 19.8127 79.414 19.5274 79.3322 19.2979C79.0401 18.4826 78.4924 17.7117 77.6877 17.3307C77.0933 17.0334 76.4004 16.9991 75.753 17.105Z" fill="#26546C"/>
<path d="M19.4468 14.1865C21.1373 13.9976 22.9206 14.1326 24.4642 14.8921C25.8096 15.5337 26.8961 16.652 27.5711 17.9656C28.076 18.9381 28.3892 20.0121 28.4646 21.1044C28.5075 22.2195 28.4301 23.3505 28.1144 24.4264C27.7878 25.5511 27.1972 26.6092 26.3548 27.434C25.3826 28.4065 24.1005 29.0404 22.7582 29.3327C21.3412 29.6376 19.8488 29.6155 18.4452 29.2509C16.9266 28.8579 15.5505 27.9386 14.6301 26.6745C13.5876 25.3063 13.1051 23.5724 13.114 21.8709C13.1172 20.4672 13.4278 19.056 14.0823 17.8084C14.6863 16.6317 15.6355 15.6186 16.8135 14.9942C17.6265 14.5561 18.5309 14.2993 19.4468 14.1865ZM20.339 17.1719C19.4225 17.2917 18.5609 17.7855 18.0259 18.5368C17.3452 19.4814 17.1516 20.6752 17.1381 21.8119C17.1401 22.9651 17.3484 24.1715 18.0304 25.1314C18.5877 25.9333 19.5126 26.4868 20.5001 26.5356C21.4761 26.58 22.4987 26.2649 23.1929 25.5631C23.8774 24.9012 24.2104 23.9642 24.3453 23.0437C24.4897 21.9742 24.459 20.8666 24.1471 19.8276C23.8678 18.9001 23.3086 18.0112 22.4457 17.5205C21.8161 17.1478 21.0543 17.0628 20.339 17.1719Z" fill="#26546C"/>
</g>
<defs>
<clipPath id="clip0_1900_38962">
<rect width="123.896" height="38.5455" fill="white" transform="translate(0.233765)"/>
</clipPath>
</defs>
</svg>
