<?xml version="1.0" encoding="utf-8"?>
<!-- Generator: Adobe Illustrator 26.2.1, SVG Export Plug-In . SVG Version: 6.00 Build 0)  -->
<svg version="1.1" id="Layer_1" xmlns="http://www.w3.org/2000/svg" xmlns:xlink="http://www.w3.org/1999/xlink" x="0px" y="0px"
	 viewBox="0 0 207.2 69" style="enable-background:new 0 0 207.2 69;" xml:space="preserve">
<style type="text/css">
	.st0{fill:#4B59CD;}
	.st1{fill:#5059C9;}
	.st2{fill:#7B83EB;}
	.st3{fill-opacity:0.2;}
	.st4{fill-opacity:9.800000e-02;}
	.st5{fill:#4B53BC;}
	.st6{fill:#FFFFFF;}
</style>
<path class="st0" d="M83.6,42.4h-1.6V33c0-0.7,0-1.6,0.1-2.7h0c-0.2,0.6-0.3,1.1-0.4,1.3l-4.7,10.7h-0.8l-4.7-10.6
	c-0.1-0.3-0.3-0.8-0.4-1.4h0c0.1,0.6,0.1,1.5,0.1,2.7v9.3h-1.6V28.5h2.2l4.3,9.7c0.3,0.7,0.5,1.3,0.6,1.7h0.1
	c0.3-0.8,0.5-1.3,0.7-1.7l4.4-9.7h2V42.4z"/>
<path class="st0" d="M87.6,29.9c-0.3,0-0.5-0.1-0.7-0.3c-0.2-0.2-0.3-0.4-0.3-0.7c0-0.3,0.1-0.5,0.3-0.7c0.2-0.2,0.4-0.3,0.7-0.3
	c0.3,0,0.5,0.1,0.7,0.3c0.2,0.2,0.3,0.4,0.3,0.7c0,0.3-0.1,0.5-0.3,0.7C88.2,29.8,87.9,29.9,87.6,29.9z M88.4,42.4h-1.6v-9.9h1.6
	V42.4z"/>
<path class="st0" d="M98.2,41.9c-0.8,0.5-1.7,0.7-2.7,0.7c-1.4,0-2.6-0.5-3.4-1.4c-0.9-0.9-1.3-2.1-1.3-3.6c0-1.6,0.5-2.9,1.4-3.9
	c0.9-1,2.2-1.5,3.8-1.5c0.9,0,1.6,0.2,2.3,0.5v1.6c-0.7-0.5-1.5-0.8-2.4-0.8c-1,0-1.8,0.4-2.5,1.1c-0.6,0.7-1,1.7-1,2.9
	c0,1.2,0.3,2.1,0.9,2.8c0.6,0.7,1.4,1,2.5,1c0.9,0,1.7-0.3,2.4-0.9V41.9z"/>
<path class="st0" d="M105.6,34.1c-0.3-0.2-0.7-0.3-1.2-0.3c-0.7,0-1.2,0.3-1.7,1c-0.5,0.6-0.7,1.5-0.7,2.6v5.1h-1.6v-9.9h1.6v2h0
	c0.2-0.7,0.6-1.2,1-1.6c0.5-0.4,1-0.6,1.6-0.6c0.4,0,0.7,0,0.9,0.1V34.1z"/>
<path class="st0" d="M111.2,42.6c-1.5,0-2.6-0.5-3.5-1.4c-0.9-0.9-1.3-2.2-1.3-3.7c0-1.7,0.5-3,1.4-3.9c0.9-0.9,2.1-1.4,3.7-1.4
	c1.5,0,2.6,0.5,3.5,1.4c0.8,0.9,1.2,2.2,1.2,3.8c0,1.6-0.4,2.9-1.3,3.8C113.9,42.1,112.7,42.6,111.2,42.6z M111.3,33.5
	c-1,0-1.8,0.3-2.4,1c-0.6,0.7-0.9,1.6-0.9,2.9c0,1.2,0.3,2.1,0.9,2.8c0.6,0.7,1.4,1,2.4,1c1,0,1.8-0.3,2.4-1
	c0.6-0.7,0.8-1.6,0.8-2.8c0-1.2-0.3-2.2-0.8-2.9C113.2,33.9,112.4,33.5,111.3,33.5z"/>
<path class="st0" d="M117.9,42v-1.7c0.9,0.6,1.8,1,2.9,1c1.4,0,2.1-0.5,2.1-1.4c0-0.3-0.1-0.5-0.2-0.7c-0.1-0.2-0.3-0.4-0.5-0.5
	c-0.2-0.1-0.4-0.3-0.7-0.4c-0.3-0.1-0.6-0.2-0.9-0.4c-0.4-0.2-0.8-0.3-1.2-0.5c-0.3-0.2-0.6-0.4-0.8-0.6c-0.2-0.2-0.4-0.5-0.5-0.8
	c-0.1-0.3-0.2-0.6-0.2-1c0-0.5,0.1-0.9,0.3-1.2c0.2-0.4,0.5-0.7,0.9-0.9c0.4-0.2,0.8-0.4,1.2-0.6c0.5-0.1,0.9-0.2,1.4-0.2
	c0.9,0,1.6,0.1,2.3,0.4v1.6c-0.7-0.5-1.6-0.7-2.5-0.7c-0.3,0-0.6,0-0.8,0.1c-0.2,0.1-0.4,0.2-0.6,0.3c-0.2,0.1-0.3,0.3-0.4,0.4
	c-0.1,0.2-0.1,0.4-0.1,0.6c0,0.3,0,0.5,0.1,0.6c0.1,0.2,0.2,0.3,0.4,0.5c0.2,0.1,0.4,0.3,0.7,0.4c0.3,0.1,0.6,0.2,0.9,0.4
	c0.4,0.2,0.8,0.3,1.2,0.5c0.3,0.2,0.6,0.4,0.9,0.6c0.2,0.2,0.4,0.5,0.6,0.8c0.1,0.3,0.2,0.6,0.2,1c0,0.5-0.1,0.9-0.3,1.3
	c-0.2,0.4-0.5,0.7-0.9,0.9c-0.4,0.2-0.8,0.4-1.2,0.5c-0.5,0.1-1,0.2-1.5,0.2C119.5,42.6,118.7,42.4,117.9,42z"/>
<path class="st0" d="M130.9,42.6c-1.5,0-2.6-0.5-3.5-1.4c-0.9-0.9-1.3-2.2-1.3-3.7c0-1.7,0.5-3,1.4-3.9c0.9-0.9,2.1-1.4,3.7-1.4
	c1.5,0,2.6,0.5,3.5,1.4c0.8,0.9,1.2,2.2,1.2,3.8c0,1.6-0.4,2.9-1.3,3.8C133.6,42.1,132.4,42.6,130.9,42.6z M131,33.5
	c-1,0-1.8,0.3-2.4,1c-0.6,0.7-0.9,1.6-0.9,2.9c0,1.2,0.3,2.1,0.9,2.8c0.6,0.7,1.4,1,2.4,1c1,0,1.8-0.3,2.4-1
	c0.6-0.7,0.8-1.6,0.8-2.8c0-1.2-0.3-2.2-0.8-2.9C132.8,33.9,132,33.5,131,33.5z"/>
<path class="st0" d="M164.4,29.9h-4v12.4h-1.6V29.9h-4v-1.5h9.6V29.9z"/>
<path class="st0" d="M172.2,37.8h-7c0,1.1,0.3,2,0.9,2.6c0.6,0.6,1.3,0.9,2.3,0.9c1.1,0,2.1-0.4,3.1-1.1v1.5c-0.9,0.6-2,0.9-3.5,0.9
	c-1.4,0-2.5-0.4-3.3-1.3c-0.8-0.9-1.2-2.2-1.2-3.8c0-1.5,0.4-2.8,1.3-3.8c0.9-1,2-1.5,3.3-1.5c1.3,0,2.3,0.4,3,1.3s1.1,2,1.1,3.5
	V37.8z M170.6,36.5c0-0.9-0.2-1.6-0.7-2.1c-0.4-0.5-1-0.8-1.8-0.8c-0.7,0-1.4,0.3-1.9,0.8c-0.5,0.5-0.8,1.2-1,2.1H170.6z"/>
<path class="st0" d="M181.5,42.4h-1.6v-1.6h0c-0.7,1.2-1.7,1.8-3.1,1.8c-1,0-1.8-0.3-2.3-0.8c-0.6-0.5-0.8-1.2-0.8-2.1
	c0-1.9,1.1-2.9,3.3-3.2l3-0.4c0-1.7-0.7-2.5-2-2.5c-1.2,0-2.3,0.4-3.2,1.2v-1.6c1-0.6,2.1-0.9,3.4-0.9c2.3,0,3.5,1.2,3.5,3.7V42.4z
	 M179.9,37.3l-2.4,0.3c-0.7,0.1-1.3,0.3-1.7,0.6c-0.4,0.3-0.6,0.7-0.6,1.4c0,0.5,0.2,0.9,0.5,1.2c0.3,0.3,0.8,0.5,1.4,0.5
	c0.8,0,1.4-0.3,1.9-0.8c0.5-0.6,0.8-1.3,0.8-2.1V37.3z"/>
<path class="st0" d="M198.4,42.4h-1.6v-5.7c0-1.1-0.2-1.9-0.5-2.4c-0.3-0.5-0.9-0.7-1.7-0.7c-0.7,0-1.3,0.3-1.7,0.9
	c-0.5,0.6-0.7,1.4-0.7,2.2v5.7h-1.6v-5.9c0-2-0.8-2.9-2.3-2.9c-0.7,0-1.3,0.3-1.7,0.9c-0.5,0.6-0.7,1.3-0.7,2.3v5.7h-1.6v-9.9h1.6
	V34h0c0.7-1.2,1.7-1.8,3.1-1.8c0.7,0,1.3,0.2,1.8,0.6c0.5,0.4,0.8,0.9,1,1.5c0.7-1.4,1.8-2.1,3.3-2.1c2.2,0,3.3,1.3,3.3,4V42.4z"/>
<path class="st0" d="M200.6,42v-1.7c0.9,0.6,1.8,1,2.9,1c1.4,0,2.1-0.5,2.1-1.4c0-0.3-0.1-0.5-0.2-0.7c-0.1-0.2-0.3-0.4-0.5-0.5
	c-0.2-0.1-0.4-0.3-0.7-0.4c-0.3-0.1-0.6-0.2-0.9-0.4c-0.4-0.2-0.8-0.3-1.2-0.5c-0.3-0.2-0.6-0.4-0.8-0.6c-0.2-0.2-0.4-0.5-0.5-0.8
	c-0.1-0.3-0.2-0.6-0.2-1c0-0.5,0.1-0.9,0.3-1.2c0.2-0.4,0.5-0.7,0.9-0.9c0.4-0.2,0.8-0.4,1.2-0.6c0.5-0.1,0.9-0.2,1.4-0.2
	c0.9,0,1.6,0.1,2.3,0.4v1.6c-0.7-0.5-1.6-0.7-2.5-0.7c-0.3,0-0.6,0-0.8,0.1c-0.2,0.1-0.4,0.2-0.6,0.3c-0.2,0.1-0.3,0.3-0.4,0.4
	c-0.1,0.2-0.1,0.4-0.1,0.6c0,0.3,0,0.5,0.1,0.6c0.1,0.2,0.2,0.3,0.4,0.5c0.2,0.1,0.4,0.3,0.7,0.4c0.3,0.1,0.6,0.2,0.9,0.4
	c0.4,0.2,0.8,0.3,1.2,0.5c0.3,0.2,0.6,0.4,0.9,0.6c0.2,0.2,0.4,0.5,0.6,0.8c0.1,0.3,0.2,0.6,0.2,1c0,0.5-0.1,0.9-0.3,1.3
	c-0.2,0.4-0.5,0.7-0.9,0.9c-0.4,0.2-0.8,0.4-1.2,0.5c-0.5,0.1-1,0.2-1.5,0.2C202.3,42.6,201.4,42.4,200.6,42z"/>
<path class="st0" d="M143.1,29.1c-0.3-0.2-0.7-0.3-1.1-0.3c-1.1,0-1.7,0.7-1.7,2.1v1.5h2.7h1.7V30l1.6-0.5v2.9h2.5v1.4h-2.5v5.6
	c0,0.7,0.1,1.1,0.3,1.4c0.2,0.3,0.6,0.4,1.1,0.4c0.4,0,0.7-0.1,1-0.3v1.4c-0.4,0.2-0.9,0.3-1.5,0.3c-1.7,0-2.6-1-2.6-2.9v-5.9H143
	h-2.7v8.6h-1.6v-8.6h-1.7v-1.4h1.7v-1.6c0-1,0.3-1.9,0.9-2.5c0.6-0.6,1.4-0.9,2.2-0.9c0.5,0,0.9,0.1,1.2,0.2V29.1z"/>
<path class="st1" d="M35.1,42.3V30.3c0-0.3,0.1-0.6,0.3-0.8s0.5-0.3,0.8-0.3h12.5c0.3,0,0.6,0.1,0.8,0.2c0.3,0.1,0.5,0.3,0.7,0.5
	c0.2,0.2,0.4,0.4,0.5,0.7c0.1,0.3,0.2,0.5,0.2,0.8v11.1c0,0.5-0.1,1-0.2,1.5c-0.1,0.5-0.2,1-0.4,1.4c-0.2,0.5-0.4,0.9-0.7,1.3
	c-0.3,0.4-0.6,0.8-1,1.2c-0.4,0.4-0.8,0.7-1.2,1c-0.4,0.3-0.9,0.5-1.4,0.7c-0.5,0.2-1,0.3-1.5,0.4C44,49.9,43.5,50,43,50h-0.1
	c-0.5,0-1,0-1.5-0.1c-0.5-0.1-1-0.2-1.5-0.4c-0.5-0.2-0.9-0.4-1.4-0.7c-0.4-0.3-0.8-0.6-1.2-1c-0.4-0.4-0.7-0.7-1-1.2
	c-0.3-0.4-0.5-0.9-0.7-1.3c-0.2-0.5-0.3-0.9-0.4-1.4C35.2,43.3,35.1,42.8,35.1,42.3z"/>
<path class="st1" d="M48.1,21.5c0,0.3,0,0.7-0.1,1c-0.1,0.3-0.2,0.6-0.3,0.9c-0.1,0.3-0.3,0.6-0.5,0.9c-0.2,0.3-0.4,0.5-0.6,0.8
	c-0.2,0.2-0.5,0.4-0.8,0.6c-0.3,0.2-0.6,0.3-0.9,0.5c-0.3,0.1-0.6,0.2-1,0.3c-0.3,0.1-0.7,0.1-1,0.1c-0.3,0-0.7,0-1-0.1
	c-0.3-0.1-0.6-0.2-1-0.3c-0.3-0.1-0.6-0.3-0.9-0.5c-0.3-0.2-0.5-0.4-0.8-0.6c-0.2-0.2-0.4-0.5-0.6-0.8c-0.2-0.3-0.3-0.6-0.5-0.9
	c-0.1-0.3-0.2-0.6-0.3-0.9c-0.1-0.3-0.1-0.6-0.1-1s0-0.7,0.1-1c0.1-0.3,0.2-0.6,0.3-0.9c0.1-0.3,0.3-0.6,0.5-0.9
	c0.2-0.3,0.4-0.5,0.6-0.8c0.2-0.2,0.5-0.4,0.8-0.6c0.3-0.2,0.6-0.3,0.9-0.5c0.3-0.1,0.6-0.2,1-0.3c0.3-0.1,0.7-0.1,1-0.1
	c0.3,0,0.7,0,1,0.1c0.3,0.1,0.6,0.2,1,0.3c0.3,0.1,0.6,0.3,0.9,0.5c0.3,0.2,0.5,0.4,0.8,0.6c0.2,0.2,0.4,0.5,0.6,0.8
	c0.2,0.3,0.3,0.6,0.5,0.9c0.1,0.3,0.2,0.6,0.3,0.9C48,20.8,48.1,21.1,48.1,21.5z"/>
<path class="st1" d="M42.4,50.6c-0.1,0-0.2,0-0.3,0C42.2,50.5,42.3,50.6,42.4,50.6z"/>
<path class="st1" d="M42.5,50.6L42.5,50.6L42.5,50.6z"/>
<path class="st2" d="M34.2,19.2c0,0.5,0,0.9-0.1,1.4c-0.1,0.5-0.2,0.9-0.4,1.4c-0.2,0.4-0.4,0.9-0.7,1.3c-0.3,0.4-0.6,0.8-0.9,1.1
	c-0.3,0.3-0.7,0.6-1.1,0.9c-0.4,0.3-0.8,0.5-1.3,0.7c-0.4,0.2-0.9,0.3-1.4,0.4c-0.5,0.1-1,0.1-1.4,0.1s-1,0-1.4-0.1
	c-0.5-0.1-0.9-0.2-1.4-0.4c-0.4-0.2-0.9-0.4-1.3-0.7c-0.4-0.3-0.8-0.6-1.1-0.9c-0.3-0.3-0.6-0.7-0.9-1.1c-0.3-0.4-0.5-0.8-0.7-1.3
	c-0.2-0.4-0.3-0.9-0.4-1.4c-0.1-0.5-0.1-0.9-0.1-1.4c0-0.5,0-0.9,0.1-1.4c0.1-0.5,0.2-0.9,0.4-1.4s0.4-0.9,0.7-1.3
	c0.3-0.4,0.6-0.8,0.9-1.1s0.7-0.6,1.1-0.9c0.4-0.3,0.8-0.5,1.3-0.7c0.4-0.2,0.9-0.3,1.4-0.4c0.5-0.1,1-0.1,1.4-0.1s1,0,1.4,0.1
	c0.5,0.1,0.9,0.2,1.4,0.4c0.4,0.2,0.9,0.4,1.3,0.7c0.4,0.3,0.8,0.6,1.1,0.9s0.6,0.7,0.9,1.1c0.3,0.4,0.5,0.8,0.7,1.3
	c0.2,0.4,0.3,0.9,0.4,1.4C34.1,18.3,34.2,18.7,34.2,19.2z"/>
<path class="st2" d="M38.5,29.2H16.9c-0.3,0-0.6,0.1-0.8,0.2c-0.3,0.1-0.5,0.3-0.7,0.5c-0.2,0.2-0.4,0.4-0.5,0.7
	c-0.1,0.3-0.2,0.5-0.2,0.8v12.5c0,0.8,0.1,1.6,0.3,2.5c0.2,0.8,0.4,1.6,0.8,2.4c0.3,0.8,0.7,1.5,1.2,2.2c0.5,0.7,1,1.3,1.6,1.9
	s1.3,1.1,2,1.6s1.4,0.8,2.2,1.2c0.8,0.3,1.6,0.6,2.4,0.7c0.8,0.2,1.7,0.2,2.5,0.2c0.8,0,1.7-0.1,2.5-0.2c0.8-0.2,1.6-0.4,2.4-0.7
	c0.8-0.3,1.5-0.7,2.2-1.2c0.7-0.5,1.4-1,2-1.6s1.1-1.2,1.6-1.9c0.5-0.7,0.9-1.4,1.2-2.2c0.3-0.8,0.6-1.5,0.8-2.4
	c0.2-0.8,0.3-1.6,0.3-2.5V31.3c0-0.3-0.1-0.5-0.2-0.8c-0.1-0.3-0.3-0.5-0.5-0.7c-0.2-0.2-0.4-0.3-0.7-0.5
	C39.1,29.2,38.8,29.2,38.5,29.2z"/>
<path class="st3" d="M26.8,29.2v18.7c0,0.1,0,0.2,0,0.4c0,0.2-0.1,0.5-0.3,0.7c-0.1,0.2-0.3,0.4-0.5,0.6c-0.2,0.2-0.4,0.3-0.6,0.4
	C25.1,50,24.9,50,24.6,50h-8.2c-0.2-0.3-0.3-0.6-0.5-0.9c-0.1-0.3-0.3-0.6-0.4-0.9c-0.5-1.4-0.8-2.9-0.8-4.4V31.3
	c0-0.3,0.1-0.5,0.2-0.8c0.1-0.3,0.3-0.5,0.5-0.7c0.2-0.2,0.4-0.3,0.7-0.5c0.3-0.1,0.5-0.2,0.8-0.2H26.8z"/>
<path class="st3" d="M26.8,24v2.4c-0.3,0-0.6,0-0.9-0.1c-0.7-0.1-1.3-0.2-1.9-0.5c-0.6-0.2-1.2-0.6-1.7-1c-0.5-0.4-1-0.8-1.4-1.4
	c-0.4-0.5-0.7-1.1-1-1.7h4.7c0.3,0,0.6,0.1,0.8,0.2c0.3,0.1,0.5,0.3,0.7,0.5c0.2,0.2,0.4,0.4,0.5,0.7C26.7,23.5,26.8,23.8,26.8,24
	L26.8,24z"/>
<path class="st4" d="M27.7,29.2v16.9c0,0.4-0.1,0.8-0.2,1.1c-0.2,0.4-0.4,0.7-0.7,1c-0.3,0.3-0.6,0.5-1,0.7
	c-0.4,0.2-0.8,0.2-1.2,0.2H16c-0.1-0.3-0.3-0.6-0.4-0.9c-0.5-1.4-0.8-2.9-0.8-4.4V31.3c0-0.3,0.1-0.5,0.2-0.8
	c0.1-0.3,0.3-0.5,0.5-0.7c0.2-0.2,0.4-0.3,0.7-0.5c0.3-0.1,0.5-0.2,0.8-0.2H27.7z"/>
<path class="st4" d="M27.7,24v2.4c-0.6,0.1-1.2,0.1-1.8,0c-0.7-0.1-1.3-0.2-1.9-0.5c-0.6-0.2-1.2-0.6-1.7-1c-0.5-0.4-1-0.8-1.4-1.4
	c-0.4-0.5-0.7-1.1-1-1.7c-0.1-0.3-0.2-0.6-0.3-0.9h5c0.4,0,0.8,0.1,1.2,0.2s0.7,0.4,1,0.7s0.5,0.6,0.7,1
	C27.6,23.3,27.7,23.6,27.7,24z"/>
<path class="st3" d="M26.8,29.2v16.9c0,0.3-0.1,0.5-0.2,0.8c-0.1,0.3-0.3,0.5-0.5,0.7c-0.2,0.2-0.4,0.4-0.7,0.5
	c-0.3,0.1-0.5,0.2-0.8,0.2h-9c-0.5-1.4-0.8-2.9-0.8-4.4V31.3c0-0.3,0.1-0.5,0.2-0.8c0.1-0.3,0.3-0.5,0.5-0.7
	c0.2-0.2,0.4-0.3,0.7-0.5c0.3-0.1,0.5-0.2,0.8-0.2H26.8z"/>
<path class="st3" d="M26.8,24v2.4c-0.3,0-0.6,0-0.9-0.1c-0.7-0.1-1.3-0.2-1.9-0.5c-0.6-0.2-1.2-0.6-1.7-1c-0.5-0.4-1-0.8-1.4-1.4
	c-0.4-0.5-0.7-1.1-1-1.7h4.7c0.3,0,0.6,0.1,0.8,0.2c0.3,0.1,0.5,0.3,0.7,0.5c0.2,0.2,0.4,0.4,0.5,0.7C26.7,23.5,26.8,23.8,26.8,24
	L26.8,24z"/>
<path class="st4" d="M25.9,24v2.4c-0.7-0.1-1.3-0.2-1.9-0.5c-0.6-0.2-1.2-0.6-1.7-1c-0.5-0.4-1-0.8-1.4-1.4c-0.4-0.5-0.7-1.1-1-1.7
	h3.8c0.3,0,0.6,0.1,0.8,0.2c0.3,0.1,0.5,0.3,0.7,0.5c0.2,0.2,0.4,0.4,0.5,0.7C25.8,23.5,25.9,23.8,25.9,24L25.9,24z"/>
<path class="st4" d="M16.9,29.2h8.9v16.9c0,0.3-0.1,0.5-0.2,0.8c-0.1,0.3-0.3,0.5-0.5,0.7c-0.2,0.2-0.4,0.4-0.7,0.5
	c-0.3,0.1-0.5,0.2-0.8,0.2h-8.1c-0.5-1.4-0.8-2.9-0.8-4.4V31.3c0-0.3,0.1-0.5,0.2-0.8c0.1-0.3,0.3-0.5,0.5-0.7
	c0.2-0.2,0.4-0.3,0.7-0.5C16.4,29.2,16.7,29.2,16.9,29.2z"/>
<path class="st5" d="M2.2,21.9h21.6c0.3,0,0.6,0.1,0.8,0.2c0.3,0.1,0.5,0.3,0.7,0.5c0.2,0.2,0.4,0.4,0.5,0.7
	c0.1,0.3,0.2,0.5,0.2,0.8v21.1c0,0.3-0.1,0.5-0.2,0.8c-0.1,0.3-0.3,0.5-0.5,0.7c-0.2,0.2-0.4,0.4-0.7,0.5c-0.3,0.1-0.5,0.2-0.8,0.2
	H2.2c-0.3,0-0.6-0.1-0.8-0.2c-0.3-0.1-0.5-0.3-0.7-0.5c-0.2-0.2-0.4-0.4-0.5-0.7C0.1,45.7,0,45.4,0,45.2V24c0-0.3,0.1-0.5,0.2-0.8
	c0.1-0.3,0.3-0.5,0.5-0.7c0.2-0.2,0.4-0.4,0.7-0.5C1.6,22,1.9,21.9,2.2,21.9z"/>
<path class="st6" d="M18.5,29.6h-4.2v11.8h-2.7V29.6H7.4v-2.3h11.1V29.6z"/>
</svg>
