<svg width="208" height="46" viewBox="0 0 208 46" fill="none" xmlns="http://www.w3.org/2000/svg">
<path d="M83.5531 31.3663H81.9348V22.0438C81.9348 21.3073 81.98 20.4061 82.0705 19.3401H82.0317C81.8766 19.9667 81.7377 20.4157 81.615 20.6871L76.8665 31.3663H76.0719L71.3331 20.7646C71.1974 20.4545 71.0585 19.9797 70.9164 19.3401H70.8776C70.9293 19.8957 70.9552 20.8034 70.9552 22.0632V31.3663H69.3853V17.4698H71.5366L75.8005 27.1605C76.13 27.9035 76.3432 28.4591 76.4401 28.8273H76.4983C76.7761 28.065 76.999 27.4965 77.1669 27.1217L81.5181 17.4698H83.5531V31.3663Z" fill="#4B59CD"/>
<path d="M87.6186 18.9234C87.3343 18.9234 87.0921 18.8265 86.8918 18.6326C86.6915 18.4388 86.5914 18.1933 86.5914 17.8961C86.5914 17.599 86.6915 17.3535 86.8918 17.1596C87.0921 16.9594 87.3343 16.8592 87.6186 16.8592C87.9093 16.8592 88.1548 16.9594 88.3551 17.1596C88.5618 17.3535 88.6652 17.599 88.6652 17.8961C88.6652 18.1804 88.5618 18.4227 88.3551 18.623C88.1548 18.8232 87.9093 18.9234 87.6186 18.9234ZM88.3939 31.3663H86.8046V21.443H88.3939V31.3663Z" fill="#4B59CD"/>
<path d="M98.1769 30.9108C97.4145 31.3695 96.5101 31.5989 95.4635 31.5989C94.0486 31.5989 92.9051 31.1402 92.0329 30.2228C91.1672 29.2989 90.7344 28.1037 90.7344 26.6372C90.7344 25.0027 91.2028 23.6912 92.1395 22.7028C93.0763 21.7078 94.3264 21.2104 95.8899 21.2104C96.762 21.2104 97.5308 21.3719 98.1963 21.6949V23.323C97.4598 22.8061 96.6716 22.5477 95.8317 22.5477C94.8174 22.5477 93.984 22.9127 93.3315 23.6428C92.6855 24.3663 92.3624 25.3193 92.3624 26.5015C92.3624 27.6644 92.6661 28.5818 93.2734 29.2537C93.8871 29.9256 94.7076 30.2616 95.7348 30.2616C96.6005 30.2616 97.4145 29.9741 98.1769 29.3991V30.9108Z" fill="#4B59CD"/>
<path d="M105.557 23.0516C105.279 22.8384 104.878 22.7318 104.355 22.7318C103.677 22.7318 103.108 23.0516 102.649 23.6912C102.197 24.3308 101.971 25.203 101.971 26.3077V31.3663H100.382V21.443H101.971V23.4877H102.01C102.236 22.79 102.582 22.2473 103.047 21.8597C103.512 21.4656 104.032 21.2685 104.607 21.2685C105.02 21.2685 105.337 21.3138 105.557 21.4042V23.0516Z" fill="#4B59CD"/>
<path d="M111.231 31.5989C109.764 31.5989 108.592 31.137 107.713 30.2131C106.841 29.2828 106.405 28.0521 106.405 26.5209C106.405 24.8541 106.86 23.5523 107.771 22.6155C108.682 21.6788 109.913 21.2104 111.463 21.2104C112.943 21.2104 114.096 21.6659 114.923 22.5768C115.756 23.4877 116.173 24.7507 116.173 26.3659C116.173 27.9487 115.724 29.2182 114.826 30.1743C113.934 31.124 112.736 31.5989 111.231 31.5989ZM111.347 22.5477C110.326 22.5477 109.519 22.8966 108.924 23.5943C108.33 24.2856 108.033 25.2417 108.033 26.4628C108.033 27.6386 108.333 28.5657 108.934 29.244C109.535 29.9224 110.339 30.2616 111.347 30.2616C112.374 30.2616 113.162 29.9288 113.712 29.2634C114.267 28.598 114.545 27.6515 114.545 26.424C114.545 25.1836 114.267 24.2274 113.712 23.5556C113.162 22.8837 112.374 22.5477 111.347 22.5477Z" fill="#4B59CD"/>
<path d="M117.913 31.0077V29.3022C118.778 29.9418 119.731 30.2616 120.771 30.2616C122.167 30.2616 122.865 29.7964 122.865 28.8661C122.865 28.6012 122.803 28.3783 122.681 28.1974C122.564 28.0101 122.403 27.8453 122.196 27.7032C121.996 27.5611 121.757 27.4351 121.479 27.3253C121.208 27.209 120.914 27.0894 120.597 26.9667C120.158 26.7923 119.77 26.6178 119.434 26.4434C119.105 26.2625 118.827 26.0622 118.601 25.8426C118.381 25.6165 118.213 25.3613 118.097 25.077C117.987 24.7927 117.932 24.46 117.932 24.0789C117.932 23.6137 118.039 23.2035 118.252 22.8481C118.465 22.4863 118.749 22.1859 119.105 21.9469C119.46 21.7014 119.864 21.5173 120.316 21.3945C120.775 21.2718 121.246 21.2104 121.731 21.2104C122.59 21.2104 123.359 21.359 124.037 21.6562V23.2648C123.307 22.7868 122.467 22.5477 121.518 22.5477C121.22 22.5477 120.952 22.5832 120.713 22.6543C120.474 22.7189 120.268 22.8126 120.093 22.9353C119.925 23.0581 119.793 23.2067 119.696 23.3811C119.605 23.5491 119.56 23.7364 119.56 23.9432C119.56 24.2016 119.605 24.418 119.696 24.5925C119.793 24.7669 119.932 24.9219 120.113 25.0576C120.293 25.1933 120.513 25.316 120.771 25.4259C121.03 25.5357 121.324 25.6552 121.653 25.7844C122.093 25.9524 122.487 26.1268 122.836 26.3077C123.184 26.4822 123.482 26.6824 123.727 26.9086C123.973 27.1282 124.16 27.3834 124.289 27.6741C124.425 27.9648 124.493 28.3105 124.493 28.711C124.493 29.202 124.383 29.6284 124.163 29.9902C123.95 30.352 123.663 30.6524 123.301 30.8915C122.939 31.1305 122.522 31.3082 122.051 31.4244C121.579 31.5407 121.085 31.5989 120.568 31.5989C119.547 31.5989 118.662 31.4018 117.913 31.0077Z" fill="#4B59CD"/>
<path d="M130.894 31.5989C129.427 31.5989 128.255 31.137 127.376 30.2131C126.504 29.2828 126.068 28.0521 126.068 26.5209C126.068 24.8541 126.523 23.5523 127.434 22.6155C128.345 21.6788 129.576 21.2104 131.126 21.2104C132.606 21.2104 133.759 21.6659 134.586 22.5768C135.419 23.4877 135.836 24.7507 135.836 26.3659C135.836 27.9487 135.387 29.2182 134.489 30.1743C133.597 31.124 132.399 31.5989 130.894 31.5989ZM131.01 22.5477C129.989 22.5477 129.182 22.8966 128.587 23.5943C127.993 24.2856 127.696 25.2417 127.696 26.4628C127.696 27.6386 127.996 28.5657 128.597 29.244C129.198 29.9224 130.002 30.2616 131.01 30.2616C132.037 30.2616 132.825 29.9288 133.375 29.2634C133.93 28.598 134.208 27.6515 134.208 26.424C134.208 25.1836 133.93 24.2274 133.375 23.5556C132.825 22.8837 132.037 22.5477 131.01 22.5477Z" fill="#4B59CD"/>
<path d="M164.405 18.9427H160.393V31.3663H158.765V18.9427H154.763V17.4698H164.405V18.9427Z" fill="#4B59CD"/>
<path d="M172.221 26.802H165.214C165.24 27.9067 165.537 28.7595 166.106 29.3603C166.675 29.9611 167.456 30.2616 168.451 30.2616C169.569 30.2616 170.596 29.8933 171.533 29.1568V30.6492C170.661 31.2823 169.507 31.5989 168.073 31.5989C166.671 31.5989 165.57 31.1499 164.769 30.2519C163.968 29.3474 163.567 28.0779 163.567 26.4434C163.567 24.8993 164.003 23.6428 164.875 22.6737C165.754 21.6982 166.843 21.2104 168.141 21.2104C169.44 21.2104 170.444 21.6303 171.155 22.4702C171.866 23.3101 172.221 24.4762 172.221 25.9685V26.802ZM170.593 25.4549C170.586 24.5375 170.363 23.8237 169.924 23.3133C169.491 22.8029 168.887 22.5477 168.112 22.5477C167.363 22.5477 166.726 22.8158 166.203 23.352C165.68 23.8883 165.357 24.5892 165.234 25.4549H170.593Z" fill="#4B59CD"/>
<path d="M181.539 31.3663H179.949V29.8158H179.911C179.219 31.0045 178.202 31.5989 176.858 31.5989C175.87 31.5989 175.094 31.3372 174.532 30.8139C173.977 30.2906 173.699 29.5961 173.699 28.7304C173.699 26.8763 174.791 25.7973 176.974 25.4937L179.949 25.077C179.949 23.3908 179.268 22.5477 177.905 22.5477C176.71 22.5477 175.631 22.9547 174.668 23.7687V22.1407C175.644 21.5205 176.768 21.2104 178.04 21.2104C180.373 21.2104 181.539 22.4443 181.539 24.9123V31.3663ZM179.949 26.3465L177.556 26.676C176.819 26.7793 176.264 26.9635 175.889 27.2283C175.514 27.4868 175.327 27.9487 175.327 28.6141C175.327 29.0987 175.498 29.496 175.841 29.8061C176.189 30.1097 176.651 30.2616 177.226 30.2616C178.015 30.2616 178.664 29.987 179.174 29.4378C179.691 28.8822 179.949 28.1813 179.949 27.3349V26.3465Z" fill="#4B59CD"/>
<path d="M198.425 31.3663H196.836V25.6681C196.836 24.5698 196.665 23.7752 196.322 23.2842C195.986 22.7932 195.418 22.5477 194.617 22.5477C193.938 22.5477 193.36 22.8578 192.882 23.478C192.41 24.0982 192.175 24.8412 192.175 25.7069V31.3663H190.585V25.4743C190.585 23.5232 189.833 22.5477 188.327 22.5477C187.63 22.5477 187.055 22.8417 186.602 23.4296C186.15 24.011 185.924 24.7701 185.924 25.7069V31.3663H184.335V21.443H185.924V23.0129H185.963C186.667 21.8112 187.694 21.2104 189.044 21.2104C189.723 21.2104 190.314 21.401 190.818 21.7821C191.322 22.1569 191.667 22.6511 191.855 23.2648C192.591 21.8952 193.69 21.2104 195.15 21.2104C197.333 21.2104 198.425 22.5574 198.425 25.2514V31.3663Z" fill="#4B59CD"/>
<path d="M200.63 31.0077V29.3022C201.496 29.9418 202.449 30.2616 203.489 30.2616C204.884 30.2616 205.582 29.7964 205.582 28.8661C205.582 28.6012 205.521 28.3783 205.398 28.1974C205.281 28.0101 205.12 27.8453 204.913 27.7032C204.713 27.5611 204.474 27.4351 204.196 27.3253C203.925 27.209 203.631 27.0894 203.314 26.9667C202.875 26.7923 202.487 26.6178 202.151 26.4434C201.822 26.2625 201.544 26.0622 201.318 25.8426C201.098 25.6165 200.93 25.3613 200.814 25.077C200.704 24.7927 200.649 24.46 200.649 24.0789C200.649 23.6137 200.756 23.2035 200.969 22.8481C201.182 22.4863 201.467 22.1859 201.822 21.9469C202.177 21.7014 202.581 21.5173 203.033 21.3945C203.492 21.2718 203.964 21.2104 204.448 21.2104C205.307 21.2104 206.076 21.359 206.754 21.6562V23.2648C206.024 22.7868 205.185 22.5477 204.235 22.5477C203.938 22.5477 203.67 22.5832 203.431 22.6543C203.192 22.7189 202.985 22.8126 202.81 22.9353C202.642 23.0581 202.51 23.2067 202.413 23.3811C202.323 23.5491 202.277 23.7364 202.277 23.9432C202.277 24.2016 202.323 24.418 202.413 24.5925C202.51 24.7669 202.649 24.9219 202.83 25.0576C203.011 25.1933 203.23 25.316 203.489 25.4259C203.747 25.5357 204.041 25.6552 204.371 25.7844C204.81 25.9524 205.204 26.1268 205.553 26.3077C205.902 26.4822 206.199 26.6824 206.444 26.9086C206.69 27.1282 206.877 27.3834 207.006 27.6741C207.142 27.9648 207.21 28.3105 207.21 28.711C207.21 29.202 207.1 29.6284 206.88 29.9902C206.667 30.352 206.38 30.6524 206.018 30.8915C205.656 31.1305 205.239 31.3082 204.768 31.4244C204.296 31.5407 203.802 31.5989 203.285 31.5989C202.264 31.5989 201.379 31.4018 200.63 31.0077Z" fill="#4B59CD"/>
<path d="M143.08 18.0706C142.77 17.8961 142.418 17.8089 142.024 17.8089C140.912 17.8089 140.357 18.5099 140.357 19.9118V21.443H143.008H144.713V19.0203L146.302 18.5067V21.443H148.803V22.7997H146.302V28.3912C146.302 29.0567 146.415 29.5315 146.642 29.8158C146.868 30.1 147.242 30.2422 147.766 30.2422C148.166 30.2422 148.512 30.1323 148.803 29.9127V31.2694C148.428 31.4761 147.934 31.5795 147.32 31.5795C145.582 31.5795 144.713 30.6104 144.713 28.6723V22.7997H143.008H140.357V31.3663H138.777V22.7997H137.081V21.443H138.777V19.8343C138.777 18.7942 139.078 17.9737 139.679 17.3728C140.279 16.7656 141.029 16.4619 141.927 16.4619C142.411 16.4619 142.796 16.5201 143.08 16.6363V18.0706Z" fill="#4B59CD"/>
<path d="M35.1208 31.3242V19.2585C35.1208 18.9574 35.2295 18.7003 35.4469 18.4874C35.6643 18.2745 35.9267 18.168 36.2341 18.168H48.7054C48.9875 18.168 49.2589 18.2209 49.5195 18.3266C49.7801 18.4324 50.0102 18.583 50.2097 18.7784C50.4091 18.9738 50.5628 19.1991 50.6708 19.4544C50.7788 19.7097 50.8327 19.9756 50.8327 20.2519V31.3242C50.8327 31.8277 50.7826 32.3263 50.6823 32.82C50.5821 33.3138 50.4336 33.7932 50.2369 34.2583C50.0403 34.7235 49.7992 35.1653 49.5137 35.5839C49.2281 36.0025 48.9037 36.3898 48.5403 36.7458C48.1769 37.1018 47.7815 37.4196 47.3542 37.6993C46.9269 37.979 46.4758 38.2152 46.001 38.4078C45.5262 38.6005 45.0368 38.7459 44.5327 38.8441C44.0287 38.9424 43.5197 38.9915 43.0058 38.9915H42.9479C42.4339 38.9915 41.9249 38.9423 41.4209 38.8441C40.9168 38.7459 40.4274 38.6005 39.9526 38.4078C39.4778 38.2152 39.0267 37.979 38.5994 37.6993C38.1721 37.4196 37.7767 37.1017 37.4133 36.7458C37.0499 36.3898 36.7255 36.0025 36.4399 35.5839C36.1544 35.1653 35.9133 34.7234 35.7166 34.2583C35.52 33.7932 35.3715 33.3138 35.2712 32.82C35.171 32.3262 35.1208 31.8276 35.1208 31.3242Z" fill="#5059C9"/>
<path d="M48.0598 10.4727C48.0598 10.7997 48.0272 11.1235 47.9621 11.4442C47.897 11.7648 47.8006 12.0762 47.6728 12.3783C47.5451 12.6803 47.3885 12.9673 47.2031 13.2392C47.0177 13.511 46.8069 13.7626 46.5709 13.9938C46.3349 14.225 46.0782 14.4314 45.8006 14.613C45.5231 14.7947 45.2302 14.9481 44.9218 15.0732C44.6134 15.1983 44.2956 15.2928 43.9682 15.3565C43.6409 15.4203 43.3103 15.4522 42.9765 15.4522C42.6428 15.4522 42.3122 15.4203 41.9849 15.3565C41.6575 15.2928 41.3396 15.1983 41.0313 15.0732C40.7229 14.9481 40.43 14.7947 40.1525 14.613C39.8749 14.4314 39.6182 14.225 39.3822 13.9938C39.1461 13.7626 38.9354 13.511 38.75 13.2392C38.5646 12.9673 38.408 12.6803 38.2802 12.3783C38.1525 12.0762 38.0561 11.7648 37.991 11.4442C37.9259 11.1235 37.8933 10.7997 37.8933 10.4727C37.8933 10.1457 37.9259 9.82191 37.991 9.50124C38.0561 9.18056 38.1525 8.86918 38.2802 8.56711C38.408 8.26504 38.5646 7.97807 38.75 7.70621C38.9354 7.43436 39.1461 7.18283 39.3822 6.95163C39.6182 6.72044 39.8749 6.51401 40.1525 6.33237C40.43 6.15071 40.7229 5.99733 41.0313 5.87221C41.3396 5.74708 41.6575 5.65263 41.9849 5.58884C42.3122 5.52506 42.6428 5.49316 42.9765 5.49316C43.3103 5.49316 43.6409 5.52506 43.9682 5.58884C44.2956 5.65263 44.6134 5.74709 44.9218 5.87221C45.2302 5.99733 45.5231 6.15071 45.8006 6.33237C46.0782 6.51401 46.3349 6.72044 46.5709 6.95163C46.8069 7.18283 47.0177 7.43436 47.2031 7.70621C47.3885 7.97807 47.5451 8.26504 47.6728 8.56711C47.8006 8.86918 47.897 9.18056 47.9621 9.50124C48.0272 9.82191 48.0598 10.1457 48.0598 10.4727Z" fill="#5059C9"/>
<path d="M42.3811 39.5544C42.2758 39.55 42.1677 39.5436 42.0569 39.5352C42.1643 39.5438 42.2724 39.5502 42.3811 39.5544Z" fill="#5059C9"/>
<path d="M42.5211 39.5591L42.4543 39.5571L42.5211 39.5591Z" fill="#5059C9"/>
<path d="M34.1964 8.20926C34.1964 8.68483 34.149 9.15584 34.0543 9.62228C33.9596 10.0887 33.8193 10.5416 33.6335 10.981C33.4478 11.4204 33.22 11.8378 32.9503 12.2332C32.6806 12.6286 32.3741 12.9945 32.0308 13.3308C31.6875 13.6671 31.314 13.9673 30.9103 14.2315C30.5067 14.4958 30.0806 14.7189 29.632 14.9009C29.1835 15.0829 28.7211 15.2202 28.245 15.313C27.7688 15.4058 27.288 15.4522 26.8025 15.4522C26.317 15.4522 25.8362 15.4058 25.3601 15.313C24.8839 15.2202 24.4216 15.0829 23.973 14.9009C23.5245 14.7189 23.0984 14.4958 22.6947 14.2315C22.2911 13.9673 21.9176 13.6671 21.5743 13.3308C21.231 12.9945 20.9245 12.6286 20.6548 12.2332C20.3851 11.8378 20.1573 11.4204 19.9715 10.981C19.7857 10.5416 19.6455 10.0887 19.5508 9.62228C19.456 9.15584 19.4087 8.68483 19.4087 8.20926C19.4087 7.73368 19.456 7.26267 19.5508 6.79623C19.6455 6.32979 19.7857 5.87688 19.9715 5.4375C20.1573 4.99812 20.3851 4.58072 20.6548 4.18529C20.9245 3.78986 21.231 3.424 21.5743 3.08772C21.9176 2.75143 22.2911 2.45118 22.6947 2.18696C23.0984 1.92275 23.5245 1.69964 23.973 1.51764C24.4216 1.33565 24.8839 1.19826 25.3601 1.10548C25.8362 1.0127 26.317 0.966309 26.8025 0.966309C27.288 0.966309 27.7688 1.0127 28.245 1.10548C28.7211 1.19826 29.1835 1.33565 29.632 1.51764C30.0806 1.69964 30.5067 1.92275 30.9103 2.18696C31.314 2.45118 31.6875 2.75143 32.0308 3.08772C32.3741 3.424 32.6806 3.78986 32.9503 4.18529C33.22 4.58072 33.4478 4.99812 33.6335 5.4375C33.8193 5.87688 33.9596 6.32979 34.0543 6.79623C34.149 7.26267 34.1964 7.73368 34.1964 8.20926Z" fill="#7B83EB"/>
<path d="M38.5095 18.1682H16.9441C16.6597 18.1667 16.3859 18.2185 16.1225 18.3237C15.8591 18.4289 15.6264 18.5795 15.4242 18.7754C15.2219 18.9713 15.0657 19.1977 14.9554 19.4545C14.8451 19.7113 14.7892 19.979 14.7876 20.2576V32.7934C14.7969 33.6198 14.8878 34.4375 15.0604 35.2464C15.2329 36.0554 15.4839 36.8403 15.8131 37.6012C16.1424 38.3621 16.5438 39.0845 17.0174 39.7685C17.4909 40.4525 18.0276 41.0851 18.6274 41.6662C19.2272 42.2473 19.8789 42.7661 20.5823 43.2224C21.2857 43.6787 22.0275 44.0639 22.8078 44.3781C23.5882 44.6922 24.3922 44.9294 25.2198 45.0895C26.0475 45.2496 26.8832 45.3296 27.7268 45.3296C28.5705 45.3296 29.4061 45.2496 30.2338 45.0895C31.0615 44.9294 31.8654 44.6922 32.6458 44.3781C33.4261 44.0639 34.1679 43.6787 34.8714 43.2224C35.5748 42.7661 36.2264 42.2473 36.8262 41.6662C37.426 41.0851 37.9627 40.4525 38.4362 39.7685C38.9098 39.0845 39.3112 38.3621 39.6405 37.6012C39.9697 36.8403 40.2207 36.0554 40.3932 35.2464C40.5658 34.4375 40.6567 33.6198 40.666 32.7934V20.2576C40.6644 19.979 40.6085 19.7113 40.4982 19.4545C40.3879 19.1977 40.2317 18.9713 40.0295 18.7754C39.8272 18.5795 39.5945 18.4289 39.3311 18.3237C39.0678 18.2185 38.7939 18.1667 38.5095 18.1682Z" fill="#7B83EB"/>
<path d="M26.8026 18.1683V36.8821C26.8046 37.0042 26.7923 37.1249 26.7656 37.2442C26.7236 37.4891 26.6398 37.7194 26.5141 37.9351C26.3885 38.1508 26.2287 38.3386 26.0349 38.4987C25.8411 38.6587 25.625 38.7811 25.3867 38.8659C25.1484 38.9507 24.9026 38.9926 24.6491 38.9917H16.488C16.3087 38.6983 16.1455 38.3965 15.9984 38.0864C15.8504 37.7875 15.7209 37.4887 15.6008 37.181C15.0563 35.7659 14.7852 34.3022 14.7876 32.7899V20.2597C14.7883 19.981 14.8435 19.7131 14.9533 19.4559C15.063 19.1988 15.2189 18.9721 15.421 18.7759C15.623 18.5796 15.8558 18.4289 16.1192 18.3236C16.3826 18.2183 16.6566 18.1665 16.9411 18.1683H26.8026Z" fill="black" fill-opacity="0.2"/>
<path d="M26.8028 13.0346V15.4519C26.4936 15.4521 26.1855 15.434 25.8785 15.3975C25.2259 15.3162 24.5955 15.1527 23.9874 14.907C23.3792 14.6613 22.8144 14.342 22.2931 13.949C21.7717 13.556 21.3119 13.103 20.9136 12.5901C20.5153 12.0772 20.1925 11.5222 19.9451 10.9251H24.6492C24.935 10.9246 25.2099 10.9778 25.4739 11.0846C25.738 11.1915 25.9711 11.3439 26.1731 11.5418C26.3751 11.7398 26.5307 11.9681 26.6398 12.2268C26.7489 12.4854 26.8033 12.7547 26.8028 13.0346V13.0346Z" fill="black" fill-opacity="0.2"/>
<path d="M27.7268 18.1683V35.0714C27.723 35.47 27.6424 35.8532 27.4849 36.2208C27.3273 36.5884 27.1047 36.9131 26.8169 37.195C26.5292 37.4769 26.1976 37.695 25.8224 37.8493C25.4471 38.0036 25.056 38.0826 24.6491 38.0863H15.9984C15.8504 37.7875 15.7209 37.4886 15.6008 37.181C15.0563 35.7659 14.7852 34.3022 14.7876 32.7898V20.2597C14.7883 19.981 14.8435 19.7131 14.9533 19.4559C15.063 19.1988 15.2189 18.9721 15.421 18.7759C15.623 18.5796 15.8558 18.4289 16.1192 18.3236C16.3826 18.2183 16.6566 18.1665 16.9411 18.1683H27.7268Z" fill="black" fill-opacity="0.098"/>
<path d="M27.7269 13.035V15.3978C27.1107 15.4706 26.4946 15.4706 25.8784 15.3978C25.2258 15.3165 24.5954 15.1531 23.9873 14.9074C23.3791 14.6617 22.8143 14.3423 22.293 13.9493C21.7716 13.5563 21.3118 13.1034 20.9135 12.5904C20.5152 12.0775 20.1924 11.5225 19.945 10.9254C19.8238 10.6299 19.7221 10.3281 19.6399 10.02H24.6491C25.0568 10.0214 25.4489 10.0988 25.8253 10.2523C26.2017 10.4058 26.534 10.6238 26.8223 10.9062C27.1106 11.1886 27.3331 11.5141 27.4897 11.8828C27.6464 12.2515 27.7255 12.6356 27.7269 13.035Z" fill="black" fill-opacity="0.098"/>
<path d="M26.8026 18.1683V35.0714C26.8031 35.3513 26.7488 35.6206 26.6397 35.8793C26.5306 36.138 26.375 36.3663 26.1729 36.5642C25.9709 36.7621 25.7378 36.9145 25.4738 37.0214C25.2097 37.1283 24.9348 37.1815 24.6491 37.181H15.6009C15.0563 35.7659 14.7852 34.3022 14.7876 32.7899V20.2597C14.7883 19.981 14.8435 19.7131 14.9533 19.4559C15.063 19.1988 15.2189 18.9721 15.421 18.7759C15.623 18.5796 15.8558 18.4289 16.1192 18.3236C16.3826 18.2183 16.6566 18.1665 16.9411 18.1683H26.8026Z" fill="black" fill-opacity="0.2"/>
<path d="M26.8028 13.0346V15.4519C26.4936 15.4521 26.1855 15.434 25.8785 15.3975C25.2259 15.3162 24.5955 15.1527 23.9874 14.907C23.3792 14.6613 22.8144 14.342 22.2931 13.949C21.7717 13.556 21.3119 13.103 20.9136 12.5901C20.5153 12.0772 20.1925 11.5222 19.9451 10.9251H24.6492C24.935 10.9246 25.2099 10.9778 25.4739 11.0846C25.738 11.1915 25.9711 11.3439 26.1731 11.5418C26.3751 11.7398 26.5307 11.9681 26.6398 12.2268C26.7489 12.4854 26.8033 12.7547 26.8028 13.0346V13.0346Z" fill="black" fill-opacity="0.2"/>
<path d="M25.8785 13.0346V15.3975C25.2259 15.3162 24.5955 15.1527 23.9874 14.907C23.3792 14.6613 22.8144 14.342 22.2931 13.949C21.7717 13.556 21.3119 13.103 20.9136 12.5901C20.5153 12.0772 20.1925 11.5222 19.9451 10.9251H23.725C24.0107 10.9246 24.2856 10.9778 24.5497 11.0846C24.8138 11.1915 25.0468 11.3439 25.2489 11.5418C25.4509 11.7398 25.6065 11.9681 25.7156 12.2268C25.8247 12.4854 25.879 12.7547 25.8785 13.0346V13.0346Z" fill="black" fill-opacity="0.098"/>
<path d="M16.9411 18.1683H25.8783V35.0714C25.8788 35.3513 25.8245 35.6206 25.7154 35.8793C25.6063 36.138 25.4507 36.3663 25.2487 36.5642C25.0466 36.7621 24.8136 36.9145 24.5495 37.0214C24.2854 37.1283 24.0105 37.1815 23.7248 37.181H15.6009C15.0563 35.7659 14.7852 34.3022 14.7876 32.7899V20.2597C14.7883 19.981 14.8435 19.7131 14.9533 19.4559C15.063 19.1988 15.2189 18.9721 15.421 18.7759C15.623 18.5796 15.8558 18.4289 16.1192 18.3236C16.3826 18.2183 16.6566 18.1665 16.9411 18.1683Z" fill="black" fill-opacity="0.098"/>
<path d="M2.15653 10.925H23.7219C24.0079 10.925 24.283 10.9786 24.5472 11.0859C24.8114 11.1931 25.0446 11.3457 25.2468 11.5438C25.449 11.7419 25.6048 11.9703 25.7143 12.2291C25.8237 12.488 25.8784 12.7574 25.8784 13.0376V34.1628C25.8784 34.4429 25.8237 34.7124 25.7143 34.9712C25.6048 35.23 25.449 35.4585 25.2468 35.6566C25.0446 35.8547 24.8114 36.0073 24.5472 36.1145C24.283 36.2217 24.0079 36.2753 23.7219 36.2753H2.15653C1.87056 36.2753 1.59547 36.2217 1.33126 36.1145C1.06706 36.0073 0.833848 35.8547 0.631634 35.6566C0.429419 35.4585 0.273593 35.23 0.164155 34.9712C0.0547181 34.7124 -1.84845e-07 34.4429 0 34.1628V13.0376C-1.84845e-07 12.7574 0.0547181 12.488 0.164155 12.2291C0.273593 11.9703 0.429419 11.7419 0.631634 11.5438C0.833848 11.3457 1.06706 11.1931 1.33126 11.0859C1.59547 10.9787 1.87056 10.925 2.15653 10.925Z" fill="#4B53BC"/>
<path d="M18.4924 18.6458H14.2737V30.441H11.5856V18.6458H7.38599V16.3574H18.4924V18.6458Z" fill="white"/>
</svg>
