<svg width="136" height="39" viewBox="0 0 136 39" fill="none" xmlns="http://www.w3.org/2000/svg">
<mask id="mask0_1900_38972" style="mask-type:alpha" maskUnits="userSpaceOnUse" x="0" y="0" width="136" height="39">
<rect x="0.129883" width="135.09" height="38.5455" fill="#C4C4C4"/>
</mask>
<g mask="url(#mask0_1900_38972)">
<path d="M11.4656 8.44833C11.4656 9.0982 11.0014 9.63202 10.3515 9.63202C9.21424 9.63202 8.84289 8.23944 6.26661 8.23944C4.36342 8.23944 2.97084 9.49276 2.97084 11.3031C2.97084 16.0611 12.8582 13.7866 12.8582 21.0512C12.8582 24.6255 10.3515 27.8516 5.80242 27.8516C3.04047 27.8516 0 26.7608 0 25.2521C0 24.5326 0.348145 23.8828 1.09085 23.8828C1.97282 23.8828 3.20294 25.5539 5.82563 25.5539C8.49474 25.5539 10.0962 23.5578 10.0962 21.1672C10.0962 16.0379 0.208886 18.5445 0.208886 11.4656C0.208886 8.95894 2.48344 5.91847 6.35945 5.91847C8.93573 5.94168 11.4656 7.05575 11.4656 8.44833ZM15.1791 8.10018C15.1791 7.21821 15.6665 6.68439 16.4789 6.68439C17.2912 6.68439 17.7786 7.21821 17.7786 8.10018V11.5816H18.8231C19.6586 11.5816 20.1228 11.9994 20.1228 12.7189C20.1228 13.4384 19.6818 13.8562 18.8231 13.8562H17.7786V26.4126C17.7786 27.2946 17.2912 27.8284 16.4789 27.8284C15.6897 27.8284 15.1791 27.2946 15.1791 26.4126V13.8562H14.1347C13.2991 13.8562 12.835 13.4384 12.835 12.7189C12.835 11.9994 13.2759 11.5816 14.1347 11.5816H15.1791V8.10018ZM33.7469 26.5519C33.7469 27.5035 33.0506 27.8516 32.54 27.8516C32.0062 27.8516 31.3331 27.5035 31.3331 26.5519V25.4146H31.2867C30.1726 27.0393 28.7104 27.8516 27.0625 27.8516C22.6759 27.8516 20.2156 23.8828 20.2156 19.6122C20.2156 15.3416 22.6759 11.3727 27.0625 11.3727C28.8496 11.3727 30.103 12.1619 31.2867 13.5312H31.3331V12.6957C31.3331 11.7441 32.0062 11.396 32.54 11.396C33.0274 11.396 33.7469 11.7673 33.7469 12.6957V26.5519V26.5519ZM27.0393 25.5539C30.1958 25.5539 31.3099 22.3509 31.3099 19.6122C31.3099 16.8734 30.1958 13.6705 27.0393 13.6705C23.8828 13.6705 22.7687 16.8734 22.7687 19.6122C22.7687 22.3509 23.8828 25.5539 27.0393 25.5539ZM36.0446 12.8117C36.0446 11.9298 36.532 11.396 37.3444 11.396C38.1567 11.396 38.6441 11.9298 38.6441 12.8117V14.1811H38.6905C39.2708 12.9278 40.7098 11.396 42.1952 11.396C43.1004 11.396 43.6342 11.9994 43.6342 12.7653C43.6342 13.5312 43.1004 14.0186 42.0327 14.2275C40.5241 14.5061 38.6441 15.6897 38.6441 18.7998V26.459C38.6441 27.341 38.1567 27.8748 37.3444 27.8748C36.532 27.8748 36.0446 27.341 36.0446 26.459V12.8117V12.8117ZM47.8352 25.1825H53.3359C54.0554 25.1825 54.5892 25.5771 54.5892 26.4358C54.5892 27.2714 54.0554 27.6892 53.3359 27.6892H46.6515C45.6767 27.6892 45.2821 27.0393 45.2821 26.2269V7.35747C45.2821 6.4755 45.7695 5.94168 46.5818 5.94168C47.371 5.94168 47.8816 6.4755 47.8816 7.35747L47.8352 25.1825ZM57.2815 20.6566C57.2815 23.4186 58.9758 25.5539 61.877 25.5539C65.2888 25.5539 66.1708 23.3722 67.1456 23.3722C67.6098 23.3722 68.074 23.7899 68.074 24.5558C68.074 25.8556 64.8943 27.8516 61.8538 27.8516C56.8869 27.8516 54.7284 23.8828 54.7284 19.6122C54.7284 15.2488 57.3511 11.3727 61.7146 11.3727C65.9387 11.3727 68.3989 15.3416 68.3989 19.2176C68.3989 20.1692 68.074 20.6334 66.9599 20.6334L57.2815 20.6566ZM65.8227 18.6606C65.8227 16.3628 64.5229 13.6937 61.6913 13.6937C58.5116 13.5777 57.3511 16.2004 57.2815 18.6606H65.8227ZM83.7638 26.5519C83.7638 27.5035 83.0675 27.8516 82.5569 27.8516C82.023 27.8516 81.3499 27.5035 81.3499 26.5519V25.4146H81.3035C80.1895 27.0393 78.7273 27.8516 77.0794 27.8516C72.6927 27.8516 70.2325 23.8828 70.2325 19.6122C70.2325 15.3416 72.6927 11.3727 77.0794 11.3727C78.8665 11.3727 80.1198 12.1619 81.3035 13.5312H81.3499V12.6957C81.3499 11.7441 82.023 11.396 82.5569 11.396C83.0443 11.396 83.7638 11.7673 83.7638 12.6957V26.5519ZM77.0794 25.5539C80.2359 25.5539 81.3499 22.3509 81.3499 19.6122C81.3499 16.8734 80.2359 13.6705 77.0794 13.6705C73.9228 13.6705 72.8088 16.8734 72.8088 19.6122C72.8088 22.3509 73.9228 25.5539 77.0794 25.5539ZM90.3553 26.4358C90.3553 27.3178 89.8679 27.8516 89.0556 27.8516C88.2432 27.8516 87.7558 27.3178 87.7558 26.4358V13.8794H86.7114C85.8758 13.8794 85.4116 13.4616 85.4116 12.7421C85.4116 12.0226 85.8526 11.6048 86.7114 11.6048H87.7558V7.82167C87.7558 5.5007 89.3109 4.34021 91.1676 4.34021H91.9568C92.6299 4.34021 93.419 4.75799 93.419 5.47749C93.419 6.19699 92.978 6.61476 92.0032 6.61476H91.3533C90.5642 6.61476 90.3089 7.00933 90.3089 7.68241V11.5816H91.9104C92.7459 11.5816 93.2101 11.9994 93.2101 12.7189C93.2101 13.4384 92.7691 13.8562 91.9104 13.8562H90.3089V26.4358H90.3553ZM139.072 38.1103C137.355 36.6249 130.183 30.4975 130.09 30.4279C129.603 29.9869 128.86 29.4299 130.206 26.9464C130.206 26.9464 133.456 22.3045 133.827 20.0764C133.827 20.0764 134.779 16.3396 133.432 13.3456C133.432 13.3456 129.533 13.6009 128.466 17.5465C128.814 14.4132 128.976 7.49673 125.448 3.1101C125.448 3.1101 123.661 4.5491 122.129 8.49475C122.129 8.49475 122.083 4.08491 117.395 0.858761C117.395 0.858761 116.536 3.22615 116.582 4.66515C116.582 4.66515 116.466 4.27058 116.211 3.71355C115.84 2.90121 115.19 1.74073 114.238 1.16048C114.238 1.16048 113.426 1.85678 113.286 3.66713C113.286 3.66713 111.012 1.29974 105.836 0C105.836 0 105.117 5.87205 107.159 9.05178C107.159 9.05178 106.625 8.81968 105.511 8.95894C105.511 8.95894 105.627 10.9086 107.67 11.953C107.67 11.953 105.326 12.1851 103.979 12.9742C103.979 12.9742 106.068 17.1055 109.341 17.3608C109.341 17.3608 104.536 17.6394 102.03 18.9159C102.03 18.9159 105.511 26.7376 117.882 26.343C117.882 26.343 111.221 29.1514 108.389 32.9113C108.389 32.9113 119.483 34.8377 125.356 31.3331C125.588 31.1938 125.82 31.0778 126.075 31.0081C126.887 30.776 128.396 30.2654 129.464 31.101L138.446 38.8762C138.655 39.0619 139.003 39.0387 139.188 38.8066C139.305 38.6209 139.281 38.296 139.072 38.1103Z" fill="#007FC8"/>
</g>
</svg>
