<svg width="174" height="45" viewBox="0 0 174 45" fill="none" xmlns="http://www.w3.org/2000/svg">
<g clip-path="url(#clip0_1900_38879)">
<path d="M77.6466 8.05005H81.9824L75.6811 26.8719H70.7093L66.0267 12.6981L61.344 26.9292H56.4879L50.1865 8.05005H54.5801L59.0894 22.3959L63.7142 8.05005H68.3969L73.1374 22.4533L77.6466 8.05005Z" fill="black"/>
<path d="M100.482 19.0096H86.4915C86.6072 19.9851 87.0118 20.9032 87.5321 21.7066C88.0524 22.3952 88.7462 22.9691 89.4977 23.3134C90.3071 23.6577 91.1742 23.8298 92.0414 23.8298C93.0242 23.8298 94.0069 23.6577 94.9319 23.3134C95.8569 22.9691 96.7819 22.4526 97.5334 21.8214L99.6146 24.7479C98.574 25.6661 97.36 26.3547 96.0303 26.7564C94.6429 27.1581 93.2554 27.3876 91.8101 27.3876C90.0758 27.445 88.3415 26.9859 86.7806 26.1825C85.3353 25.3792 84.1213 24.1741 83.3698 22.6821C82.5604 21.1902 82.1557 19.4687 82.1557 17.4602C82.0979 15.6813 82.5604 13.9025 83.3698 12.2957C84.1213 10.8611 85.2775 9.65607 86.7228 8.79532C88.2259 7.93456 89.9024 7.53288 91.6367 7.53288C93.2554 7.47549 94.8741 7.93456 96.3194 8.79532C97.7068 9.65607 98.8052 10.8611 99.499 12.2957C100.308 13.9025 100.655 15.6813 100.655 17.4602C100.54 17.8619 100.54 18.3784 100.482 19.0096ZM96.3194 15.8535C96.0881 14.3615 95.5678 13.2712 94.7007 12.4105C93.8913 11.6071 92.7929 11.2054 91.5211 11.2054C90.1336 11.2054 88.9774 11.6071 88.1102 12.4679C87.2431 13.3286 86.7228 14.4189 86.4915 15.8535H96.3194Z" fill="black"/>
<path d="M118.172 8.85293C119.617 9.71368 120.773 10.9187 121.583 12.4107C122.45 13.9601 122.855 15.739 122.855 17.5178C122.855 19.2967 122.45 21.0756 121.583 22.625C120.773 24.117 119.617 25.322 118.172 26.1828C116.727 27.0435 115.05 27.5026 113.374 27.4452C112.217 27.4452 111.003 27.2157 109.963 26.7566C108.98 26.2975 108.113 25.6089 107.419 24.7482V26.9861H103.257V0.0732422H107.419V10.3449C108.113 9.48415 108.98 8.79554 109.963 8.33648C111.061 7.82002 112.217 7.59049 113.374 7.64787C115.05 7.59049 116.727 7.99217 118.172 8.85293ZM115.917 22.7398C116.785 22.2233 117.478 21.4773 117.941 20.5592C118.403 19.5837 118.634 18.5508 118.634 17.5178C118.634 16.4849 118.403 15.3947 117.941 14.4765C117.478 13.5584 116.785 12.8124 115.917 12.2959C114.992 11.7221 113.952 11.4926 112.911 11.4926C111.871 11.4926 110.83 11.7221 109.905 12.2959C109.038 12.8124 108.344 13.5584 107.882 14.4765C107.419 15.452 107.13 16.4849 107.188 17.5752C107.188 18.6655 107.419 19.6984 107.882 20.6739C108.344 21.5921 109.038 22.3381 109.905 22.8545C110.83 23.371 111.813 23.6579 112.911 23.6579C113.952 23.5431 114.992 23.2562 115.917 22.7398Z" fill="black"/>
<path d="M143.378 19.0096H129.388C129.503 19.9851 129.908 20.9032 130.428 21.7066C130.949 22.3952 131.642 22.9691 132.394 23.3134C133.203 23.6577 134.07 23.8298 134.937 23.8298C135.92 23.8298 136.903 23.6577 137.828 23.3134C138.753 22.9691 139.678 22.4526 140.429 21.8214L142.511 24.7479C141.47 25.6661 140.256 26.3547 138.926 26.7564C137.539 27.1581 136.152 27.3876 134.706 27.3876C132.972 27.445 131.238 26.9859 129.677 26.1825C128.231 25.3792 127.017 24.1741 126.266 22.6821C125.457 21.1902 125.052 19.4687 125.052 17.4602C124.994 15.6813 125.457 13.9025 126.266 12.2957C127.017 10.8611 128.174 9.65607 129.619 8.79532C131.122 7.93456 132.798 7.53288 134.533 7.53288C136.152 7.47549 137.77 7.93456 139.215 8.79532C140.603 9.65607 141.701 10.8611 142.395 12.2957C143.204 13.9025 143.551 15.6813 143.551 17.4602C143.493 17.8619 143.436 18.3784 143.378 19.0096ZM139.215 15.8535C138.984 14.3615 138.464 13.2712 137.597 12.4105C136.787 11.6071 135.689 11.2054 134.359 11.2054C132.972 11.2054 131.816 11.6071 130.949 12.4679C130.081 13.2712 129.561 14.4189 129.33 15.8535H139.215Z" fill="black"/>
<path d="M163.149 26.9292H158.062L153.263 20.3875L148.523 26.9292H143.667L150.835 17.2888L143.724 8.05005H148.812L153.437 14.3622L158.062 8.05005H162.975L155.98 17.2314L163.149 26.9292Z" fill="black"/>
<path d="M113.259 42.4797H112.391V34.905H113.432V37.7742C113.663 37.4873 113.894 37.2578 114.241 37.0856C114.588 36.9135 114.935 36.8561 115.282 36.8561C115.629 36.8561 115.976 36.9135 116.323 37.0282C116.669 37.2004 116.901 37.3725 117.132 37.6594C117.537 38.1759 117.71 38.8645 117.71 39.6679C117.71 40.6434 117.421 41.3894 116.901 41.9632C116.669 42.1927 116.38 42.3649 116.091 42.4797C115.802 42.5944 115.455 42.6518 115.166 42.6518C114.819 42.6518 114.473 42.5944 114.126 42.4223C113.837 42.2501 113.548 42.0206 113.316 41.7337L113.259 42.4797ZM116.669 39.6679C116.669 38.9793 116.496 38.4628 116.149 38.1185C116.033 38.0037 115.86 37.889 115.629 37.7742C115.455 37.7168 115.224 37.6594 115.051 37.6594C114.819 37.6594 114.588 37.7168 114.357 37.7742C114.126 37.889 113.952 38.0037 113.837 38.1759C113.548 38.5776 113.374 39.094 113.432 39.6105C113.432 40.2991 113.605 40.8729 113.952 41.2172C114.068 41.3894 114.299 41.5041 114.473 41.5615C114.646 41.6189 114.877 41.6763 115.108 41.6763C115.34 41.6763 115.571 41.6189 115.802 41.5615C116.033 41.4468 116.207 41.332 116.323 41.1024C116.554 40.8729 116.669 40.3565 116.669 39.6679Z" fill="black"/>
<path d="M123.202 37.0281L121.294 42.5943C121.063 43.3403 120.774 43.8567 120.543 44.0863C120.427 44.2584 120.254 44.3732 120.08 44.4306C119.907 44.4879 119.676 44.5453 119.502 44.5453C119.271 44.5453 119.04 44.4879 118.866 44.4306V43.6272C119.04 43.6846 119.213 43.6846 119.387 43.6846C119.502 43.6846 119.56 43.6846 119.676 43.6272C119.791 43.5698 119.849 43.5124 119.907 43.455C120.08 43.1681 120.254 42.8238 120.369 42.4795H120.023L117.999 36.9707H119.098L120.658 41.6188L122.219 36.9707L123.202 37.0281Z" fill="black"/>
<path d="M137.192 34.905H135.284V42.537H137.192V34.905Z" fill="black"/>
<path d="M152.801 37.0861C152.28 36.7992 151.76 36.6844 151.182 36.6844C149.91 36.6844 149.043 37.5452 149.043 38.6929C149.043 39.8405 149.852 40.7013 151.182 40.7013C151.76 40.7013 152.28 40.5865 152.801 40.2996V42.3654C152.222 42.5376 151.644 42.6523 151.066 42.6523C148.869 42.6523 146.962 41.1604 146.962 38.6929C146.962 36.3975 148.696 34.7334 151.066 34.7334C151.644 34.7334 152.28 34.8482 152.801 35.0203V37.0861Z" fill="black"/>
<path d="M132.625 37.0861C132.105 36.7992 131.584 36.6844 131.006 36.6844C129.734 36.6844 128.867 37.5452 128.867 38.6929C128.867 39.8405 129.676 40.7013 131.006 40.7013C131.584 40.7013 132.105 40.5865 132.625 40.2996V42.3654C132.047 42.5376 131.469 42.6523 130.833 42.6523C128.636 42.6523 126.728 41.1604 126.728 38.6929C126.728 36.3975 128.462 34.7334 130.833 34.7334C131.411 34.7334 132.047 34.8482 132.625 35.0203V37.0861Z" fill="black"/>
<path d="M158.871 36.7418C158.582 36.7418 158.35 36.7992 158.119 36.914C157.888 37.0287 157.657 37.1435 157.483 37.373C157.31 37.5452 157.136 37.7747 157.078 38.0043C156.963 38.2338 156.905 38.5207 156.963 38.7502C156.963 39.0372 157.021 39.2667 157.078 39.4962C157.194 39.7258 157.31 39.9553 157.483 40.1274C157.657 40.2996 157.888 40.4717 158.119 40.5865C158.35 40.7013 158.639 40.7587 158.871 40.7587C159.16 40.7587 159.391 40.7013 159.622 40.5865C159.853 40.4717 160.085 40.357 160.258 40.1274C160.431 39.9553 160.605 39.7258 160.663 39.4962C160.778 39.2667 160.836 38.9798 160.778 38.7502C160.778 38.4633 160.721 38.2338 160.663 38.0043C160.547 37.7747 160.431 37.5452 160.258 37.373C160.085 37.2009 159.853 37.0287 159.622 36.914C159.391 36.7418 159.16 36.7418 158.871 36.7418ZM162.917 38.6929C162.917 40.8734 161.241 42.6523 158.871 42.6523C156.5 42.6523 154.824 40.8734 154.824 38.6929C154.824 36.5123 156.5 34.7334 158.871 34.7334C161.241 34.7908 162.917 36.5697 162.917 38.6929Z" fill="black"/>
<path d="M144.534 36.6268C144.014 36.512 143.551 36.3973 143.031 36.3973C142.279 36.3973 141.817 36.6268 141.817 37.0285C141.817 37.4876 142.395 37.6597 142.684 37.7745L143.204 37.9466C144.476 38.3483 145.054 39.2091 145.054 40.1272C145.054 42.0209 143.378 42.6521 141.875 42.6521C141.181 42.6521 140.487 42.5947 139.793 42.4225V40.6437C140.371 40.8158 141.007 40.9306 141.643 40.9306C142.626 40.9306 143.031 40.6437 143.031 40.242C143.031 39.8403 142.626 39.6108 142.164 39.496L141.759 39.3812C140.718 39.0369 139.793 38.4057 139.793 37.1433C139.793 35.7087 140.834 34.7905 142.626 34.7905C143.262 34.7905 143.898 34.9053 144.534 35.0201V36.6268Z" fill="black"/>
<path d="M9.43021 14.6492C9.8927 16.1985 10.4708 17.7479 11.2802 19.1825C11.627 19.8137 11.9739 20.4449 12.6098 20.8466C12.7254 20.904 12.841 20.9614 12.9567 21.0187C13.8816 21.1909 14.4019 20.4449 14.7488 19.8137C15.2113 18.7234 15.616 17.6331 15.9628 16.4854C16.0206 16.2559 16.0784 16.0838 16.1363 15.8542C16.2519 15.4525 16.3675 15.0509 16.4253 14.6492L20.5299 3.74629C21.397 2.59862 22.4954 1.68048 23.7673 1.04926C24.9813 0.360659 26.3688 0.0163574 27.814 0.0163574C29.8374 0.0163574 31.8608 0.70496 33.4795 1.9674C36.1966 3.97582 37.7575 7.99267 37.7575 7.99267C37.9887 8.50912 38.1043 9.08296 38.1043 9.6568C38.1043 10.1732 37.9887 10.6897 37.8153 11.2062C37.584 11.6652 37.295 12.1243 36.9481 12.526C36.6013 12.8703 36.1388 13.2146 35.6185 13.3867C35.156 13.5589 34.5779 13.6736 34.0576 13.6736C33.4795 13.6736 32.9014 13.5589 32.3811 13.272C31.8608 13.0424 31.3983 12.6407 30.9936 12.2391C30.9936 12.2391 30.9936 12.1817 30.9358 12.1817C30.7046 11.8374 30.4733 11.4357 30.2999 11.034C30.0687 10.5175 29.8374 10.0585 29.5484 9.59941C29.3749 9.36988 29.2593 9.14034 29.0859 8.91081C28.9702 8.68128 28.7968 8.50912 28.5656 8.33697C28.1609 8.05006 27.6984 7.93529 27.2937 8.16482L27.2359 8.22221C26.7734 8.50912 26.4844 9.14034 26.2531 9.6568C25.6172 11.034 25.2704 12.4112 24.8657 13.9032C24.8079 14.1901 24.7501 14.477 24.6923 14.7639L22.9579 20.2728L20.5877 25.4947C19.7205 26.5849 18.6221 27.5031 17.3503 28.0769C16.0784 28.7081 14.691 28.9951 13.3035 29.0524C7.46465 29.1672 4.74754 23.9453 4.74754 23.9453C1.45233 18.5512 0.469545 11.4357 0.238302 9.14034C0.122681 8.62389 0.122681 8.33697 0.122681 8.33697C0.122681 7.64837 0.296113 6.90238 0.700788 6.32855C1.04765 5.69733 1.56795 5.18088 2.20387 4.83658C2.8976 4.49227 3.59133 4.37751 4.34287 4.37751C5.03659 4.37751 5.67251 4.60704 6.30843 4.95134C6.77092 5.23826 7.17559 5.58256 7.46465 5.98425C7.98494 6.73023 8.15838 7.70575 8.21619 8.62389C8.44743 10.6897 8.85211 12.6981 9.43021 14.6492Z" fill="url(#paint0_linear_1900_38879)"/>
<path d="M9.43021 14.6492C9.8927 16.1985 10.4708 17.7479 11.2802 19.1825C11.627 19.8137 11.9739 20.4449 12.6098 20.8466C12.7254 20.904 12.841 20.9614 12.9567 21.0187C13.8816 21.1909 14.4019 20.4449 14.7488 19.8137C15.2113 18.7234 15.616 17.6331 15.9628 16.4854C16.0206 16.2559 16.0784 16.0838 16.1363 15.8542C16.2519 15.4525 16.3675 15.0509 16.4253 14.6492L20.5299 3.74629C21.397 2.59862 22.4954 1.68048 23.7673 1.04926C24.9813 0.360659 26.3688 0.0163574 27.814 0.0163574C29.8374 0.0163574 31.8608 0.70496 33.4795 1.9674C36.1966 3.97582 37.7575 7.99267 37.7575 7.99267C37.9887 8.50912 38.1043 9.08296 38.1043 9.6568C38.1043 10.1732 37.9887 10.6897 37.8153 11.2062C37.584 11.6652 37.295 12.1243 36.9481 12.526C36.6013 12.8703 36.1388 13.2146 35.6185 13.3867C35.156 13.5589 34.5779 13.6736 34.0576 13.6736C33.4795 13.6736 32.9014 13.5589 32.3811 13.272C31.8608 13.0424 31.3983 12.6407 30.9936 12.2391C30.9936 12.2391 30.9936 12.1817 30.9358 12.1817C30.7046 11.8374 30.4733 11.4357 30.2999 11.034C30.0687 10.5175 29.8374 10.0585 29.5484 9.59941C29.3749 9.36988 29.2593 9.14034 29.0859 8.91081C28.9702 8.68128 28.7968 8.50912 28.5656 8.33697C28.1609 8.05006 27.6984 7.93529 27.2937 8.16482L27.2359 8.22221C26.7734 8.50912 26.4844 9.14034 26.2531 9.6568C25.6172 11.034 25.2704 12.4112 24.8657 13.9032C24.8079 14.1901 24.7501 14.477 24.6923 14.7639L22.9579 20.2728L20.5877 25.4947C19.7205 26.5849 18.6221 27.5031 17.3503 28.0769C16.0784 28.7081 14.691 28.9951 13.3035 29.0524C7.46465 29.1672 4.74754 23.9453 4.74754 23.9453C1.45233 18.5512 0.469545 11.4357 0.238302 9.14034C0.122681 8.62389 0.122681 8.33697 0.122681 8.33697C0.122681 7.64837 0.296113 6.90238 0.700788 6.32855C1.04765 5.69733 1.56795 5.18088 2.20387 4.83658C2.8976 4.49227 3.59133 4.37751 4.34287 4.37751C5.03659 4.37751 5.67251 4.60704 6.30843 4.95134C6.77092 5.23826 7.17559 5.58256 7.46465 5.98425C7.98494 6.73023 8.15838 7.70575 8.21619 8.62389C8.44743 10.6897 8.85211 12.6981 9.43021 14.6492Z" fill="url(#paint1_radial_1900_38879)"/>
<path d="M9.43021 14.6492C9.8927 16.1985 10.4708 17.7479 11.2802 19.1825C11.627 19.8137 11.9739 20.4449 12.6098 20.8466C12.7254 20.904 12.841 20.9614 12.9567 21.0187C13.8816 21.1909 14.4019 20.4449 14.7488 19.8137C15.2113 18.7234 15.616 17.6331 15.9628 16.4854C16.0206 16.2559 16.0784 16.0838 16.1363 15.8542C16.2519 15.4525 16.3675 15.0509 16.4253 14.6492L20.5299 3.74629C21.397 2.59862 22.4954 1.68048 23.7673 1.04926C24.9813 0.360659 26.3688 0.0163574 27.814 0.0163574C29.8374 0.0163574 31.8608 0.70496 33.4795 1.9674C36.1966 3.97582 37.7575 7.99267 37.7575 7.99267C37.9887 8.50912 38.1043 9.08296 38.1043 9.6568C38.1043 10.1732 37.9887 10.6897 37.8153 11.2062C37.584 11.6652 37.295 12.1243 36.9481 12.526C36.6013 12.8703 36.1388 13.2146 35.6185 13.3867C35.156 13.5589 34.5779 13.6736 34.0576 13.6736C33.4795 13.6736 32.9014 13.5589 32.3811 13.272C31.8608 13.0424 31.3983 12.6407 30.9936 12.2391C30.9936 12.2391 30.9936 12.1817 30.9358 12.1817C30.7046 11.8374 30.4733 11.4357 30.2999 11.034C30.0687 10.5175 29.8374 10.0585 29.5484 9.59941C29.3749 9.36988 29.2593 9.14034 29.0859 8.91081C28.9702 8.68128 28.7968 8.50912 28.5656 8.33697C28.1609 8.05006 27.6984 7.93529 27.2937 8.16482L27.2359 8.22221C26.7734 8.50912 26.4844 9.14034 26.2531 9.6568C25.6172 11.034 25.2704 12.4112 24.8657 13.9032C24.8079 14.1901 24.7501 14.477 24.6923 14.7639L22.9579 20.2728L20.5877 25.4947C19.7205 26.5849 18.6221 27.5031 17.3503 28.0769C16.0784 28.7081 14.691 28.9951 13.3035 29.0524C7.46465 29.1672 4.74754 23.9453 4.74754 23.9453C1.45233 18.5512 0.469545 11.4357 0.238302 9.14034C0.122681 8.62389 0.122681 8.33697 0.122681 8.33697C0.122681 7.64837 0.296113 6.90238 0.700788 6.32855C1.04765 5.69733 1.56795 5.18088 2.20387 4.83658C2.8976 4.49227 3.59133 4.37751 4.34287 4.37751C5.03659 4.37751 5.67251 4.60704 6.30843 4.95134C6.77092 5.23826 7.17559 5.58256 7.46465 5.98425C7.98494 6.73023 8.15838 7.70575 8.21619 8.62389C8.44743 10.6897 8.85211 12.6981 9.43021 14.6492Z" fill="url(#paint2_radial_1900_38879)"/>
<path d="M9.43021 14.6492C9.8927 16.1985 10.4708 17.7479 11.2802 19.1825C11.627 19.8137 11.9739 20.4449 12.6098 20.8466C12.7254 20.904 12.841 20.9614 12.9567 21.0187C13.8816 21.1909 14.4019 20.4449 14.7488 19.8137C15.2113 18.7234 15.616 17.6331 15.9628 16.4854C16.0206 16.2559 16.0784 16.0838 16.1363 15.8542C16.2519 15.4525 16.3675 15.0509 16.4253 14.6492L20.5299 3.74629C21.397 2.59862 22.4954 1.68048 23.7673 1.04926C24.9813 0.360659 26.3688 0.0163574 27.814 0.0163574C29.8374 0.0163574 31.8608 0.70496 33.4795 1.9674C36.1966 3.97582 37.7575 7.99267 37.7575 7.99267C37.9887 8.50912 38.1043 9.08296 38.1043 9.6568C38.1043 10.1732 37.9887 10.6897 37.8153 11.2062C37.584 11.6652 37.295 12.1243 36.9481 12.526C36.6013 12.8703 36.1388 13.2146 35.6185 13.3867C35.156 13.5589 34.5779 13.6736 34.0576 13.6736C33.4795 13.6736 32.9014 13.5589 32.3811 13.272C31.8608 13.0424 31.3983 12.6407 30.9936 12.2391C30.9936 12.2391 30.9936 12.1817 30.9358 12.1817C30.7046 11.8374 30.4733 11.4357 30.2999 11.034C30.0687 10.5175 29.8374 10.0585 29.5484 9.59941C29.3749 9.36988 29.2593 9.14034 29.0859 8.91081C28.9702 8.68128 28.7968 8.50912 28.5656 8.33697C28.1609 8.05006 27.6984 7.93529 27.2937 8.16482L27.2359 8.22221C26.7734 8.50912 26.4844 9.14034 26.2531 9.6568C25.6172 11.034 25.2704 12.4112 24.8657 13.9032C24.8079 14.1901 24.7501 14.477 24.6923 14.7639L22.9579 20.2728L20.5877 25.4947C19.7205 26.5849 18.6221 27.5031 17.3503 28.0769C16.0784 28.7081 14.691 28.9951 13.3035 29.0524C7.46465 29.1672 4.74754 23.9453 4.74754 23.9453C1.45233 18.5512 0.469545 11.4357 0.238302 9.14034C0.122681 8.62389 0.122681 8.33697 0.122681 8.33697C0.122681 7.64837 0.296113 6.90238 0.700788 6.32855C1.04765 5.69733 1.56795 5.18088 2.20387 4.83658C2.8976 4.49227 3.59133 4.37751 4.34287 4.37751C5.03659 4.37751 5.67251 4.60704 6.30843 4.95134C6.77092 5.23826 7.17559 5.58256 7.46465 5.98425C7.98494 6.73023 8.15838 7.70575 8.21619 8.62389C8.44743 10.6897 8.85211 12.6981 9.43021 14.6492Z" fill="url(#paint3_radial_1900_38879)"/>
<path d="M9.43021 14.6492C9.8927 16.1985 10.4708 17.7479 11.2802 19.1825C11.627 19.8137 11.9739 20.4449 12.6098 20.8466C12.7254 20.904 12.841 20.9614 12.9567 21.0187C13.8816 21.1909 14.4019 20.4449 14.7488 19.8137C15.2113 18.7234 15.616 17.6331 15.9628 16.4854C16.0206 16.2559 16.0784 16.0838 16.1363 15.8542C16.2519 15.4525 16.3675 15.0509 16.4253 14.6492L20.5299 3.74629C21.397 2.59862 22.4954 1.68048 23.7673 1.04926C24.9813 0.360659 26.3688 0.0163574 27.814 0.0163574C29.8374 0.0163574 31.8608 0.70496 33.4795 1.9674C36.1966 3.97582 37.7575 7.99267 37.7575 7.99267C37.9887 8.50912 38.1043 9.08296 38.1043 9.6568C38.1043 10.1732 37.9887 10.6897 37.8153 11.2062C37.584 11.6652 37.295 12.1243 36.9481 12.526C36.6013 12.8703 36.1388 13.2146 35.6185 13.3867C35.156 13.5589 34.5779 13.6736 34.0576 13.6736C33.4795 13.6736 32.9014 13.5589 32.3811 13.272C31.8608 13.0424 31.3983 12.6407 30.9936 12.2391C30.9936 12.2391 30.9936 12.1817 30.9358 12.1817C30.7046 11.8374 30.4733 11.4357 30.2999 11.034C30.0687 10.5175 29.8374 10.0585 29.5484 9.59941C29.3749 9.36988 29.2593 9.14034 29.0859 8.91081C28.9702 8.68128 28.7968 8.50912 28.5656 8.33697C28.1609 8.05006 27.6984 7.93529 27.2937 8.16482L27.2359 8.22221C26.7734 8.50912 26.4844 9.14034 26.2531 9.6568C25.6172 11.034 25.2704 12.4112 24.8657 13.9032C24.8079 14.1901 24.7501 14.477 24.6923 14.7639L22.9579 20.2728L20.5877 25.4947C19.7205 26.5849 18.6221 27.5031 17.3503 28.0769C16.0784 28.7081 14.691 28.9951 13.3035 29.0524C7.46465 29.1672 4.74754 23.9453 4.74754 23.9453C1.45233 18.5512 0.469545 11.4357 0.238302 9.14034C0.122681 8.62389 0.122681 8.33697 0.122681 8.33697C0.122681 7.64837 0.296113 6.90238 0.700788 6.32855C1.04765 5.69733 1.56795 5.18088 2.20387 4.83658C2.8976 4.49227 3.59133 4.37751 4.34287 4.37751C5.03659 4.37751 5.67251 4.60704 6.30843 4.95134C6.77092 5.23826 7.17559 5.58256 7.46465 5.98425C7.98494 6.73023 8.15838 7.70575 8.21619 8.62389C8.44743 10.6897 8.85211 12.6981 9.43021 14.6492Z" fill="url(#paint4_radial_1900_38879)"/>
<path d="M9.43021 14.6492C9.8927 16.1985 10.4708 17.7479 11.2802 19.1825C11.627 19.8137 11.9739 20.4449 12.6098 20.8466C12.7254 20.904 12.841 20.9614 12.9567 21.0187C13.8816 21.1909 14.4019 20.4449 14.7488 19.8137C15.2113 18.7234 15.616 17.6331 15.9628 16.4854C16.0206 16.2559 16.0784 16.0838 16.1363 15.8542C16.2519 15.4525 16.3675 15.0509 16.4253 14.6492L20.5299 3.74629C21.397 2.59862 22.4954 1.68048 23.7673 1.04926C24.9813 0.360659 26.3688 0.0163574 27.814 0.0163574C29.8374 0.0163574 31.8608 0.70496 33.4795 1.9674C36.1966 3.97582 37.7575 7.99267 37.7575 7.99267C37.9887 8.50912 38.1043 9.08296 38.1043 9.6568C38.1043 10.1732 37.9887 10.6897 37.8153 11.2062C37.584 11.6652 37.295 12.1243 36.9481 12.526C36.6013 12.8703 36.1388 13.2146 35.6185 13.3867C35.156 13.5589 34.5779 13.6736 34.0576 13.6736C33.4795 13.6736 32.9014 13.5589 32.3811 13.272C31.8608 13.0424 31.3983 12.6407 30.9936 12.2391C30.9936 12.2391 30.9936 12.1817 30.9358 12.1817C30.7046 11.8374 30.4733 11.4357 30.2999 11.034C30.0687 10.5175 29.8374 10.0585 29.5484 9.59941C29.3749 9.36988 29.2593 9.14034 29.0859 8.91081C28.9702 8.68128 28.7968 8.50912 28.5656 8.33697C28.1609 8.05006 27.6984 7.93529 27.2937 8.16482L27.2359 8.22221C26.7734 8.50912 26.4844 9.14034 26.2531 9.6568C25.6172 11.034 25.2704 12.4112 24.8657 13.9032C24.8079 14.1901 24.7501 14.477 24.6923 14.7639L22.9579 20.2728L20.5877 25.4947C19.7205 26.5849 18.6221 27.5031 17.3503 28.0769C16.0784 28.7081 14.691 28.9951 13.3035 29.0524C7.46465 29.1672 4.74754 23.9453 4.74754 23.9453C1.45233 18.5512 0.469545 11.4357 0.238302 9.14034C0.122681 8.62389 0.122681 8.33697 0.122681 8.33697C0.122681 7.64837 0.296113 6.90238 0.700788 6.32855C1.04765 5.69733 1.56795 5.18088 2.20387 4.83658C2.8976 4.49227 3.59133 4.37751 4.34287 4.37751C5.03659 4.37751 5.67251 4.60704 6.30843 4.95134C6.77092 5.23826 7.17559 5.58256 7.46465 5.98425C7.98494 6.73023 8.15838 7.70575 8.21619 8.62389C8.44743 10.6897 8.85211 12.6981 9.43021 14.6492Z" fill="url(#paint5_radial_1900_38879)"/>
<path d="M9.43021 14.6492C9.8927 16.1985 10.4708 17.7479 11.2802 19.1825C11.627 19.8137 11.9739 20.4449 12.6098 20.8466C12.7254 20.904 12.841 20.9614 12.9567 21.0187C13.8816 21.1909 14.4019 20.4449 14.7488 19.8137C15.2113 18.7234 15.616 17.6331 15.9628 16.4854C16.0206 16.2559 16.0784 16.0838 16.1363 15.8542C16.2519 15.4525 16.3675 15.0509 16.4253 14.6492L20.5299 3.74629C21.397 2.59862 22.4954 1.68048 23.7673 1.04926C24.9813 0.360659 26.3688 0.0163574 27.814 0.0163574C29.8374 0.0163574 31.8608 0.70496 33.4795 1.9674C36.1966 3.97582 37.7575 7.99267 37.7575 7.99267C37.9887 8.50912 38.1043 9.08296 38.1043 9.6568C38.1043 10.1732 37.9887 10.6897 37.8153 11.2062C37.584 11.6652 37.295 12.1243 36.9481 12.526C36.6013 12.8703 36.1388 13.2146 35.6185 13.3867C35.156 13.5589 34.5779 13.6736 34.0576 13.6736C33.4795 13.6736 32.9014 13.5589 32.3811 13.272C31.8608 13.0424 31.3983 12.6407 30.9936 12.2391C30.9936 12.2391 30.9936 12.1817 30.9358 12.1817C30.7046 11.8374 30.4733 11.4357 30.2999 11.034C30.0687 10.5175 29.8374 10.0585 29.5484 9.59941C29.3749 9.36988 29.2593 9.14034 29.0859 8.91081C28.9702 8.68128 28.7968 8.50912 28.5656 8.33697C28.1609 8.05006 27.6984 7.93529 27.2937 8.16482L27.2359 8.22221C26.7734 8.50912 26.4844 9.14034 26.2531 9.6568C25.6172 11.034 25.2704 12.4112 24.8657 13.9032C24.8079 14.1901 24.7501 14.477 24.6923 14.7639L22.9579 20.2728L20.5877 25.4947C19.7205 26.5849 18.6221 27.5031 17.3503 28.0769C16.0784 28.7081 14.691 28.9951 13.3035 29.0524C7.46465 29.1672 4.74754 23.9453 4.74754 23.9453C1.45233 18.5512 0.469545 11.4357 0.238302 9.14034C0.122681 8.62389 0.122681 8.33697 0.122681 8.33697C0.122681 7.64837 0.296113 6.90238 0.700788 6.32855C1.04765 5.69733 1.56795 5.18088 2.20387 4.83658C2.8976 4.49227 3.59133 4.37751 4.34287 4.37751C5.03659 4.37751 5.67251 4.60704 6.30843 4.95134C6.77092 5.23826 7.17559 5.58256 7.46465 5.98425C7.98494 6.73023 8.15838 7.70575 8.21619 8.62389C8.44743 10.6897 8.85211 12.6981 9.43021 14.6492Z" fill="url(#paint6_radial_1900_38879)"/>
<path d="M9.43021 14.6492C9.8927 16.1985 10.4708 17.7479 11.2802 19.1825C11.627 19.8137 11.9739 20.4449 12.6098 20.8466C12.7254 20.904 12.841 20.9614 12.9567 21.0187C13.8816 21.1909 14.4019 20.4449 14.7488 19.8137C15.2113 18.7234 15.616 17.6331 15.9628 16.4854C16.0206 16.2559 16.0784 16.0838 16.1363 15.8542C16.2519 15.4525 16.3675 15.0509 16.4253 14.6492L20.5299 3.74629C21.397 2.59862 22.4954 1.68048 23.7673 1.04926C24.9813 0.360659 26.3688 0.0163574 27.814 0.0163574C29.8374 0.0163574 31.8608 0.70496 33.4795 1.9674C36.1966 3.97582 37.7575 7.99267 37.7575 7.99267C37.9887 8.50912 38.1043 9.08296 38.1043 9.6568C38.1043 10.1732 37.9887 10.6897 37.8153 11.2062C37.584 11.6652 37.295 12.1243 36.9481 12.526C36.6013 12.8703 36.1388 13.2146 35.6185 13.3867C35.156 13.5589 34.5779 13.6736 34.0576 13.6736C33.4795 13.6736 32.9014 13.5589 32.3811 13.272C31.8608 13.0424 31.3983 12.6407 30.9936 12.2391C30.9936 12.2391 30.9936 12.1817 30.9358 12.1817C30.7046 11.8374 30.4733 11.4357 30.2999 11.034C30.0687 10.5175 29.8374 10.0585 29.5484 9.59941C29.3749 9.36988 29.2593 9.14034 29.0859 8.91081C28.9702 8.68128 28.7968 8.50912 28.5656 8.33697C28.1609 8.05006 27.6984 7.93529 27.2937 8.16482L27.2359 8.22221C26.7734 8.50912 26.4844 9.14034 26.2531 9.6568C25.6172 11.034 25.2704 12.4112 24.8657 13.9032C24.8079 14.1901 24.7501 14.477 24.6923 14.7639L22.9579 20.2728L20.5877 25.4947C19.7205 26.5849 18.6221 27.5031 17.3503 28.0769C16.0784 28.7081 14.691 28.9951 13.3035 29.0524C7.46465 29.1672 4.74754 23.9453 4.74754 23.9453C1.45233 18.5512 0.469545 11.4357 0.238302 9.14034C0.122681 8.62389 0.122681 8.33697 0.122681 8.33697C0.122681 7.64837 0.296113 6.90238 0.700788 6.32855C1.04765 5.69733 1.56795 5.18088 2.20387 4.83658C2.8976 4.49227 3.59133 4.37751 4.34287 4.37751C5.03659 4.37751 5.67251 4.60704 6.30843 4.95134C6.77092 5.23826 7.17559 5.58256 7.46465 5.98425C7.98494 6.73023 8.15838 7.70575 8.21619 8.62389C8.44743 10.6897 8.85211 12.6981 9.43021 14.6492Z" fill="url(#paint7_radial_1900_38879)"/>
<path d="M9.43021 14.6492C9.8927 16.1985 10.4708 17.7479 11.2802 19.1825C11.627 19.8137 11.9739 20.4449 12.6098 20.8466C12.7254 20.904 12.841 20.9614 12.9567 21.0187C13.8816 21.1909 14.4019 20.4449 14.7488 19.8137C15.2113 18.7234 15.616 17.6331 15.9628 16.4854C16.0206 16.2559 16.0784 16.0838 16.1363 15.8542C16.2519 15.4525 16.3675 15.0509 16.4253 14.6492L20.5299 3.74629C21.397 2.59862 22.4954 1.68048 23.7673 1.04926C24.9813 0.360659 26.3688 0.0163574 27.814 0.0163574C29.8374 0.0163574 31.8608 0.70496 33.4795 1.9674C36.1966 3.97582 37.7575 7.99267 37.7575 7.99267C37.9887 8.50912 38.1043 9.08296 38.1043 9.6568C38.1043 10.1732 37.9887 10.6897 37.8153 11.2062C37.584 11.6652 37.295 12.1243 36.9481 12.526C36.6013 12.8703 36.1388 13.2146 35.6185 13.3867C35.156 13.5589 34.5779 13.6736 34.0576 13.6736C33.4795 13.6736 32.9014 13.5589 32.3811 13.272C31.8608 13.0424 31.3983 12.6407 30.9936 12.2391C30.9936 12.2391 30.9936 12.1817 30.9358 12.1817C30.7046 11.8374 30.4733 11.4357 30.2999 11.034C30.0687 10.5175 29.8374 10.0585 29.5484 9.59941C29.3749 9.36988 29.2593 9.14034 29.0859 8.91081C28.9702 8.68128 28.7968 8.50912 28.5656 8.33697C28.1609 8.05006 27.6984 7.93529 27.2937 8.16482L27.2359 8.22221C26.7734 8.50912 26.4844 9.14034 26.2531 9.6568C25.6172 11.034 25.2704 12.4112 24.8657 13.9032C24.8079 14.1901 24.7501 14.477 24.6923 14.7639L22.9579 20.2728L20.5877 25.4947C19.7205 26.5849 18.6221 27.5031 17.3503 28.0769C16.0784 28.7081 14.691 28.9951 13.3035 29.0524C7.46465 29.1672 4.74754 23.9453 4.74754 23.9453C1.45233 18.5512 0.469545 11.4357 0.238302 9.14034C0.122681 8.62389 0.122681 8.33697 0.122681 8.33697C0.122681 7.64837 0.296113 6.90238 0.700788 6.32855C1.04765 5.69733 1.56795 5.18088 2.20387 4.83658C2.8976 4.49227 3.59133 4.37751 4.34287 4.37751C5.03659 4.37751 5.67251 4.60704 6.30843 4.95134C6.77092 5.23826 7.17559 5.58256 7.46465 5.98425C7.98494 6.73023 8.15838 7.70575 8.21619 8.62389C8.44743 10.6897 8.85211 12.6981 9.43021 14.6492Z" fill="url(#paint8_radial_1900_38879)"/>
<path d="M9.43021 14.6492C9.8927 16.1985 10.4708 17.7479 11.2802 19.1825C11.627 19.8137 11.9739 20.4449 12.6098 20.8466C12.7254 20.904 12.841 20.9614 12.9567 21.0187C13.8816 21.1909 14.4019 20.4449 14.7488 19.8137C15.2113 18.7234 15.616 17.6331 15.9628 16.4854C16.0206 16.2559 16.0784 16.0838 16.1363 15.8542C16.2519 15.4525 16.3675 15.0509 16.4253 14.6492L20.5299 3.74629C21.397 2.59862 22.4954 1.68048 23.7673 1.04926C24.9813 0.360659 26.3688 0.0163574 27.814 0.0163574C29.8374 0.0163574 31.8608 0.70496 33.4795 1.9674C36.1966 3.97582 37.7575 7.99267 37.7575 7.99267C37.9887 8.50912 38.1043 9.08296 38.1043 9.6568C38.1043 10.1732 37.9887 10.6897 37.8153 11.2062C37.584 11.6652 37.295 12.1243 36.9481 12.526C36.6013 12.8703 36.1388 13.2146 35.6185 13.3867C35.156 13.5589 34.5779 13.6736 34.0576 13.6736C33.4795 13.6736 32.9014 13.5589 32.3811 13.272C31.8608 13.0424 31.3983 12.6407 30.9936 12.2391C30.9936 12.2391 30.9936 12.1817 30.9358 12.1817C30.7046 11.8374 30.4733 11.4357 30.2999 11.034C30.0687 10.5175 29.8374 10.0585 29.5484 9.59941C29.3749 9.36988 29.2593 9.14034 29.0859 8.91081C28.9702 8.68128 28.7968 8.50912 28.5656 8.33697C28.1609 8.05006 27.6984 7.93529 27.2937 8.16482L27.2359 8.22221C26.7734 8.50912 26.4844 9.14034 26.2531 9.6568C25.6172 11.034 25.2704 12.4112 24.8657 13.9032C24.8079 14.1901 24.7501 14.477 24.6923 14.7639L22.9579 20.2728L20.5877 25.4947C19.7205 26.5849 18.6221 27.5031 17.3503 28.0769C16.0784 28.7081 14.691 28.9951 13.3035 29.0524C7.46465 29.1672 4.74754 23.9453 4.74754 23.9453C1.45233 18.5512 0.469545 11.4357 0.238302 9.14034C0.122681 8.62389 0.122681 8.33697 0.122681 8.33697C0.122681 7.64837 0.296113 6.90238 0.700788 6.32855C1.04765 5.69733 1.56795 5.18088 2.20387 4.83658C2.8976 4.49227 3.59133 4.37751 4.34287 4.37751C5.03659 4.37751 5.67251 4.60704 6.30843 4.95134C6.77092 5.23826 7.17559 5.58256 7.46465 5.98425C7.98494 6.73023 8.15838 7.70575 8.21619 8.62389C8.44743 10.6897 8.85211 12.6981 9.43021 14.6492Z" fill="url(#paint9_radial_1900_38879)"/>
<path d="M9.43021 14.6492C9.8927 16.1985 10.4708 17.7479 11.2802 19.1825C11.627 19.8137 11.9739 20.4449 12.6098 20.8466C12.7254 20.904 12.841 20.9614 12.9567 21.0187C13.8816 21.1909 14.4019 20.4449 14.7488 19.8137C15.2113 18.7234 15.616 17.6331 15.9628 16.4854C16.0206 16.2559 16.0784 16.0838 16.1363 15.8542C16.2519 15.4525 16.3675 15.0509 16.4253 14.6492L20.5299 3.74629C21.397 2.59862 22.4954 1.68048 23.7673 1.04926C24.9813 0.360659 26.3688 0.0163574 27.814 0.0163574C29.8374 0.0163574 31.8608 0.70496 33.4795 1.9674C36.1966 3.97582 37.7575 7.99267 37.7575 7.99267C37.9887 8.50912 38.1043 9.08296 38.1043 9.6568C38.1043 10.1732 37.9887 10.6897 37.8153 11.2062C37.584 11.6652 37.295 12.1243 36.9481 12.526C36.6013 12.8703 36.1388 13.2146 35.6185 13.3867C35.156 13.5589 34.5779 13.6736 34.0576 13.6736C33.4795 13.6736 32.9014 13.5589 32.3811 13.272C31.8608 13.0424 31.3983 12.6407 30.9936 12.2391C30.9936 12.2391 30.9936 12.1817 30.9358 12.1817C30.7046 11.8374 30.4733 11.4357 30.2999 11.034C30.0687 10.5175 29.8374 10.0585 29.5484 9.59941C29.3749 9.36988 29.2593 9.14034 29.0859 8.91081C28.9702 8.68128 28.7968 8.50912 28.5656 8.33697C28.1609 8.05006 27.6984 7.93529 27.2937 8.16482L27.2359 8.22221C26.7734 8.50912 26.4844 9.14034 26.2531 9.6568C25.6172 11.034 25.2704 12.4112 24.8657 13.9032C24.8079 14.1901 24.7501 14.477 24.6923 14.7639L22.9579 20.2728L20.5877 25.4947C19.7205 26.5849 18.6221 27.5031 17.3503 28.0769C16.0784 28.7081 14.691 28.9951 13.3035 29.0524C7.46465 29.1672 4.74754 23.9453 4.74754 23.9453C1.45233 18.5512 0.469545 11.4357 0.238302 9.14034C0.122681 8.62389 0.122681 8.33697 0.122681 8.33697C0.122681 7.64837 0.296113 6.90238 0.700788 6.32855C1.04765 5.69733 1.56795 5.18088 2.20387 4.83658C2.8976 4.49227 3.59133 4.37751 4.34287 4.37751C5.03659 4.37751 5.67251 4.60704 6.30843 4.95134C6.77092 5.23826 7.17559 5.58256 7.46465 5.98425C7.98494 6.73023 8.15838 7.70575 8.21619 8.62389C8.44743 10.6897 8.85211 12.6981 9.43021 14.6492Z" fill="url(#paint10_radial_1900_38879)"/>
<path d="M9.43021 14.6492C9.8927 16.1985 10.4708 17.7479 11.2802 19.1825C11.627 19.8137 11.9739 20.4449 12.6098 20.8466C12.7254 20.904 12.841 20.9614 12.9567 21.0187C13.8816 21.1909 14.4019 20.4449 14.7488 19.8137C15.2113 18.7234 15.616 17.6331 15.9628 16.4854C16.0206 16.2559 16.0784 16.0838 16.1363 15.8542C16.2519 15.4525 16.3675 15.0509 16.4253 14.6492L20.5299 3.74629C21.397 2.59862 22.4954 1.68048 23.7673 1.04926C24.9813 0.360659 26.3688 0.0163574 27.814 0.0163574C29.8374 0.0163574 31.8608 0.70496 33.4795 1.9674C36.1966 3.97582 37.7575 7.99267 37.7575 7.99267C37.9887 8.50912 38.1043 9.08296 38.1043 9.6568C38.1043 10.1732 37.9887 10.6897 37.8153 11.2062C37.584 11.6652 37.295 12.1243 36.9481 12.526C36.6013 12.8703 36.1388 13.2146 35.6185 13.3867C35.156 13.5589 34.5779 13.6736 34.0576 13.6736C33.4795 13.6736 32.9014 13.5589 32.3811 13.272C31.8608 13.0424 31.3983 12.6407 30.9936 12.2391C30.9936 12.2391 30.9936 12.1817 30.9358 12.1817C30.7046 11.8374 30.4733 11.4357 30.2999 11.034C30.0687 10.5175 29.8374 10.0585 29.5484 9.59941C29.3749 9.36988 29.2593 9.14034 29.0859 8.91081C28.9702 8.68128 28.7968 8.50912 28.5656 8.33697C28.1609 8.05006 27.6984 7.93529 27.2937 8.16482L27.2359 8.22221C26.7734 8.50912 26.4844 9.14034 26.2531 9.6568C25.6172 11.034 25.2704 12.4112 24.8657 13.9032C24.8079 14.1901 24.7501 14.477 24.6923 14.7639L22.9579 20.2728L20.5877 25.4947C19.7205 26.5849 18.6221 27.5031 17.3503 28.0769C16.0784 28.7081 14.691 28.9951 13.3035 29.0524C7.46465 29.1672 4.74754 23.9453 4.74754 23.9453C1.45233 18.5512 0.469545 11.4357 0.238302 9.14034C0.122681 8.62389 0.122681 8.33697 0.122681 8.33697C0.122681 7.64837 0.296113 6.90238 0.700788 6.32855C1.04765 5.69733 1.56795 5.18088 2.20387 4.83658C2.8976 4.49227 3.59133 4.37751 4.34287 4.37751C5.03659 4.37751 5.67251 4.60704 6.30843 4.95134C6.77092 5.23826 7.17559 5.58256 7.46465 5.98425C7.98494 6.73023 8.15838 7.70575 8.21619 8.62389C8.44743 10.6897 8.85211 12.6981 9.43021 14.6492Z" fill="url(#paint11_radial_1900_38879)"/>
<path d="M9.43021 14.6492C9.8927 16.1985 10.4708 17.7479 11.2802 19.1825C11.627 19.8137 11.9739 20.4449 12.6098 20.8466C12.7254 20.904 12.841 20.9614 12.9567 21.0187C13.8816 21.1909 14.4019 20.4449 14.7488 19.8137C15.2113 18.7234 15.616 17.6331 15.9628 16.4854C16.0206 16.2559 16.0784 16.0838 16.1363 15.8542C16.2519 15.4525 16.3675 15.0509 16.4253 14.6492L20.5299 3.74629C21.397 2.59862 22.4954 1.68048 23.7673 1.04926C24.9813 0.360659 26.3688 0.0163574 27.814 0.0163574C29.8374 0.0163574 31.8608 0.70496 33.4795 1.9674C36.1966 3.97582 37.7575 7.99267 37.7575 7.99267C37.9887 8.50912 38.1043 9.08296 38.1043 9.6568C38.1043 10.1732 37.9887 10.6897 37.8153 11.2062C37.584 11.6652 37.295 12.1243 36.9481 12.526C36.6013 12.8703 36.1388 13.2146 35.6185 13.3867C35.156 13.5589 34.5779 13.6736 34.0576 13.6736C33.4795 13.6736 32.9014 13.5589 32.3811 13.272C31.8608 13.0424 31.3983 12.6407 30.9936 12.2391C30.9936 12.2391 30.9936 12.1817 30.9358 12.1817C30.7046 11.8374 30.4733 11.4357 30.2999 11.034C30.0687 10.5175 29.8374 10.0585 29.5484 9.59941C29.3749 9.36988 29.2593 9.14034 29.0859 8.91081C28.9702 8.68128 28.7968 8.50912 28.5656 8.33697C28.1609 8.05006 27.6984 7.93529 27.2937 8.16482L27.2359 8.22221C26.7734 8.50912 26.4844 9.14034 26.2531 9.6568C25.6172 11.034 25.2704 12.4112 24.8657 13.9032C24.8079 14.1901 24.7501 14.477 24.6923 14.7639L22.9579 20.2728L20.5877 25.4947C19.7205 26.5849 18.6221 27.5031 17.3503 28.0769C16.0784 28.7081 14.691 28.9951 13.3035 29.0524C7.46465 29.1672 4.74754 23.9453 4.74754 23.9453C1.45233 18.5512 0.469545 11.4357 0.238302 9.14034C0.122681 8.62389 0.122681 8.33697 0.122681 8.33697C0.122681 7.64837 0.296113 6.90238 0.700788 6.32855C1.04765 5.69733 1.56795 5.18088 2.20387 4.83658C2.8976 4.49227 3.59133 4.37751 4.34287 4.37751C5.03659 4.37751 5.67251 4.60704 6.30843 4.95134C6.77092 5.23826 7.17559 5.58256 7.46465 5.98425C7.98494 6.73023 8.15838 7.70575 8.21619 8.62389C8.44743 10.6897 8.85211 12.6981 9.43021 14.6492Z" fill="url(#paint12_radial_1900_38879)"/>
<path d="M9.43021 14.6492C9.8927 16.1985 10.4708 17.7479 11.2802 19.1825C11.627 19.8137 11.9739 20.4449 12.6098 20.8466C12.7254 20.904 12.841 20.9614 12.9567 21.0187C13.8816 21.1909 14.4019 20.4449 14.7488 19.8137C15.2113 18.7234 15.616 17.6331 15.9628 16.4854C16.0206 16.2559 16.0784 16.0838 16.1363 15.8542C16.2519 15.4525 16.3675 15.0509 16.4253 14.6492L20.5299 3.74629C21.397 2.59862 22.4954 1.68048 23.7673 1.04926C24.9813 0.360659 26.3688 0.0163574 27.814 0.0163574C29.8374 0.0163574 31.8608 0.70496 33.4795 1.9674C36.1966 3.97582 37.7575 7.99267 37.7575 7.99267C37.9887 8.50912 38.1043 9.08296 38.1043 9.6568C38.1043 10.1732 37.9887 10.6897 37.8153 11.2062C37.584 11.6652 37.295 12.1243 36.9481 12.526C36.6013 12.8703 36.1388 13.2146 35.6185 13.3867C35.156 13.5589 34.5779 13.6736 34.0576 13.6736C33.4795 13.6736 32.9014 13.5589 32.3811 13.272C31.8608 13.0424 31.3983 12.6407 30.9936 12.2391C30.9936 12.2391 30.9936 12.1817 30.9358 12.1817C30.7046 11.8374 30.4733 11.4357 30.2999 11.034C30.0687 10.5175 29.8374 10.0585 29.5484 9.59941C29.3749 9.36988 29.2593 9.14034 29.0859 8.91081C28.9702 8.68128 28.7968 8.50912 28.5656 8.33697C28.1609 8.05006 27.6984 7.93529 27.2937 8.16482L27.2359 8.22221C26.7734 8.50912 26.4844 9.14034 26.2531 9.6568C25.6172 11.034 25.2704 12.4112 24.8657 13.9032C24.8079 14.1901 24.7501 14.477 24.6923 14.7639L22.9579 20.2728L20.5877 25.4947C19.7205 26.5849 18.6221 27.5031 17.3503 28.0769C16.0784 28.7081 14.691 28.9951 13.3035 29.0524C7.46465 29.1672 4.74754 23.9453 4.74754 23.9453C1.45233 18.5512 0.469545 11.4357 0.238302 9.14034C0.122681 8.62389 0.122681 8.33697 0.122681 8.33697C0.122681 7.64837 0.296113 6.90238 0.700788 6.32855C1.04765 5.69733 1.56795 5.18088 2.20387 4.83658C2.8976 4.49227 3.59133 4.37751 4.34287 4.37751C5.03659 4.37751 5.67251 4.60704 6.30843 4.95134C6.77092 5.23826 7.17559 5.58256 7.46465 5.98425C7.98494 6.73023 8.15838 7.70575 8.21619 8.62389C8.44743 10.6897 8.85211 12.6981 9.43021 14.6492Z" fill="url(#paint13_radial_1900_38879)"/>
<path d="M9.43021 14.6492C9.8927 16.1985 10.4708 17.7479 11.2802 19.1825C11.627 19.8137 11.9739 20.4449 12.6098 20.8466C12.7254 20.904 12.841 20.9614 12.9567 21.0187C13.8816 21.1909 14.4019 20.4449 14.7488 19.8137C15.2113 18.7234 15.616 17.6331 15.9628 16.4854C16.0206 16.2559 16.0784 16.0838 16.1363 15.8542C16.2519 15.4525 16.3675 15.0509 16.4253 14.6492L20.5299 3.74629C21.397 2.59862 22.4954 1.68048 23.7673 1.04926C24.9813 0.360659 26.3688 0.0163574 27.814 0.0163574C29.8374 0.0163574 31.8608 0.70496 33.4795 1.9674C36.1966 3.97582 37.7575 7.99267 37.7575 7.99267C37.9887 8.50912 38.1043 9.08296 38.1043 9.6568C38.1043 10.1732 37.9887 10.6897 37.8153 11.2062C37.584 11.6652 37.295 12.1243 36.9481 12.526C36.6013 12.8703 36.1388 13.2146 35.6185 13.3867C35.156 13.5589 34.5779 13.6736 34.0576 13.6736C33.4795 13.6736 32.9014 13.5589 32.3811 13.272C31.8608 13.0424 31.3983 12.6407 30.9936 12.2391C30.9936 12.2391 30.9936 12.1817 30.9358 12.1817C30.7046 11.8374 30.4733 11.4357 30.2999 11.034C30.0687 10.5175 29.8374 10.0585 29.5484 9.59941C29.3749 9.36988 29.2593 9.14034 29.0859 8.91081C28.9702 8.68128 28.7968 8.50912 28.5656 8.33697C28.1609 8.05006 27.6984 7.93529 27.2937 8.16482L27.2359 8.22221C26.7734 8.50912 26.4844 9.14034 26.2531 9.6568C25.6172 11.034 25.2704 12.4112 24.8657 13.9032C24.8079 14.1901 24.7501 14.477 24.6923 14.7639L22.9579 20.2728L20.5877 25.4947C19.7205 26.5849 18.6221 27.5031 17.3503 28.0769C16.0784 28.7081 14.691 28.9951 13.3035 29.0524C7.46465 29.1672 4.74754 23.9453 4.74754 23.9453C1.45233 18.5512 0.469545 11.4357 0.238302 9.14034C0.122681 8.62389 0.122681 8.33697 0.122681 8.33697C0.122681 7.64837 0.296113 6.90238 0.700788 6.32855C1.04765 5.69733 1.56795 5.18088 2.20387 4.83658C2.8976 4.49227 3.59133 4.37751 4.34287 4.37751C5.03659 4.37751 5.67251 4.60704 6.30843 4.95134C6.77092 5.23826 7.17559 5.58256 7.46465 5.98425C7.98494 6.73023 8.15838 7.70575 8.21619 8.62389C8.44743 10.6897 8.85211 12.6981 9.43021 14.6492Z" fill="url(#paint14_radial_1900_38879)"/>
<path d="M9.43021 14.6492C9.8927 16.1985 10.4708 17.7479 11.2802 19.1825C11.627 19.8137 11.9739 20.4449 12.6098 20.8466C12.7254 20.904 12.841 20.9614 12.9567 21.0187C13.8816 21.1909 14.4019 20.4449 14.7488 19.8137C15.2113 18.7234 15.616 17.6331 15.9628 16.4854C16.0206 16.2559 16.0784 16.0838 16.1363 15.8542C16.2519 15.4525 16.3675 15.0509 16.4253 14.6492L20.5299 3.74629C21.397 2.59862 22.4954 1.68048 23.7673 1.04926C24.9813 0.360659 26.3688 0.0163574 27.814 0.0163574C29.8374 0.0163574 31.8608 0.70496 33.4795 1.9674C36.1966 3.97582 37.7575 7.99267 37.7575 7.99267C37.9887 8.50912 38.1043 9.08296 38.1043 9.6568C38.1043 10.1732 37.9887 10.6897 37.8153 11.2062C37.584 11.6652 37.295 12.1243 36.9481 12.526C36.6013 12.8703 36.1388 13.2146 35.6185 13.3867C35.156 13.5589 34.5779 13.6736 34.0576 13.6736C33.4795 13.6736 32.9014 13.5589 32.3811 13.272C31.8608 13.0424 31.3983 12.6407 30.9936 12.2391C30.9936 12.2391 30.9936 12.1817 30.9358 12.1817C30.7046 11.8374 30.4733 11.4357 30.2999 11.034C30.0687 10.5175 29.8374 10.0585 29.5484 9.59941C29.3749 9.36988 29.2593 9.14034 29.0859 8.91081C28.9702 8.68128 28.7968 8.50912 28.5656 8.33697C28.1609 8.05006 27.6984 7.93529 27.2937 8.16482L27.2359 8.22221C26.7734 8.50912 26.4844 9.14034 26.2531 9.6568C25.6172 11.034 25.2704 12.4112 24.8657 13.9032C24.8079 14.1901 24.7501 14.477 24.6923 14.7639L22.9579 20.2728L20.5877 25.4947C19.7205 26.5849 18.6221 27.5031 17.3503 28.0769C16.0784 28.7081 14.691 28.9951 13.3035 29.0524C7.46465 29.1672 4.74754 23.9453 4.74754 23.9453C1.45233 18.5512 0.469545 11.4357 0.238302 9.14034C0.122681 8.62389 0.122681 8.33697 0.122681 8.33697C0.122681 7.64837 0.296113 6.90238 0.700788 6.32855C1.04765 5.69733 1.56795 5.18088 2.20387 4.83658C2.8976 4.49227 3.59133 4.37751 4.34287 4.37751C5.03659 4.37751 5.67251 4.60704 6.30843 4.95134C6.77092 5.23826 7.17559 5.58256 7.46465 5.98425C7.98494 6.73023 8.15838 7.70575 8.21619 8.62389C8.44743 10.6897 8.85211 12.6981 9.43021 14.6492Z" fill="url(#paint15_radial_1900_38879)"/>
<path d="M9.43021 14.6492C9.8927 16.1985 10.4708 17.7479 11.2802 19.1825C11.627 19.8137 11.9739 20.4449 12.6098 20.8466C12.7254 20.904 12.841 20.9614 12.9567 21.0187C13.8816 21.1909 14.4019 20.4449 14.7488 19.8137C15.2113 18.7234 15.616 17.6331 15.9628 16.4854C16.0206 16.2559 16.0784 16.0838 16.1363 15.8542C16.2519 15.4525 16.3675 15.0509 16.4253 14.6492L20.5299 3.74629C21.397 2.59862 22.4954 1.68048 23.7673 1.04926C24.9813 0.360659 26.3688 0.0163574 27.814 0.0163574C29.8374 0.0163574 31.8608 0.70496 33.4795 1.9674C36.1966 3.97582 37.7575 7.99267 37.7575 7.99267C37.9887 8.50912 38.1043 9.08296 38.1043 9.6568C38.1043 10.1732 37.9887 10.6897 37.8153 11.2062C37.584 11.6652 37.295 12.1243 36.9481 12.526C36.6013 12.8703 36.1388 13.2146 35.6185 13.3867C35.156 13.5589 34.5779 13.6736 34.0576 13.6736C33.4795 13.6736 32.9014 13.5589 32.3811 13.272C31.8608 13.0424 31.3983 12.6407 30.9936 12.2391C30.9936 12.2391 30.9936 12.1817 30.9358 12.1817C30.7046 11.8374 30.4733 11.4357 30.2999 11.034C30.0687 10.5175 29.8374 10.0585 29.5484 9.59941C29.3749 9.36988 29.2593 9.14034 29.0859 8.91081C28.9702 8.68128 28.7968 8.50912 28.5656 8.33697C28.1609 8.05006 27.6984 7.93529 27.2937 8.16482L27.2359 8.22221C26.7734 8.50912 26.4844 9.14034 26.2531 9.6568C25.6172 11.034 25.2704 12.4112 24.8657 13.9032C24.8079 14.1901 24.7501 14.477 24.6923 14.7639L22.9579 20.2728L20.5877 25.4947C19.7205 26.5849 18.6221 27.5031 17.3503 28.0769C16.0784 28.7081 14.691 28.9951 13.3035 29.0524C7.46465 29.1672 4.74754 23.9453 4.74754 23.9453C1.45233 18.5512 0.469545 11.4357 0.238302 9.14034C0.122681 8.62389 0.122681 8.33697 0.122681 8.33697C0.122681 7.64837 0.296113 6.90238 0.700788 6.32855C1.04765 5.69733 1.56795 5.18088 2.20387 4.83658C2.8976 4.49227 3.59133 4.37751 4.34287 4.37751C5.03659 4.37751 5.67251 4.60704 6.30843 4.95134C6.77092 5.23826 7.17559 5.58256 7.46465 5.98425C7.98494 6.73023 8.15838 7.70575 8.21619 8.62389C8.44743 10.6897 8.85211 12.6981 9.43021 14.6492Z" fill="url(#paint16_linear_1900_38879)"/>
<path d="M9.43021 14.6492C9.8927 16.1985 10.4708 17.7479 11.2802 19.1825C11.627 19.8137 11.9739 20.4449 12.6098 20.8466C12.7254 20.904 12.841 20.9614 12.9567 21.0187C13.8816 21.1909 14.4019 20.4449 14.7488 19.8137C15.2113 18.7234 15.616 17.6331 15.9628 16.4854C16.0206 16.2559 16.0784 16.0838 16.1363 15.8542C16.2519 15.4525 16.3675 15.0509 16.4253 14.6492L20.5299 3.74629C21.397 2.59862 22.4954 1.68048 23.7673 1.04926C24.9813 0.360659 26.3688 0.0163574 27.814 0.0163574C29.8374 0.0163574 31.8608 0.70496 33.4795 1.9674C36.1966 3.97582 37.7575 7.99267 37.7575 7.99267C37.9887 8.50912 38.1043 9.08296 38.1043 9.6568C38.1043 10.1732 37.9887 10.6897 37.8153 11.2062C37.584 11.6652 37.295 12.1243 36.9481 12.526C36.6013 12.8703 36.1388 13.2146 35.6185 13.3867C35.156 13.5589 34.5779 13.6736 34.0576 13.6736C33.4795 13.6736 32.9014 13.5589 32.3811 13.272C31.8608 13.0424 31.3983 12.6407 30.9936 12.2391C30.9936 12.2391 30.9936 12.1817 30.9358 12.1817C30.7046 11.8374 30.4733 11.4357 30.2999 11.034C30.0687 10.5175 29.8374 10.0585 29.5484 9.59941C29.3749 9.36988 29.2593 9.14034 29.0859 8.91081C28.9702 8.68128 28.7968 8.50912 28.5656 8.33697C28.1609 8.05006 27.6984 7.93529 27.2937 8.16482L27.2359 8.22221C26.7734 8.50912 26.4844 9.14034 26.2531 9.6568C25.6172 11.034 25.2704 12.4112 24.8657 13.9032C24.8079 14.1901 24.7501 14.477 24.6923 14.7639L22.9579 20.2728L20.5877 25.4947C19.7205 26.5849 18.6221 27.5031 17.3503 28.0769C16.0784 28.7081 14.691 28.9951 13.3035 29.0524C7.46465 29.1672 4.74754 23.9453 4.74754 23.9453C1.45233 18.5512 0.469545 11.4357 0.238302 9.14034C0.122681 8.62389 0.122681 8.33697 0.122681 8.33697C0.122681 7.64837 0.296113 6.90238 0.700788 6.32855C1.04765 5.69733 1.56795 5.18088 2.20387 4.83658C2.8976 4.49227 3.59133 4.37751 4.34287 4.37751C5.03659 4.37751 5.67251 4.60704 6.30843 4.95134C6.77092 5.23826 7.17559 5.58256 7.46465 5.98425C7.98494 6.73023 8.15838 7.70575 8.21619 8.62389C8.44743 10.6897 8.85211 12.6981 9.43021 14.6492Z" fill="url(#paint17_linear_1900_38879)"/>
<path d="M9.43021 14.6492C9.8927 16.1985 10.4708 17.7479 11.2802 19.1825C11.627 19.8137 11.9739 20.4449 12.6098 20.8466C12.7254 20.904 12.841 20.9614 12.9567 21.0187C13.8816 21.1909 14.4019 20.4449 14.7488 19.8137C15.2113 18.7234 15.616 17.6331 15.9628 16.4854C16.0206 16.2559 16.0784 16.0838 16.1363 15.8542C16.2519 15.4525 16.3675 15.0509 16.4253 14.6492L20.5299 3.74629C21.397 2.59862 22.4954 1.68048 23.7673 1.04926C24.9813 0.360659 26.3688 0.0163574 27.814 0.0163574C29.8374 0.0163574 31.8608 0.70496 33.4795 1.9674C36.1966 3.97582 37.7575 7.99267 37.7575 7.99267C37.9887 8.50912 38.1043 9.08296 38.1043 9.6568C38.1043 10.1732 37.9887 10.6897 37.8153 11.2062C37.584 11.6652 37.295 12.1243 36.9481 12.526C36.6013 12.8703 36.1388 13.2146 35.6185 13.3867C35.156 13.5589 34.5779 13.6736 34.0576 13.6736C33.4795 13.6736 32.9014 13.5589 32.3811 13.272C31.8608 13.0424 31.3983 12.6407 30.9936 12.2391C30.9936 12.2391 30.9936 12.1817 30.9358 12.1817C30.7046 11.8374 30.4733 11.4357 30.2999 11.034C30.0687 10.5175 29.8374 10.0585 29.5484 9.59941C29.3749 9.36988 29.2593 9.14034 29.0859 8.91081C28.9702 8.68128 28.7968 8.50912 28.5656 8.33697C28.1609 8.05006 27.6984 7.93529 27.2937 8.16482L27.2359 8.22221C26.7734 8.50912 26.4844 9.14034 26.2531 9.6568C25.6172 11.034 25.2704 12.4112 24.8657 13.9032C24.8079 14.1901 24.7501 14.477 24.6923 14.7639L22.9579 20.2728L20.5877 25.4947C19.7205 26.5849 18.6221 27.5031 17.3503 28.0769C16.0784 28.7081 14.691 28.9951 13.3035 29.0524C7.46465 29.1672 4.74754 23.9453 4.74754 23.9453C1.45233 18.5512 0.469545 11.4357 0.238302 9.14034C0.122681 8.62389 0.122681 8.33697 0.122681 8.33697C0.122681 7.64837 0.296113 6.90238 0.700788 6.32855C1.04765 5.69733 1.56795 5.18088 2.20387 4.83658C2.8976 4.49227 3.59133 4.37751 4.34287 4.37751C5.03659 4.37751 5.67251 4.60704 6.30843 4.95134C6.77092 5.23826 7.17559 5.58256 7.46465 5.98425C7.98494 6.73023 8.15838 7.70575 8.21619 8.62389C8.44743 10.6897 8.85211 12.6981 9.43021 14.6492Z" fill="url(#paint18_linear_1900_38879)"/>
<path d="M9.43021 14.6492C9.8927 16.1985 10.4708 17.7479 11.2802 19.1825C11.627 19.8137 11.9739 20.4449 12.6098 20.8466C12.7254 20.904 12.841 20.9614 12.9567 21.0187C13.8816 21.1909 14.4019 20.4449 14.7488 19.8137C15.2113 18.7234 15.616 17.6331 15.9628 16.4854C16.0206 16.2559 16.0784 16.0838 16.1363 15.8542C16.2519 15.4525 16.3675 15.0509 16.4253 14.6492L20.5299 3.74629C21.397 2.59862 22.4954 1.68048 23.7673 1.04926C24.9813 0.360659 26.3688 0.0163574 27.814 0.0163574C29.8374 0.0163574 31.8608 0.70496 33.4795 1.9674C36.1966 3.97582 37.7575 7.99267 37.7575 7.99267C37.9887 8.50912 38.1043 9.08296 38.1043 9.6568C38.1043 10.1732 37.9887 10.6897 37.8153 11.2062C37.584 11.6652 37.295 12.1243 36.9481 12.526C36.6013 12.8703 36.1388 13.2146 35.6185 13.3867C35.156 13.5589 34.5779 13.6736 34.0576 13.6736C33.4795 13.6736 32.9014 13.5589 32.3811 13.272C31.8608 13.0424 31.3983 12.6407 30.9936 12.2391C30.9936 12.2391 30.9936 12.1817 30.9358 12.1817C30.7046 11.8374 30.4733 11.4357 30.2999 11.034C30.0687 10.5175 29.8374 10.0585 29.5484 9.59941C29.3749 9.36988 29.2593 9.14034 29.0859 8.91081C28.9702 8.68128 28.7968 8.50912 28.5656 8.33697C28.1609 8.05006 27.6984 7.93529 27.2937 8.16482L27.2359 8.22221C26.7734 8.50912 26.4844 9.14034 26.2531 9.6568C25.6172 11.034 25.2704 12.4112 24.8657 13.9032C24.8079 14.1901 24.7501 14.477 24.6923 14.7639L22.9579 20.2728L20.5877 25.4947C19.7205 26.5849 18.6221 27.5031 17.3503 28.0769C16.0784 28.7081 14.691 28.9951 13.3035 29.0524C7.46465 29.1672 4.74754 23.9453 4.74754 23.9453C1.45233 18.5512 0.469545 11.4357 0.238302 9.14034C0.122681 8.62389 0.122681 8.33697 0.122681 8.33697C0.122681 7.64837 0.296113 6.90238 0.700788 6.32855C1.04765 5.69733 1.56795 5.18088 2.20387 4.83658C2.8976 4.49227 3.59133 4.37751 4.34287 4.37751C5.03659 4.37751 5.67251 4.60704 6.30843 4.95134C6.77092 5.23826 7.17559 5.58256 7.46465 5.98425C7.98494 6.73023 8.15838 7.70575 8.21619 8.62389C8.44743 10.6897 8.85211 12.6981 9.43021 14.6492Z" fill="url(#paint19_linear_1900_38879)"/>
<path d="M17.8705 10.5744L20.472 3.63103C21.3391 2.48336 22.4375 1.56523 23.7094 0.934006C24.9812 0.36017 26.3687 0.0158691 27.8139 0.0158691C29.8373 0.0158691 31.8607 0.704472 33.4794 1.96691C36.1965 3.97533 37.7574 7.99218 37.7574 7.99218C37.9886 8.50864 38.1042 9.08247 38.1042 9.65631C38.1042 10.1728 37.9886 10.6892 37.8152 11.2057C37.5839 11.6647 37.2949 12.1238 36.948 12.5255C36.6012 12.8698 36.1387 13.2141 35.6184 13.3862C35.1559 13.5584 34.5778 13.6732 34.0575 13.6732C33.4794 13.6732 32.9013 13.5584 32.381 13.2715C31.8607 13.0419 31.3982 12.6403 30.9935 12.2386C30.9935 12.2386 30.9935 12.1812 30.9357 12.1812C30.7045 11.8369 30.4732 11.4352 30.2998 11.0335C30.0686 10.5171 29.8373 10.058 29.5483 9.59892C29.3748 9.36939 29.2592 9.13985 29.0858 8.91032C28.9701 8.68079 28.7967 8.50864 28.5655 8.33648C28.1608 8.04957 27.6983 7.9348 27.2936 8.16433L27.2358 8.22172C26.7733 8.50864 26.4843 9.13985 26.253 9.65631C25.6171 11.0335 25.2703 12.4107 24.8656 13.9027C24.8078 14.1896 24.75 14.4765 24.6922 14.7634L22.9578 20.2723L17.8705 10.5744Z" fill="url(#paint20_linear_1900_38879)"/>
<path d="M36.8324 4.37696C36.4856 4.37696 36.1387 4.43435 35.8497 4.49173C36.6012 5.58202 37.2371 6.72969 37.7574 7.93474C37.9887 8.4512 38.1043 9.02503 38.1043 9.59887C38.1043 10.1153 37.9887 10.6318 37.8152 11.1482C37.584 11.6073 37.2949 12.0664 36.9481 12.468C36.6012 12.8697 36.1387 13.1566 35.6184 13.3288C35.1559 13.501 34.5778 13.6157 34.0575 13.6157C33.3638 13.6157 32.6123 13.4436 32.0342 13.0419L31.6295 14.5912C30.8779 17.1161 30.3576 18.0343 30.3576 18.0343C30.0686 18.7229 29.7217 19.3541 29.317 19.9853C29.028 20.387 28.6811 20.7887 28.2186 20.9608C28.0452 21.0182 27.8718 21.0182 27.6983 21.0182C27.5249 21.0182 27.3515 20.9608 27.178 20.846C26.889 20.6165 26.5999 20.2722 26.4265 19.9279C26.1953 19.5262 26.0218 19.1245 25.8484 18.7229C25.5015 17.8621 24.9234 15.7389 24.9234 15.7389L24.3453 13.501L23.7672 11.263L23.3625 9.77102C22.3219 5.92632 20.8189 4.03266 20.8189 4.03266C19.6627 2.36854 17.9861 1.16348 16.0784 0.474881C13.8816 -0.328489 11.5691 0.130579 11.5691 0.130579C7.92707 0.819182 6.01931 3.28668 5.20996 4.49173C5.61464 4.6065 5.9615 4.72126 6.30837 4.9508C6.77085 5.23772 7.17553 5.58202 7.46458 5.9837C7.98488 6.72969 8.15831 7.70521 8.21612 8.62335C8.44736 10.6318 8.85204 12.5828 9.37234 14.5339C10.5864 10.4596 12.0894 8.56596 12.0894 8.56596C12.2629 8.33643 12.4363 8.16428 12.6675 8.04951C12.7832 7.99213 12.8988 7.93474 13.0722 7.93474C13.3035 7.93474 13.5925 7.99213 13.766 8.1069C13.8238 8.1069 13.8238 8.16428 13.8816 8.16428C14.055 8.33643 14.2284 8.50858 14.4019 8.73811C14.6909 9.31195 14.98 9.8284 15.2112 10.4596C15.6737 11.7221 16.0784 13.3288 16.0784 13.3288L17.2346 17.9195C18.1018 21.0756 18.7955 22.5676 18.7955 22.5676C20.5876 26.6418 23.3047 27.7895 23.3047 27.7895C24.6344 28.4781 26.1375 28.8797 27.6405 28.9371C29.0858 28.9945 30.5311 28.7076 31.8029 28.0764C33.1904 27.3878 34.4622 26.3549 35.445 25.1498C36.0809 24.4038 37.0637 22.5676 37.0637 22.5676C38.1621 20.4444 38.9714 18.2064 39.5495 15.9111C39.9542 14.4765 40.2433 13.0419 40.4745 11.5499C40.5901 10.8039 40.7058 10.1153 40.7636 9.36933C40.8792 8.68073 40.8792 7.99213 40.7058 7.30353C40.648 7.18876 40.648 7.07399 40.5901 6.95922C40.2433 6.09847 39.6074 5.40987 38.798 4.9508C38.2199 4.54911 37.5262 4.37696 36.8324 4.37696Z" fill="url(#paint21_linear_1900_38879)"/>
<path d="M36.8324 4.37696C36.4856 4.37696 36.1387 4.43435 35.8497 4.49173C36.6012 5.58202 37.2371 6.72969 37.7574 7.93474C37.9887 8.4512 38.1043 9.02503 38.1043 9.59887C38.1043 10.1153 37.9887 10.6318 37.8152 11.1482C37.584 11.6073 37.2949 12.0664 36.9481 12.468C36.6012 12.8697 36.1387 13.1566 35.6184 13.3288C35.1559 13.501 34.5778 13.6157 34.0575 13.6157C33.3638 13.6157 32.6123 13.4436 32.0342 13.0419L31.6295 14.5912C30.8779 17.1161 30.3576 18.0343 30.3576 18.0343C30.0686 18.7229 29.7217 19.3541 29.317 19.9853C29.028 20.387 28.6811 20.7887 28.2186 20.9608C28.0452 21.0182 27.8718 21.0182 27.6983 21.0182C27.5249 21.0182 27.3515 20.9608 27.178 20.846C26.889 20.6165 26.5999 20.2722 26.4265 19.9279C26.1953 19.5262 26.0218 19.1245 25.8484 18.7229C25.5015 17.8621 24.9234 15.7389 24.9234 15.7389L24.3453 13.501L23.7672 11.263L23.3625 9.77102C22.3219 5.92632 20.8189 4.03266 20.8189 4.03266C19.6627 2.36854 17.9861 1.16348 16.0784 0.474881C13.8816 -0.328489 11.5691 0.130579 11.5691 0.130579C7.92707 0.819182 6.01931 3.28668 5.20996 4.49173C5.61464 4.6065 5.9615 4.72126 6.30837 4.9508C6.77085 5.23772 7.17553 5.58202 7.46458 5.9837C7.98488 6.72969 8.15831 7.70521 8.21612 8.62335C8.44736 10.6318 8.85204 12.5828 9.37234 14.5339C10.5864 10.4596 12.0894 8.56596 12.0894 8.56596C12.2629 8.33643 12.4363 8.16428 12.6675 8.04951C12.7832 7.99213 12.8988 7.93474 13.0722 7.93474C13.3035 7.93474 13.5925 7.99213 13.766 8.1069C13.8238 8.1069 13.8238 8.16428 13.8816 8.16428C14.055 8.33643 14.2284 8.50858 14.4019 8.73811C14.6909 9.31195 14.98 9.8284 15.2112 10.4596C15.6737 11.7221 16.0784 13.3288 16.0784 13.3288L17.2346 17.9195C18.1018 21.0756 18.7955 22.5676 18.7955 22.5676C20.5876 26.6418 23.3047 27.7895 23.3047 27.7895C24.6344 28.4781 26.1375 28.8797 27.6405 28.9371C29.0858 28.9945 30.5311 28.7076 31.8029 28.0764C33.1904 27.3878 34.4622 26.3549 35.445 25.1498C36.0809 24.4038 37.0637 22.5676 37.0637 22.5676C38.1621 20.4444 38.9714 18.2064 39.5495 15.9111C39.9542 14.4765 40.2433 13.0419 40.4745 11.5499C40.5901 10.8039 40.7058 10.1153 40.7636 9.36933C40.8792 8.68073 40.8792 7.99213 40.7058 7.30353C40.648 7.18876 40.648 7.07399 40.5901 6.95922C40.2433 6.09847 39.6074 5.40987 38.798 4.9508C38.2199 4.54911 37.5262 4.37696 36.8324 4.37696Z" fill="url(#paint22_radial_1900_38879)"/>
<path d="M36.8324 4.37696C36.4856 4.37696 36.1387 4.43435 35.8497 4.49173C36.6012 5.58202 37.2371 6.72969 37.7574 7.93474C37.9887 8.4512 38.1043 9.02503 38.1043 9.59887C38.1043 10.1153 37.9887 10.6318 37.8152 11.1482C37.584 11.6073 37.2949 12.0664 36.9481 12.468C36.6012 12.8697 36.1387 13.1566 35.6184 13.3288C35.1559 13.501 34.5778 13.6157 34.0575 13.6157C33.3638 13.6157 32.6123 13.4436 32.0342 13.0419L31.6295 14.5912C30.8779 17.1161 30.3576 18.0343 30.3576 18.0343C30.0686 18.7229 29.7217 19.3541 29.317 19.9853C29.028 20.387 28.6811 20.7887 28.2186 20.9608C28.0452 21.0182 27.8718 21.0182 27.6983 21.0182C27.5249 21.0182 27.3515 20.9608 27.178 20.846C26.889 20.6165 26.5999 20.2722 26.4265 19.9279C26.1953 19.5262 26.0218 19.1245 25.8484 18.7229C25.5015 17.8621 24.9234 15.7389 24.9234 15.7389L24.3453 13.501L23.7672 11.263L23.3625 9.77102C22.3219 5.92632 20.8189 4.03266 20.8189 4.03266C19.6627 2.36854 17.9861 1.16348 16.0784 0.474881C13.8816 -0.328489 11.5691 0.130579 11.5691 0.130579C7.92707 0.819182 6.01931 3.28668 5.20996 4.49173C5.61464 4.6065 5.9615 4.72126 6.30837 4.9508C6.77085 5.23772 7.17553 5.58202 7.46458 5.9837C7.98488 6.72969 8.15831 7.70521 8.21612 8.62335C8.44736 10.6318 8.85204 12.5828 9.37234 14.5339C10.5864 10.4596 12.0894 8.56596 12.0894 8.56596C12.2629 8.33643 12.4363 8.16428 12.6675 8.04951C12.7832 7.99213 12.8988 7.93474 13.0722 7.93474C13.3035 7.93474 13.5925 7.99213 13.766 8.1069C13.8238 8.1069 13.8238 8.16428 13.8816 8.16428C14.055 8.33643 14.2284 8.50858 14.4019 8.73811C14.6909 9.31195 14.98 9.8284 15.2112 10.4596C15.6737 11.7221 16.0784 13.3288 16.0784 13.3288L17.2346 17.9195C18.1018 21.0756 18.7955 22.5676 18.7955 22.5676C20.5876 26.6418 23.3047 27.7895 23.3047 27.7895C24.6344 28.4781 26.1375 28.8797 27.6405 28.9371C29.0858 28.9945 30.5311 28.7076 31.8029 28.0764C33.1904 27.3878 34.4622 26.3549 35.445 25.1498C36.0809 24.4038 37.0637 22.5676 37.0637 22.5676C38.1621 20.4444 38.9714 18.2064 39.5495 15.9111C39.9542 14.4765 40.2433 13.0419 40.4745 11.5499C40.5901 10.8039 40.7058 10.1153 40.7636 9.36933C40.8792 8.68073 40.8792 7.99213 40.7058 7.30353C40.648 7.18876 40.648 7.07399 40.5901 6.95922C40.2433 6.09847 39.6074 5.40987 38.798 4.9508C38.2199 4.54911 37.5262 4.37696 36.8324 4.37696Z" fill="url(#paint23_radial_1900_38879)"/>
<path d="M36.8324 4.37696C36.4856 4.37696 36.1387 4.43435 35.8497 4.49173C36.6012 5.58202 37.2371 6.72969 37.7574 7.93474C37.9887 8.4512 38.1043 9.02503 38.1043 9.59887C38.1043 10.1153 37.9887 10.6318 37.8152 11.1482C37.584 11.6073 37.2949 12.0664 36.9481 12.468C36.6012 12.8697 36.1387 13.1566 35.6184 13.3288C35.1559 13.501 34.5778 13.6157 34.0575 13.6157C33.3638 13.6157 32.6123 13.4436 32.0342 13.0419L31.6295 14.5912C30.8779 17.1161 30.3576 18.0343 30.3576 18.0343C30.0686 18.7229 29.7217 19.3541 29.317 19.9853C29.028 20.387 28.6811 20.7887 28.2186 20.9608C28.0452 21.0182 27.8718 21.0182 27.6983 21.0182C27.5249 21.0182 27.3515 20.9608 27.178 20.846C26.889 20.6165 26.5999 20.2722 26.4265 19.9279C26.1953 19.5262 26.0218 19.1245 25.8484 18.7229C25.5015 17.8621 24.9234 15.7389 24.9234 15.7389L24.3453 13.501L23.7672 11.263L23.3625 9.77102C22.3219 5.92632 20.8189 4.03266 20.8189 4.03266C19.6627 2.36854 17.9861 1.16348 16.0784 0.474881C13.8816 -0.328489 11.5691 0.130579 11.5691 0.130579C7.92707 0.819182 6.01931 3.28668 5.20996 4.49173C5.61464 4.6065 5.9615 4.72126 6.30837 4.9508C6.77085 5.23772 7.17553 5.58202 7.46458 5.9837C7.98488 6.72969 8.15831 7.70521 8.21612 8.62335C8.44736 10.6318 8.85204 12.5828 9.37234 14.5339C10.5864 10.4596 12.0894 8.56596 12.0894 8.56596C12.2629 8.33643 12.4363 8.16428 12.6675 8.04951C12.7832 7.99213 12.8988 7.93474 13.0722 7.93474C13.3035 7.93474 13.5925 7.99213 13.766 8.1069C13.8238 8.1069 13.8238 8.16428 13.8816 8.16428C14.055 8.33643 14.2284 8.50858 14.4019 8.73811C14.6909 9.31195 14.98 9.8284 15.2112 10.4596C15.6737 11.7221 16.0784 13.3288 16.0784 13.3288L17.2346 17.9195C18.1018 21.0756 18.7955 22.5676 18.7955 22.5676C20.5876 26.6418 23.3047 27.7895 23.3047 27.7895C24.6344 28.4781 26.1375 28.8797 27.6405 28.9371C29.0858 28.9945 30.5311 28.7076 31.8029 28.0764C33.1904 27.3878 34.4622 26.3549 35.445 25.1498C36.0809 24.4038 37.0637 22.5676 37.0637 22.5676C38.1621 20.4444 38.9714 18.2064 39.5495 15.9111C39.9542 14.4765 40.2433 13.0419 40.4745 11.5499C40.5901 10.8039 40.7058 10.1153 40.7636 9.36933C40.8792 8.68073 40.8792 7.99213 40.7058 7.30353C40.648 7.18876 40.648 7.07399 40.5901 6.95922C40.2433 6.09847 39.6074 5.40987 38.798 4.9508C38.2199 4.54911 37.5262 4.37696 36.8324 4.37696Z" fill="url(#paint24_radial_1900_38879)"/>
<path d="M36.8324 4.37696C36.4856 4.37696 36.1387 4.43435 35.8497 4.49173C36.6012 5.58202 37.2371 6.72969 37.7574 7.93474C37.9887 8.4512 38.1043 9.02503 38.1043 9.59887C38.1043 10.1153 37.9887 10.6318 37.8152 11.1482C37.584 11.6073 37.2949 12.0664 36.9481 12.468C36.6012 12.8697 36.1387 13.1566 35.6184 13.3288C35.1559 13.501 34.5778 13.6157 34.0575 13.6157C33.3638 13.6157 32.6123 13.4436 32.0342 13.0419L31.6295 14.5912C30.8779 17.1161 30.3576 18.0343 30.3576 18.0343C30.0686 18.7229 29.7217 19.3541 29.317 19.9853C29.028 20.387 28.6811 20.7887 28.2186 20.9608C28.0452 21.0182 27.8718 21.0182 27.6983 21.0182C27.5249 21.0182 27.3515 20.9608 27.178 20.846C26.889 20.6165 26.5999 20.2722 26.4265 19.9279C26.1953 19.5262 26.0218 19.1245 25.8484 18.7229C25.5015 17.8621 24.9234 15.7389 24.9234 15.7389L24.3453 13.501L23.7672 11.263L23.3625 9.77102C22.3219 5.92632 20.8189 4.03266 20.8189 4.03266C19.6627 2.36854 17.9861 1.16348 16.0784 0.474881C13.8816 -0.328489 11.5691 0.130579 11.5691 0.130579C7.92707 0.819182 6.01931 3.28668 5.20996 4.49173C5.61464 4.6065 5.9615 4.72126 6.30837 4.9508C6.77085 5.23772 7.17553 5.58202 7.46458 5.9837C7.98488 6.72969 8.15831 7.70521 8.21612 8.62335C8.44736 10.6318 8.85204 12.5828 9.37234 14.5339C10.5864 10.4596 12.0894 8.56596 12.0894 8.56596C12.2629 8.33643 12.4363 8.16428 12.6675 8.04951C12.7832 7.99213 12.8988 7.93474 13.0722 7.93474C13.3035 7.93474 13.5925 7.99213 13.766 8.1069C13.8238 8.1069 13.8238 8.16428 13.8816 8.16428C14.055 8.33643 14.2284 8.50858 14.4019 8.73811C14.6909 9.31195 14.98 9.8284 15.2112 10.4596C15.6737 11.7221 16.0784 13.3288 16.0784 13.3288L17.2346 17.9195C18.1018 21.0756 18.7955 22.5676 18.7955 22.5676C20.5876 26.6418 23.3047 27.7895 23.3047 27.7895C24.6344 28.4781 26.1375 28.8797 27.6405 28.9371C29.0858 28.9945 30.5311 28.7076 31.8029 28.0764C33.1904 27.3878 34.4622 26.3549 35.445 25.1498C36.0809 24.4038 37.0637 22.5676 37.0637 22.5676C38.1621 20.4444 38.9714 18.2064 39.5495 15.9111C39.9542 14.4765 40.2433 13.0419 40.4745 11.5499C40.5901 10.8039 40.7058 10.1153 40.7636 9.36933C40.8792 8.68073 40.8792 7.99213 40.7058 7.30353C40.648 7.18876 40.648 7.07399 40.5901 6.95922C40.2433 6.09847 39.6074 5.40987 38.798 4.9508C38.2199 4.54911 37.5262 4.37696 36.8324 4.37696Z" fill="url(#paint25_radial_1900_38879)"/>
<path d="M36.8324 4.37696C36.4856 4.37696 36.1387 4.43435 35.8497 4.49173C36.6012 5.58202 37.2371 6.72969 37.7574 7.93474C37.9887 8.4512 38.1043 9.02503 38.1043 9.59887C38.1043 10.1153 37.9887 10.6318 37.8152 11.1482C37.584 11.6073 37.2949 12.0664 36.9481 12.468C36.6012 12.8697 36.1387 13.1566 35.6184 13.3288C35.1559 13.501 34.5778 13.6157 34.0575 13.6157C33.3638 13.6157 32.6123 13.4436 32.0342 13.0419L31.6295 14.5912C30.8779 17.1161 30.3576 18.0343 30.3576 18.0343C30.0686 18.7229 29.7217 19.3541 29.317 19.9853C29.028 20.387 28.6811 20.7887 28.2186 20.9608C28.0452 21.0182 27.8718 21.0182 27.6983 21.0182C27.5249 21.0182 27.3515 20.9608 27.178 20.846C26.889 20.6165 26.5999 20.2722 26.4265 19.9279C26.1953 19.5262 26.0218 19.1245 25.8484 18.7229C25.5015 17.8621 24.9234 15.7389 24.9234 15.7389L24.3453 13.501L23.7672 11.263L23.3625 9.77102C22.3219 5.92632 20.8189 4.03266 20.8189 4.03266C19.6627 2.36854 17.9861 1.16348 16.0784 0.474881C13.8816 -0.328489 11.5691 0.130579 11.5691 0.130579C7.92707 0.819182 6.01931 3.28668 5.20996 4.49173C5.61464 4.6065 5.9615 4.72126 6.30837 4.9508C6.77085 5.23772 7.17553 5.58202 7.46458 5.9837C7.98488 6.72969 8.15831 7.70521 8.21612 8.62335C8.44736 10.6318 8.85204 12.5828 9.37234 14.5339C10.5864 10.4596 12.0894 8.56596 12.0894 8.56596C12.2629 8.33643 12.4363 8.16428 12.6675 8.04951C12.7832 7.99213 12.8988 7.93474 13.0722 7.93474C13.3035 7.93474 13.5925 7.99213 13.766 8.1069C13.8238 8.1069 13.8238 8.16428 13.8816 8.16428C14.055 8.33643 14.2284 8.50858 14.4019 8.73811C14.6909 9.31195 14.98 9.8284 15.2112 10.4596C15.6737 11.7221 16.0784 13.3288 16.0784 13.3288L17.2346 17.9195C18.1018 21.0756 18.7955 22.5676 18.7955 22.5676C20.5876 26.6418 23.3047 27.7895 23.3047 27.7895C24.6344 28.4781 26.1375 28.8797 27.6405 28.9371C29.0858 28.9945 30.5311 28.7076 31.8029 28.0764C33.1904 27.3878 34.4622 26.3549 35.445 25.1498C36.0809 24.4038 37.0637 22.5676 37.0637 22.5676C38.1621 20.4444 38.9714 18.2064 39.5495 15.9111C39.9542 14.4765 40.2433 13.0419 40.4745 11.5499C40.5901 10.8039 40.7058 10.1153 40.7636 9.36933C40.8792 8.68073 40.8792 7.99213 40.7058 7.30353C40.648 7.18876 40.648 7.07399 40.5901 6.95922C40.2433 6.09847 39.6074 5.40987 38.798 4.9508C38.2199 4.54911 37.5262 4.37696 36.8324 4.37696Z" fill="url(#paint26_radial_1900_38879)"/>
<path d="M36.8324 4.37696C36.4856 4.37696 36.1387 4.43435 35.8497 4.49173C36.6012 5.58202 37.2371 6.72969 37.7574 7.93474C37.9887 8.4512 38.1043 9.02503 38.1043 9.59887C38.1043 10.1153 37.9887 10.6318 37.8152 11.1482C37.584 11.6073 37.2949 12.0664 36.9481 12.468C36.6012 12.8697 36.1387 13.1566 35.6184 13.3288C35.1559 13.501 34.5778 13.6157 34.0575 13.6157C33.3638 13.6157 32.6123 13.4436 32.0342 13.0419L31.6295 14.5912C30.8779 17.1161 30.3576 18.0343 30.3576 18.0343C30.0686 18.7229 29.7217 19.3541 29.317 19.9853C29.028 20.387 28.6811 20.7887 28.2186 20.9608C28.0452 21.0182 27.8718 21.0182 27.6983 21.0182C27.5249 21.0182 27.3515 20.9608 27.178 20.846C26.889 20.6165 26.5999 20.2722 26.4265 19.9279C26.1953 19.5262 26.0218 19.1245 25.8484 18.7229C25.5015 17.8621 24.9234 15.7389 24.9234 15.7389L24.3453 13.501L23.7672 11.263L23.3625 9.77102C22.3219 5.92632 20.8189 4.03266 20.8189 4.03266C19.6627 2.36854 17.9861 1.16348 16.0784 0.474881C13.8816 -0.328489 11.5691 0.130579 11.5691 0.130579C7.92707 0.819182 6.01931 3.28668 5.20996 4.49173C5.61464 4.6065 5.9615 4.72126 6.30837 4.9508C6.77085 5.23772 7.17553 5.58202 7.46458 5.9837C7.98488 6.72969 8.15831 7.70521 8.21612 8.62335C8.44736 10.6318 8.85204 12.5828 9.37234 14.5339C10.5864 10.4596 12.0894 8.56596 12.0894 8.56596C12.2629 8.33643 12.4363 8.16428 12.6675 8.04951C12.7832 7.99213 12.8988 7.93474 13.0722 7.93474C13.3035 7.93474 13.5925 7.99213 13.766 8.1069C13.8238 8.1069 13.8238 8.16428 13.8816 8.16428C14.055 8.33643 14.2284 8.50858 14.4019 8.73811C14.6909 9.31195 14.98 9.8284 15.2112 10.4596C15.6737 11.7221 16.0784 13.3288 16.0784 13.3288L17.2346 17.9195C18.1018 21.0756 18.7955 22.5676 18.7955 22.5676C20.5876 26.6418 23.3047 27.7895 23.3047 27.7895C24.6344 28.4781 26.1375 28.8797 27.6405 28.9371C29.0858 28.9945 30.5311 28.7076 31.8029 28.0764C33.1904 27.3878 34.4622 26.3549 35.445 25.1498C36.0809 24.4038 37.0637 22.5676 37.0637 22.5676C38.1621 20.4444 38.9714 18.2064 39.5495 15.9111C39.9542 14.4765 40.2433 13.0419 40.4745 11.5499C40.5901 10.8039 40.7058 10.1153 40.7636 9.36933C40.8792 8.68073 40.8792 7.99213 40.7058 7.30353C40.648 7.18876 40.648 7.07399 40.5901 6.95922C40.2433 6.09847 39.6074 5.40987 38.798 4.9508C38.2199 4.54911 37.5262 4.37696 36.8324 4.37696Z" fill="url(#paint27_radial_1900_38879)"/>
<path d="M36.8324 4.37696C36.4856 4.37696 36.1387 4.43435 35.8497 4.49173C36.6012 5.58202 37.2371 6.72969 37.7574 7.93474C37.9887 8.4512 38.1043 9.02503 38.1043 9.59887C38.1043 10.1153 37.9887 10.6318 37.8152 11.1482C37.584 11.6073 37.2949 12.0664 36.9481 12.468C36.6012 12.8697 36.1387 13.1566 35.6184 13.3288C35.1559 13.501 34.5778 13.6157 34.0575 13.6157C33.3638 13.6157 32.6123 13.4436 32.0342 13.0419L31.6295 14.5912C30.8779 17.1161 30.3576 18.0343 30.3576 18.0343C30.0686 18.7229 29.7217 19.3541 29.317 19.9853C29.028 20.387 28.6811 20.7887 28.2186 20.9608C28.0452 21.0182 27.8718 21.0182 27.6983 21.0182C27.5249 21.0182 27.3515 20.9608 27.178 20.846C26.889 20.6165 26.5999 20.2722 26.4265 19.9279C26.1953 19.5262 26.0218 19.1245 25.8484 18.7229C25.5015 17.8621 24.9234 15.7389 24.9234 15.7389L24.3453 13.501L23.7672 11.263L23.3625 9.77102C22.3219 5.92632 20.8189 4.03266 20.8189 4.03266C19.6627 2.36854 17.9861 1.16348 16.0784 0.474881C13.8816 -0.328489 11.5691 0.130579 11.5691 0.130579C7.92707 0.819182 6.01931 3.28668 5.20996 4.49173C5.61464 4.6065 5.9615 4.72126 6.30837 4.9508C6.77085 5.23772 7.17553 5.58202 7.46458 5.9837C7.98488 6.72969 8.15831 7.70521 8.21612 8.62335C8.44736 10.6318 8.85204 12.5828 9.37234 14.5339C10.5864 10.4596 12.0894 8.56596 12.0894 8.56596C12.2629 8.33643 12.4363 8.16428 12.6675 8.04951C12.7832 7.99213 12.8988 7.93474 13.0722 7.93474C13.3035 7.93474 13.5925 7.99213 13.766 8.1069C13.8238 8.1069 13.8238 8.16428 13.8816 8.16428C14.055 8.33643 14.2284 8.50858 14.4019 8.73811C14.6909 9.31195 14.98 9.8284 15.2112 10.4596C15.6737 11.7221 16.0784 13.3288 16.0784 13.3288L17.2346 17.9195C18.1018 21.0756 18.7955 22.5676 18.7955 22.5676C20.5876 26.6418 23.3047 27.7895 23.3047 27.7895C24.6344 28.4781 26.1375 28.8797 27.6405 28.9371C29.0858 28.9945 30.5311 28.7076 31.8029 28.0764C33.1904 27.3878 34.4622 26.3549 35.445 25.1498C36.0809 24.4038 37.0637 22.5676 37.0637 22.5676C38.1621 20.4444 38.9714 18.2064 39.5495 15.9111C39.9542 14.4765 40.2433 13.0419 40.4745 11.5499C40.5901 10.8039 40.7058 10.1153 40.7636 9.36933C40.8792 8.68073 40.8792 7.99213 40.7058 7.30353C40.648 7.18876 40.648 7.07399 40.5901 6.95922C40.2433 6.09847 39.6074 5.40987 38.798 4.9508C38.2199 4.54911 37.5262 4.37696 36.8324 4.37696Z" fill="url(#paint28_radial_1900_38879)"/>
<path d="M36.8324 4.37696C36.4856 4.37696 36.1387 4.43435 35.8497 4.49173C36.6012 5.58202 37.2371 6.72969 37.7574 7.93474C37.9887 8.4512 38.1043 9.02503 38.1043 9.59887C38.1043 10.1153 37.9887 10.6318 37.8152 11.1482C37.584 11.6073 37.2949 12.0664 36.9481 12.468C36.6012 12.8697 36.1387 13.1566 35.6184 13.3288C35.1559 13.501 34.5778 13.6157 34.0575 13.6157C33.3638 13.6157 32.6123 13.4436 32.0342 13.0419L31.6295 14.5912C30.8779 17.1161 30.3576 18.0343 30.3576 18.0343C30.0686 18.7229 29.7217 19.3541 29.317 19.9853C29.028 20.387 28.6811 20.7887 28.2186 20.9608C28.0452 21.0182 27.8718 21.0182 27.6983 21.0182C27.5249 21.0182 27.3515 20.9608 27.178 20.846C26.889 20.6165 26.5999 20.2722 26.4265 19.9279C26.1953 19.5262 26.0218 19.1245 25.8484 18.7229C25.5015 17.8621 24.9234 15.7389 24.9234 15.7389L24.3453 13.501L23.7672 11.263L23.3625 9.77102C22.3219 5.92632 20.8189 4.03266 20.8189 4.03266C19.6627 2.36854 17.9861 1.16348 16.0784 0.474881C13.8816 -0.328489 11.5691 0.130579 11.5691 0.130579C7.92707 0.819182 6.01931 3.28668 5.20996 4.49173C5.61464 4.6065 5.9615 4.72126 6.30837 4.9508C6.77085 5.23772 7.17553 5.58202 7.46458 5.9837C7.98488 6.72969 8.15831 7.70521 8.21612 8.62335C8.44736 10.6318 8.85204 12.5828 9.37234 14.5339C10.5864 10.4596 12.0894 8.56596 12.0894 8.56596C12.2629 8.33643 12.4363 8.16428 12.6675 8.04951C12.7832 7.99213 12.8988 7.93474 13.0722 7.93474C13.3035 7.93474 13.5925 7.99213 13.766 8.1069C13.8238 8.1069 13.8238 8.16428 13.8816 8.16428C14.055 8.33643 14.2284 8.50858 14.4019 8.73811C14.6909 9.31195 14.98 9.8284 15.2112 10.4596C15.6737 11.7221 16.0784 13.3288 16.0784 13.3288L17.2346 17.9195C18.1018 21.0756 18.7955 22.5676 18.7955 22.5676C20.5876 26.6418 23.3047 27.7895 23.3047 27.7895C24.6344 28.4781 26.1375 28.8797 27.6405 28.9371C29.0858 28.9945 30.5311 28.7076 31.8029 28.0764C33.1904 27.3878 34.4622 26.3549 35.445 25.1498C36.0809 24.4038 37.0637 22.5676 37.0637 22.5676C38.1621 20.4444 38.9714 18.2064 39.5495 15.9111C39.9542 14.4765 40.2433 13.0419 40.4745 11.5499C40.5901 10.8039 40.7058 10.1153 40.7636 9.36933C40.8792 8.68073 40.8792 7.99213 40.7058 7.30353C40.648 7.18876 40.648 7.07399 40.5901 6.95922C40.2433 6.09847 39.6074 5.40987 38.798 4.9508C38.2199 4.54911 37.5262 4.37696 36.8324 4.37696Z" fill="url(#paint29_radial_1900_38879)"/>
<path d="M36.8324 4.37696C36.4856 4.37696 36.1387 4.43435 35.8497 4.49173C36.6012 5.58202 37.2371 6.72969 37.7574 7.93474C37.9887 8.4512 38.1043 9.02503 38.1043 9.59887C38.1043 10.1153 37.9887 10.6318 37.8152 11.1482C37.584 11.6073 37.2949 12.0664 36.9481 12.468C36.6012 12.8697 36.1387 13.1566 35.6184 13.3288C35.1559 13.501 34.5778 13.6157 34.0575 13.6157C33.3638 13.6157 32.6123 13.4436 32.0342 13.0419L31.6295 14.5912C30.8779 17.1161 30.3576 18.0343 30.3576 18.0343C30.0686 18.7229 29.7217 19.3541 29.317 19.9853C29.028 20.387 28.6811 20.7887 28.2186 20.9608C28.0452 21.0182 27.8718 21.0182 27.6983 21.0182C27.5249 21.0182 27.3515 20.9608 27.178 20.846C26.889 20.6165 26.5999 20.2722 26.4265 19.9279C26.1953 19.5262 26.0218 19.1245 25.8484 18.7229C25.5015 17.8621 24.9234 15.7389 24.9234 15.7389L24.3453 13.501L23.7672 11.263L23.3625 9.77102C22.3219 5.92632 20.8189 4.03266 20.8189 4.03266C19.6627 2.36854 17.9861 1.16348 16.0784 0.474881C13.8816 -0.328489 11.5691 0.130579 11.5691 0.130579C7.92707 0.819182 6.01931 3.28668 5.20996 4.49173C5.61464 4.6065 5.9615 4.72126 6.30837 4.9508C6.77085 5.23772 7.17553 5.58202 7.46458 5.9837C7.98488 6.72969 8.15831 7.70521 8.21612 8.62335C8.44736 10.6318 8.85204 12.5828 9.37234 14.5339C10.5864 10.4596 12.0894 8.56596 12.0894 8.56596C12.2629 8.33643 12.4363 8.16428 12.6675 8.04951C12.7832 7.99213 12.8988 7.93474 13.0722 7.93474C13.3035 7.93474 13.5925 7.99213 13.766 8.1069C13.8238 8.1069 13.8238 8.16428 13.8816 8.16428C14.055 8.33643 14.2284 8.50858 14.4019 8.73811C14.6909 9.31195 14.98 9.8284 15.2112 10.4596C15.6737 11.7221 16.0784 13.3288 16.0784 13.3288L17.2346 17.9195C18.1018 21.0756 18.7955 22.5676 18.7955 22.5676C20.5876 26.6418 23.3047 27.7895 23.3047 27.7895C24.6344 28.4781 26.1375 28.8797 27.6405 28.9371C29.0858 28.9945 30.5311 28.7076 31.8029 28.0764C33.1904 27.3878 34.4622 26.3549 35.445 25.1498C36.0809 24.4038 37.0637 22.5676 37.0637 22.5676C38.1621 20.4444 38.9714 18.2064 39.5495 15.9111C39.9542 14.4765 40.2433 13.0419 40.4745 11.5499C40.5901 10.8039 40.7058 10.1153 40.7636 9.36933C40.8792 8.68073 40.8792 7.99213 40.7058 7.30353C40.648 7.18876 40.648 7.07399 40.5901 6.95922C40.2433 6.09847 39.6074 5.40987 38.798 4.9508C38.2199 4.54911 37.5262 4.37696 36.8324 4.37696Z" fill="url(#paint30_radial_1900_38879)"/>
<path d="M36.8324 4.37696C36.4856 4.37696 36.1387 4.43435 35.8497 4.49173C36.6012 5.58202 37.2371 6.72969 37.7574 7.93474C37.9887 8.4512 38.1043 9.02503 38.1043 9.59887C38.1043 10.1153 37.9887 10.6318 37.8152 11.1482C37.584 11.6073 37.2949 12.0664 36.9481 12.468C36.6012 12.8697 36.1387 13.1566 35.6184 13.3288C35.1559 13.501 34.5778 13.6157 34.0575 13.6157C33.3638 13.6157 32.6123 13.4436 32.0342 13.0419L31.6295 14.5912C30.8779 17.1161 30.3576 18.0343 30.3576 18.0343C30.0686 18.7229 29.7217 19.3541 29.317 19.9853C29.028 20.387 28.6811 20.7887 28.2186 20.9608C28.0452 21.0182 27.8718 21.0182 27.6983 21.0182C27.5249 21.0182 27.3515 20.9608 27.178 20.846C26.889 20.6165 26.5999 20.2722 26.4265 19.9279C26.1953 19.5262 26.0218 19.1245 25.8484 18.7229C25.5015 17.8621 24.9234 15.7389 24.9234 15.7389L24.3453 13.501L23.7672 11.263L23.3625 9.77102C22.3219 5.92632 20.8189 4.03266 20.8189 4.03266C19.6627 2.36854 17.9861 1.16348 16.0784 0.474881C13.8816 -0.328489 11.5691 0.130579 11.5691 0.130579C7.92707 0.819182 6.01931 3.28668 5.20996 4.49173C5.61464 4.6065 5.9615 4.72126 6.30837 4.9508C6.77085 5.23772 7.17553 5.58202 7.46458 5.9837C7.98488 6.72969 8.15831 7.70521 8.21612 8.62335C8.44736 10.6318 8.85204 12.5828 9.37234 14.5339C10.5864 10.4596 12.0894 8.56596 12.0894 8.56596C12.2629 8.33643 12.4363 8.16428 12.6675 8.04951C12.7832 7.99213 12.8988 7.93474 13.0722 7.93474C13.3035 7.93474 13.5925 7.99213 13.766 8.1069C13.8238 8.1069 13.8238 8.16428 13.8816 8.16428C14.055 8.33643 14.2284 8.50858 14.4019 8.73811C14.6909 9.31195 14.98 9.8284 15.2112 10.4596C15.6737 11.7221 16.0784 13.3288 16.0784 13.3288L17.2346 17.9195C18.1018 21.0756 18.7955 22.5676 18.7955 22.5676C20.5876 26.6418 23.3047 27.7895 23.3047 27.7895C24.6344 28.4781 26.1375 28.8797 27.6405 28.9371C29.0858 28.9945 30.5311 28.7076 31.8029 28.0764C33.1904 27.3878 34.4622 26.3549 35.445 25.1498C36.0809 24.4038 37.0637 22.5676 37.0637 22.5676C38.1621 20.4444 38.9714 18.2064 39.5495 15.9111C39.9542 14.4765 40.2433 13.0419 40.4745 11.5499C40.5901 10.8039 40.7058 10.1153 40.7636 9.36933C40.8792 8.68073 40.8792 7.99213 40.7058 7.30353C40.648 7.18876 40.648 7.07399 40.5901 6.95922C40.2433 6.09847 39.6074 5.40987 38.798 4.9508C38.2199 4.54911 37.5262 4.37696 36.8324 4.37696Z" fill="url(#paint31_radial_1900_38879)"/>
<path d="M36.8324 4.37696C36.4856 4.37696 36.1387 4.43435 35.8497 4.49173C36.6012 5.58202 37.2371 6.72969 37.7574 7.93474C37.9887 8.4512 38.1043 9.02503 38.1043 9.59887C38.1043 10.1153 37.9887 10.6318 37.8152 11.1482C37.584 11.6073 37.2949 12.0664 36.9481 12.468C36.6012 12.8697 36.1387 13.1566 35.6184 13.3288C35.1559 13.501 34.5778 13.6157 34.0575 13.6157C33.3638 13.6157 32.6123 13.4436 32.0342 13.0419L31.6295 14.5912C30.8779 17.1161 30.3576 18.0343 30.3576 18.0343C30.0686 18.7229 29.7217 19.3541 29.317 19.9853C29.028 20.387 28.6811 20.7887 28.2186 20.9608C28.0452 21.0182 27.8718 21.0182 27.6983 21.0182C27.5249 21.0182 27.3515 20.9608 27.178 20.846C26.889 20.6165 26.5999 20.2722 26.4265 19.9279C26.1953 19.5262 26.0218 19.1245 25.8484 18.7229C25.5015 17.8621 24.9234 15.7389 24.9234 15.7389L24.3453 13.501L23.7672 11.263L23.3625 9.77102C22.3219 5.92632 20.8189 4.03266 20.8189 4.03266C19.6627 2.36854 17.9861 1.16348 16.0784 0.474881C13.8816 -0.328489 11.5691 0.130579 11.5691 0.130579C7.92707 0.819182 6.01931 3.28668 5.20996 4.49173C5.61464 4.6065 5.9615 4.72126 6.30837 4.9508C6.77085 5.23772 7.17553 5.58202 7.46458 5.9837C7.98488 6.72969 8.15831 7.70521 8.21612 8.62335C8.44736 10.6318 8.85204 12.5828 9.37234 14.5339C10.5864 10.4596 12.0894 8.56596 12.0894 8.56596C12.2629 8.33643 12.4363 8.16428 12.6675 8.04951C12.7832 7.99213 12.8988 7.93474 13.0722 7.93474C13.3035 7.93474 13.5925 7.99213 13.766 8.1069C13.8238 8.1069 13.8238 8.16428 13.8816 8.16428C14.055 8.33643 14.2284 8.50858 14.4019 8.73811C14.6909 9.31195 14.98 9.8284 15.2112 10.4596C15.6737 11.7221 16.0784 13.3288 16.0784 13.3288L17.2346 17.9195C18.1018 21.0756 18.7955 22.5676 18.7955 22.5676C20.5876 26.6418 23.3047 27.7895 23.3047 27.7895C24.6344 28.4781 26.1375 28.8797 27.6405 28.9371C29.0858 28.9945 30.5311 28.7076 31.8029 28.0764C33.1904 27.3878 34.4622 26.3549 35.445 25.1498C36.0809 24.4038 37.0637 22.5676 37.0637 22.5676C38.1621 20.4444 38.9714 18.2064 39.5495 15.9111C39.9542 14.4765 40.2433 13.0419 40.4745 11.5499C40.5901 10.8039 40.7058 10.1153 40.7636 9.36933C40.8792 8.68073 40.8792 7.99213 40.7058 7.30353C40.648 7.18876 40.648 7.07399 40.5901 6.95922C40.2433 6.09847 39.6074 5.40987 38.798 4.9508C38.2199 4.54911 37.5262 4.37696 36.8324 4.37696Z" fill="url(#paint32_radial_1900_38879)"/>
<path d="M36.8324 4.37696C36.4856 4.37696 36.1387 4.43435 35.8497 4.49173C36.6012 5.58202 37.2371 6.72969 37.7574 7.93474C37.9887 8.4512 38.1043 9.02503 38.1043 9.59887C38.1043 10.1153 37.9887 10.6318 37.8152 11.1482C37.584 11.6073 37.2949 12.0664 36.9481 12.468C36.6012 12.8697 36.1387 13.1566 35.6184 13.3288C35.1559 13.501 34.5778 13.6157 34.0575 13.6157C33.3638 13.6157 32.6123 13.4436 32.0342 13.0419L31.6295 14.5912C30.8779 17.1161 30.3576 18.0343 30.3576 18.0343C30.0686 18.7229 29.7217 19.3541 29.317 19.9853C29.028 20.387 28.6811 20.7887 28.2186 20.9608C28.0452 21.0182 27.8718 21.0182 27.6983 21.0182C27.5249 21.0182 27.3515 20.9608 27.178 20.846C26.889 20.6165 26.5999 20.2722 26.4265 19.9279C26.1953 19.5262 26.0218 19.1245 25.8484 18.7229C25.5015 17.8621 24.9234 15.7389 24.9234 15.7389L24.3453 13.501L23.7672 11.263L23.3625 9.77102C22.3219 5.92632 20.8189 4.03266 20.8189 4.03266C19.6627 2.36854 17.9861 1.16348 16.0784 0.474881C13.8816 -0.328489 11.5691 0.130579 11.5691 0.130579C7.92707 0.819182 6.01931 3.28668 5.20996 4.49173C5.61464 4.6065 5.9615 4.72126 6.30837 4.9508C6.77085 5.23772 7.17553 5.58202 7.46458 5.9837C7.98488 6.72969 8.15831 7.70521 8.21612 8.62335C8.44736 10.6318 8.85204 12.5828 9.37234 14.5339C10.5864 10.4596 12.0894 8.56596 12.0894 8.56596C12.2629 8.33643 12.4363 8.16428 12.6675 8.04951C12.7832 7.99213 12.8988 7.93474 13.0722 7.93474C13.3035 7.93474 13.5925 7.99213 13.766 8.1069C13.8238 8.1069 13.8238 8.16428 13.8816 8.16428C14.055 8.33643 14.2284 8.50858 14.4019 8.73811C14.6909 9.31195 14.98 9.8284 15.2112 10.4596C15.6737 11.7221 16.0784 13.3288 16.0784 13.3288L17.2346 17.9195C18.1018 21.0756 18.7955 22.5676 18.7955 22.5676C20.5876 26.6418 23.3047 27.7895 23.3047 27.7895C24.6344 28.4781 26.1375 28.8797 27.6405 28.9371C29.0858 28.9945 30.5311 28.7076 31.8029 28.0764C33.1904 27.3878 34.4622 26.3549 35.445 25.1498C36.0809 24.4038 37.0637 22.5676 37.0637 22.5676C38.1621 20.4444 38.9714 18.2064 39.5495 15.9111C39.9542 14.4765 40.2433 13.0419 40.4745 11.5499C40.5901 10.8039 40.7058 10.1153 40.7636 9.36933C40.8792 8.68073 40.8792 7.99213 40.7058 7.30353C40.648 7.18876 40.648 7.07399 40.5901 6.95922C40.2433 6.09847 39.6074 5.40987 38.798 4.9508C38.2199 4.54911 37.5262 4.37696 36.8324 4.37696Z" fill="url(#paint33_radial_1900_38879)"/>
<path d="M36.8324 4.37696C36.4856 4.37696 36.1387 4.43435 35.8497 4.49173C36.6012 5.58202 37.2371 6.72969 37.7574 7.93474C37.9887 8.4512 38.1043 9.02503 38.1043 9.59887C38.1043 10.1153 37.9887 10.6318 37.8152 11.1482C37.584 11.6073 37.2949 12.0664 36.9481 12.468C36.6012 12.8697 36.1387 13.1566 35.6184 13.3288C35.1559 13.501 34.5778 13.6157 34.0575 13.6157C33.3638 13.6157 32.6123 13.4436 32.0342 13.0419L31.6295 14.5912C30.8779 17.1161 30.3576 18.0343 30.3576 18.0343C30.0686 18.7229 29.7217 19.3541 29.317 19.9853C29.028 20.387 28.6811 20.7887 28.2186 20.9608C28.0452 21.0182 27.8718 21.0182 27.6983 21.0182C27.5249 21.0182 27.3515 20.9608 27.178 20.846C26.889 20.6165 26.5999 20.2722 26.4265 19.9279C26.1953 19.5262 26.0218 19.1245 25.8484 18.7229C25.5015 17.8621 24.9234 15.7389 24.9234 15.7389L24.3453 13.501L23.7672 11.263L23.3625 9.77102C22.3219 5.92632 20.8189 4.03266 20.8189 4.03266C19.6627 2.36854 17.9861 1.16348 16.0784 0.474881C13.8816 -0.328489 11.5691 0.130579 11.5691 0.130579C7.92707 0.819182 6.01931 3.28668 5.20996 4.49173C5.61464 4.6065 5.9615 4.72126 6.30837 4.9508C6.77085 5.23772 7.17553 5.58202 7.46458 5.9837C7.98488 6.72969 8.15831 7.70521 8.21612 8.62335C8.44736 10.6318 8.85204 12.5828 9.37234 14.5339C10.5864 10.4596 12.0894 8.56596 12.0894 8.56596C12.2629 8.33643 12.4363 8.16428 12.6675 8.04951C12.7832 7.99213 12.8988 7.93474 13.0722 7.93474C13.3035 7.93474 13.5925 7.99213 13.766 8.1069C13.8238 8.1069 13.8238 8.16428 13.8816 8.16428C14.055 8.33643 14.2284 8.50858 14.4019 8.73811C14.6909 9.31195 14.98 9.8284 15.2112 10.4596C15.6737 11.7221 16.0784 13.3288 16.0784 13.3288L17.2346 17.9195C18.1018 21.0756 18.7955 22.5676 18.7955 22.5676C20.5876 26.6418 23.3047 27.7895 23.3047 27.7895C24.6344 28.4781 26.1375 28.8797 27.6405 28.9371C29.0858 28.9945 30.5311 28.7076 31.8029 28.0764C33.1904 27.3878 34.4622 26.3549 35.445 25.1498C36.0809 24.4038 37.0637 22.5676 37.0637 22.5676C38.1621 20.4444 38.9714 18.2064 39.5495 15.9111C39.9542 14.4765 40.2433 13.0419 40.4745 11.5499C40.5901 10.8039 40.7058 10.1153 40.7636 9.36933C40.8792 8.68073 40.8792 7.99213 40.7058 7.30353C40.648 7.18876 40.648 7.07399 40.5901 6.95922C40.2433 6.09847 39.6074 5.40987 38.798 4.9508C38.2199 4.54911 37.5262 4.37696 36.8324 4.37696Z" fill="url(#paint34_linear_1900_38879)"/>
</g>
<defs>
<linearGradient id="paint0_linear_1900_38879" x1="1.95499" y1="19.568" x2="33.5805" y2="6.68941" gradientUnits="userSpaceOnUse">
<stop offset="0.13" stop-color="#1CBBF3"/>
<stop offset="0.34" stop-color="#1F99A5"/>
<stop offset="0.45" stop-color="#209CA6"/>
<stop offset="0.51" stop-color="#24A4AA"/>
<stop offset="0.57" stop-color="#2BB3B0"/>
<stop offset="0.6" stop-color="#30BDB4"/>
<stop offset="0.79" stop-color="#38BA90"/>
<stop offset="1" stop-color="#60F05A"/>
</linearGradient>
<radialGradient id="paint1_radial_1900_38879" cx="0" cy="0" r="1" gradientUnits="userSpaceOnUse" gradientTransform="translate(23.0756 12.0829) rotate(74.2092) scale(15.0432 11.5054)">
<stop stop-color="#227B60"/>
<stop offset="0.14" stop-color="#227B60" stop-opacity="0.81"/>
<stop offset="0.58" stop-color="#227B60" stop-opacity="0.23"/>
<stop offset="0.78" stop-color="#227B60" stop-opacity="0"/>
</radialGradient>
<radialGradient id="paint2_radial_1900_38879" cx="0" cy="0" r="1" gradientUnits="userSpaceOnUse" gradientTransform="translate(25.3362 11.0017) rotate(91.1544) scale(10.1669 7.78321)">
<stop stop-color="#227B60"/>
<stop offset="0.25" stop-color="#227B60" stop-opacity="0.7"/>
<stop offset="0.71" stop-color="#227B60" stop-opacity="0.2"/>
<stop offset="0.92" stop-color="#227B60" stop-opacity="0"/>
</radialGradient>
<radialGradient id="paint3_radial_1900_38879" cx="0" cy="0" r="1" gradientUnits="userSpaceOnUse" gradientTransform="translate(24.8507 11.4238) rotate(88.5896) scale(9.4773 6.77886)">
<stop stop-color="#227B60"/>
<stop offset="0.07" stop-color="#227B60" stop-opacity="0.9"/>
<stop offset="0.34" stop-color="#227B60" stop-opacity="0.51"/>
<stop offset="0.59" stop-color="#227B60" stop-opacity="0.23"/>
<stop offset="0.79" stop-color="#227B60" stop-opacity="0.06"/>
<stop offset="0.92" stop-color="#227B60" stop-opacity="0"/>
</radialGradient>
<radialGradient id="paint4_radial_1900_38879" cx="0" cy="0" r="1" gradientUnits="userSpaceOnUse" gradientTransform="translate(25.0151 10.9993) rotate(88.5896) scale(7.65223 5.47351)">
<stop stop-color="#227B60"/>
<stop offset="0.36" stop-color="#227B60" stop-opacity="0.63"/>
<stop offset="0.92" stop-color="#227B60" stop-opacity="0"/>
</radialGradient>
<radialGradient id="paint5_radial_1900_38879" cx="0" cy="0" r="1" gradientUnits="userSpaceOnUse" gradientTransform="translate(25.3482 11.4232) rotate(88.5893) scale(6.1031 3.93506)">
<stop stop-color="#20735A"/>
<stop offset="0.15" stop-color="#20745A" stop-opacity="0.93"/>
<stop offset="0.38" stop-color="#21755C" stop-opacity="0.74"/>
<stop offset="0.67" stop-color="#21785D" stop-opacity="0.43"/>
<stop offset="1" stop-color="#227B60" stop-opacity="0"/>
</radialGradient>
<radialGradient id="paint6_radial_1900_38879" cx="0" cy="0" r="1" gradientUnits="userSpaceOnUse" gradientTransform="translate(26.1694 12.4111) rotate(23.6434) scale(9.88222 7.37459)">
<stop stop-color="#227A61"/>
<stop offset="0.36" stop-color="#227A61" stop-opacity="0.56"/>
<stop offset="0.72" stop-color="#227A61" stop-opacity="0.16"/>
<stop offset="0.9" stop-color="#227A61" stop-opacity="0"/>
</radialGradient>
<radialGradient id="paint7_radial_1900_38879" cx="0" cy="0" r="1" gradientUnits="userSpaceOnUse" gradientTransform="translate(22.7624 -3.54805) rotate(35.0723) scale(13.1625 12.0053)">
<stop stop-color="#3CD9C3"/>
<stop offset="0.07" stop-color="#3BD7C1" stop-opacity="0.9"/>
<stop offset="0.41" stop-color="#38CEB9" stop-opacity="0.42"/>
<stop offset="0.65" stop-color="#36C8B4" stop-opacity="0.12"/>
<stop offset="0.76" stop-color="#35C6B2" stop-opacity="0"/>
</radialGradient>
<radialGradient id="paint8_radial_1900_38879" cx="0" cy="0" r="1" gradientUnits="userSpaceOnUse" gradientTransform="translate(-21638 -29185.7) rotate(35.0723) scale(2338.45 1636.92)">
<stop stop-color="#3CD9C3"/>
<stop offset="0.07" stop-color="#3BD7C1" stop-opacity="0.9"/>
<stop offset="0.41" stop-color="#38CEB9" stop-opacity="0.42"/>
<stop offset="0.65" stop-color="#36C8B4" stop-opacity="0.12"/>
<stop offset="0.76" stop-color="#35C6B2" stop-opacity="0"/>
</radialGradient>
<radialGradient id="paint9_radial_1900_38879" cx="0" cy="0" r="1" gradientUnits="userSpaceOnUse" gradientTransform="translate(28.0528 14.9117) rotate(101.052) scale(11.5545 14.3768)">
<stop stop-color="#237F66" stop-opacity="0.8"/>
<stop offset="0.06" stop-color="#2C8C70" stop-opacity="0.65"/>
<stop offset="0.21" stop-color="#3DA785" stop-opacity="0.37"/>
<stop offset="0.35" stop-color="#4ABA93" stop-opacity="0.17"/>
<stop offset="0.47" stop-color="#51C59C" stop-opacity="0.04"/>
<stop offset="0.56" stop-color="#54C99F" stop-opacity="0"/>
</radialGradient>
<radialGradient id="paint10_radial_1900_38879" cx="0" cy="0" r="1" gradientUnits="userSpaceOnUse" gradientTransform="translate(21.5982 15.4841) rotate(-50.6117) scale(15.1393 16.3745)">
<stop stop-color="#167C8A"/>
<stop offset="0.04" stop-color="#167C8A" stop-opacity="0.93"/>
<stop offset="0.33" stop-color="#177F8D" stop-opacity="0.43"/>
<stop offset="0.54" stop-color="#17818F" stop-opacity="0.12"/>
<stop offset="0.65" stop-color="#178290" stop-opacity="0"/>
</radialGradient>
<radialGradient id="paint11_radial_1900_38879" cx="0" cy="0" r="1" gradientUnits="userSpaceOnUse" gradientTransform="translate(20.6753 16.9863) rotate(-31.4704) scale(14.8046 11.6565)">
<stop offset="0.05" stop-color="#177D87"/>
<stop offset="0.11" stop-color="#177E89" stop-opacity="0.8"/>
<stop offset="0.21" stop-color="#177F8B" stop-opacity="0.52"/>
<stop offset="0.32" stop-color="#17818D" stop-opacity="0.29"/>
<stop offset="0.42" stop-color="#17818F" stop-opacity="0.13"/>
<stop offset="0.51" stop-color="#178290" stop-opacity="0.03"/>
<stop offset="0.6" stop-color="#178290" stop-opacity="0"/>
</radialGradient>
<radialGradient id="paint12_radial_1900_38879" cx="0" cy="0" r="1" gradientUnits="userSpaceOnUse" gradientTransform="translate(17.5949 16.8007) rotate(-130.749) scale(8.80082 6.93767)">
<stop offset="0.26" stop-color="#177F8A"/>
<stop offset="0.27" stop-color="#177F8A" stop-opacity="0.98"/>
<stop offset="0.38" stop-color="#17808C" stop-opacity="0.68"/>
<stop offset="0.5" stop-color="#17818D" stop-opacity="0.43"/>
<stop offset="0.62" stop-color="#17818F" stop-opacity="0.24"/>
<stop offset="0.74" stop-color="#17828F" stop-opacity="0.11"/>
<stop offset="0.86" stop-color="#178290" stop-opacity="0.03"/>
<stop offset="1" stop-color="#178290" stop-opacity="0"/>
</radialGradient>
<radialGradient id="paint13_radial_1900_38879" cx="0" cy="0" r="1" gradientUnits="userSpaceOnUse" gradientTransform="translate(15.4286 19.392) rotate(-173.16) scale(8.2898 8.23029)">
<stop stop-color="#13656E"/>
<stop offset="0.11" stop-color="#13646E" stop-opacity="0.73"/>
<stop offset="0.27" stop-color="#12646E" stop-opacity="0.41"/>
<stop offset="0.42" stop-color="#12636E" stop-opacity="0.18"/>
<stop offset="0.55" stop-color="#12636E" stop-opacity="0.05"/>
<stop offset="0.66" stop-color="#12636E" stop-opacity="0"/>
</radialGradient>
<radialGradient id="paint14_radial_1900_38879" cx="0" cy="0" r="1" gradientUnits="userSpaceOnUse" gradientTransform="translate(15.2142 20.6425) rotate(-119.502) scale(5.7654 4.86157)">
<stop offset="0.13" stop-color="#146A73"/>
<stop offset="0.24" stop-color="#156F79" stop-opacity="0.79"/>
<stop offset="0.45" stop-color="#167783" stop-opacity="0.45"/>
<stop offset="0.65" stop-color="#167D8A" stop-opacity="0.2"/>
<stop offset="0.82" stop-color="#17818E" stop-opacity="0.05"/>
<stop offset="0.95" stop-color="#178290" stop-opacity="0"/>
</radialGradient>
<radialGradient id="paint15_radial_1900_38879" cx="0" cy="0" r="1" gradientUnits="userSpaceOnUse" gradientTransform="translate(13.9213 18.0228) rotate(-55.7951) scale(5.42645 4.31079)">
<stop stop-color="#198E9C"/>
<stop offset="0.1" stop-color="#198E9C" stop-opacity="0.87"/>
<stop offset="0.41" stop-color="#198E9C" stop-opacity="0.5"/>
<stop offset="0.67" stop-color="#198E9C" stop-opacity="0.23"/>
<stop offset="0.88" stop-color="#198E9C" stop-opacity="0.06"/>
<stop offset="1" stop-color="#198E9C" stop-opacity="0"/>
</radialGradient>
<linearGradient id="paint16_linear_1900_38879" x1="3.99346" y1="-0.640799" x2="17.8816" y2="12.3069" gradientUnits="userSpaceOnUse">
<stop offset="0.13" stop-color="#2BF9FF"/>
<stop offset="0.27" stop-color="#29F9FF" stop-opacity="0.64"/>
<stop offset="0.4" stop-color="#27FAFF" stop-opacity="0.3"/>
<stop offset="0.49" stop-color="#26FAFF" stop-opacity="0.08"/>
<stop offset="0.54" stop-color="#26FAFF" stop-opacity="0"/>
</linearGradient>
<linearGradient id="paint17_linear_1900_38879" x1="-3.92286" y1="20.3188" x2="12.3924" y2="15.6588" gradientUnits="userSpaceOnUse">
<stop stop-color="#26FAFF"/>
<stop offset="0.06" stop-color="#26FAFF" stop-opacity="0.88"/>
<stop offset="0.24" stop-color="#26FAFF" stop-opacity="0.51"/>
<stop offset="0.39" stop-color="#26FAFF" stop-opacity="0.23"/>
<stop offset="0.5" stop-color="#26FAFF" stop-opacity="0.06"/>
<stop offset="0.55" stop-color="#26FAFF" stop-opacity="0"/>
</linearGradient>
<linearGradient id="paint18_linear_1900_38879" x1="0.404508" y1="19.7555" x2="18.7807" y2="13.1566" gradientUnits="userSpaceOnUse">
<stop stop-color="#21DEFF"/>
<stop offset="0.04" stop-color="#21DEFF" stop-opacity="0.88"/>
<stop offset="0.17" stop-color="#21DEFF" stop-opacity="0.51"/>
<stop offset="0.27" stop-color="#21DEFF" stop-opacity="0.23"/>
<stop offset="0.34" stop-color="#21DEFF" stop-opacity="0.06"/>
<stop offset="0.38" stop-color="#21DEFF" stop-opacity="0"/>
</linearGradient>
<linearGradient id="paint19_linear_1900_38879" x1="17.8957" y1="10.3303" x2="28.0811" y2="27.0666" gradientUnits="userSpaceOnUse">
<stop offset="0.62" stop-color="#21DEFF" stop-opacity="0"/>
<stop offset="0.66" stop-color="#21DEFF" stop-opacity="0.06"/>
<stop offset="0.73" stop-color="#21DEFF" stop-opacity="0.23"/>
<stop offset="0.83" stop-color="#21DEFF" stop-opacity="0.51"/>
<stop offset="0.96" stop-color="#21DEFF" stop-opacity="0.88"/>
<stop offset="1" stop-color="#21DEFF"/>
</linearGradient>
<linearGradient id="paint20_linear_1900_38879" x1="29.3538" y1="16.5574" x2="27.7583" y2="8.71171" gradientUnits="userSpaceOnUse">
<stop stop-color="#44B044"/>
<stop offset="0.11" stop-color="#44B044" stop-opacity="0.8"/>
<stop offset="0.27" stop-color="#44B044" stop-opacity="0.52"/>
<stop offset="0.43" stop-color="#44B044" stop-opacity="0.29"/>
<stop offset="0.58" stop-color="#44B044" stop-opacity="0.13"/>
<stop offset="0.7" stop-color="#44B044" stop-opacity="0.03"/>
<stop offset="0.8" stop-color="#44B044" stop-opacity="0"/>
</linearGradient>
<linearGradient id="paint21_linear_1900_38879" x1="6.76362" y1="8.42038" x2="40.7976" y2="19.7714" gradientUnits="userSpaceOnUse">
<stop stop-color="#3066FB"/>
<stop offset="0.38" stop-color="#2F64F7"/>
<stop offset="0.74" stop-color="#2857D9"/>
<stop offset="1" stop-color="#3C7EFF"/>
</linearGradient>
<radialGradient id="paint22_radial_1900_38879" cx="0" cy="0" r="1" gradientUnits="userSpaceOnUse" gradientTransform="translate(30.8358 13.5483) rotate(98.7538) scale(18.0959 12.0281)">
<stop stop-color="#1A3D9C"/>
<stop offset="0.4" stop-color="#1A3D9C" stop-opacity="0.42"/>
<stop offset="0.7" stop-color="#1A3D9C" stop-opacity="0"/>
</radialGradient>
<radialGradient id="paint23_radial_1900_38879" cx="0" cy="0" r="1" gradientUnits="userSpaceOnUse" gradientTransform="translate(11092.6 -28412.6) rotate(98.7537) scale(2226.17 1208.85)">
<stop stop-color="#1A3D9C"/>
<stop offset="0.4" stop-color="#1A3D9C" stop-opacity="0.42"/>
<stop offset="0.7" stop-color="#1A3D9C" stop-opacity="0"/>
</radialGradient>
<radialGradient id="paint24_radial_1900_38879" cx="0" cy="0" r="1" gradientUnits="userSpaceOnUse" gradientTransform="translate(9739.79 -28853.6) rotate(98.6788) scale(2651.24 1103.07)">
<stop stop-color="#1A3D9C"/>
<stop offset="0.4" stop-color="#1A3D9C" stop-opacity="0.42"/>
<stop offset="0.7" stop-color="#1A3D9C" stop-opacity="0"/>
</radialGradient>
<radialGradient id="paint25_radial_1900_38879" cx="0" cy="0" r="1" gradientUnits="userSpaceOnUse" gradientTransform="translate(28.5589 12.8684) rotate(83.0378) scale(15.8163 11.1154)">
<stop stop-color="#1A3D9C"/>
<stop offset="0.16" stop-color="#1A3D9C" stop-opacity="0.69"/>
<stop offset="0.33" stop-color="#1A3D9C" stop-opacity="0.4"/>
<stop offset="0.49" stop-color="#1A3D9C" stop-opacity="0.18"/>
<stop offset="0.61" stop-color="#1A3D9C" stop-opacity="0.05"/>
<stop offset="0.7" stop-color="#1A3D9C" stop-opacity="0"/>
</radialGradient>
<radialGradient id="paint26_radial_1900_38879" cx="0" cy="0" r="1" gradientUnits="userSpaceOnUse" gradientTransform="translate(31.433 15.2793) rotate(74.5311) scale(15.2063 10.4064)">
<stop stop-color="#18388F"/>
<stop offset="0.37" stop-color="#193B96" stop-opacity="0.45"/>
<stop offset="0.7" stop-color="#1A3D9C" stop-opacity="0"/>
</radialGradient>
<radialGradient id="paint27_radial_1900_38879" cx="0" cy="0" r="1" gradientUnits="userSpaceOnUse" gradientTransform="translate(29.9033 19.3403) rotate(74.5312) scale(7.07024 6.75961)">
<stop stop-color="#18388F"/>
<stop offset="0.09" stop-color="#183992" stop-opacity="0.78"/>
<stop offset="0.22" stop-color="#193B96" stop-opacity="0.5"/>
<stop offset="0.35" stop-color="#193C98" stop-opacity="0.28"/>
<stop offset="0.47" stop-color="#1A3C9A" stop-opacity="0.13"/>
<stop offset="0.59" stop-color="#1A3D9C" stop-opacity="0.03"/>
<stop offset="0.7" stop-color="#1A3D9C" stop-opacity="0"/>
</radialGradient>
<radialGradient id="paint28_radial_1900_38879" cx="0" cy="0" r="1" gradientUnits="userSpaceOnUse" gradientTransform="translate(30.0741 20.5457) rotate(74.5312) scale(7.07024 6.75961)">
<stop stop-color="#1A3D9C" stop-opacity="0.8"/>
<stop offset="0.01" stop-color="#1A3D9C" stop-opacity="0.78"/>
<stop offset="0.24" stop-color="#1A3D9C" stop-opacity="0.45"/>
<stop offset="0.44" stop-color="#1A3D9C" stop-opacity="0.2"/>
<stop offset="0.6" stop-color="#1A3D9C" stop-opacity="0.05"/>
<stop offset="0.7" stop-color="#1A3D9C" stop-opacity="0"/>
</radialGradient>
<radialGradient id="paint29_radial_1900_38879" cx="0" cy="0" r="1" gradientUnits="userSpaceOnUse" gradientTransform="translate(12.4469 16.2198) rotate(66.8741) scale(16.8834 11.2616)">
<stop stop-color="#1A3D9C"/>
<stop offset="0.4" stop-color="#1A3D9C" stop-opacity="0.56"/>
<stop offset="0.48" stop-color="#1A3D9C" stop-opacity="0.43"/>
<stop offset="0.69" stop-color="#1A3D9C" stop-opacity="0.12"/>
<stop offset="0.79" stop-color="#1A3D9C" stop-opacity="0"/>
</radialGradient>
<radialGradient id="paint30_radial_1900_38879" cx="0" cy="0" r="1" gradientUnits="userSpaceOnUse" gradientTransform="translate(11.3652 12.4011) rotate(76.0033) scale(12.5141 8.31605)">
<stop stop-color="#1A3D9C"/>
<stop offset="0.06" stop-color="#1A3D9C" stop-opacity="0.88"/>
<stop offset="0.21" stop-color="#1A3D9C" stop-opacity="0.61"/>
<stop offset="0.36" stop-color="#1A3D9C" stop-opacity="0.39"/>
<stop offset="0.51" stop-color="#1A3D9C" stop-opacity="0.22"/>
<stop offset="0.67" stop-color="#1A3D9C" stop-opacity="0.1"/>
<stop offset="0.83" stop-color="#1A3D9C" stop-opacity="0.02"/>
<stop offset="1" stop-color="#1A3D9C" stop-opacity="0"/>
</radialGradient>
<radialGradient id="paint31_radial_1900_38879" cx="0" cy="0" r="1" gradientUnits="userSpaceOnUse" gradientTransform="translate(11.3652 12.4011) rotate(76.0033) scale(12.5141 8.31605)">
<stop stop-color="#1B3E9E"/>
<stop offset="0.06" stop-color="#1B3E9E" stop-opacity="0.87"/>
<stop offset="0.21" stop-color="#1B3E9D" stop-opacity="0.61"/>
<stop offset="0.36" stop-color="#1A3D9D" stop-opacity="0.39"/>
<stop offset="0.52" stop-color="#1A3D9C" stop-opacity="0.22"/>
<stop offset="0.67" stop-color="#1A3D9C" stop-opacity="0.1"/>
<stop offset="0.83" stop-color="#1A3D9C" stop-opacity="0.02"/>
<stop offset="1" stop-color="#1A3D9C" stop-opacity="0"/>
</radialGradient>
<radialGradient id="paint32_radial_1900_38879" cx="0" cy="0" r="1" gradientUnits="userSpaceOnUse" gradientTransform="translate(11.851 11.1781) rotate(76.0035) scale(9.57384 6.36216)">
<stop stop-color="#183991"/>
<stop offset="0.03" stop-color="#183992" stop-opacity="0.95"/>
<stop offset="0.18" stop-color="#193A95" stop-opacity="0.66"/>
<stop offset="0.34" stop-color="#193B97" stop-opacity="0.42"/>
<stop offset="0.5" stop-color="#1A3C99" stop-opacity="0.24"/>
<stop offset="0.66" stop-color="#1A3D9B" stop-opacity="0.1"/>
<stop offset="0.82" stop-color="#1A3D9C" stop-opacity="0.03"/>
<stop offset="1" stop-color="#1A3D9C" stop-opacity="0"/>
</radialGradient>
<radialGradient id="paint33_radial_1900_38879" cx="0" cy="0" r="1" gradientUnits="userSpaceOnUse" gradientTransform="translate(13.551 12.1497) rotate(87.1162) scale(7.56211 6.7062)">
<stop offset="0.04" stop-color="#2453D6" stop-opacity="0.6"/>
<stop offset="0.2" stop-color="#2453D6" stop-opacity="0.49"/>
<stop offset="0.52" stop-color="#2453D6" stop-opacity="0.2"/>
<stop offset="0.73" stop-color="#2453D6" stop-opacity="0"/>
</radialGradient>
<linearGradient id="paint34_linear_1900_38879" x1="28.9001" y1="-5.38742" x2="20.4" y2="15.7796" gradientUnits="userSpaceOnUse">
<stop stop-color="#3774FF"/>
<stop offset="0.05" stop-color="#3774FF" stop-opacity="0.91"/>
<stop offset="0.16" stop-color="#3774FF" stop-opacity="0.66"/>
<stop offset="0.32" stop-color="#3774FF" stop-opacity="0.28"/>
<stop offset="0.43" stop-color="#3774FF" stop-opacity="0"/>
</linearGradient>
<clipPath id="clip0_1900_38879">
<rect width="173.409" height="44.5455" fill="white" transform="translate(0.122681)"/>
</clipPath>
</defs>
</svg>
