<svg width="147" height="45" viewBox="0 0 147 45" fill="none" xmlns="http://www.w3.org/2000/svg">
<g clip-path="url(#clip0_1900_38929)">
<path d="M0.0930176 22.2727C0.0930176 26.6779 1.40883 30.9841 3.87406 34.6468C6.33929 38.3095 9.84322 41.1643 13.9428 42.85C18.0423 44.5358 22.5533 44.9769 26.9053 44.1175C31.2574 43.2581 35.255 41.1368 38.3926 38.0219C41.5303 34.907 43.667 30.9384 44.5327 26.6179C45.3984 22.2974 44.9541 17.8191 43.256 13.7493C41.5579 9.67951 38.6823 6.20099 34.9928 3.75363C31.3034 1.30627 26.9657 0 22.5284 0C16.5782 0 10.8716 2.34658 6.66419 6.52353C2.45674 10.7005 0.0930176 16.3656 0.0930176 22.2727H0.0930176Z" fill="#2D8CFF"/>
<path d="M2.30151 22.2723C2.30061 26.2451 3.48649 30.1288 5.70918 33.4324C7.93186 36.736 11.0915 39.311 14.7884 40.8317C18.4854 42.3524 22.5536 42.7505 26.4785 41.9757C30.4034 41.2009 34.0086 39.2879 36.8383 36.4788C39.6679 33.6696 41.5949 30.0905 42.3754 26.1941C43.1558 22.2976 42.7548 18.2589 41.223 14.5888C39.6912 10.9186 37.0974 7.78191 33.7697 5.57534C30.442 3.36877 26.5299 2.19149 22.5281 2.19238C17.1641 2.19359 12.02 4.30953 8.22709 8.075C4.43413 11.8405 2.30273 16.9472 2.30151 22.2723Z" fill="#2D8CFF"/>
<path d="M23.9005 15.2766H10.0396C9.85068 15.2801 9.6706 15.3565 9.53744 15.4895C9.40429 15.6226 9.32851 15.8018 9.32617 15.9894V25.4233C9.32857 25.931 9.43175 26.4333 9.62983 26.9014C9.82791 27.3696 10.117 27.7943 10.4806 28.1515C10.8441 28.5086 11.275 28.7911 11.7486 28.9828C12.2222 29.1744 12.7293 29.2716 13.2407 29.2686H27.1016C27.2889 29.2674 27.4683 29.1937 27.6016 29.0631C27.7348 28.9324 27.8114 28.7553 27.815 28.5694V19.1264C27.8102 18.1037 27.3976 17.1246 26.6674 16.4031C25.9372 15.6816 24.949 15.2766 23.9188 15.2766H23.9005ZM34.4185 15.5172L28.6839 19.6712V24.8876L34.3911 29.0552C34.8026 29.3684 35.2737 29.4638 35.2737 28.6012V15.9485C35.2737 15.4945 35.1273 15.2812 34.9032 15.2812C34.711 15.3017 34.531 15.3847 34.3911 15.5172H34.4185Z" fill="white"/>
<path d="M88.2979 26.6676C87.4219 27.5356 86.3063 28.1263 85.0923 28.3651C83.8782 28.6039 82.6201 28.4801 81.4768 28.0093C80.3336 27.5385 79.3566 26.7419 78.6693 25.7201C77.9819 24.6983 77.615 23.4972 77.615 22.2685C77.615 21.0398 77.9819 19.8386 78.6693 18.8168C79.3566 17.795 80.3336 16.9984 81.4768 16.5276C82.6201 16.0569 83.8782 15.9331 85.0923 16.1719C86.3063 16.4107 87.4219 17.0014 88.2979 17.8693C88.8809 18.4455 89.3434 19.1304 89.6591 19.8845C89.9747 20.6387 90.1372 21.4473 90.1372 22.2639C90.1372 23.0806 89.9747 23.8892 89.6591 24.6433C89.3434 25.3975 88.8809 26.0823 88.2979 26.6585V26.6676ZM83.8849 11.9175C81.82 11.913 79.8001 12.5168 78.081 13.6524C76.3618 14.7881 75.0207 16.4045 74.2273 18.2972C73.434 20.1898 73.2241 22.2736 73.6241 24.2847C74.0242 26.2959 75.0163 28.144 76.4748 29.5951C77.9334 31.0463 79.7928 32.0352 81.8178 32.4368C83.8427 32.8384 85.9421 32.6346 87.8503 31.8511C89.7585 31.0677 91.3897 29.7398 92.5374 28.0356C93.6851 26.3314 94.2978 24.3275 94.2978 22.2775C94.299 20.9167 94.0299 19.569 93.5058 18.3115C92.9818 17.054 92.2132 15.9115 91.2439 14.9492C90.2746 13.987 89.1237 13.2239 87.8571 12.7037C86.5904 12.1835 85.2328 11.9163 83.8621 11.9175H83.8849Z" fill="#2D8CFF"/>
<path d="M71.3546 28.5466L70.3119 28.4921H60.9143L73.4445 16.0528L73.3896 15.0177C73.3688 14.2134 73.038 13.4477 72.4654 12.8784C71.8928 12.3091 71.122 11.9796 70.3119 11.9578L69.2647 11.9033H53.5974L53.6523 12.943C53.6902 13.7419 54.0272 14.4981 54.5974 15.0632C55.1675 15.6284 55.9297 15.9619 56.7345 15.9983L57.7772 16.0528H67.1702L54.6446 28.4921L54.6995 29.5317C54.7301 30.3324 55.0641 31.092 55.6348 31.6586C56.2055 32.2251 56.9707 32.5567 57.7772 32.5871L58.8244 32.6416H74.478L74.4231 31.6065C74.3884 30.806 74.0525 30.0476 73.4818 29.481C72.9111 28.9145 72.1472 28.5811 71.3409 28.5466H71.3546Z" fill="#2D8CFF"/>
<path d="M138.163 11.9172C136.979 11.9174 135.808 12.1677 134.729 12.6514C133.649 13.1351 132.686 13.8412 131.903 14.7229C130.562 13.2115 128.712 12.2368 126.699 11.9811C124.687 11.7254 122.65 12.2062 120.968 13.3336C120.164 12.4257 118.339 11.9172 117.31 11.9172V32.6418L118.357 32.5873C119.168 32.57 119.942 32.2427 120.516 31.6735C121.09 31.1044 121.421 30.3373 121.439 29.532L121.494 28.4924V21.2285L121.549 20.1889C121.553 19.4663 121.73 18.7551 122.066 18.1142C122.62 17.1643 123.532 16.472 124.601 16.1894C125.669 15.9067 126.807 16.0569 127.764 16.6069C128.392 16.9717 128.915 17.4907 129.282 18.1142C129.622 18.7537 129.799 19.4659 129.799 20.1889L129.854 21.2285V28.4924L129.909 29.532C129.939 30.3319 130.273 31.0909 130.842 31.6573C131.412 32.2238 132.176 32.5559 132.982 32.5873L134.024 32.6418V21.2421L134.079 20.2025C134.079 19.4767 134.257 18.7616 134.596 18.1187C134.871 17.6473 135.238 17.2346 135.674 16.904C136.11 16.5735 136.608 16.3317 137.139 16.1925C137.669 16.0534 138.222 16.0195 138.766 16.093C139.31 16.1664 139.834 16.3457 140.308 16.6205C140.936 16.9853 141.459 17.5043 141.826 18.1278C142.151 18.7718 142.318 19.4824 142.315 20.2025L142.37 21.2421V28.506L142.425 29.5456C142.456 30.3448 142.788 31.1031 143.357 31.6695C143.926 32.2358 144.689 32.5684 145.494 32.601L146.541 32.6554V20.2025C146.536 18.0042 145.653 15.8976 144.086 14.3444C142.519 12.7913 140.396 11.9184 138.181 11.9172H138.163Z" fill="#2D8CFF"/>
<path d="M110.222 26.667C109.346 27.535 108.23 28.1257 107.016 28.3645C105.802 28.6033 104.544 28.4795 103.4 28.0087C102.257 27.5379 101.28 26.7413 100.593 25.7195C99.9055 24.6977 99.5387 23.4966 99.5387 22.2679C99.5387 21.0392 99.9055 19.838 100.593 18.8162C101.28 17.7944 102.257 16.9978 103.4 16.527C104.544 16.0563 105.802 15.9325 107.016 16.1713C108.23 16.4101 109.346 17.0007 110.222 17.8687C110.805 18.4449 111.267 19.1297 111.583 19.8839C111.898 20.638 112.061 21.4467 112.061 22.2633C112.061 23.08 111.898 23.8886 111.583 24.6427C111.267 25.3969 110.805 26.0817 110.222 26.6579V26.667ZM113.18 14.9495C111.721 13.4999 109.862 12.5124 107.837 12.112C105.813 11.7116 103.714 11.9163 101.807 12.7002C99.8993 13.4841 98.269 14.812 97.122 16.5158C95.9749 18.2197 95.3627 20.223 95.3627 22.2724C95.3627 24.3218 95.9749 26.3251 97.122 28.0289C98.269 29.7328 99.8993 31.0607 101.807 31.8446C103.714 32.6285 105.813 32.8332 107.837 32.4328C109.862 32.0324 111.721 31.0449 113.18 29.5952C114.149 28.6336 114.918 27.492 115.442 26.2355C115.966 24.9791 116.236 23.6324 116.236 22.2724C116.236 20.9124 115.966 19.5657 115.442 18.3093C114.918 17.0528 114.149 15.9112 113.18 14.9495Z" fill="#2D8CFF"/>
</g>
<defs>
<clipPath id="clip0_1900_38929">
<rect width="146.364" height="44.5455" fill="white" transform="translate(0.0930176)"/>
</clipPath>
</defs>
</svg>
