<svg width="457" height="429" viewBox="0 0 457 429" fill="none" xmlns="http://www.w3.org/2000/svg">
<g filter="url(#filter0_d_2087_46650)">
<rect x="40.4834" y="14.0903" width="391.976" height="378.91" rx="13.0659" fill="#2D8CFF"/>
<path d="M40.4834 14.0903H427.233C430.119 14.0903 432.459 16.4302 432.459 19.3167V387.774C432.459 390.66 430.119 393 427.233 393H40.4834V14.0903Z" fill="white"/>
<path d="M301.741 367.402C301.741 368.656 301.516 369.707 301.067 370.553C300.628 371.4 299.99 372.038 299.154 372.466C298.328 372.895 297.335 373.109 296.175 373.109H293.165V361.914H296.489C297.565 361.914 298.496 362.123 299.28 362.541C300.064 362.96 300.67 363.576 301.098 364.392C301.527 365.196 301.741 366.2 301.741 367.402ZM299.922 367.449C299.922 366.508 299.787 365.735 299.515 365.129C299.243 364.522 298.841 364.073 298.307 363.78C297.785 363.487 297.142 363.341 296.379 363.341H294.905V371.682H296.112C297.398 371.682 298.355 371.327 298.982 370.616C299.609 369.905 299.922 368.85 299.922 367.449ZM307.001 364.501C307.701 364.501 308.307 364.658 308.82 364.972C309.332 365.275 309.724 365.714 309.995 366.289C310.278 366.864 310.419 367.543 310.419 368.327V369.236H305.104C305.125 370.104 305.334 370.768 305.731 371.228C306.128 371.688 306.687 371.918 307.408 371.918C307.921 371.918 308.375 371.87 308.773 371.776C309.17 371.672 309.583 371.52 310.011 371.322V372.701C309.614 372.89 309.206 373.031 308.788 373.125C308.381 373.219 307.884 373.266 307.299 373.266C306.525 373.266 305.841 373.104 305.245 372.78C304.659 372.456 304.199 371.975 303.865 371.337C303.53 370.689 303.363 369.895 303.363 368.954C303.363 368.003 303.515 367.198 303.818 366.54C304.121 365.881 304.544 365.379 305.088 365.034C305.642 364.679 306.28 364.501 307.001 364.501ZM307.016 365.787C306.473 365.787 306.039 365.98 305.715 366.367C305.391 366.754 305.203 367.303 305.151 368.013H308.741C308.741 367.574 308.678 367.188 308.553 366.853C308.428 366.519 308.234 366.257 307.973 366.069C307.722 365.881 307.403 365.787 307.016 365.787ZM314.009 373.109H312.315V361.193H314.009V373.109ZM319.587 364.501C320.287 364.501 320.893 364.658 321.406 364.972C321.918 365.275 322.31 365.714 322.582 366.289C322.864 366.864 323.005 367.543 323.005 368.327V369.236H317.69C317.711 370.104 317.92 370.768 318.317 371.228C318.714 371.688 319.273 371.918 319.995 371.918C320.507 371.918 320.961 371.87 321.359 371.776C321.756 371.672 322.169 371.52 322.597 371.322V372.701C322.2 372.89 321.792 373.031 321.374 373.125C320.967 373.219 320.47 373.266 319.885 373.266C319.111 373.266 318.427 373.104 317.831 372.78C317.245 372.456 316.786 371.975 316.451 371.337C316.117 370.689 315.949 369.895 315.949 368.954C315.949 368.003 316.101 367.198 316.404 366.54C316.707 365.881 317.13 365.379 317.674 365.034C318.228 364.679 318.866 364.501 319.587 364.501ZM319.603 365.787C319.059 365.787 318.625 365.98 318.301 366.367C317.977 366.754 317.789 367.303 317.737 368.013H321.327C321.327 367.574 321.265 367.188 321.139 366.853C321.014 366.519 320.82 366.257 320.559 366.069C320.308 365.881 319.989 365.787 319.603 365.787ZM327.896 371.918C328.116 371.918 328.33 371.897 328.539 371.855C328.748 371.813 328.931 371.766 329.088 371.714V372.968C328.91 373.052 328.675 373.12 328.382 373.172C328.1 373.235 327.802 373.266 327.489 373.266C327.05 373.266 326.647 373.188 326.281 373.031C325.915 372.874 325.623 372.602 325.403 372.215C325.184 371.829 325.074 371.29 325.074 370.6V365.928H323.992V365.176L325.168 364.548L325.733 362.761H326.783V364.658H329.025V365.928H326.783V370.569C326.783 371.029 326.888 371.369 327.097 371.588C327.306 371.808 327.572 371.918 327.896 371.918ZM333.857 364.501C334.558 364.501 335.164 364.658 335.676 364.972C336.188 365.275 336.58 365.714 336.852 366.289C337.134 366.864 337.275 367.543 337.275 368.327V369.236H331.96C331.981 370.104 332.19 370.768 332.587 371.228C332.984 371.688 333.544 371.918 334.265 371.918C334.777 371.918 335.232 371.87 335.629 371.776C336.026 371.672 336.439 371.52 336.868 371.322V372.701C336.47 372.89 336.063 373.031 335.645 373.125C335.237 373.219 334.74 373.266 334.155 373.266C333.382 373.266 332.697 373.104 332.101 372.78C331.516 372.456 331.056 371.975 330.721 371.337C330.387 370.689 330.22 369.895 330.22 368.954C330.22 368.003 330.371 367.198 330.674 366.54C330.978 365.881 331.401 365.379 331.944 365.034C332.498 364.679 333.136 364.501 333.857 364.501ZM333.873 365.787C333.329 365.787 332.896 365.98 332.572 366.367C332.248 366.754 332.059 367.303 332.007 368.013H335.598C335.598 367.574 335.535 367.188 335.409 366.853C335.284 366.519 335.091 366.257 334.829 366.069C334.578 365.881 334.26 365.787 333.873 365.787Z" fill="#6E7191"/>
<path d="M387.019 373.109H381.046V361.914H387.019V363.357H382.786V366.555H386.753V367.982H382.786V371.651H387.019V373.109ZM391.777 373.266C390.836 373.266 390.073 372.9 389.488 372.168C388.913 371.437 388.626 370.35 388.626 368.907C388.626 367.454 388.918 366.357 389.504 365.615C390.089 364.872 390.857 364.501 391.809 364.501C392.206 364.501 392.551 364.559 392.843 364.674C393.147 364.778 393.408 364.925 393.627 365.113C393.847 365.301 394.03 365.51 394.176 365.74H394.27C394.249 365.594 394.223 365.385 394.192 365.113C394.171 364.831 394.16 364.58 394.16 364.36V361.193H395.854V373.109H394.521L394.223 371.98H394.16C394.004 372.221 393.815 372.44 393.596 372.639C393.387 372.827 393.131 372.978 392.828 373.093C392.525 373.208 392.174 373.266 391.777 373.266ZM392.232 371.902C392.964 371.902 393.476 371.677 393.768 371.228C394.072 370.768 394.223 370.083 394.223 369.174V368.923C394.223 367.93 394.082 367.172 393.8 366.649C393.518 366.127 392.99 365.865 392.216 365.865C391.61 365.865 391.15 366.142 390.836 366.696C390.523 367.24 390.366 367.987 390.366 368.939C390.366 369.89 390.523 370.621 390.836 371.134C391.15 371.646 391.615 371.902 392.232 371.902ZM399.945 364.658V373.109H398.236V364.658H399.945ZM399.099 361.444C399.36 361.444 399.585 361.517 399.773 361.663C399.961 361.81 400.055 362.055 400.055 362.4C400.055 362.735 399.961 362.98 399.773 363.137C399.585 363.284 399.36 363.357 399.099 363.357C398.837 363.357 398.613 363.284 398.425 363.137C398.236 362.98 398.142 362.735 398.142 362.4C398.142 362.055 398.236 361.81 398.425 361.663C398.613 361.517 398.837 361.444 399.099 361.444ZM405.319 371.918C405.539 371.918 405.753 371.897 405.962 371.855C406.171 371.813 406.354 371.766 406.511 371.714V372.968C406.333 373.052 406.098 373.12 405.805 373.172C405.523 373.235 405.225 373.266 404.912 373.266C404.473 373.266 404.07 373.188 403.704 373.031C403.338 372.874 403.046 372.602 402.826 372.215C402.607 371.829 402.497 371.29 402.497 370.6V365.928H401.415V365.176L402.591 364.548L403.156 362.761H404.206V364.658H406.448V365.928H404.206V370.569C404.206 371.029 404.311 371.369 404.52 371.588C404.729 371.808 404.995 371.918 405.319 371.918Z" fill="#007AFF"/>
<rect x="40.4834" y="340.737" width="392" height="1.30659" fill="#E3E3EB"/>
<path d="M63.6622 300.634H60.6805V293.079C60.6805 292.872 60.6805 292.616 60.6805 292.311C60.6927 292.006 60.6988 291.689 60.6988 291.36C60.711 291.03 60.7232 290.738 60.7354 290.482C60.6378 290.555 60.5098 290.689 60.3513 290.884C60.2049 291.079 60.0525 291.244 59.894 291.378L58.522 292.585L57.0221 290.921L61.1012 287.573H63.6622V300.634ZM71.4902 292.293C72.2097 292.293 72.8499 292.445 73.4109 292.75C73.984 293.055 74.4353 293.5 74.7645 294.085C75.106 294.671 75.2767 295.396 75.2767 296.262C75.2767 297.201 75.0938 298.012 74.7279 298.695C74.3621 299.378 73.8133 299.902 73.0816 300.268C72.3499 300.634 71.4353 300.817 70.3378 300.817C69.6671 300.817 69.0391 300.756 68.4537 300.634C67.8806 300.512 67.3745 300.335 66.9355 300.103V297.725C67.3623 297.957 67.8745 298.158 68.472 298.329C69.0817 298.488 69.6427 298.567 70.1549 298.567C70.6183 298.567 71.0085 298.494 71.3256 298.347C71.6426 298.201 71.8804 297.975 72.039 297.67C72.2097 297.366 72.2951 296.975 72.2951 296.5C72.2951 295.853 72.1121 295.366 71.7463 295.036C71.3805 294.695 70.8195 294.524 70.0634 294.524C69.7464 294.524 69.4293 294.561 69.1122 294.634C68.7952 294.695 68.5208 294.756 68.2891 294.817L67.155 294.232L67.6306 287.573H74.4535V289.915H70.1732L69.972 292.475C70.1671 292.439 70.3622 292.402 70.5573 292.366C70.7646 292.317 71.0756 292.293 71.4902 292.293ZM86.0524 287.573C87.6255 287.573 88.784 287.939 89.5279 288.671C90.284 289.39 90.662 290.384 90.662 291.652C90.662 292.408 90.5157 293.122 90.223 293.793C89.9303 294.451 89.4425 294.982 88.7596 295.384C88.0767 295.786 87.1438 295.988 85.9609 295.988H84.9365V300.634H81.9732V287.573H86.0524ZM85.9609 289.841H84.9365V293.719H85.6865C86.0768 293.719 86.4243 293.652 86.7292 293.518C87.034 293.384 87.2718 293.171 87.4426 292.878C87.6133 292.585 87.6987 292.207 87.6987 291.744C87.6987 291.097 87.5523 290.622 87.2597 290.317C86.9792 290 86.5463 289.841 85.9609 289.841ZM96.8589 290.445C98.0906 290.445 99.0418 290.738 99.7125 291.323C100.395 291.896 100.737 292.78 100.737 293.975V300.634H98.7064L98.1394 299.28H98.0662C97.7979 299.634 97.5235 299.926 97.243 300.158C96.9626 300.39 96.6394 300.555 96.2736 300.652C95.9077 300.762 95.4626 300.817 94.9382 300.817C94.3895 300.817 93.8956 300.707 93.4566 300.487C93.0297 300.256 92.6883 299.908 92.4322 299.445C92.1761 298.969 92.0481 298.372 92.0481 297.652C92.0481 296.591 92.3956 295.811 93.0907 295.311C93.798 294.799 94.8346 294.518 96.2004 294.469L97.8101 294.414V293.975C97.8101 293.451 97.6943 293.067 97.4626 292.823C97.2308 292.579 96.9138 292.457 96.5114 292.457C96.0967 292.457 95.6638 292.53 95.2126 292.677C94.7614 292.811 94.3102 292.982 93.859 293.189L92.9627 291.341C93.4992 291.061 94.0907 290.841 94.737 290.683C95.3955 290.524 96.1028 290.445 96.8589 290.445ZM96.9504 296.042C96.2431 296.067 95.7431 296.225 95.4504 296.518C95.1699 296.811 95.0297 297.195 95.0297 297.67C95.0297 298.085 95.1272 298.384 95.3224 298.567C95.5297 298.737 95.798 298.823 96.1272 298.823C96.5906 298.823 96.987 298.652 97.3162 298.311C97.6577 297.957 97.8284 297.463 97.8284 296.829V296.006L96.9504 296.042ZM108.66 290.463C108.819 290.463 108.989 290.469 109.172 290.482C109.355 290.494 109.495 290.512 109.593 290.536L109.355 293.097C109.258 293.073 109.13 293.055 108.971 293.043C108.813 293.018 108.63 293.006 108.422 293.006C108.154 293.006 107.88 293.055 107.599 293.152C107.331 293.238 107.081 293.378 106.849 293.573C106.63 293.768 106.447 294.03 106.3 294.36C106.166 294.677 106.099 295.073 106.099 295.549V300.634H103.172V290.646H105.367L105.807 292.329H105.953C106.136 291.988 106.361 291.677 106.63 291.396C106.898 291.116 107.203 290.89 107.544 290.719C107.898 290.549 108.27 290.463 108.66 290.463ZM115.402 298.64C115.695 298.64 115.963 298.609 116.207 298.548C116.463 298.488 116.726 298.414 116.994 298.329V300.359C116.689 300.481 116.329 300.585 115.915 300.67C115.512 300.768 115.037 300.817 114.488 300.817C113.903 300.817 113.378 300.719 112.915 300.524C112.464 300.329 112.11 299.994 111.854 299.518C111.598 299.03 111.47 298.359 111.47 297.506V292.695H110.281V291.543L111.707 290.628L112.512 288.524H114.396V290.646H116.884V292.695H114.396V297.506C114.396 297.884 114.488 298.17 114.671 298.366C114.854 298.548 115.098 298.64 115.402 298.64ZM121.712 290.646V300.634H118.785V290.646H121.712ZM120.267 286.732C120.694 286.732 121.059 286.829 121.364 287.024C121.669 287.207 121.822 287.555 121.822 288.067C121.822 288.567 121.669 288.915 121.364 289.11C121.059 289.305 120.694 289.402 120.267 289.402C119.828 289.402 119.456 289.305 119.151 289.11C118.846 288.915 118.694 288.567 118.694 288.067C118.694 287.555 118.846 287.207 119.151 287.024C119.456 286.829 119.828 286.732 120.267 286.732ZM128.277 300.817C127.326 300.817 126.509 300.64 125.826 300.286C125.143 299.92 124.618 299.359 124.253 298.603C123.887 297.847 123.704 296.878 123.704 295.695C123.704 294.475 123.905 293.482 124.307 292.713C124.722 291.945 125.289 291.378 126.009 291.012C126.74 290.646 127.576 290.463 128.515 290.463C129.124 290.463 129.691 290.53 130.216 290.665C130.74 290.799 131.179 290.957 131.533 291.14L130.673 293.189C130.307 293.03 129.972 292.902 129.667 292.805C129.374 292.707 129.051 292.658 128.698 292.658C128.271 292.658 127.905 292.774 127.6 293.006C127.307 293.225 127.082 293.561 126.923 294.012C126.765 294.451 126.685 295.006 126.685 295.677C126.685 296.335 126.765 296.884 126.923 297.323C127.094 297.75 127.326 298.073 127.618 298.292C127.923 298.5 128.283 298.603 128.698 298.603C129.161 298.603 129.6 298.53 130.015 298.384C130.441 298.225 130.844 298.012 131.222 297.744V300.067C130.82 300.335 130.387 300.524 129.923 300.634C129.472 300.756 128.923 300.817 128.277 300.817ZM136.181 290.646V300.634H133.255V290.646H136.181ZM134.736 286.732C135.163 286.732 135.529 286.829 135.834 287.024C136.139 287.207 136.291 287.555 136.291 288.067C136.291 288.567 136.139 288.915 135.834 289.11C135.529 289.305 135.163 289.402 134.736 289.402C134.297 289.402 133.925 289.305 133.62 289.11C133.315 288.915 133.163 288.567 133.163 288.067C133.163 287.555 133.315 287.207 133.62 287.024C133.925 286.829 134.297 286.732 134.736 286.732ZM144.191 290.463C145.24 290.463 146.075 290.902 146.697 291.78C147.332 292.646 147.649 293.927 147.649 295.622C147.649 296.756 147.496 297.713 147.191 298.494C146.886 299.262 146.466 299.841 145.929 300.231C145.393 300.622 144.783 300.817 144.1 300.817C143.649 300.817 143.265 300.756 142.948 300.634C142.63 300.512 142.362 300.353 142.143 300.158C141.935 299.963 141.752 299.756 141.594 299.536H141.466C141.502 299.768 141.533 300.012 141.557 300.268C141.582 300.512 141.594 300.756 141.594 301V305.024H138.667V290.646H141.045L141.448 291.945H141.594C141.752 291.677 141.948 291.433 142.179 291.213C142.411 290.982 142.691 290.799 143.021 290.665C143.35 290.53 143.74 290.463 144.191 290.463ZM143.149 292.64C142.771 292.64 142.466 292.738 142.234 292.933C142.002 293.128 141.838 293.427 141.74 293.829C141.643 294.219 141.594 294.713 141.594 295.311V295.603C141.594 296.25 141.643 296.799 141.74 297.25C141.838 297.689 142.002 298.024 142.234 298.256C142.466 298.488 142.783 298.603 143.185 298.603C143.515 298.603 143.789 298.488 144.008 298.256C144.228 298.024 144.393 297.683 144.502 297.231C144.612 296.78 144.667 296.231 144.667 295.585C144.667 294.61 144.539 293.878 144.283 293.39C144.039 292.89 143.661 292.64 143.149 292.64ZM153.879 290.445C155.111 290.445 156.062 290.738 156.733 291.323C157.416 291.896 157.757 292.78 157.757 293.975V300.634H155.727L155.16 299.28H155.086C154.818 299.634 154.544 299.926 154.263 300.158C153.983 300.39 153.66 300.555 153.294 300.652C152.928 300.762 152.483 300.817 151.958 300.817C151.41 300.817 150.916 300.707 150.477 300.487C150.05 300.256 149.708 299.908 149.452 299.445C149.196 298.969 149.068 298.372 149.068 297.652C149.068 296.591 149.416 295.811 150.111 295.311C150.818 294.799 151.855 294.518 153.221 294.469L154.83 294.414V293.975C154.83 293.451 154.714 293.067 154.483 292.823C154.251 292.579 153.934 292.457 153.532 292.457C153.117 292.457 152.684 292.53 152.233 292.677C151.782 292.811 151.33 292.982 150.879 293.189L149.983 291.341C150.519 291.061 151.111 290.841 151.757 290.683C152.416 290.524 153.123 290.445 153.879 290.445ZM153.971 296.042C153.263 296.067 152.763 296.225 152.471 296.518C152.19 296.811 152.05 297.195 152.05 297.67C152.05 298.085 152.147 298.384 152.343 298.567C152.55 298.737 152.818 298.823 153.147 298.823C153.611 298.823 154.007 298.652 154.336 298.311C154.678 297.957 154.849 297.463 154.849 296.829V296.006L153.971 296.042ZM165.827 290.463C166.827 290.463 167.631 290.756 168.241 291.341C168.863 291.915 169.174 292.841 169.174 294.122V300.634H166.247V294.799C166.247 294.079 166.138 293.543 165.918 293.189C165.711 292.823 165.375 292.64 164.912 292.64C164.205 292.64 163.729 292.927 163.485 293.5C163.241 294.061 163.119 294.872 163.119 295.933V300.634H160.193V290.646H162.406L162.808 291.927H162.936C163.144 291.585 163.388 291.311 163.668 291.104C163.961 290.884 164.29 290.726 164.656 290.628C165.022 290.518 165.412 290.463 165.827 290.463ZM175.906 298.64C176.199 298.64 176.467 298.609 176.711 298.548C176.967 298.488 177.229 298.414 177.497 298.329V300.359C177.193 300.481 176.833 300.585 176.418 300.67C176.016 300.768 175.54 300.817 174.991 300.817C174.406 300.817 173.882 300.719 173.418 300.524C172.967 300.329 172.613 299.994 172.357 299.518C172.101 299.03 171.973 298.359 171.973 297.506V292.695H170.784V291.543L172.211 290.628L173.016 288.524H174.9V290.646H177.388V292.695H174.9V297.506C174.9 297.884 174.991 298.17 175.174 298.366C175.357 298.548 175.601 298.64 175.906 298.64ZM186.093 297.67C186.093 298.341 185.947 298.914 185.654 299.39C185.374 299.853 184.941 300.207 184.356 300.451C183.77 300.695 183.014 300.817 182.087 300.817C181.417 300.817 180.831 300.768 180.331 300.67C179.831 300.585 179.325 300.439 178.813 300.231V297.981C179.374 298.225 179.953 298.427 180.551 298.585C181.148 298.744 181.648 298.823 182.051 298.823C182.49 298.823 182.801 298.744 182.984 298.585C183.179 298.427 183.276 298.219 183.276 297.963C183.276 297.792 183.228 297.64 183.13 297.506C183.032 297.372 182.837 297.219 182.545 297.049C182.252 296.878 181.819 296.658 181.246 296.39C180.685 296.122 180.222 295.86 179.856 295.603C179.502 295.335 179.234 295.018 179.051 294.652C178.88 294.274 178.795 293.805 178.795 293.244C178.795 292.317 179.142 291.622 179.837 291.158C180.545 290.695 181.472 290.463 182.618 290.463C183.228 290.463 183.801 290.524 184.337 290.646C184.874 290.768 185.429 290.969 186.002 291.25L185.179 293.207C184.862 293.061 184.551 292.933 184.246 292.823C183.941 292.713 183.648 292.628 183.368 292.567C183.1 292.506 182.843 292.475 182.6 292.475C182.282 292.475 182.039 292.53 181.868 292.64C181.709 292.75 181.63 292.914 181.63 293.134C181.63 293.293 181.679 293.439 181.776 293.573C181.874 293.695 182.063 293.835 182.343 293.994C182.624 294.14 183.032 294.329 183.569 294.561C184.118 294.792 184.575 295.036 184.941 295.292C185.319 295.536 185.606 295.847 185.801 296.225C185.996 296.591 186.093 297.073 186.093 297.67Z" fill="#303030"/>
<path d="M407.137 291.962L401.075 298.024L394.999 291.962" stroke="#303030" stroke-width="1.30659" stroke-linecap="round" stroke-linejoin="round"/>
<path d="M56.1625 189.173C56.1625 186.286 58.5024 183.946 61.3888 183.946H197.274C200.16 183.946 202.5 186.286 202.5 189.173V230.983C202.5 233.87 200.16 236.21 197.274 236.21H61.3888C58.5024 236.21 56.1625 233.87 56.1625 230.983V189.173Z" fill="#303030"/>
<path d="M112.895 220.419C112.542 220.419 112.231 220.395 111.962 220.346C111.694 220.31 111.462 220.267 111.267 220.218V217.913C111.45 217.962 111.645 218.005 111.853 218.042C112.048 218.078 112.261 218.096 112.493 218.096C112.846 218.096 113.133 218.035 113.353 217.913C113.584 217.792 113.755 217.56 113.865 217.218C113.987 216.877 114.048 216.389 114.048 215.755V203.517H117.011V215.737C117.011 216.859 116.834 217.761 116.481 218.444C116.139 219.139 115.657 219.639 115.035 219.944C114.426 220.261 113.712 220.419 112.895 220.419ZM128.504 211.566C128.504 212.395 128.394 213.133 128.175 213.779C127.967 214.426 127.662 214.975 127.26 215.426C126.857 215.865 126.364 216.2 125.778 216.432C125.205 216.651 124.559 216.761 123.839 216.761C123.169 216.761 122.547 216.651 121.973 216.432C121.413 216.2 120.925 215.865 120.51 215.426C120.095 214.975 119.772 214.426 119.541 213.779C119.321 213.133 119.211 212.395 119.211 211.566C119.211 210.456 119.4 209.523 119.778 208.767C120.156 207.999 120.693 207.414 121.388 207.011C122.095 206.609 122.931 206.408 123.894 206.408C124.784 206.408 125.577 206.609 126.272 207.011C126.967 207.414 127.51 207.999 127.9 208.767C128.303 209.523 128.504 210.456 128.504 211.566ZM122.193 211.566C122.193 212.225 122.248 212.779 122.358 213.231C122.48 213.67 122.662 214.005 122.906 214.237C123.15 214.456 123.473 214.566 123.876 214.566C124.278 214.566 124.595 214.456 124.827 214.237C125.071 214.005 125.248 213.67 125.358 213.231C125.467 212.779 125.522 212.225 125.522 211.566C125.522 210.908 125.467 210.359 125.358 209.92C125.248 209.481 125.071 209.151 124.827 208.932C124.583 208.712 124.26 208.603 123.858 208.603C123.26 208.603 122.833 208.853 122.577 209.353C122.321 209.841 122.193 210.578 122.193 211.566ZM133.422 206.591V216.578H130.495V206.591H133.422ZM131.976 202.676C132.403 202.676 132.769 202.774 133.074 202.969C133.379 203.152 133.531 203.499 133.531 204.011C133.531 204.511 133.379 204.859 133.074 205.054C132.769 205.249 132.403 205.347 131.976 205.347C131.537 205.347 131.165 205.249 130.861 205.054C130.556 204.859 130.403 204.511 130.403 204.011C130.403 203.499 130.556 203.152 130.861 202.969C131.165 202.774 131.537 202.676 131.976 202.676ZM141.541 206.408C142.541 206.408 143.346 206.7 143.956 207.286C144.578 207.859 144.889 208.786 144.889 210.066V216.578H141.962V210.743C141.962 210.023 141.852 209.487 141.633 209.133C141.426 208.767 141.09 208.584 140.627 208.584C139.92 208.584 139.444 208.871 139.2 209.444C138.956 210.005 138.834 210.816 138.834 211.877V216.578H135.907V206.591H138.121L138.523 207.871H138.651C138.859 207.53 139.102 207.255 139.383 207.048C139.676 206.828 140.005 206.67 140.371 206.572C140.737 206.463 141.127 206.408 141.541 206.408Z" fill="white"/>
<path d="M69.5837 53.6126C69.5837 55.285 69.2771 56.6856 68.6639 57.8145C68.0646 58.9434 67.2005 59.7936 66.0716 60.365C64.9567 60.9364 63.6187 61.2221 62.0578 61.2221H57.814V46.2957H62.4341C63.9253 46.2957 65.2006 46.5744 66.2598 47.1319C67.3329 47.6894 68.1552 48.5116 68.7266 49.5987C69.298 50.6719 69.5837 52.0098 69.5837 53.6126ZM66.0716 53.6962C66.0716 52.5952 65.9392 51.6893 65.6744 50.9785C65.4096 50.2677 65.0124 49.7451 64.4828 49.4106C63.9671 49.0622 63.3191 48.8879 62.5386 48.8879H61.2007V58.6089H62.2459C63.556 58.6089 64.5177 58.1978 65.1309 57.3755C65.758 56.5532 66.0716 55.3268 66.0716 53.6962ZM76.7409 49.5987C77.7583 49.5987 78.6363 49.8008 79.3749 50.205C80.1136 50.6092 80.685 51.1945 81.0892 51.961C81.4934 52.7276 81.6954 53.6683 81.6954 54.7833V56.2884H74.9012C74.9291 57.1665 75.1521 57.8563 75.5702 58.3581C76.0022 58.8598 76.6154 59.1107 77.4098 59.1107C78.1067 59.1107 78.7338 59.041 79.2913 58.9016C79.8627 58.7483 80.4481 58.5183 81.0474 58.2117V60.6159C80.5317 60.8946 79.9673 61.0967 79.354 61.2221C78.7547 61.3615 78.0091 61.4312 77.1172 61.4312C76.0301 61.4312 75.0615 61.2221 74.2113 60.804C73.3751 60.372 72.7131 59.7239 72.2253 58.8598C71.7515 57.9957 71.5145 56.9086 71.5145 55.5986C71.5145 54.2606 71.7305 53.1526 72.1626 52.2746C72.6086 51.3826 73.2218 50.7137 74.0023 50.2677C74.7967 49.8217 75.7095 49.5987 76.7409 49.5987ZM76.8036 51.8147C76.3019 51.8147 75.8837 52.0098 75.5493 52.4C75.2148 52.7903 75.0197 53.3965 74.9639 54.2188H78.6223C78.6223 53.7589 78.5527 53.3478 78.4133 52.9854C78.2739 52.623 78.0718 52.3373 77.807 52.1283C77.5422 51.9192 77.2078 51.8147 76.8036 51.8147ZM86.2696 61.2221L82.1513 49.8078H85.6425L87.5449 56.3093C87.6285 56.5602 87.6912 56.825 87.733 57.1038C87.7748 57.3825 87.8097 57.6543 87.8375 57.9191C87.8654 58.1839 87.8793 58.4278 87.8793 58.6507H87.963C87.9769 58.4138 87.9908 58.163 88.0048 57.8982C88.0326 57.6334 88.0745 57.3686 88.1302 57.1038C88.186 56.825 88.2487 56.5602 88.3184 56.3093L90.2416 49.8078H93.7537L89.6354 61.2221H86.2696ZM99.8307 49.5987C100.848 49.5987 101.726 49.8008 102.465 50.205C103.203 50.6092 103.775 51.1945 104.179 51.961C104.583 52.7276 104.785 53.6683 104.785 54.7833V56.2884H97.991C98.0189 57.1665 98.2419 57.8563 98.66 58.3581C99.092 58.8598 99.7052 59.1107 100.5 59.1107C101.196 59.1107 101.824 59.041 102.381 58.9016C102.953 58.7483 103.538 58.5183 104.137 58.2117V60.6159C103.622 60.8946 103.057 61.0967 102.444 61.2221C101.845 61.3615 101.099 61.4312 100.207 61.4312C99.1199 61.4312 98.1513 61.2221 97.3011 60.804C96.4649 60.372 95.8029 59.7239 95.3151 58.8598C94.8413 57.9957 94.6043 56.9086 94.6043 55.5986C94.6043 54.2606 94.8204 53.1526 95.2524 52.2746C95.6984 51.3826 96.3116 50.7137 97.0921 50.2677C97.8865 49.8217 98.7993 49.5987 99.8307 49.5987ZM99.8934 51.8147C99.3917 51.8147 98.9736 52.0098 98.6391 52.4C98.3046 52.7903 98.1095 53.3965 98.0537 54.2188H101.712C101.712 53.7589 101.642 53.3478 101.503 52.9854C101.364 52.623 101.162 52.3373 100.897 52.1283C100.632 51.9192 100.298 51.8147 99.8934 51.8147ZM110.395 61.2221H107.051V45.334H110.395V61.2221ZM123.292 55.494C123.292 56.4417 123.166 57.2849 122.916 58.0236C122.679 58.7622 122.33 59.3894 121.87 59.9051C121.41 60.4068 120.846 60.7901 120.177 61.0549C119.522 61.3057 118.783 61.4312 117.961 61.4312C117.194 61.4312 116.484 61.3057 115.829 61.0549C115.188 60.7901 114.63 60.4068 114.156 59.9051C113.682 59.3894 113.313 58.7622 113.048 58.0236C112.797 57.2849 112.672 56.4417 112.672 55.494C112.672 54.2258 112.888 53.1596 113.32 52.2955C113.752 51.4175 114.365 50.7485 115.16 50.2886C115.968 49.8287 116.923 49.5987 118.024 49.5987C119.041 49.5987 119.947 49.8287 120.741 50.2886C121.536 50.7485 122.156 51.4175 122.602 52.2955C123.062 53.1596 123.292 54.2258 123.292 55.494ZM116.08 55.494C116.08 56.2466 116.142 56.8808 116.268 57.3964C116.407 57.8982 116.616 58.2814 116.895 58.5462C117.174 58.7971 117.543 58.9225 118.003 58.9225C118.463 58.9225 118.825 58.7971 119.09 58.5462C119.369 58.2814 119.571 57.8982 119.696 57.3964C119.822 56.8808 119.884 56.2466 119.884 55.494C119.884 54.7414 119.822 54.1143 119.696 53.6126C119.571 53.1108 119.369 52.7345 119.09 52.4837C118.811 52.2328 118.442 52.1074 117.982 52.1074C117.299 52.1074 116.811 52.3931 116.519 52.9645C116.226 53.522 116.08 54.3651 116.08 55.494ZM131.881 49.5987C133.079 49.5987 134.034 50.1005 134.745 51.1039C135.469 52.0934 135.832 53.5568 135.832 55.494C135.832 56.7902 135.658 57.8842 135.309 58.7762C134.961 59.6542 134.48 60.3162 133.867 60.7622C133.254 61.2082 132.557 61.4312 131.776 61.4312C131.261 61.4312 130.822 61.3615 130.459 61.2221C130.097 61.0827 129.79 60.9016 129.539 60.6786C129.302 60.4556 129.093 60.2186 128.912 59.9678H128.766C128.808 60.2326 128.842 60.5113 128.87 60.804C128.898 61.0827 128.912 61.3615 128.912 61.6402V66.2394H125.567V49.8078H128.285L128.745 51.2921H128.912C129.093 50.9854 129.316 50.7067 129.581 50.4558C129.846 50.191 130.166 49.982 130.543 49.8287C130.919 49.6754 131.365 49.5987 131.881 49.5987ZM130.689 52.0865C130.257 52.0865 129.909 52.198 129.644 52.4209C129.379 52.6439 129.191 52.9854 129.079 53.4453C128.968 53.8913 128.912 54.4557 128.912 55.1386V55.4731C128.912 56.2118 128.968 56.8389 129.079 57.3546C129.191 57.8563 129.379 58.2396 129.644 58.5044C129.909 58.7692 130.271 58.9016 130.731 58.9016C131.107 58.9016 131.421 58.7692 131.672 58.5044C131.923 58.2396 132.111 57.8494 132.236 57.3337C132.362 56.818 132.424 56.1909 132.424 55.4522C132.424 54.3373 132.278 53.5011 131.985 52.9436C131.707 52.3722 131.274 52.0865 130.689 52.0865ZM151.022 49.5987C152.262 49.5987 153.196 49.9332 153.823 50.6022C154.464 51.2572 154.785 52.3164 154.785 53.7798V61.2221H151.461V54.5533C151.461 53.731 151.335 53.1178 151.085 52.7136C150.848 52.2955 150.485 52.0865 149.998 52.0865C149.301 52.0865 148.813 52.3791 148.534 52.9645C148.255 53.5498 148.116 54.393 148.116 55.494V61.2221H144.771V54.5533C144.771 54.0098 144.715 53.5568 144.604 53.1944C144.506 52.8321 144.353 52.5603 144.144 52.3791C143.935 52.184 143.663 52.0865 143.329 52.0865C142.841 52.0865 142.458 52.2328 142.179 52.5255C141.914 52.8182 141.726 53.2432 141.614 53.8007C141.503 54.3582 141.447 55.0411 141.447 55.8494V61.2221H138.102V49.8078H140.632L141.113 51.2712H141.238C141.447 50.8809 141.705 50.5673 142.012 50.3304C142.332 50.0795 142.695 49.8984 143.099 49.7869C143.517 49.6614 143.963 49.5987 144.437 49.5987C145.217 49.5987 145.872 49.7381 146.402 50.0168C146.945 50.2816 147.37 50.6997 147.677 51.2712H147.865C148.2 50.6858 148.646 50.2607 149.203 49.9959C149.775 49.7311 150.381 49.5987 151.022 49.5987ZM162.22 49.5987C163.238 49.5987 164.116 49.8008 164.854 50.205C165.593 50.6092 166.164 51.1945 166.568 51.961C166.973 52.7276 167.175 53.6683 167.175 54.7833V56.2884H160.38C160.408 57.1665 160.631 57.8563 161.049 58.3581C161.481 58.8598 162.095 59.1107 162.889 59.1107C163.586 59.1107 164.213 59.041 164.771 58.9016C165.342 58.7483 165.927 58.5183 166.527 58.2117V60.6159C166.011 60.8946 165.447 61.0967 164.833 61.2221C164.234 61.3615 163.488 61.4312 162.596 61.4312C161.509 61.4312 160.541 61.2221 159.691 60.804C158.854 60.372 158.192 59.7239 157.705 58.8598C157.231 57.9957 156.994 56.9086 156.994 55.5986C156.994 54.2606 157.21 53.1526 157.642 52.2746C158.088 51.3826 158.701 50.7137 159.482 50.2677C160.276 49.8217 161.189 49.5987 162.22 49.5987ZM162.283 51.8147C161.781 51.8147 161.363 52.0098 161.029 52.4C160.694 52.7903 160.499 53.3965 160.443 54.2188H164.102C164.102 53.7589 164.032 53.3478 163.893 52.9854C163.753 52.623 163.551 52.3373 163.286 52.1283C163.021 51.9192 162.687 51.8147 162.283 51.8147ZM175.879 49.5987C177.022 49.5987 177.941 49.9332 178.638 50.6022C179.349 51.2572 179.705 52.3164 179.705 53.7798V61.2221H176.36V54.5533C176.36 53.731 176.234 53.1178 175.983 52.7136C175.746 52.2955 175.363 52.0865 174.834 52.0865C174.025 52.0865 173.482 52.414 173.203 53.069C172.924 53.7101 172.785 54.6369 172.785 55.8494V61.2221H169.44V49.8078H171.97L172.429 51.2712H172.576C172.813 50.8809 173.091 50.5673 173.412 50.3304C173.746 50.0795 174.123 49.8984 174.541 49.7869C174.959 49.6614 175.405 49.5987 175.879 49.5987ZM187.398 58.9434C187.733 58.9434 188.039 58.9086 188.318 58.8389C188.611 58.7692 188.91 58.6856 189.217 58.588V60.9085C188.869 61.0479 188.457 61.1664 187.984 61.2639C187.524 61.3754 186.98 61.4312 186.353 61.4312C185.684 61.4312 185.085 61.3197 184.555 61.0967C184.039 60.8737 183.635 60.4904 183.343 59.9469C183.05 59.3894 182.904 58.6229 182.904 57.6473V52.1492H181.545V50.8321L183.175 49.7869L184.095 47.3828H186.248V49.8078H189.092V52.1492H186.248V57.6473C186.248 58.0793 186.353 58.4069 186.562 58.6298C186.771 58.8389 187.05 58.9434 187.398 58.9434ZM201.239 46.0866C202.465 46.0866 203.455 46.3723 204.207 46.9437C204.96 47.5012 205.336 48.2956 205.336 49.327C205.336 50.2886 205.085 51.0969 204.584 51.752C204.082 52.407 203.441 52.9784 202.66 53.4662L204.981 56.2884C205.232 55.8146 205.448 55.3198 205.629 54.8042C205.81 54.2746 205.956 53.745 206.068 53.2154H209.538C209.343 53.9958 209.044 54.832 208.639 55.724C208.235 56.616 207.768 57.4522 207.239 58.2326L210.207 61.2221H205.984L204.96 60.0723C204.681 60.2814 204.396 60.4695 204.103 60.6368C203.824 60.804 203.518 60.9503 203.183 61.0758C202.862 61.1873 202.5 61.2709 202.096 61.3266C201.706 61.3963 201.26 61.4312 200.758 61.4312C199.685 61.4312 198.765 61.2569 197.999 60.9085C197.246 60.5462 196.668 60.0444 196.263 59.4033C195.873 58.7622 195.678 58.0236 195.678 57.1874C195.678 56.4766 195.776 55.8703 195.971 55.3686C196.18 54.8529 196.472 54.407 196.849 54.0307C197.239 53.6404 197.713 53.285 198.27 52.9645C197.978 52.5464 197.734 52.1561 197.539 51.7938C197.343 51.4175 197.197 51.0482 197.1 50.6858C197.002 50.3234 196.953 49.9402 196.953 49.536C196.953 48.4768 197.33 47.6406 198.082 47.0274C198.849 46.4002 199.901 46.0866 201.239 46.0866ZM200.152 54.8251C199.943 55.0202 199.762 55.2223 199.608 55.4313C199.455 55.6404 199.336 55.8634 199.253 56.1003C199.183 56.3372 199.148 56.602 199.148 56.8947C199.148 57.494 199.323 57.9678 199.671 58.3163C200.033 58.6507 200.493 58.818 201.051 58.818C201.441 58.818 201.796 58.7622 202.117 58.6507C202.437 58.5393 202.709 58.3859 202.932 58.1908L200.152 54.8251ZM201.197 48.4907C200.89 48.4907 200.612 48.5813 200.361 48.7625C200.124 48.9298 200.005 49.2573 200.005 49.7451C200.005 50.0935 200.089 50.428 200.256 50.7485C200.424 51.0691 200.633 51.3966 200.883 51.7311C201.329 51.4105 201.671 51.09 201.908 50.7694C202.159 50.4489 202.284 50.0795 202.284 49.6614C202.284 49.2433 202.173 48.9437 201.95 48.7625C201.727 48.5813 201.476 48.4907 201.197 48.4907ZM228.681 53.6126C228.681 55.285 228.374 56.6856 227.761 57.8145C227.162 58.9434 226.298 59.7936 225.169 60.365C224.054 60.9364 222.716 61.2221 221.155 61.2221H216.911V46.2957H221.531C223.023 46.2957 224.298 46.5744 225.357 47.1319C226.43 47.6894 227.252 48.5116 227.824 49.5987C228.395 50.6719 228.681 52.0098 228.681 53.6126ZM225.169 53.6962C225.169 52.5952 225.036 51.6893 224.772 50.9785C224.507 50.2677 224.11 49.7451 223.58 49.4106C223.064 49.0622 222.416 48.8879 221.636 48.8879H220.298V58.6089H221.343C222.653 58.6089 223.615 58.1978 224.228 57.3755C224.855 56.5532 225.169 55.3268 225.169 53.6962ZM235.838 49.5987C236.855 49.5987 237.733 49.8008 238.472 50.205C239.211 50.6092 239.782 51.1945 240.186 51.961C240.591 52.7276 240.793 53.6683 240.793 54.7833V56.2884H233.998C234.026 57.1665 234.249 57.8563 234.667 58.3581C235.099 58.8598 235.713 59.1107 236.507 59.1107C237.204 59.1107 237.831 59.041 238.388 58.9016C238.96 58.7483 239.545 58.5183 240.145 58.2117V60.6159C239.629 60.8946 239.064 61.0967 238.451 61.2221C237.852 61.3615 237.106 61.4312 236.214 61.4312C235.127 61.4312 234.159 61.2221 233.308 60.804C232.472 60.372 231.81 59.7239 231.322 58.8598C230.849 57.9957 230.612 56.9086 230.612 55.5986C230.612 54.2606 230.828 53.1526 231.26 52.2746C231.706 51.3826 232.319 50.7137 233.099 50.2677C233.894 49.8217 234.807 49.5987 235.838 49.5987ZM235.901 51.8147C235.399 51.8147 234.981 52.0098 234.646 52.4C234.312 52.7903 234.117 53.3965 234.061 54.2188H237.72C237.72 53.7589 237.65 53.3478 237.51 52.9854C237.371 52.623 237.169 52.3373 236.904 52.1283C236.639 51.9192 236.305 51.8147 235.901 51.8147ZM250.835 57.8354C250.835 58.602 250.667 59.257 250.333 59.8005C250.012 60.3301 249.518 60.7343 248.849 61.0131C248.18 61.2918 247.316 61.4312 246.256 61.4312C245.49 61.4312 244.821 61.3754 244.249 61.2639C243.678 61.1664 243.1 60.9991 242.514 60.7622V58.1908C243.155 58.4696 243.817 58.6995 244.5 58.8807C245.183 59.0619 245.755 59.1525 246.215 59.1525C246.716 59.1525 247.072 59.0619 247.281 58.8807C247.504 58.6995 247.615 58.4626 247.615 58.1699C247.615 57.9748 247.56 57.8006 247.448 57.6473C247.337 57.494 247.114 57.3198 246.779 57.1247C246.445 56.9295 245.95 56.6787 245.295 56.3721C244.654 56.0655 244.124 55.7658 243.706 55.4731C243.302 55.1665 242.995 54.8042 242.786 54.3861C242.591 53.954 242.493 53.4174 242.493 52.7763C242.493 51.7171 242.891 50.9227 243.685 50.3931C244.493 49.8635 245.553 49.5987 246.863 49.5987C247.56 49.5987 248.215 49.6684 248.828 49.8078C249.441 49.9471 250.075 50.1771 250.73 50.4977L249.789 52.7345C249.427 52.5673 249.072 52.4209 248.723 52.2955C248.375 52.1701 248.04 52.0725 247.72 52.0028C247.413 51.9332 247.12 51.8983 246.842 51.8983C246.479 51.8983 246.201 51.961 246.006 52.0865C245.824 52.2119 245.734 52.4 245.734 52.6509C245.734 52.8321 245.79 52.9993 245.901 53.1526C246.013 53.292 246.229 53.4523 246.549 53.6335C246.87 53.8007 247.337 54.0167 247.95 54.2815C248.577 54.5463 249.1 54.8251 249.518 55.1177C249.95 55.3965 250.277 55.7519 250.5 56.1839C250.723 56.602 250.835 57.1525 250.835 57.8354ZM256.365 49.8078V61.2221H253.021V49.8078H256.365ZM254.714 45.334C255.202 45.334 255.62 45.4455 255.968 45.6685C256.317 45.8776 256.491 46.2748 256.491 46.8601C256.491 47.4315 256.317 47.8287 255.968 48.0517C255.62 48.2747 255.202 48.3862 254.714 48.3862C254.212 48.3862 253.787 48.2747 253.439 48.0517C253.09 47.8287 252.916 47.4315 252.916 46.8601C252.916 46.2748 253.09 45.8776 253.439 45.6685C253.787 45.4455 254.212 45.334 254.714 45.334ZM262.677 49.5987C263.388 49.5987 263.987 49.7381 264.475 50.0168C264.976 50.2956 265.387 50.7137 265.708 51.2712H265.792L266.043 49.8078H268.907V61.243C268.907 62.3301 268.697 63.243 268.279 63.9816C267.875 64.7203 267.262 65.2777 266.44 65.654C265.617 66.0443 264.579 66.2394 263.325 66.2394C262.516 66.2394 261.778 66.1906 261.109 66.0931C260.454 65.9955 259.82 65.8213 259.206 65.5704V63.0827C259.652 63.2778 260.084 63.4381 260.503 63.5635C260.935 63.7029 261.374 63.8004 261.82 63.8562C262.28 63.9259 262.774 63.9607 263.304 63.9607C264.07 63.9607 264.635 63.7447 264.997 63.3126C265.374 62.8806 265.562 62.2325 265.562 61.3684V61.1385C265.562 60.9016 265.569 60.6577 265.583 60.4068C265.61 60.1559 265.638 59.9329 265.666 59.7378H265.562C265.255 60.3371 264.858 60.7692 264.37 61.034C263.896 61.2988 263.311 61.4312 262.614 61.4312C261.402 61.4312 260.433 60.9155 259.708 59.8842C258.997 58.8389 258.642 57.3895 258.642 55.5358C258.642 54.2815 258.809 53.2154 259.144 52.3373C259.478 51.4454 259.945 50.7694 260.544 50.3095C261.158 49.8357 261.868 49.5987 262.677 49.5987ZM263.847 52.1283C263.443 52.1283 263.109 52.2607 262.844 52.5255C262.579 52.7763 262.377 53.1596 262.238 53.6753C262.112 54.177 262.05 54.8111 262.05 55.5777C262.05 56.7205 262.196 57.5776 262.489 58.149C262.795 58.7065 263.262 58.9852 263.889 58.9852C264.224 58.9852 264.509 58.9365 264.746 58.8389C264.997 58.7274 265.199 58.5532 265.353 58.3163C265.506 58.0654 265.617 57.7448 265.687 57.3546C265.771 56.9644 265.813 56.4905 265.813 55.933V55.5568C265.813 54.7345 265.75 54.0725 265.624 53.5707C265.499 53.069 265.29 52.7067 264.997 52.4837C264.719 52.2467 264.335 52.1283 263.847 52.1283ZM278.18 49.5987C279.323 49.5987 280.243 49.9332 280.94 50.6022C281.651 51.2572 282.006 52.3164 282.006 53.7798V61.2221H278.661V54.5533C278.661 53.731 278.536 53.1178 278.285 52.7136C278.048 52.2955 277.665 52.0865 277.135 52.0865C276.327 52.0865 275.783 52.414 275.504 53.069C275.226 53.7101 275.086 54.6369 275.086 55.8494V61.2221H271.742V49.8078H274.271L274.731 51.2712H274.877C275.114 50.8809 275.393 50.5673 275.714 50.3304C276.048 50.0795 276.424 49.8984 276.842 49.7869C277.261 49.6614 277.707 49.5987 278.18 49.5987ZM298.817 57.0828C298.817 57.9609 298.622 58.7274 298.232 59.3824C297.842 60.0375 297.249 60.5462 296.455 60.9085C295.675 61.2569 294.685 61.4312 293.487 61.4312C292.929 61.4312 292.413 61.3963 291.94 61.3266C291.466 61.2569 291.02 61.1594 290.602 61.034C290.183 60.8946 289.765 60.7273 289.347 60.5322V57.5846C290.058 57.8912 290.783 58.1769 291.521 58.4417C292.274 58.6926 292.985 58.818 293.654 58.818C294.086 58.818 294.434 58.7483 294.699 58.6089C294.964 58.4696 295.159 58.2814 295.284 58.0445C295.41 57.8076 295.473 57.5358 295.473 57.2292C295.473 56.8529 295.368 56.5323 295.159 56.2675C294.964 56.0027 294.671 55.7588 294.281 55.5358C293.891 55.2989 293.41 55.062 292.838 54.8251C292.281 54.5881 291.744 54.2955 291.229 53.947C290.713 53.5986 290.288 53.1387 289.954 52.5673C289.633 51.9819 289.473 51.2363 289.473 50.3304C289.473 49.4384 289.682 48.6789 290.1 48.0517C290.518 47.4106 291.103 46.9228 291.856 46.5884C292.609 46.2539 293.487 46.0866 294.49 46.0866C295.312 46.0866 296.072 46.1772 296.769 46.3584C297.479 46.5396 298.155 46.7974 298.796 47.1319L297.73 49.5987C297.117 49.32 296.532 49.104 295.974 48.9507C295.431 48.7974 294.901 48.7207 294.385 48.7207C294.037 48.7207 293.744 48.7834 293.507 48.9088C293.271 49.0343 293.089 49.2085 292.964 49.4315C292.852 49.6545 292.797 49.9193 292.797 50.2259C292.797 50.5743 292.887 50.874 293.068 51.1248C293.264 51.3617 293.563 51.5987 293.967 51.8356C294.372 52.0586 294.887 52.3304 295.514 52.6509C296.211 52.9993 296.804 53.3687 297.291 53.7589C297.793 54.1352 298.169 54.5881 298.42 55.1177C298.685 55.6473 298.817 56.3024 298.817 57.0828ZM299.534 49.8078H303.109L305.012 56.2257C305.081 56.4208 305.13 56.6299 305.158 56.8529C305.2 57.0619 305.228 57.278 305.242 57.501C305.269 57.7239 305.29 57.9609 305.304 58.2117H305.388C305.416 57.8494 305.451 57.5079 305.492 57.1874C305.548 56.8529 305.625 56.5323 305.722 56.2257L307.625 49.8078H311.137L306.663 62.6646C306.384 63.459 306.029 64.121 305.597 64.6506C305.165 65.1802 304.642 65.5774 304.029 65.8422C303.416 66.107 302.698 66.2394 301.876 66.2394C301.541 66.2394 301.249 66.2185 300.998 66.1767C300.761 66.1488 300.552 66.114 300.371 66.0722V63.6053C300.51 63.6332 300.677 63.6611 300.872 63.6889C301.081 63.7168 301.297 63.7308 301.52 63.7308C301.938 63.7308 302.287 63.6402 302.566 63.459C302.844 63.2778 303.074 63.0339 303.256 62.7273C303.437 62.4207 303.569 62.0792 303.653 61.7029L303.799 61.1385L299.534 49.8078ZM318.97 49.5987C320.113 49.5987 321.033 49.9332 321.73 50.6022C322.441 51.2572 322.796 52.3164 322.796 53.7798V61.2221H319.451V54.5533C319.451 53.731 319.326 53.1178 319.075 52.7136C318.838 52.2955 318.455 52.0865 317.925 52.0865C317.117 52.0865 316.573 52.414 316.294 53.069C316.016 53.7101 315.876 54.6369 315.876 55.8494V61.2221H312.531V49.8078H315.061L315.521 51.2712H315.667C315.904 50.8809 316.183 50.5673 316.503 50.3304C316.838 50.0795 317.214 49.8984 317.632 49.7869C318.05 49.6614 318.496 49.5987 318.97 49.5987ZM330.239 61.4312C329.152 61.4312 328.218 61.2291 327.437 60.8249C326.657 60.4068 326.058 59.7657 325.64 58.9016C325.222 58.0375 325.012 56.9295 325.012 55.5777C325.012 54.184 325.242 53.0481 325.702 52.1701C326.176 51.2921 326.824 50.644 327.647 50.2259C328.483 49.8078 329.437 49.5987 330.511 49.5987C331.207 49.5987 331.855 49.6754 332.455 49.8287C333.054 49.982 333.556 50.1632 333.96 50.3722L332.977 52.7136C332.559 52.5324 332.176 52.3861 331.828 52.2746C331.493 52.1631 331.124 52.1074 330.72 52.1074C330.232 52.1074 329.814 52.2398 329.465 52.5046C329.131 52.7554 328.873 53.1387 328.692 53.6544C328.511 54.1561 328.42 54.7902 328.42 55.5568C328.42 56.3093 328.511 56.9365 328.692 57.4382C328.887 57.926 329.152 58.2954 329.486 58.5462C329.835 58.7831 330.246 58.9016 330.72 58.9016C331.249 58.9016 331.751 58.818 332.225 58.6507C332.713 58.4696 333.173 58.2257 333.605 57.9191V60.574C333.145 60.8807 332.65 61.0967 332.12 61.2221C331.605 61.3615 330.977 61.4312 330.239 61.4312Z" fill="#303030"/>
<path d="M62.2146 95.6748L58.8279 85.8597H58.7652C58.7861 86.0688 58.8018 86.3353 58.8122 86.6594C58.8331 86.9834 58.8488 87.3388 58.8593 87.7255C58.8697 88.1018 58.8749 88.4886 58.8749 88.8858V95.6748H57.5893V84.48H59.6275L62.8104 93.6522H62.8731L66.1187 84.48H68.1569V95.6748H66.7772V88.7917C66.7772 88.4259 66.7824 88.0653 66.7929 87.7099C66.8033 87.344 66.819 87.0043 66.8399 86.6907C66.8608 86.3667 66.8765 86.0949 66.8869 85.8754H66.8242L63.3748 95.6748H62.2146ZM77.7438 91.4571C77.7438 92.1575 77.6549 92.7794 77.4773 93.323C77.31 93.856 77.0644 94.3107 76.7403 94.687C76.4163 95.0633 76.0243 95.3508 75.5644 95.5494C75.1045 95.7375 74.5923 95.8316 74.0279 95.8316C73.5052 95.8316 73.0192 95.7375 72.5697 95.5494C72.1307 95.3508 71.744 95.0633 71.4095 94.687C71.0854 94.3107 70.8346 93.856 70.6569 93.323C70.4792 92.7794 70.3903 92.1575 70.3903 91.4571C70.3903 90.5269 70.5367 89.7429 70.8293 89.1053C71.1325 88.4572 71.561 87.966 72.115 87.6315C72.669 87.2865 73.3223 87.1141 74.0749 87.1141C74.7961 87.1141 75.4285 87.2865 75.9721 87.6315C76.5261 87.966 76.9598 88.4572 77.2734 89.1053C77.587 89.7429 77.7438 90.5269 77.7438 91.4571ZM71.8014 91.4571C71.8014 92.1157 71.8798 92.6906 72.0366 93.1818C72.1934 93.6627 72.4391 94.0337 72.7735 94.2951C73.108 94.5564 73.5366 94.687 74.0592 94.687C74.5819 94.687 75.0104 94.5564 75.3449 94.2951C75.6794 94.0337 75.925 93.6627 76.0818 93.1818C76.2491 92.6906 76.3327 92.1157 76.3327 91.4571C76.3327 90.7882 76.2491 90.2185 76.0818 89.7481C75.925 89.2778 75.6794 88.9171 75.3449 88.6663C75.0104 88.405 74.5766 88.2743 74.0435 88.2743C73.2596 88.2743 72.6899 88.5565 72.3345 89.121C71.9791 89.6854 71.8014 90.4641 71.8014 91.4571ZM83.6283 87.1141C84.5691 87.1141 85.2799 87.3597 85.7607 87.851C86.252 88.3318 86.4976 89.1157 86.4976 90.2028V95.6748H85.1335V90.2969C85.1335 89.6175 84.9924 89.1105 84.7102 88.776C84.428 88.4415 83.9942 88.2743 83.4088 88.2743C82.5517 88.2743 81.9559 88.5356 81.6214 89.0583C81.2974 89.5809 81.1354 90.3335 81.1354 91.316V95.6748H79.7713V87.2708H80.8688L81.0726 88.4154H81.151C81.3183 88.1227 81.5326 87.8823 81.7939 87.6942C82.0552 87.4956 82.3426 87.3492 82.6562 87.2552C82.9698 87.1611 83.2938 87.1141 83.6283 87.1141ZM91.7185 95.8316C90.7464 95.8316 89.9624 95.471 89.3666 94.7497C88.7813 94.0181 88.4886 92.931 88.4886 91.4885C88.4886 90.046 88.7865 88.959 89.3823 88.2273C89.9781 87.4851 90.762 87.1141 91.7341 87.1141C92.1418 87.1141 92.4972 87.1715 92.8003 87.2865C93.1034 87.3911 93.3648 87.5374 93.5843 87.7255C93.8142 87.9137 94.0076 88.1227 94.1644 88.3527H94.2585C94.248 88.2168 94.2271 88.0182 94.1957 87.7569C94.1748 87.4851 94.1644 87.2708 94.1644 87.1141V83.7587H95.5285V95.6748H94.4309L94.2271 94.5459H94.1644C94.0076 94.7863 93.8142 95.0058 93.5843 95.2044C93.3648 95.3926 93.0982 95.5441 92.7846 95.6591C92.4815 95.7741 92.1261 95.8316 91.7185 95.8316ZM91.9693 94.687C92.7846 94.687 93.3543 94.4466 93.6783 93.9658C94.0128 93.4745 94.1801 92.7376 94.1801 91.755V91.5042C94.1801 90.4589 94.0233 89.6593 93.7097 89.1053C93.3961 88.5408 92.8108 88.2586 91.9536 88.2586C91.2638 88.2586 90.7464 88.5565 90.4014 89.1523C90.0669 89.7377 89.8997 90.5269 89.8997 91.5199C89.8997 92.5233 90.0669 93.302 90.4014 93.856C90.7464 94.41 91.269 94.687 91.9693 94.687ZM101.033 87.1297C101.995 87.1297 102.711 87.3545 103.181 87.8039C103.662 88.2534 103.903 88.9694 103.903 89.952V95.6748H102.915L102.648 94.4832H102.586C102.356 94.7863 102.12 95.0424 101.88 95.2515C101.65 95.4501 101.378 95.5964 101.065 95.6905C100.762 95.7846 100.385 95.8316 99.9359 95.8316C99.4655 95.8316 99.0422 95.7427 98.6659 95.5651C98.2896 95.3874 97.9917 95.1156 97.7722 94.7497C97.5527 94.3734 97.4429 93.9031 97.4429 93.3386C97.4429 92.5024 97.7513 91.8596 98.368 91.4101C98.9847 90.9502 99.9359 90.6993 101.222 90.6575L102.554 90.6105V90.1088C102.554 89.4084 102.413 88.9224 102.131 88.6506C101.859 88.3788 101.467 88.2429 100.955 88.2429C100.547 88.2429 100.155 88.3109 99.7791 88.4468C99.4132 88.5722 99.0631 88.7185 98.7286 88.8858L98.3052 87.851C98.6606 87.6524 99.0735 87.4851 99.5439 87.3492C100.014 87.2029 100.511 87.1297 101.033 87.1297ZM101.41 91.6139C100.448 91.6557 99.7791 91.823 99.4028 92.1157C99.0369 92.4083 98.854 92.8212 98.854 93.3543C98.854 93.8247 98.9847 94.1696 99.246 94.3891C99.5073 94.6086 99.847 94.7184 100.265 94.7184C100.913 94.7184 101.457 94.525 101.896 94.1383C102.335 93.7411 102.554 93.1348 102.554 92.3195V91.5669L101.41 91.6139ZM105.114 87.2708H106.588L108.265 92.053C108.37 92.3352 108.464 92.6069 108.548 92.8683C108.631 93.1296 108.704 93.3857 108.767 93.6365C108.83 93.8769 108.877 94.1121 108.908 94.3421H108.955C109.018 94.0808 109.107 93.7411 109.222 93.323C109.347 92.8944 109.478 92.4658 109.614 92.0373L111.197 87.2708H112.687L109.284 96.8351C109.096 97.3577 108.872 97.8124 108.61 98.1991C108.359 98.5963 108.051 98.8995 107.685 99.1085C107.319 99.328 106.88 99.4378 106.368 99.4378C106.138 99.4378 105.929 99.4221 105.741 99.3907C105.563 99.3698 105.412 99.3437 105.286 99.3123V98.2148C105.391 98.2357 105.522 98.2566 105.678 98.2775C105.835 98.2984 105.997 98.3089 106.164 98.3089C106.467 98.3089 106.729 98.2462 106.948 98.1207C107.168 98.0058 107.356 97.8333 107.513 97.6033C107.67 97.3838 107.8 97.1225 107.905 96.8194L108.297 95.7062L105.114 87.2708ZM114.965 94.0285C114.881 94.3944 114.766 94.7916 114.62 95.2201C114.484 95.6487 114.332 96.072 114.165 96.4901C114.008 96.9187 113.852 97.3211 113.695 97.6974H112.691C112.785 97.3002 112.88 96.8716 112.974 96.4117C113.068 95.9623 113.157 95.518 113.24 95.079C113.324 94.6295 113.386 94.2219 113.428 93.856H114.855L114.965 94.0285ZM130.535 90.0617C130.535 90.9293 130.43 91.7185 130.221 92.4292C130.012 93.1296 129.704 93.7358 129.296 94.248C128.889 94.7602 128.382 95.1522 127.775 95.4239C127.169 95.6957 126.469 95.8316 125.674 95.8316C124.849 95.8316 124.127 95.6957 123.511 95.4239C122.904 95.1417 122.397 94.7497 121.99 94.248C121.593 93.7358 121.295 93.1244 121.096 92.4136C120.897 91.7028 120.798 90.9136 120.798 90.046C120.798 88.8962 120.976 87.8928 121.331 87.0357C121.687 86.1785 122.225 85.5096 122.946 85.0287C123.678 84.5479 124.592 84.3075 125.69 84.3075C126.746 84.3075 127.634 84.5479 128.355 85.0287C129.077 85.4991 129.62 86.1681 129.986 87.0357C130.352 87.8928 130.535 88.9015 130.535 90.0617ZM122.272 90.0617C122.272 91.0025 122.392 91.8125 122.633 92.492C122.873 93.1714 123.244 93.694 123.746 94.0599C124.258 94.4257 124.901 94.6086 125.674 94.6086C126.458 94.6086 127.101 94.4257 127.603 94.0599C128.105 93.694 128.47 93.1714 128.7 92.492C128.941 91.8125 129.061 91.0025 129.061 90.0617C129.061 88.6506 128.789 87.5478 128.246 86.7534C127.713 85.9486 126.861 85.5462 125.69 85.5462C124.906 85.5462 124.258 85.7291 123.746 86.0949C123.244 86.4503 122.873 86.9677 122.633 87.6471C122.392 88.3161 122.272 89.121 122.272 90.0617ZM135.856 95.8316C135.145 95.8316 134.518 95.68 133.974 95.3769C133.43 95.0738 133.002 94.6034 132.688 93.9658C132.385 93.3282 132.234 92.5129 132.234 91.5199C132.234 90.485 132.396 89.6436 132.72 88.9955C133.044 88.3475 133.483 87.8719 134.037 87.5687C134.601 87.2656 135.239 87.1141 135.95 87.1141C136.357 87.1141 136.749 87.1611 137.126 87.2552C137.512 87.3388 137.826 87.4433 138.066 87.5687L137.643 88.7133C137.403 88.6192 137.12 88.5304 136.796 88.4468C136.483 88.3632 136.19 88.3213 135.918 88.3213C135.406 88.3213 134.983 88.4415 134.648 88.682C134.314 88.9224 134.063 89.2778 133.896 89.7481C133.728 90.2185 133.645 90.8039 133.645 91.5042C133.645 92.1732 133.728 92.7428 133.896 93.2132C134.063 93.6836 134.309 94.039 134.633 94.2794C134.967 94.5198 135.375 94.64 135.856 94.64C136.284 94.64 136.666 94.593 137 94.4989C137.335 94.4048 137.643 94.2898 137.925 94.1539V95.3769C137.653 95.5232 137.355 95.633 137.031 95.7062C136.707 95.7898 136.315 95.8316 135.856 95.8316ZM142.505 94.7027C142.704 94.7027 142.907 94.687 143.117 94.6557C143.326 94.6139 143.498 94.572 143.634 94.5302V95.5807C143.488 95.6539 143.279 95.7114 143.007 95.7532C142.745 95.8055 142.495 95.8316 142.254 95.8316C141.836 95.8316 141.449 95.7584 141.094 95.6121C140.739 95.4553 140.451 95.1888 140.232 94.8125C140.023 94.4362 139.918 93.9083 139.918 93.2289V88.337H138.805V87.6785L139.949 87.1297L140.467 85.3423H141.282V87.2708H143.571V88.337H141.282V93.1975C141.282 93.7097 141.397 94.0912 141.627 94.3421C141.857 94.5825 142.15 94.7027 142.505 94.7027ZM155.924 93.1348H154.403V95.6748H153.086V93.1348H148.085V91.9589L153.008 84.4173H154.403V91.8962H155.924V93.1348ZM153.086 88.3684C153.086 88.0966 153.086 87.851 153.086 87.6315C153.097 87.4015 153.107 87.1872 153.118 86.9886C153.128 86.79 153.133 86.6019 153.133 86.4242C153.144 86.236 153.154 86.0583 153.165 85.8911H153.102C153.018 86.0897 152.919 86.304 152.804 86.5339C152.689 86.7639 152.579 86.9573 152.475 87.1141L149.402 91.8962H153.086V88.3684ZM162.905 94.0285C162.822 94.3944 162.707 94.7916 162.56 95.2201C162.424 95.6487 162.273 96.072 162.106 96.4901C161.949 96.9187 161.792 97.3211 161.635 97.6974H160.632C160.726 97.3002 160.82 96.8716 160.914 96.4117C161.008 95.9623 161.097 95.518 161.181 95.079C161.264 94.6295 161.327 94.2219 161.369 93.856H162.796L162.905 94.0285ZM173.129 95.6748H171.796V87.851C171.796 87.5478 171.796 87.2918 171.796 87.0827C171.806 86.8736 171.817 86.6803 171.827 86.5026C171.838 86.3144 171.848 86.1211 171.859 85.9225C171.712 86.0897 171.571 86.236 171.435 86.3615C171.3 86.4764 171.137 86.6176 170.949 86.7848L169.836 87.7569L169.115 86.8318L172 84.48H173.129V95.6748ZM181.55 95.6748H180.217V87.851C180.217 87.5478 180.217 87.2918 180.217 87.0827C180.228 86.8736 180.238 86.6803 180.249 86.5026C180.259 86.3144 180.27 86.1211 180.28 85.9225C180.134 86.0897 179.993 86.236 179.857 86.3615C179.721 86.4764 179.559 86.6176 179.371 86.7848L178.257 87.7569L177.536 86.8318L180.421 84.48H181.55V95.6748ZM185.738 94.8281C185.738 94.4414 185.827 94.1696 186.005 94.0128C186.182 93.856 186.402 93.7776 186.663 93.7776C186.924 93.7776 187.149 93.856 187.337 94.0128C187.525 94.1696 187.62 94.4414 187.62 94.8281C187.62 95.2044 187.525 95.4762 187.337 95.6434C187.149 95.8107 186.924 95.8943 186.663 95.8943C186.402 95.8943 186.182 95.8107 186.005 95.6434C185.827 95.4762 185.738 95.2044 185.738 94.8281ZM185.738 88.1175C185.738 87.7203 185.827 87.4433 186.005 87.2865C186.182 87.1297 186.402 87.0513 186.663 87.0513C186.924 87.0513 187.149 87.1297 187.337 87.2865C187.525 87.4433 187.62 87.7203 187.62 88.1175C187.62 88.4938 187.525 88.7656 187.337 88.9328C187.149 89.1001 186.924 89.1837 186.663 89.1837C186.402 89.1837 186.182 89.1001 186.005 88.9328C185.827 88.7656 185.738 88.4938 185.738 88.1175ZM195.959 87.0984C195.959 87.6001 195.865 88.0339 195.677 88.3997C195.499 88.7656 195.249 89.0635 194.925 89.2934C194.6 89.5234 194.214 89.6854 193.764 89.7795V89.8422C194.611 89.9467 195.243 90.229 195.661 90.6889C196.08 91.1488 196.289 91.7498 196.289 92.492C196.289 93.14 196.142 93.7202 195.85 94.2323C195.567 94.7341 195.123 95.126 194.517 95.4083C193.921 95.6905 193.158 95.8316 192.228 95.8316C191.674 95.8316 191.162 95.7846 190.691 95.6905C190.221 95.6069 189.766 95.4501 189.327 95.2201V93.9344C189.766 94.1644 190.242 94.3473 190.754 94.4832C191.266 94.6086 191.757 94.6713 192.228 94.6713C193.158 94.6713 193.827 94.478 194.235 94.0912C194.642 93.694 194.846 93.1505 194.846 92.4606C194.846 91.9902 194.731 91.6139 194.501 91.3317C194.282 91.039 193.952 90.8248 193.513 90.6889C193.085 90.553 192.557 90.485 191.93 90.485H190.942V89.3091H191.946C192.531 89.3091 193.017 89.2203 193.404 89.0426C193.79 88.8649 194.078 88.6192 194.266 88.3057C194.465 87.9816 194.564 87.6106 194.564 87.1925C194.564 86.6489 194.397 86.2308 194.062 85.9381C193.728 85.635 193.268 85.4834 192.682 85.4834C192.306 85.4834 191.966 85.5252 191.663 85.6089C191.36 85.682 191.078 85.7918 190.817 85.9381C190.566 86.074 190.315 86.236 190.064 86.4242L189.39 85.4834C189.641 85.2744 189.928 85.081 190.252 84.9033C190.587 84.7256 190.958 84.5845 191.365 84.48C191.773 84.3755 192.212 84.3232 192.682 84.3232C193.78 84.3232 194.6 84.5845 195.144 85.1071C195.688 85.6298 195.959 86.2935 195.959 87.0984ZM204.804 90.0617C204.804 90.9711 204.736 91.7812 204.6 92.492C204.475 93.2027 204.271 93.809 203.989 94.3107C203.717 94.802 203.356 95.1783 202.907 95.4396C202.457 95.7009 201.919 95.8316 201.292 95.8316C200.498 95.8316 199.839 95.6016 199.316 95.1417C198.804 94.6818 198.423 94.0233 198.172 93.1662C197.921 92.2986 197.796 91.2638 197.796 90.0617C197.796 88.8492 197.91 87.8144 198.14 86.9573C198.37 86.1001 198.741 85.4469 199.254 84.9974C199.766 84.5375 200.445 84.3075 201.292 84.3075C202.086 84.3075 202.74 84.5375 203.252 84.9974C203.774 85.4469 204.161 86.1001 204.412 86.9573C204.673 87.8144 204.804 88.8492 204.804 90.0617ZM199.16 90.0617C199.16 91.0861 199.228 91.938 199.363 92.6174C199.51 93.2968 199.74 93.809 200.053 94.1539C200.367 94.4884 200.78 94.6557 201.292 94.6557C201.804 94.6557 202.217 94.4884 202.531 94.1539C202.844 93.8195 203.069 93.3125 203.205 92.6331C203.351 91.9432 203.424 91.0861 203.424 90.0617C203.424 89.0374 203.351 88.1907 203.205 87.5217C203.069 86.8423 202.844 86.3353 202.531 86.0008C202.217 85.6559 201.804 85.4834 201.292 85.4834C200.78 85.4834 200.367 85.6559 200.053 86.0008C199.74 86.3353 199.51 86.8423 199.363 87.5217C199.228 88.1907 199.16 89.0374 199.16 90.0617ZM209.935 92.0843V90.8613H216.128V92.0843H209.935ZM225.831 95.6748H224.498V87.851C224.498 87.5478 224.498 87.2918 224.498 87.0827C224.509 86.8736 224.519 86.6803 224.53 86.5026C224.54 86.3144 224.551 86.1211 224.561 85.9225C224.415 86.0897 224.274 86.236 224.138 86.3615C224.002 86.4764 223.84 86.6176 223.652 86.7848L222.538 87.7569L221.817 86.8318L224.702 84.48H225.831V95.6748ZM236.667 95.6748H229.674V94.5302L232.418 91.5669C232.941 91.0025 233.38 90.5007 233.735 90.0617C234.101 89.6227 234.378 89.1941 234.566 88.776C234.754 88.3475 234.848 87.8823 234.848 87.3806C234.848 86.7639 234.681 86.2987 234.346 85.9852C234.012 85.6611 233.573 85.4991 233.029 85.4991C232.528 85.4991 232.083 85.5932 231.697 85.7813C231.31 85.9695 230.918 86.2308 230.521 86.5653L229.784 85.6402C230.066 85.3894 230.369 85.1646 230.693 84.966C231.017 84.7674 231.373 84.6106 231.759 84.4957C232.157 84.3807 232.585 84.3232 233.045 84.3232C233.704 84.3232 234.268 84.4434 234.738 84.6838C235.219 84.9242 235.59 85.2692 235.852 85.7186C236.113 86.1576 236.244 86.6855 236.244 87.3022C236.244 87.7412 236.176 88.1593 236.04 88.5565C235.914 88.9433 235.731 89.3248 235.491 89.7011C235.251 90.0774 234.963 90.4589 234.629 90.8457C234.305 91.2324 233.939 91.6401 233.531 92.0686L231.383 94.3578L231.399 94.4205H236.667V95.6748ZM238.44 94.8281C238.44 94.4414 238.529 94.1696 238.707 94.0128C238.885 93.856 239.104 93.7776 239.365 93.7776C239.627 93.7776 239.852 93.856 240.04 94.0128C240.228 94.1696 240.322 94.4414 240.322 94.8281C240.322 95.2044 240.228 95.4762 240.04 95.6434C239.852 95.8107 239.627 95.8943 239.365 95.8943C239.104 95.8943 238.885 95.8107 238.707 95.6434C238.529 95.4762 238.44 95.2044 238.44 94.8281ZM238.44 88.1175C238.44 87.7203 238.529 87.4433 238.707 87.2865C238.885 87.1297 239.104 87.0513 239.365 87.0513C239.627 87.0513 239.852 87.1297 240.04 87.2865C240.228 87.4433 240.322 87.7203 240.322 88.1175C240.322 88.4938 240.228 88.7656 240.04 88.9328C239.852 89.1001 239.627 89.1837 239.365 89.1837C239.104 89.1837 238.885 89.1001 238.707 88.9328C238.529 88.7656 238.44 88.4938 238.44 88.1175ZM248.662 87.0984C248.662 87.6001 248.568 88.0339 248.379 88.3997C248.202 88.7656 247.951 89.0635 247.627 89.2934C247.303 89.5234 246.916 89.6854 246.467 89.7795V89.8422C247.313 89.9467 247.946 90.229 248.364 90.6889C248.782 91.1488 248.991 91.7498 248.991 92.492C248.991 93.14 248.845 93.7202 248.552 94.2323C248.27 94.7341 247.825 95.126 247.219 95.4083C246.623 95.6905 245.86 95.8316 244.93 95.8316C244.376 95.8316 243.864 95.7846 243.394 95.6905C242.923 95.6069 242.468 95.4501 242.029 95.2201V93.9344C242.468 94.1644 242.944 94.3473 243.456 94.4832C243.968 94.6086 244.46 94.6713 244.93 94.6713C245.86 94.6713 246.529 94.478 246.937 94.0912C247.345 93.694 247.548 93.1505 247.548 92.4606C247.548 91.9902 247.433 91.6139 247.204 91.3317C246.984 91.039 246.655 90.8248 246.216 90.6889C245.787 90.553 245.259 90.485 244.632 90.485H243.644V89.3091H244.648C245.233 89.3091 245.719 89.2203 246.106 89.0426C246.493 88.8649 246.78 88.6192 246.968 88.3057C247.167 87.9816 247.266 87.6106 247.266 87.1925C247.266 86.6489 247.099 86.2308 246.765 85.9381C246.43 85.635 245.97 85.4834 245.385 85.4834C245.008 85.4834 244.669 85.5252 244.366 85.6089C244.063 85.682 243.78 85.7918 243.519 85.9381C243.268 86.074 243.017 86.236 242.766 86.4242L242.092 85.4834C242.343 85.2744 242.63 85.081 242.955 84.9033C243.289 84.7256 243.66 84.5845 244.068 84.48C244.475 84.3755 244.914 84.3232 245.385 84.3232C246.482 84.3232 247.303 84.5845 247.846 85.1071C248.39 85.6298 248.662 86.2935 248.662 87.0984ZM257.506 90.0617C257.506 90.9711 257.438 91.7812 257.303 92.492C257.177 93.2027 256.973 93.809 256.691 94.3107C256.419 94.802 256.059 95.1783 255.609 95.4396C255.16 95.7009 254.621 95.8316 253.994 95.8316C253.2 95.8316 252.541 95.6016 252.019 95.1417C251.507 94.6818 251.125 94.0233 250.874 93.1662C250.623 92.2986 250.498 91.2638 250.498 90.0617C250.498 88.8492 250.613 87.8144 250.843 86.9573C251.073 86.1001 251.444 85.4469 251.956 84.9974C252.468 84.5375 253.148 84.3075 253.994 84.3075C254.789 84.3075 255.442 84.5375 255.954 84.9974C256.477 85.4469 256.864 86.1001 257.114 86.9573C257.376 87.8144 257.506 88.8492 257.506 90.0617ZM251.862 90.0617C251.862 91.0861 251.93 91.938 252.066 92.6174C252.212 93.2968 252.442 93.809 252.756 94.1539C253.069 94.4884 253.482 94.6557 253.994 94.6557C254.506 94.6557 254.919 94.4884 255.233 94.1539C255.546 93.8195 255.771 93.3125 255.907 92.6331C256.053 91.9432 256.127 91.0861 256.127 90.0617C256.127 89.0374 256.053 88.1907 255.907 87.5217C255.771 86.8423 255.546 86.3353 255.233 86.0008C254.919 85.6559 254.506 85.4834 253.994 85.4834C253.482 85.4834 253.069 85.6559 252.756 86.0008C252.442 86.3353 252.212 86.8423 252.066 87.5217C251.93 88.1907 251.862 89.0374 251.862 90.0617ZM270.054 95.6748L268.831 92.2097H264.676L263.468 95.6748H262.042L266.118 84.4329H267.435L271.496 95.6748H270.054ZM267.263 87.5687C267.242 87.4851 267.195 87.3336 267.122 87.1141C267.059 86.8946 266.991 86.6698 266.918 86.4399C266.855 86.1994 266.803 86.0165 266.761 85.8911C266.709 86.1001 266.651 86.3144 266.588 86.5339C266.536 86.743 266.484 86.9364 266.432 87.1141C266.379 87.2918 266.332 87.4433 266.291 87.5687L265.13 90.9554H268.423L267.263 87.5687ZM277.556 95.6748L274.169 85.8597H274.107C274.128 86.0688 274.143 86.3353 274.154 86.6594C274.175 86.9834 274.19 87.3388 274.201 87.7255C274.211 88.1018 274.217 88.4886 274.217 88.8858V95.6748H272.931V84.48H274.969L278.152 93.6522H278.215L281.46 84.48H283.499V95.6748H282.119V88.7917C282.119 88.4259 282.124 88.0653 282.134 87.7099C282.145 87.344 282.161 87.0043 282.181 86.6907C282.202 86.3667 282.218 86.0949 282.229 85.8754H282.166L278.716 95.6748H277.556Z" fill="#464648"/>
<rect x="96.1626" y="121.23" width="129.905" height="31.358" rx="5.22634" fill="#E3E3EB"/>
<path d="M110.645 143.307C109.673 143.307 108.889 142.946 108.293 142.225C107.708 141.493 107.415 140.406 107.415 138.964C107.415 137.521 107.713 136.434 108.309 135.703C108.904 134.96 109.688 134.589 110.661 134.589C111.068 134.589 111.424 134.647 111.727 134.762C112.03 134.866 112.291 135.013 112.511 135.201C112.741 135.389 112.934 135.598 113.091 135.828H113.185C113.174 135.692 113.154 135.494 113.122 135.232C113.101 134.96 113.091 134.746 113.091 134.589V131.234H114.455V143.15H113.357L113.154 142.021H113.091C112.934 142.262 112.741 142.481 112.511 142.68C112.291 142.868 112.025 143.019 111.711 143.134C111.408 143.249 111.053 143.307 110.645 143.307ZM110.896 142.162C111.711 142.162 112.281 141.922 112.605 141.441C112.939 140.95 113.106 140.213 113.106 139.23V138.98C113.106 137.934 112.95 137.135 112.636 136.581C112.323 136.016 111.737 135.734 110.88 135.734C110.19 135.734 109.673 136.032 109.328 136.628C108.993 137.213 108.826 138.002 108.826 138.995C108.826 139.999 108.993 140.777 109.328 141.331C109.673 141.885 110.195 142.162 110.896 142.162ZM120.007 134.589C120.686 134.589 121.272 134.746 121.763 135.06C122.254 135.373 122.63 135.818 122.892 136.392C123.164 136.957 123.299 137.621 123.299 138.384V139.215H117.906C117.927 140.166 118.151 140.892 118.58 141.394C119.009 141.885 119.61 142.131 120.383 142.131C120.885 142.131 121.329 142.084 121.716 141.99C122.113 141.885 122.521 141.739 122.939 141.551V142.758C122.531 142.946 122.129 143.082 121.732 143.166C121.345 143.26 120.874 143.307 120.32 143.307C119.568 143.307 118.904 143.145 118.329 142.821C117.754 142.497 117.305 142.016 116.981 141.378C116.657 140.73 116.495 139.941 116.495 139.011C116.495 138.091 116.641 137.302 116.934 136.643C117.226 135.985 117.634 135.478 118.157 135.122C118.69 134.767 119.307 134.589 120.007 134.589ZM120.007 135.718C119.401 135.718 118.92 135.933 118.564 136.361C118.209 136.779 118 137.365 117.937 138.117H121.888C121.888 137.636 121.82 137.218 121.684 136.863C121.549 136.507 121.34 136.23 121.057 136.032C120.786 135.823 120.435 135.718 120.007 135.718ZM126.744 143.15L123.749 134.746H125.207L126.869 139.701C126.953 139.931 127.036 140.187 127.12 140.469C127.204 140.751 127.277 141.023 127.339 141.284C127.413 141.535 127.46 141.749 127.481 141.927H127.543C127.575 141.749 127.627 141.53 127.7 141.269C127.773 141.007 127.852 140.736 127.935 140.453C128.029 140.171 128.113 139.92 128.186 139.701L129.848 134.746H131.306L128.296 143.15H126.744ZM143.715 137.553C143.715 138.034 143.663 138.504 143.558 138.964C143.454 139.424 143.292 139.842 143.072 140.218C142.863 140.584 142.597 140.882 142.273 141.112C141.959 141.331 141.588 141.441 141.159 141.441C140.71 141.441 140.354 141.305 140.093 141.033C139.832 140.751 139.67 140.432 139.607 140.077H139.529C139.361 140.464 139.105 140.788 138.76 141.049C138.415 141.31 137.982 141.441 137.459 141.441C136.696 141.441 136.111 141.175 135.703 140.642C135.295 140.108 135.092 139.403 135.092 138.525C135.092 137.835 135.217 137.229 135.468 136.706C135.729 136.173 136.095 135.755 136.565 135.452C137.046 135.149 137.605 134.997 138.243 134.997C138.682 134.997 139.111 135.039 139.529 135.122C139.957 135.196 140.287 135.279 140.516 135.373L140.375 138.556C140.365 138.744 140.36 138.88 140.36 138.964C140.36 139.037 140.36 139.089 140.36 139.121C140.36 139.664 140.449 140.025 140.626 140.202C140.804 140.38 141.008 140.469 141.238 140.469C141.541 140.469 141.797 140.338 142.006 140.077C142.215 139.805 142.372 139.45 142.476 139.011C142.591 138.561 142.649 138.07 142.649 137.537C142.649 136.565 142.466 135.744 142.1 135.075C141.734 134.396 141.232 133.879 140.595 133.523C139.957 133.168 139.231 132.99 138.415 132.99C137.579 132.99 136.837 133.131 136.189 133.413C135.551 133.696 135.013 134.093 134.574 134.605C134.146 135.117 133.816 135.724 133.586 136.424C133.367 137.114 133.257 137.877 133.257 138.713C133.257 139.737 133.424 140.61 133.759 141.331C134.104 142.042 134.605 142.586 135.264 142.962C135.933 143.328 136.748 143.511 137.71 143.511C138.295 143.511 138.865 143.438 139.419 143.291C139.983 143.155 140.475 143.004 140.893 142.837V143.903C140.475 144.091 139.999 144.242 139.466 144.357C138.933 144.483 138.348 144.546 137.71 144.546C136.55 144.546 135.551 144.316 134.715 143.856C133.889 143.396 133.257 142.737 132.818 141.88C132.379 141.013 132.16 139.973 132.16 138.76C132.16 137.788 132.301 136.889 132.583 136.063C132.876 135.227 133.288 134.506 133.822 133.9C134.365 133.283 135.024 132.807 135.797 132.473C136.571 132.128 137.443 131.955 138.415 131.955C139.189 131.955 139.895 132.086 140.532 132.347C141.18 132.598 141.739 132.969 142.21 133.461C142.691 133.941 143.062 134.527 143.323 135.217C143.584 135.906 143.715 136.685 143.715 137.553ZM136.283 138.556C136.283 139.225 136.403 139.711 136.644 140.014C136.895 140.317 137.229 140.469 137.647 140.469C138.191 140.469 138.583 140.25 138.823 139.811C139.074 139.372 139.215 138.802 139.246 138.102L139.341 136.142C139.205 136.1 139.043 136.063 138.854 136.032C138.666 136.001 138.468 135.985 138.259 135.985C137.778 135.985 137.391 136.11 137.098 136.361C136.806 136.612 136.597 136.936 136.471 137.333C136.346 137.72 136.283 138.128 136.283 138.556ZM150.986 140.83C150.986 141.373 150.855 141.828 150.594 142.194C150.343 142.56 149.982 142.837 149.512 143.025C149.042 143.213 148.477 143.307 147.819 143.307C147.265 143.307 146.784 143.26 146.376 143.166C145.979 143.072 145.629 142.941 145.326 142.774V141.52C145.65 141.687 146.036 141.844 146.486 141.99C146.935 142.126 147.39 142.194 147.85 142.194C148.488 142.194 148.947 142.084 149.23 141.864C149.522 141.635 149.669 141.331 149.669 140.955C149.669 140.746 149.611 140.558 149.496 140.391C149.392 140.223 149.198 140.056 148.916 139.889C148.644 139.722 148.247 139.534 147.725 139.324C147.223 139.115 146.789 138.906 146.423 138.697C146.068 138.488 145.791 138.237 145.592 137.945C145.404 137.652 145.31 137.276 145.31 136.816C145.31 136.105 145.582 135.556 146.125 135.17C146.679 134.783 147.4 134.589 148.289 134.589C148.77 134.589 149.219 134.642 149.637 134.746C150.055 134.84 150.453 134.976 150.829 135.154L150.374 136.251C150.155 136.147 149.925 136.058 149.684 135.985C149.444 135.901 149.198 135.838 148.947 135.797C148.707 135.744 148.461 135.718 148.211 135.718C147.698 135.718 147.306 135.812 147.035 136.001C146.763 136.178 146.627 136.424 146.627 136.737C146.627 136.967 146.69 137.166 146.815 137.333C146.941 137.5 147.144 137.662 147.427 137.819C147.719 137.966 148.117 138.138 148.618 138.337C149.12 138.535 149.549 138.739 149.904 138.948C150.259 139.157 150.526 139.413 150.704 139.716C150.892 140.009 150.986 140.38 150.986 140.83ZM155.958 134.589C156.638 134.589 157.223 134.746 157.714 135.06C158.206 135.373 158.582 135.818 158.843 136.392C159.115 136.957 159.251 137.621 159.251 138.384V139.215H153.857C153.878 140.166 154.103 140.892 154.532 141.394C154.96 141.885 155.561 142.131 156.335 142.131C156.836 142.131 157.281 142.084 157.667 141.99C158.065 141.885 158.472 141.739 158.89 141.551V142.758C158.483 142.946 158.08 143.082 157.683 143.166C157.296 143.26 156.826 143.307 156.272 143.307C155.519 143.307 154.856 143.145 154.281 142.821C153.706 142.497 153.256 142.016 152.932 141.378C152.608 140.73 152.446 139.941 152.446 139.011C152.446 138.091 152.593 137.302 152.885 136.643C153.178 135.985 153.586 135.478 154.108 135.122C154.641 134.767 155.258 134.589 155.958 134.589ZM155.958 135.718C155.352 135.718 154.871 135.933 154.516 136.361C154.16 136.779 153.951 137.365 153.889 138.117H157.84C157.84 137.636 157.772 137.218 157.636 136.863C157.5 136.507 157.291 136.23 157.009 136.032C156.737 135.823 156.387 135.718 155.958 135.718ZM164.303 134.589C164.983 134.589 165.568 134.746 166.059 135.06C166.55 135.373 166.927 135.818 167.188 136.392C167.46 136.957 167.596 137.621 167.596 138.384V139.215H162.202C162.223 140.166 162.448 140.892 162.876 141.394C163.305 141.885 163.906 142.131 164.679 142.131C165.181 142.131 165.625 142.084 166.012 141.99C166.409 141.885 166.817 141.739 167.235 141.551V142.758C166.827 142.946 166.425 143.082 166.028 143.166C165.641 143.26 165.171 143.307 164.617 143.307C163.864 143.307 163.2 143.145 162.625 142.821C162.051 142.497 161.601 142.016 161.277 141.378C160.953 140.73 160.791 139.941 160.791 139.011C160.791 138.091 160.937 137.302 161.23 136.643C161.523 135.985 161.93 135.478 162.453 135.122C162.986 134.767 163.603 134.589 164.303 134.589ZM164.303 135.718C163.697 135.718 163.216 135.933 162.861 136.361C162.505 136.779 162.296 137.365 162.234 138.117H166.185C166.185 137.636 166.117 137.218 165.981 136.863C165.845 136.507 165.636 136.23 165.354 136.032C165.082 135.823 164.732 135.718 164.303 135.718ZM168.061 134.746H169.535L171.212 139.528C171.317 139.811 171.411 140.082 171.495 140.344C171.578 140.605 171.651 140.861 171.714 141.112C171.777 141.352 171.824 141.587 171.855 141.817H171.902C171.965 141.556 172.054 141.216 172.169 140.798C172.294 140.37 172.425 139.941 172.561 139.513L174.144 134.746H175.634L172.232 144.31C172.043 144.833 171.819 145.288 171.557 145.674C171.307 146.072 170.998 146.375 170.632 146.584C170.266 146.803 169.827 146.913 169.315 146.913C169.085 146.913 168.876 146.897 168.688 146.866C168.51 146.845 168.359 146.819 168.233 146.788V145.69C168.338 145.711 168.469 145.732 168.625 145.753C168.782 145.774 168.944 145.784 169.111 145.784C169.415 145.784 169.676 145.722 169.895 145.596C170.115 145.481 170.303 145.309 170.46 145.079C170.617 144.859 170.747 144.598 170.852 144.295L171.244 143.182L168.061 134.746ZM183.793 138.932C183.793 139.633 183.704 140.255 183.526 140.798C183.359 141.331 183.113 141.786 182.789 142.162C182.465 142.539 182.073 142.826 181.614 143.025C181.154 143.213 180.641 143.307 180.077 143.307C179.554 143.307 179.068 143.213 178.619 143.025C178.18 142.826 177.793 142.539 177.459 142.162C177.135 141.786 176.884 141.331 176.706 140.798C176.528 140.255 176.439 139.633 176.439 138.932C176.439 138.002 176.586 137.218 176.878 136.581C177.182 135.933 177.61 135.441 178.164 135.107C178.718 134.762 179.371 134.589 180.124 134.589C180.845 134.589 181.478 134.762 182.021 135.107C182.575 135.441 183.009 135.933 183.323 136.581C183.636 137.218 183.793 138.002 183.793 138.932ZM177.851 138.932C177.851 139.591 177.929 140.166 178.086 140.657C178.243 141.138 178.488 141.509 178.823 141.77C179.157 142.032 179.586 142.162 180.108 142.162C180.631 142.162 181.06 142.032 181.394 141.77C181.728 141.509 181.974 141.138 182.131 140.657C182.298 140.166 182.382 139.591 182.382 138.932C182.382 138.264 182.298 137.694 182.131 137.223C181.974 136.753 181.728 136.392 181.394 136.142C181.06 135.88 180.626 135.75 180.093 135.75C179.309 135.75 178.739 136.032 178.384 136.596C178.028 137.161 177.851 137.939 177.851 138.932ZM192.484 134.746V143.15H191.386L191.183 142.037H191.12C190.953 142.33 190.733 142.57 190.461 142.758C190.2 142.946 189.913 143.082 189.599 143.166C189.285 143.26 188.956 143.307 188.611 143.307C187.984 143.307 187.456 143.202 187.028 142.993C186.599 142.774 186.275 142.439 186.056 141.99C185.847 141.54 185.742 140.96 185.742 140.25V134.746H187.122V140.155C187.122 140.824 187.263 141.326 187.545 141.661C187.827 141.995 188.261 142.162 188.846 142.162C189.421 142.162 189.871 142.047 190.195 141.817C190.529 141.577 190.765 141.232 190.9 140.783C191.047 140.323 191.12 139.769 191.12 139.121V134.746H192.484ZM196.592 141.504C196.508 141.87 196.393 142.267 196.247 142.695C196.111 143.124 195.96 143.547 195.792 143.965C195.636 144.394 195.479 144.796 195.322 145.173H194.319C194.413 144.776 194.507 144.347 194.601 143.887C194.695 143.438 194.784 142.993 194.867 142.554C194.951 142.105 195.014 141.697 195.055 141.331H196.482L196.592 141.504ZM202.015 134.589C202.695 134.589 203.28 134.746 203.772 135.06C204.263 135.373 204.639 135.818 204.9 136.392C205.172 136.957 205.308 137.621 205.308 138.384V139.215H199.914C199.935 140.166 200.16 140.892 200.589 141.394C201.017 141.885 201.618 142.131 202.392 142.131C202.893 142.131 203.338 142.084 203.724 141.99C204.122 141.885 204.529 141.739 204.947 141.551V142.758C204.54 142.946 204.137 143.082 203.74 143.166C203.353 143.26 202.883 143.307 202.329 143.307C201.576 143.307 200.913 143.145 200.338 142.821C199.763 142.497 199.313 142.016 198.989 141.378C198.665 140.73 198.503 139.941 198.503 139.011C198.503 138.091 198.65 137.302 198.942 136.643C199.235 135.985 199.643 135.478 200.165 135.122C200.698 134.767 201.315 134.589 202.015 134.589ZM202.015 135.718C201.409 135.718 200.928 135.933 200.573 136.361C200.218 136.779 200.009 137.365 199.946 138.117H203.897C203.897 137.636 203.829 137.218 203.693 136.863C203.557 136.507 203.348 136.23 203.066 136.032C202.794 135.823 202.444 135.718 202.015 135.718ZM213.951 134.746V143.15H212.853L212.649 142.037H212.587C212.419 142.33 212.2 142.57 211.928 142.758C211.667 142.946 211.379 143.082 211.066 143.166C210.752 143.26 210.423 143.307 210.078 143.307C209.451 143.307 208.923 143.202 208.494 142.993C208.066 142.774 207.742 142.439 207.522 141.99C207.313 141.54 207.209 140.96 207.209 140.25V134.746H208.589V140.155C208.589 140.824 208.73 141.326 209.012 141.661C209.294 141.995 209.728 142.162 210.313 142.162C210.888 142.162 211.338 142.047 211.662 141.817C211.996 141.577 212.231 141.232 212.367 140.783C212.514 140.323 212.587 139.769 212.587 139.121V134.746H213.951Z" fill="#303030"/>
<path d="M401.563 34.5338C401.308 34.2787 400.894 34.2787 400.639 34.5338C400.384 34.7889 400.384 35.2026 400.639 35.4577L401.563 34.5338ZM411.092 45.9104C411.347 46.1655 411.76 46.1655 412.015 45.9104C412.271 45.6552 412.271 45.2416 412.015 44.9865L411.092 45.9104ZM400.639 44.9864C400.384 45.2416 400.384 45.6552 400.639 45.9103C400.894 46.1655 401.308 46.1655 401.563 45.9103L400.639 44.9864ZM412.015 35.4577C412.271 35.2025 412.271 34.7889 412.015 34.5338C411.76 34.2787 411.347 34.2787 411.092 34.5338L412.015 35.4577ZM400.639 35.4577L411.092 45.9104L412.015 44.9865L401.563 34.5338L400.639 35.4577ZM401.563 45.9103L412.015 35.4577L411.092 34.5338L400.639 44.9864L401.563 45.9103Z" fill="#464648"/>
<path d="M40.4834 14.0903H45.7097V393H40.4834V14.0903Z" fill="#5558AF"/>
</g>
<path d="M1.02212e-06 137.991C-0.00178721 145.903 2.34288 153.638 6.73745 160.217C11.132 166.797 17.3791 171.925 24.6885 174.953C31.9979 177.982 40.0413 178.775 47.8014 177.232C55.5615 175.689 62.6896 171.879 68.2843 166.284C73.8789 160.69 77.6887 153.561 79.2318 145.801C80.775 138.041 79.9821 129.998 76.9534 122.688C73.9248 115.379 68.7965 109.132 62.2172 104.737C55.6378 100.343 47.903 97.9982 39.991 98C29.3854 98.0024 19.215 102.216 11.7157 109.716C4.21649 117.215 0.00239802 127.385 1.02212e-06 137.991Z" fill="#2D8CFF"/>
<path d="M43.2897 124.667H14.7995C14.4112 124.673 14.0411 124.819 13.7674 125.072C13.4937 125.325 13.3379 125.667 13.3331 126.024V143.989C13.3381 144.956 13.5501 145.913 13.9573 146.804C14.3644 147.696 14.9586 148.505 15.7059 149.185C16.4532 149.865 17.3388 150.403 18.3123 150.768C19.2858 151.133 20.3279 151.318 21.3792 151.312H49.8694C50.2543 151.31 50.6231 151.169 50.897 150.921C51.1709 150.672 51.3284 150.335 51.3357 149.981V131.998C51.3258 130.05 50.4776 128.186 48.9768 126.812C47.476 125.438 45.4447 124.667 43.3273 124.667H43.2897ZM64.9087 125.125L53.1216 133.035V142.969L64.8523 150.906C65.6983 151.502 66.6665 151.684 66.6665 150.041V125.946C66.6665 125.082 66.3657 124.675 65.9051 124.675C65.5099 124.714 65.1399 124.872 64.8523 125.125H64.9087Z" fill="white"/>
<defs>
<filter id="filter0_d_2087_46650" x="16.4038" y="0.956031" width="440.159" height="427.069" filterUnits="userSpaceOnUse" color-interpolation-filters="sRGB">
<feFlood flood-opacity="0" result="BackgroundImageFix"/>
<feColorMatrix in="SourceAlpha" type="matrix" values="0 0 0 0 0 0 0 0 0 0 0 0 0 0 0 0 0 0 127 0" result="hardAlpha"/>
<feOffset dy="10.9453"/>
<feGaussianBlur stdDeviation="12.0398"/>
<feColorMatrix type="matrix" values="0 0 0 0 0.439216 0 0 0 0 0.345098 0 0 0 0 1 0 0 0 0.16 0"/>
<feBlend mode="normal" in2="BackgroundImageFix" result="effect1_dropShadow_2087_46650"/>
<feBlend mode="normal" in="SourceGraphic" in2="effect1_dropShadow_2087_46650" result="shape"/>
</filter>
</defs>
</svg>
