<svg width="168" height="357" viewBox="0 0 168 357" fill="none" xmlns="http://www.w3.org/2000/svg">
<path d="M168.408 155.55C164.952 156.771 161.49 158.051 158.028 159.388C87.1997 186.748 46.2306 251.996 66.6619 305.124C80.6708 341.551 121.73 359.097 168.408 356.354V155.55Z" fill="#DDEDFA" fill-opacity="0.59"/>
<path opacity="0.05" d="M168.408 0C158.454 5.97592 147.478 11.8644 134.948 17.4168C60.1308 50.6638 -12.1096 150.023 60.5126 186.04C98.5174 204.906 134.217 221.557 168.408 234.313V0Z" fill="#58539E"/>
<path opacity="0.3" d="M7.56992 210.484C7.08614 210.169 6.43882 210.306 6.1241 210.79L0.995547 218.674C0.680827 219.158 0.817885 219.805 1.30167 220.12C1.78546 220.434 2.43277 220.297 2.74749 219.814L7.30622 212.806L14.314 217.365C14.7978 217.679 15.4451 217.542 15.7598 217.058C16.0745 216.575 15.9374 215.927 15.4537 215.613L7.56992 210.484ZM168.36 283.225C167.569 283.261 166.778 283.294 165.987 283.324L166.067 285.413C166.863 285.382 167.659 285.349 168.456 285.312L168.36 283.225ZM161.244 283.467C159.66 283.503 158.077 283.526 156.495 283.536L156.509 285.626C158.101 285.616 159.695 285.593 161.29 285.557L161.244 283.467ZM151.747 283.53C150.164 283.515 148.582 283.488 147.004 283.448L146.951 285.537C148.541 285.577 150.133 285.605 151.728 285.62L151.747 283.53ZM142.257 283.29C140.673 283.225 139.092 283.146 137.515 283.055L137.395 285.142C138.983 285.234 140.575 285.312 142.171 285.378L142.257 283.29ZM132.782 282.743C131.2 282.626 129.623 282.495 128.051 282.352L127.861 284.433C129.444 284.578 131.034 284.709 132.628 284.827L132.782 282.743ZM123.326 281.88C121.749 281.708 120.179 281.524 118.616 281.326L118.354 283.4C119.929 283.599 121.512 283.785 123.1 283.957L123.326 281.88ZM113.916 280.69C112.343 280.462 110.778 280.221 109.222 279.966L108.884 282.029C110.453 282.286 112.031 282.529 113.616 282.758L113.916 280.69ZM104.548 279.156C102.989 278.87 101.439 278.57 99.8994 278.256L99.4822 280.304C101.035 280.621 102.599 280.923 104.172 281.211L104.548 279.156ZM95.2556 277.261C93.7047 276.912 92.1654 276.548 90.6382 276.17L90.136 278.199C91.6777 278.581 93.2315 278.948 94.7966 279.3L95.2556 277.261ZM86.0527 274.982C84.5213 274.566 83.0035 274.136 81.4999 273.691L80.9064 275.695C82.4257 276.145 83.959 276.579 85.5057 276.999L86.0527 274.982ZM76.9653 272.288C75.4517 271.799 73.9542 271.295 72.4736 270.775L71.7808 272.746C73.2785 273.273 74.793 273.783 76.3232 274.277L76.9653 272.288ZM68.0297 269.146C66.5471 268.58 65.0833 267.997 63.6392 267.398L62.8381 269.328C64.3009 269.935 65.7832 270.526 67.284 271.099L68.0297 269.146ZM59.2937 265.517C57.8429 264.863 56.4143 264.191 55.0089 263.501L54.0882 265.378C55.5144 266.077 56.9634 266.759 58.4343 267.423L59.2937 265.517ZM50.7995 261.346C49.3985 260.597 48.0233 259.83 46.6752 259.044L45.6226 260.85C46.9936 261.649 48.3913 262.429 49.8145 263.189L50.7995 261.346ZM42.6468 256.588C41.3095 255.736 40.0025 254.863 38.727 253.971L37.5291 255.684C38.8297 256.593 40.1615 257.482 41.5232 258.351L42.6468 256.588ZM34.9274 251.182C33.6707 250.214 32.4493 249.224 31.2646 248.213L29.9079 249.803C31.1197 250.837 32.3682 251.848 33.6517 252.838L34.9274 251.182ZM27.765 245.062C26.6189 243.972 25.5137 242.86 24.4508 241.725L22.9253 243.153C24.0165 244.318 25.1503 245.459 26.3248 246.576L27.765 245.062ZM21.3462 238.199C20.343 236.985 19.3862 235.747 18.4774 234.485L16.7815 235.707C17.718 237.007 18.7031 238.281 19.735 239.53L21.3462 238.199ZM15.8711 230.588C15.0469 229.256 14.2738 227.899 13.5539 226.518L11.7005 227.484C12.4446 228.912 13.243 230.313 14.0938 231.688L15.8711 230.588ZM11.5495 222.288C10.9371 220.856 10.3794 219.4 9.87817 217.918L7.89839 218.588C8.41718 220.121 8.99433 221.629 9.62793 223.11L11.5495 222.288ZM8.55387 213.432C8.36244 212.675 8.18521 211.912 8.02242 211.144L5.97774 211.576C6.14618 212.372 6.32958 213.161 6.5277 213.944L8.55387 213.432Z" fill="#7058FF"/>
</svg>
