<svg width="169" height="228" viewBox="0 0 169 228" fill="none" xmlns="http://www.w3.org/2000/svg">
<path d="M0.555161 6.94421C32.7806 0.0563294 91.9426 -7.93853 135.115 16.784C151.843 26.3779 151.966 32.6508 151.843 34.2497C150.736 51.7154 89.4826 60.0793 80.1348 61.0633C112.606 66.8442 153.196 68.9351 155.532 92.4277C157.869 115.059 98.4615 92.9197 69.065 88.3688C95.3865 104.113 129.457 108.663 153.565 128.712C161.313 135.108 171.768 148.392 168.324 159.831C165.618 168.932 154.794 173.237 151.72 174.344C140.281 178.772 128.473 176.927 114.451 171.884C100.552 166.964 76.0759 156.018 49.0163 130.803C95.5095 233.752 0.555162 148.146 0.555162 148.146C0.801164 101.161 0.309159 54.0524 0.555161 6.94421Z" fill="#F2F9FF"/>
<path opacity="0.3" d="M152.867 227.351C153.239 227.793 153.898 227.85 154.339 227.478L161.536 221.423C161.977 221.051 162.034 220.392 161.663 219.95C161.291 219.509 160.632 219.452 160.19 219.824L153.793 225.206L148.411 218.809C148.039 218.368 147.38 218.311 146.938 218.683C146.497 219.054 146.44 219.713 146.812 220.155L152.867 227.351ZM0.0213998 133.76C0.720463 133.357 1.42528 132.966 2.13561 132.587L1.15195 130.743C0.421751 131.133 -0.302873 131.535 -1.02167 131.949L0.0213998 133.76ZM6.46381 130.454C7.9302 129.788 9.41689 129.169 10.9219 128.596L10.1779 126.643C8.63299 127.231 7.10626 127.867 5.59981 128.551L6.46381 130.454ZM15.4858 127.014C17.0207 126.533 18.5719 126.097 20.1375 125.705L19.6297 123.677C18.0254 124.079 16.4351 124.526 14.8608 125.02L15.4858 127.014ZM24.8612 124.662C26.4418 124.359 28.0346 124.099 29.6379 123.881L29.3557 121.81C27.7159 122.033 26.0859 122.299 24.4678 122.61L24.8612 124.662ZM34.446 123.353C36.0497 123.218 37.6615 123.124 39.2798 123.069L39.2091 120.98C37.5567 121.036 35.9102 121.133 34.2714 121.27L34.446 123.353ZM44.1273 123.022C45.7382 123.045 47.3536 123.106 48.9716 123.204L49.0978 121.117C47.4481 121.018 45.8006 120.956 44.1569 120.932L44.1273 123.022ZM53.7999 123.605C55.4035 123.774 57.0078 123.979 58.6112 124.219L58.9204 122.152C57.2875 121.908 55.6532 121.699 54.0192 121.526L53.7999 123.605ZM63.3961 125.039C64.9801 125.344 66.5614 125.684 68.1384 126.056L68.6187 124.022C67.0141 123.643 65.4047 123.298 63.7922 122.987L63.3961 125.039ZM72.837 127.267C74.3934 127.701 75.9438 128.167 77.4865 128.665L78.128 126.676C76.5591 126.17 74.9822 125.695 73.399 125.254L72.837 127.267ZM82.0775 130.246C83.5953 130.802 85.1037 131.388 86.6013 132.004L87.396 130.071C85.8735 129.445 84.3398 128.849 82.7965 128.283L82.0775 130.246ZM91.0552 133.937C92.5269 134.609 93.9859 135.311 95.4308 136.041L96.3729 134.175C94.9039 133.433 93.4205 132.72 91.9243 132.036L91.0552 133.937ZM99.7209 138.313C101.137 139.098 102.537 139.911 103.919 140.751L105.004 138.964C103.598 138.11 102.175 137.284 100.735 136.485L99.7209 138.313ZM108.017 143.352C109.366 144.247 110.696 145.168 112.006 146.114L113.23 144.421C111.898 143.457 110.545 142.52 109.172 141.61L108.017 143.352ZM115.88 149.038C117.153 150.041 118.403 151.068 119.628 152.119L120.989 150.533C119.741 149.462 118.469 148.417 117.174 147.396L115.88 149.038ZM123.238 155.355C124.42 156.462 125.576 157.593 126.704 158.747L128.199 157.286C127.049 156.11 125.871 154.957 124.666 153.829L123.238 155.355ZM130.012 162.291C131.089 163.499 132.135 164.73 133.15 165.983L134.774 164.668C133.739 163.389 132.671 162.133 131.573 160.901L130.012 162.291ZM136.104 169.818C137.059 171.124 137.98 172.451 138.865 173.799L140.612 172.651C139.707 171.273 138.766 169.917 137.79 168.584L136.104 169.818ZM141.416 177.912C142.23 179.305 143.006 180.719 143.743 182.152L145.602 181.197C144.848 179.73 144.053 178.283 143.22 176.857L141.416 177.912ZM145.834 186.514C146.489 187.985 147.103 189.475 147.675 190.983L149.629 190.243C149.044 188.697 148.414 187.17 147.743 185.663L145.834 186.514ZM149.253 195.549C149.734 197.084 150.17 198.636 150.561 200.204L152.589 199.699C152.188 198.09 151.741 196.498 151.248 194.925L149.253 195.549ZM151.586 204.924C151.879 206.498 152.125 208.088 152.324 209.692L154.398 209.435C154.194 207.789 153.941 206.158 153.641 204.542L151.586 204.924ZM152.772 214.503C152.873 216.103 152.926 217.717 152.93 219.344L155.02 219.338C155.016 217.67 154.961 216.014 154.858 214.372L152.772 214.503ZM152.799 224.157C152.753 224.965 152.695 225.775 152.625 226.589L154.708 226.768C154.779 225.934 154.839 225.103 154.886 224.275L152.799 224.157Z" fill="#7058FF"/>
</svg>
