<svg width="168" height="182" viewBox="0 0 168 182" fill="none" xmlns="http://www.w3.org/2000/svg">
<path d="M167.707 174.588C135.481 181.475 77.0574 189.47 33.8852 164.748C17.1574 155.154 17.0344 148.881 17.1574 147.282C18.2644 129.816 79.5174 121.452 88.8652 120.468C56.3938 114.688 15.8045 112.597 13.4675 89.104C11.1305 66.4724 70.5385 88.612 99.935 93.1629C73.6135 77.4192 39.5431 72.8683 15.4355 52.8197C7.68661 46.4238 -2.76821 33.14 0.67573 21.7012C3.38168 12.5994 14.2055 8.29448 17.2804 7.1875C28.7192 2.75958 40.527 4.60454 54.5488 9.64744C68.4475 14.5673 92.9241 25.5141 119.984 50.7287C73.4905 -52.2205 168.445 33.386 168.445 33.386C168.199 80.3712 167.953 127.479 167.707 174.588Z" fill="#F2F9FF"/>
</svg>
