<svg width="215" height="193" viewBox="0 0 215 193" fill="none" xmlns="http://www.w3.org/2000/svg">
<path d="M207.099 0.738006C213.987 32.9634 221.982 91.3874 197.259 134.56C187.666 151.287 181.393 151.41 179.794 151.287C162.328 150.18 153.964 88.9274 152.98 79.5796C147.199 112.051 145.108 152.64 121.616 154.977C98.9841 157.314 121.124 97.9063 125.675 68.5098C109.931 94.8313 105.38 128.902 85.3314 153.009C78.9355 160.758 65.6517 171.213 54.2129 167.769C45.1111 165.063 40.8062 154.239 39.6992 151.164C35.2713 139.726 37.1163 127.918 42.1592 113.896C47.0791 99.9973 58.0259 75.5207 83.2404 48.4611C-19.7088 94.9543 65.8978 -2.82101e-05 65.8978 -2.82101e-05C112.883 0.245978 159.991 0.492 207.099 0.738006Z" fill="#F2F9FF"/>
<path opacity="0.3" d="M152.867 192.352C153.239 192.793 153.898 192.85 154.339 192.478L161.536 186.423C161.978 186.051 162.034 185.392 161.663 184.951C161.291 184.509 160.632 184.452 160.19 184.824L153.793 190.206L148.411 183.81C148.039 183.368 147.38 183.311 146.939 183.683C146.497 184.054 146.44 184.714 146.812 185.155L152.867 192.352ZM0.514584 98.4784C1.21471 98.0823 1.92052 97.698 2.63175 97.3255L1.66194 95.4741C0.930865 95.857 0.205271 96.2521 -0.514584 96.6594L0.514584 98.4784ZM6.96418 95.2292C8.43127 94.5758 9.91832 93.9686 11.4234 93.407L10.6927 91.4489C9.14784 92.0253 7.62086 92.6488 6.11382 93.32L6.96418 95.2292ZM15.9855 91.8594C17.5193 91.3896 19.0692 90.9641 20.6331 90.5824L20.1375 88.552C18.5351 88.9431 16.9464 89.3792 15.3734 89.8611L15.9855 91.8594ZM25.3505 89.5701C26.9285 89.2769 28.5186 89.0259 30.1188 88.8165L29.8476 86.7442C28.211 86.9583 26.5841 87.2151 24.9687 87.5152L25.3505 89.5701ZM34.917 88.3145C36.517 88.1883 38.1251 88.102 39.7393 88.0549L39.6783 85.9658C38.0302 86.0139 36.3876 86.102 34.7527 86.231L34.917 88.3145ZM44.5742 88.0298C46.1808 88.0595 47.7916 88.1268 49.4049 88.231L49.5396 86.1453C47.8948 86.0391 46.252 85.9704 44.6129 85.9401L44.5742 88.0298ZM54.2189 88.6501C55.8176 88.825 57.4169 89.0352 59.0151 89.2802L59.3318 87.2143C57.7042 86.9648 56.0751 86.7506 54.4461 86.5725L54.2189 88.6501ZM63.7844 90.1145C65.3633 90.4249 66.9393 90.7686 68.5108 91.145L68.9976 89.1125C67.3986 88.7295 65.7946 88.3796 64.1876 88.0637L63.7844 90.1145ZM73.1931 92.3667C74.7441 92.8048 76.289 93.2745 77.8261 93.7751L78.4733 91.7878C76.9101 91.2787 75.3389 90.801 73.7612 90.3554L73.1931 92.3667ZM82.4003 95.3645C83.9125 95.9233 85.4154 96.512 86.9073 97.13L87.7071 95.1991C86.1903 94.5707 84.6623 93.9722 83.1247 93.404L82.4003 95.3645ZM91.3443 99.0693C92.8103 99.7441 94.2638 100.447 95.703 101.179L96.6496 99.3152C95.1863 98.5718 93.7087 97.8568 92.2182 97.1707L91.3443 99.0693ZM99.9761 103.455C101.386 104.242 102.781 105.056 104.158 105.896L105.247 104.112C103.846 103.257 102.428 102.43 100.994 101.63L99.9761 103.455ZM108.238 108.499C109.582 109.395 110.907 110.316 112.211 111.263L113.439 109.572C112.112 108.608 110.764 107.671 109.397 106.76L108.238 108.499ZM116.069 114.187C117.336 115.189 118.58 116.216 119.8 117.267L121.164 115.684C119.922 114.614 118.655 113.568 117.365 112.548L116.069 114.187ZM123.394 120.501C124.571 121.608 125.722 122.738 126.844 123.891L128.342 122.433C127.197 121.258 126.024 120.106 124.825 118.978L123.394 120.501ZM130.137 127.432C131.209 128.639 132.25 129.868 133.26 131.119L134.886 129.807C133.856 128.529 132.793 127.275 131.7 126.044L130.137 127.432ZM136.199 134.949C137.15 136.253 138.066 137.578 138.947 138.923L140.696 137.779C139.795 136.403 138.859 135.049 137.888 133.718L136.199 134.949ZM141.484 143.029C142.294 144.42 143.066 145.831 143.799 147.262L145.659 146.309C144.909 144.845 144.119 143.4 143.29 141.978L141.484 143.029ZM145.879 151.614C146.531 153.082 147.141 154.569 147.709 156.074L149.664 155.336C149.082 153.794 148.457 152.27 147.789 150.766L145.879 151.614ZM149.279 160.63C149.756 162.16 150.19 163.708 150.578 165.273L152.607 164.77C152.209 163.165 151.764 161.577 151.274 160.007L149.279 160.63ZM151.597 169.982C151.888 171.552 152.132 173.137 152.33 174.737L154.404 174.481C154.202 172.839 153.95 171.212 153.652 169.601L151.597 169.982ZM152.774 179.535C152.874 181.131 152.926 182.741 152.93 184.363L155.02 184.358C155.016 182.694 154.962 181.043 154.86 179.405L152.774 179.535ZM152.799 189.164C152.753 189.97 152.695 190.778 152.626 191.589L154.708 191.768C154.779 190.937 154.839 190.108 154.885 189.282L152.799 189.164Z" fill="#7058FF"/>
</svg>
