<svg width="169" height="182" viewBox="0 0 169 182" fill="none" xmlns="http://www.w3.org/2000/svg">
<path d="M0.555161 6.94421C32.7806 0.0563294 91.9426 -7.93853 135.115 16.784C151.843 26.3779 151.966 32.6508 151.843 34.2497C150.736 51.7154 89.4826 60.0793 80.1348 61.0633C112.606 66.8442 153.196 68.9351 155.532 92.4277C157.869 115.059 98.4615 92.9197 69.065 88.3688C95.3865 104.113 129.457 108.663 153.565 128.712C161.313 135.108 171.768 148.392 168.324 159.831C165.618 168.932 154.794 173.237 151.72 174.344C140.281 178.772 128.473 176.927 114.451 171.884C100.552 166.964 76.0759 156.018 49.0163 130.803C95.5095 233.752 0.555162 148.146 0.555162 148.146C0.801157 101.161 0.309165 54.0524 0.555161 6.94421Z" fill="#F2F9FF"/>
</svg>
