<svg width="170" height="257" viewBox="0 0 170 257" fill="none" xmlns="http://www.w3.org/2000/svg">
<path opacity="0.3" d="M0 255.988C3.53324 255.947 7.08755 255.798 10.6575 255.538C129.901 246.932 173.112 170.534 166.315 102.918C158.838 28.8907 86.0101 0 3.86024 0C2.56962 0 1.2828 0.0148687 0 0.0444273V255.988Z" fill="#DDEDFA"/>
<path opacity="0.3" d="M162.364 236.38C162.832 236.719 163.485 236.614 163.824 236.146L169.336 228.526C169.675 228.058 169.57 227.405 169.102 227.067C168.634 226.729 167.981 226.833 167.643 227.301L162.743 234.074L155.969 229.174C155.502 228.836 154.848 228.941 154.51 229.408C154.172 229.876 154.277 230.529 154.744 230.868L162.364 236.38ZM0.105336 175.426C0.755642 174.964 1.41313 174.511 2.07755 174.068L0.918257 172.329C0.236415 172.784 -0.438458 173.248 -1.10609 173.723L0.105336 175.426ZM6.14218 171.53C7.52033 170.724 8.92403 169.958 10.3513 169.23L9.40141 167.368C7.93934 168.114 6.50071 168.9 5.08766 169.725L6.14218 171.53ZM14.6803 167.169C16.1386 166.524 17.6181 165.915 19.1167 165.344L18.3724 163.391C16.84 163.975 15.3265 164.597 13.834 165.258L14.6803 167.169ZM23.6454 163.749C25.1648 163.257 26.7011 162.801 28.2522 162.381L27.7059 160.364C26.1224 160.792 24.5535 161.258 23.0012 161.761L23.6454 163.749ZM32.9198 161.235C34.4788 160.89 36.0505 160.581 37.633 160.306L37.2752 158.247C35.662 158.527 34.0593 158.843 32.469 159.194L32.9198 161.235ZM42.3871 159.588C43.9738 159.383 45.5692 159.213 47.1716 159.076L46.9934 156.993C45.3617 157.133 43.7367 157.307 42.1202 157.515L42.3871 159.588ZM51.9754 158.765C53.5736 158.695 55.1768 158.658 56.7833 158.653L56.7766 156.563C55.1421 156.568 53.5106 156.606 51.8839 156.677L51.9754 158.765ZM61.5952 158.734C63.1968 158.792 64.7998 158.883 66.4024 159.005L66.5609 156.921C64.9311 156.797 63.3009 156.705 61.6718 156.645L61.5952 158.734ZM71.196 159.463C72.7886 159.647 74.3792 159.861 75.966 160.106L76.2851 158.041C74.6718 157.792 73.0547 157.574 71.4353 157.387L71.196 159.463ZM80.7093 160.933C82.2848 161.239 83.8547 161.575 85.4175 161.941L85.8944 159.906C84.3054 159.534 82.7092 159.192 81.1075 158.881L80.7093 160.933ZM90.0823 163.129C91.6304 163.556 93.1696 164.012 94.6982 164.498L95.3315 162.507C93.7769 162.012 92.2116 161.548 90.6374 161.114L90.0823 163.129ZM99.2563 166.047C100.766 166.594 102.264 167.17 103.747 167.776L104.537 165.841C103.028 165.224 101.504 164.638 99.9678 164.082L99.2563 166.047ZM108.163 169.684C109.624 170.352 111.07 171.049 112.498 171.775L113.445 169.912C111.991 169.172 110.519 168.463 109.031 167.783L108.163 169.684ZM116.738 174.047C118.136 174.835 119.515 175.653 120.872 176.5L121.978 174.727C120.595 173.863 119.189 173.03 117.765 172.226L116.738 174.047ZM124.889 179.134C126.211 180.046 127.51 180.986 128.783 181.955L130.049 180.292C128.749 179.303 127.424 178.343 126.075 177.414L124.889 179.134ZM132.534 184.956C133.761 185.988 134.96 187.048 136.13 188.137L137.554 186.607C136.358 185.494 135.132 184.41 133.879 183.356L132.534 184.956ZM139.556 191.496C140.67 192.647 141.752 193.825 142.8 195.032L144.378 193.661C143.304 192.426 142.197 191.219 141.058 190.043L139.556 191.496ZM145.845 198.737C146.825 199.999 147.769 201.288 148.677 202.605L150.397 201.419C149.467 200.069 148.499 198.748 147.496 197.455L145.845 198.737ZM151.281 206.629C152.108 207.992 152.897 209.382 153.646 210.799L155.494 209.822C154.726 208.369 153.916 206.943 153.068 205.545L151.281 206.629ZM155.756 215.096C156.413 216.542 157.03 218.014 157.605 219.512L159.556 218.763C158.966 217.226 158.333 215.715 157.659 214.231L155.756 215.096ZM159.187 224.038C159.666 225.552 160.103 227.09 160.497 228.652L162.523 228.142C162.12 226.539 161.671 224.961 161.18 223.408L159.187 224.038ZM161.528 233.32C161.678 234.107 161.817 234.9 161.945 235.699L164.009 235.368C163.877 234.549 163.735 233.736 163.581 232.928L161.528 233.32Z" fill="#7058FF"/>
</svg>
