<svg width="222" height="223" viewBox="0 0 222 223" fill="none" xmlns="http://www.w3.org/2000/svg">
<path opacity="0.3" d="M151.633 112.924L150.752 113.486L150.78 113.53L150.813 113.572L151.633 112.924ZM1.85298 198.155C1.2816 198.237 0.884333 198.766 0.965664 199.337L2.29104 208.648C2.37237 209.22 2.9015 209.617 3.47288 209.536C4.04427 209.454 4.44153 208.925 4.3602 208.354L3.18209 200.077L11.4587 198.899C12.0301 198.818 12.4274 198.289 12.346 197.717C12.2647 197.146 11.7356 196.749 11.1642 196.83L1.85298 198.155ZM187.5 49.1585L187.291 50.1823L187.5 49.1585ZM1.37282 200.026C2.023 200.514 2.67764 200.993 3.33657 201.464L4.5519 199.764C3.9062 199.302 3.26474 198.832 2.62767 198.354L1.37282 200.026ZM7.34034 204.188C8.70073 205.068 10.0772 205.914 11.4684 206.726L12.5221 204.921C11.1582 204.125 9.80895 203.296 8.47562 202.433L7.34034 204.188ZM15.7006 209.07C17.1344 209.822 18.5819 210.541 20.0417 211.226L20.9297 209.334C19.4977 208.662 18.078 207.957 16.6719 207.219L15.7006 209.07ZM24.4627 213.185C25.956 213.808 27.4603 214.398 28.9743 214.955L29.6959 212.993C28.2096 212.446 26.733 211.867 25.2676 211.256L24.4627 213.185ZM33.548 216.529C35.0865 217.023 36.6333 217.485 38.1871 217.914L38.7439 215.9C37.2174 215.478 35.6979 215.024 34.187 214.539L33.548 216.529ZM42.875 219.109C44.447 219.476 46.0247 219.812 47.6065 220.116L48.0016 218.064C46.4464 217.765 44.8956 217.435 43.3505 217.074L42.875 219.109ZM52.3743 220.939C53.9691 221.182 55.5666 221.395 57.1656 221.578L57.4027 219.501C55.8297 219.322 54.2583 219.112 52.6899 218.873L52.3743 220.939ZM61.9832 222.037C63.5912 222.16 65.1993 222.253 66.8058 222.316L66.8884 220.228C65.3073 220.165 63.7249 220.074 62.1426 219.953L61.9832 222.037ZM71.6448 222.419C73.2589 222.424 74.8701 222.4 76.4768 222.347L76.4078 220.258C74.8261 220.31 73.2401 220.334 71.6513 220.329L71.6448 222.419ZM81.3064 222.1C82.919 221.989 84.5256 221.849 86.1246 221.68L85.9058 219.602C84.3316 219.768 82.75 219.906 81.1624 220.015L81.3064 222.1ZM90.9173 221.089C92.5211 220.861 94.1157 220.606 95.6994 220.322L95.331 218.265C93.7723 218.544 92.2027 218.796 90.6239 219.019L90.9173 221.089ZM100.433 219.385C102.018 219.041 103.591 218.669 105.149 218.269L104.629 216.245C103.097 216.638 101.549 217.004 99.9893 217.343L100.433 219.385ZM109.808 216.98C111.361 216.518 112.897 216.028 114.414 215.512L113.74 213.533C112.249 214.041 110.739 214.522 109.213 214.976L109.808 216.98ZM118.972 213.857C120.482 213.274 121.971 212.663 123.437 212.026L122.603 210.109C121.164 210.735 119.702 211.335 118.219 211.908L118.972 213.857ZM127.846 209.993C129.308 209.279 130.744 208.537 132.152 207.769L131.15 205.934C129.771 206.688 128.363 207.415 126.929 208.115L127.846 209.993ZM136.334 205.352C137.731 204.499 139.095 203.618 140.424 202.708L139.244 200.983C137.945 201.872 136.611 202.734 135.244 203.569L136.334 205.352ZM144.352 199.861C145.643 198.869 146.895 197.849 148.104 196.801L146.736 195.221C145.558 196.242 144.338 197.236 143.079 198.204L144.352 199.861ZM151.691 193.491C152.857 192.343 153.975 191.166 155.041 189.96L153.476 188.575C152.442 189.744 151.357 190.886 150.224 192.002L151.691 193.491ZM158.127 186.206C159.12 184.9 160.056 183.565 160.93 182.203L159.17 181.075C158.327 182.389 157.424 183.678 156.464 184.94L158.127 186.206ZM163.391 177.981C164.152 176.534 164.846 175.06 165.468 173.559L163.537 172.759C162.94 174.199 162.274 175.616 161.541 177.007L163.391 177.981ZM167.126 168.955C167.603 167.397 168.005 165.815 168.329 164.209L166.28 163.797C165.97 165.334 165.585 166.85 165.128 168.342L167.126 168.955ZM169.053 159.374C169.213 157.764 169.295 156.132 169.295 154.482L167.205 154.482C167.205 156.063 167.127 157.626 166.974 159.168L169.053 159.374ZM169.058 149.576C168.905 147.988 168.677 146.385 168.373 144.767L166.319 145.154C166.612 146.711 166.831 148.252 166.977 149.776L169.058 149.576ZM167.264 140.014C166.834 138.466 166.334 136.907 165.761 135.336L163.797 136.053C164.352 137.573 164.835 139.08 165.25 140.573L167.264 140.014ZM163.95 130.876C163.297 129.416 162.582 127.948 161.803 126.472L159.955 127.448C160.713 128.885 161.408 130.312 162.042 131.729L163.95 130.876ZM159.425 122.275C158.604 120.919 157.729 119.556 156.798 118.188L155.07 119.364C155.981 120.702 156.836 122.033 157.637 123.357L159.425 122.275ZM153.979 114.254C153.483 113.596 152.975 112.937 152.453 112.276L150.813 113.572C151.325 114.22 151.823 114.866 152.309 115.511L153.979 114.254ZM152.514 112.362C152.074 111.673 151.635 110.968 151.197 110.249L149.412 111.336C149.857 112.067 150.305 112.784 150.752 113.486L152.514 112.362ZM148.682 105.931C147.882 104.492 147.097 103.016 146.338 101.511L144.472 102.452C145.244 103.983 146.042 105.485 146.855 106.947L148.682 105.931ZM144.182 97.0051C143.497 95.4882 142.845 93.9537 142.234 92.4106L140.291 93.1796C140.914 94.7553 141.58 96.3204 142.278 97.8657L144.182 97.0051ZM140.524 87.7268C139.994 86.1359 139.517 84.5467 139.103 82.9689L137.081 83.4993C137.508 85.1248 137.998 86.7577 138.541 88.388L140.524 87.7268ZM138.031 78.1231C137.736 76.4626 137.525 74.8293 137.41 73.2347L135.325 73.3859C135.447 75.0598 135.667 76.7649 135.973 78.4884L138.031 78.1231ZM137.373 68.3469C137.48 66.6774 137.718 65.0752 138.101 63.5548L136.074 63.0445C135.656 64.7024 135.401 66.432 135.287 68.2134L137.373 68.3469ZM139.784 59.0799C140.515 57.684 141.42 56.3886 142.518 55.2098L140.99 53.7848C139.759 55.1053 138.746 56.5552 137.932 58.1112L139.784 59.0799ZM146.181 52.1841C147.456 51.3728 148.892 50.6541 150.507 50.0424L149.767 48.0879C148.029 48.7464 146.462 49.5274 145.059 50.4211L146.181 52.1841ZM155.167 48.6913C156.677 48.3692 158.301 48.12 160.048 47.9504L159.845 45.8701C158.028 46.0467 156.324 46.3073 154.731 46.6473L155.167 48.6913ZM165.014 47.6915C166.587 47.6738 168.241 47.7109 169.979 47.8061L170.093 45.7192C168.313 45.6217 166.613 45.5834 164.99 45.6016L165.014 47.6915ZM174.94 48.2137C176.521 48.3839 178.162 48.5967 179.863 48.8539L180.176 46.7874C178.446 46.526 176.776 46.3093 175.164 46.1357L174.94 48.2137ZM184.769 49.6874C185.596 49.8428 186.437 50.0077 187.291 50.1823L187.709 48.1347C186.845 47.9579 185.993 47.7908 185.154 47.6333L184.769 49.6874ZM187.291 50.1823C188.183 50.3648 189.067 50.5374 189.944 50.7001L190.325 48.6451C189.461 48.4848 188.589 48.3147 187.709 48.1347L187.291 50.1823ZM195.276 51.5843C197.102 51.8499 198.892 52.0712 200.645 52.2498L200.857 50.1705C199.134 49.9951 197.374 49.7775 195.577 49.5161L195.276 51.5843ZM206.044 52.6725C207.891 52.7725 209.696 52.823 211.46 52.8261L211.464 50.7361C209.738 50.733 207.969 50.6836 206.157 50.5856L206.044 52.6725ZM216.883 52.6817C217.798 52.6305 218.7 52.5659 219.591 52.4883L219.41 50.4062C218.541 50.4819 217.66 50.5449 216.766 50.5949L216.883 52.6817Z" fill="#7058FF"/>
<path opacity="0.3" d="M221.976 0.0523621C220.229 0.0173594 218.474 0 216.714 0C156.168 0 107 42.827 107 95.7052C107 148.583 161.573 185.917 221.976 181.671C222.06 181.666 221.892 181.66 221.976 181.654V0.0523621Z" fill="#DDEDFA"/>
</svg>
