<svg width="25" height="31" viewBox="0 0 25 31" fill="none" xmlns="http://www.w3.org/2000/svg">
<path d="M20.7162 16.2127C20.7312 15.0442 21.0416 13.8985 21.6184 12.8821C22.1953 11.8658 23.0198 11.0119 24.0153 10.3999C23.3829 9.49663 22.5486 8.75332 21.5786 8.22894C20.6087 7.70457 19.5298 7.41359 18.4277 7.37911C16.0768 7.13235 13.7977 8.78587 12.5997 8.78587C11.3785 8.78587 9.53403 7.40361 7.54781 7.44448C6.26307 7.48598 5.01099 7.85958 3.91357 8.52886C2.81614 9.19814 1.9108 10.1403 1.28575 11.2635C-1.42185 15.9513 0.597773 22.8407 3.19142 26.6299C4.48907 28.4854 6.00566 30.5581 7.99009 30.4846C9.93196 30.404 10.6572 29.2463 13.0012 29.2463C15.3235 29.2463 16.0039 30.4846 18.0286 30.4378C20.1123 30.404 21.4252 28.5741 22.6773 26.701C23.6097 25.3789 24.3271 23.9177 24.8031 22.3715C23.5925 21.8595 22.5594 21.0025 21.8327 19.9073C21.1059 18.812 20.7176 17.5271 20.7162 16.2127Z" fill="white"/>
<path d="M16.8928 4.88685C18.029 3.52296 18.5887 1.76992 18.4531 0C16.7174 0.182308 15.114 1.01189 13.9625 2.32345C13.3995 2.96418 12.9684 3.70958 12.6936 4.51706C12.4189 5.32453 12.306 6.17824 12.3614 7.02938C13.2296 7.03832 14.0885 6.85014 14.8734 6.47902C15.6583 6.1079 16.3488 5.56351 16.8928 4.88685Z" fill="white"/>
</svg>
