<svg width="25" height="25" viewBox="0 0 25 25" fill="none" xmlns="http://www.w3.org/2000/svg">
<path d="M11.1582 1.91643C15.5518 1.24414 19.9537 0.610914 24.3556 0C24.3584 3.85796 24.3556 7.71313 24.3584 11.5711C19.9593 11.5878 15.5602 11.6548 11.1582 11.6687C11.1555 8.4161 11.1555 5.16626 11.1582 1.91643ZM0 3.473C3.30842 2.96251 6.63106 2.52176 9.95343 2.10612C9.95622 5.30574 9.95622 8.50258 9.95901 11.7022C6.63943 11.6994 3.31958 11.7496 0 11.7413V3.473ZM0 12.7483C3.31707 12.7371 6.63357 12.7901 9.95036 12.7846C9.95036 15.9925 9.95873 19.2005 9.95343 22.4085C6.63943 21.9173 3.31958 21.488 0 21.0389V12.7483ZM11.1387 12.8766H24.3556C24.3612 16.7234 24.3556 20.5702 24.3556 24.4198C19.9621 23.7615 15.5602 23.1506 11.1582 22.5539C11.1527 19.3289 11.1443 16.1041 11.1387 12.8766Z" fill="white"/>
</svg>
